<?xml version="1.0" encoding="utf-8"?>
<!-- Generator: Adobe Illustrator 16.0.4, SVG Export Plug-In . SVG Version: 6.00 Build 0)  -->
<!DOCTYPE svg PUBLIC "-//W3C//DTD SVG 1.1//EN" "http://www.w3.org/Graphics/SVG/1.1/DTD/svg11.dtd">
<svg version="1.1" id="_x31_" xmlns="http://www.w3.org/2000/svg" xmlns:xlink="http://www.w3.org/1999/xlink" x="0px" y="0px"
	 width="300px" height="192.447px" viewBox="0 0 300 192.447" style="enable-background:new 0 0 300 192.447;" xml:space="preserve"
	>
<style type="text/css">
<![CDATA[
	.st0{fill:#BAA35F;}
	.st1{fill:url(#SVGID_1_);}
	.st2{fill:url(#SVGID_2_);}
	.st3{fill:url(#SVGID_3_);}
	.st4{fill:url(#SVGID_4_);}
	.st5{fill:url(#SVGID_5_);}
	.st6{fill:url(#SVGID_6_);}
	.st7{fill:url(#SVGID_7_);}
	.st8{fill:url(#SVGID_8_);}
	.st9{fill:url(#SVGID_9_);}
	.st10{fill:#FFFFFF;}
	.st11{fill:none;}
	.st12{fill:url(#SVGID_10_);}
	.st13{fill:url(#SVGID_11_);}
	.st14{fill:url(#SVGID_12_);}
	.st15{fill:url(#SVGID_13_);}
	.st16{fill:url(#SVGID_14_);}
	.st17{fill:url(#SVGID_15_);}
	.st18{fill:url(#SVGID_16_);}
	.st19{fill:url(#SVGID_17_);}
	.st20{fill:url(#SVGID_18_);}
	.st21{fill:url(#SVGID_19_);}
	.st22{fill:url(#SVGID_20_);}
	.st23{fill:url(#SVGID_21_);}
	.st24{fill:url(#SVGID_22_);}
	.st25{fill:url(#SVGID_23_);}
	.st26{fill:url(#SVGID_24_);}
	.st27{fill:url(#SVGID_25_);}
	.st28{fill:url(#SVGID_26_);}
]]>
</style>
<g>
	<path class="st11" d="M158.57,172.115c1.861,0,2.679-0.682,2.679-2.361c0-1.682-0.817-2.227-2.315-2.227
		c-0.5,0-1.113,0.023-1.499,0.047v4.541H158.57z"/>
	<path class="st11" d="M145.404,170.183c-0.159-0.498-0.318-1.135-0.454-1.838h-0.045c-0.114,0.703-0.295,1.34-0.454,1.838
		l-1.271,4.338h3.565L145.404,170.183z"/>
	<path class="st10" d="M120.071,180.333v-5.131l3.474-6.699c0.5-0.977,0.954-2.361,0.954-3.52c-0.363-0.068-0.84-0.113-1.476-0.113
		c-0.545,0-1.227,0.045-1.658,0.113c0,1.045-0.205,1.863-0.545,2.566l-1.567,3.293c-0.272,0.59-0.636,1.43-0.749,1.906h-0.022
		c-0.091-0.477-0.386-1.295-0.727-1.975l-1.521-3.135c-0.522-1.09-0.658-1.725-0.658-2.678c-0.432-0.068-1.045-0.092-1.59-0.092
		c-0.567,0-1.226,0.045-1.589,0.092c0,1.158,0.386,2.314,1.112,3.723l3.315,6.471v5.178c0.431,0.068,1.022,0.113,1.635,0.113
		C119.141,180.447,119.64,180.402,120.071,180.333z"/>
	<path class="st10" d="M126.63,164.984v15.35h9.604c0.113-0.477,0.159-0.908,0.159-1.408c0-0.635-0.068-1.113-0.159-1.361h-6.357
		v-3.77h5.199c0.114-0.477,0.159-0.887,0.159-1.385c0-0.637-0.068-1.09-0.159-1.34h-5.199v-3.314h6.153
		c0.113-0.479,0.159-0.908,0.159-1.408c0-0.637-0.068-1.113-0.159-1.363H126.63z"/>
	<path class="st10" d="M141.204,180.333l1.067-3.111h5.449l1.135,3.111c0.295,0.045,0.977,0.113,1.566,0.113
		c0.75,0,1.453-0.045,1.748-0.113l-5.744-15.35c-0.25-0.068-0.976-0.113-1.589-0.113c-0.5,0-1.249,0.045-1.567,0.113l-5.358,15.35
		c0.34,0.068,1.022,0.113,1.612,0.113C140.114,180.447,140.704,180.402,141.204,180.333z M144.451,170.183
		c0.159-0.498,0.34-1.135,0.454-1.838h0.045c0.136,0.703,0.295,1.34,0.454,1.838l1.34,4.338h-3.565L144.451,170.183z"/>
	<path class="st10" d="M157.435,174.816h1.34l3.11,5.518c0.432,0.09,1.067,0.113,1.703,0.113c0.703,0,1.316-0.045,1.907-0.137
		l-3.701-6.084c1.589-0.682,2.725-2.566,2.725-4.451c0-3.541-1.93-4.904-5.79-4.904c-1.316,0-3.496,0.045-4.541,0.113v15.35
		c0.568,0.09,1.045,0.113,1.59,0.113c0.613,0,1.09-0.023,1.657-0.113V174.816z M157.435,167.574
		c0.386-0.023,0.999-0.047,1.499-0.047c1.498,0,2.315,0.545,2.315,2.227c0,1.68-0.817,2.361-2.679,2.361h-1.136V167.574z"/>
	<path class="st10" d="M167.081,178.562c0,0.363,0.046,0.771,0.113,1.09c1.294,0.59,3.11,0.908,4.769,0.908
		c3.133,0,5.472-1.793,5.472-4.768c0-2.725-1.816-3.883-4.269-4.654c-2.043-0.637-2.884-1.068-2.884-2.135
		c0-0.908,0.931-1.477,2.634-1.477c1.045,0,2.339,0.16,3.475,0.455c0.09-0.363,0.136-1.021,0.136-1.453c0-0.59-0.046-1-0.113-1.25
		c-0.886-0.295-2.202-0.521-3.679-0.521c-3.201,0-5.631,1.566-5.631,4.383c0,2.633,1.794,3.814,4.246,4.562
		c2.202,0.682,2.929,1.158,2.929,2.293c0,1.023-0.862,1.771-2.475,1.771c-1.385,0-3.156-0.34-4.495-0.885
		C167.149,177.496,167.081,178.017,167.081,178.562z"/>
	<polygon class="st0" points="91.692,23.958 146.064,23.958 149.933,8.422 74.867,8.422 61.339,79.283 85.028,61.792 	"/>
	
		<radialGradient id="SVGID_1_" cx="-445.2217" cy="534.5562" r="1" gradientTransform="matrix(-64.5401 -112.4842 -112.4842 64.5401 31533.918 -84400.1172)" gradientUnits="userSpaceOnUse">
		<stop  offset="0" style="stop-color:#DFD4B7"/>
		<stop  offset="0.3987" style="stop-color:#BBA461"/>
		<stop  offset="0.8144" style="stop-color:#998750"/>
		<stop  offset="1" style="stop-color:#998750"/>
	</radialGradient>
	<path class="st1" d="M82.888,156.917c38.081,0,57.012-25.975,56.791-57.455c-0.217-24.213-15.63-36.762-43.806-36.762H84.868
		l0.161-0.909l0,0l0,0L61.339,79.283l0,0l-0.001,0.001l-0.025,0.147h28.396c20.253,0,27.517,7.484,27.517,22.674
		c0,22.894-11.886,38.082-35.001,38.082c-12.987,0-25.535-1.979-35.662-5.062c-1.538,3.521-2.42,7.926-2.641,12.107
		c0,1.102,0,2.201,0.221,3.523C53.168,154.716,67.039,156.917,82.888,156.917z"/>
	<rect x="73.184" y="55.815" class="st0" width="0" height="29.446"/>
	
		<radialGradient id="SVGID_2_" cx="-445.2217" cy="534.5562" r="1" gradientTransform="matrix(-64.5401 -112.4842 -112.4842 64.5401 31533.918 -84400.1172)" gradientUnits="userSpaceOnUse">
		<stop  offset="0" style="stop-color:#DFD4B7"/>
		<stop  offset="0.3987" style="stop-color:#BBA461"/>
		<stop  offset="0.8144" style="stop-color:#998750"/>
		<stop  offset="1" style="stop-color:#998750"/>
	</radialGradient>
	<rect x="73.184" y="55.815" class="st2" width="0" height="29.446"/>
	
		<radialGradient id="SVGID_3_" cx="-443.7524" cy="539.8999" r="0.9997" gradientTransform="matrix(36.2654 161.0429 161.0429 -36.2654 -70657.4922 91054.6875)" gradientUnits="userSpaceOnUse">
		<stop  offset="0" style="stop-color:#DFD4B7"/>
		<stop  offset="0.4585" style="stop-color:#BBA461"/>
		<stop  offset="0.8307" style="stop-color:#998750"/>
		<stop  offset="1" style="stop-color:#998750"/>
	</radialGradient>
	<path class="st3" d="M242.189,103.547l-0.081-0.041c0.004,0.03,0.009,0.062,0.013,0.091h-22.76
		c-0.014-0.092-0.038-0.18-0.053-0.271c-6.507,19.872-17.16,36.422-32.127,36.422c-13.648,0-19.812-10.566-19.812-35.443
		c0-37.422,15.41-83.43,39.623-83.43c17.391,0,20.033,18.053,20.033,35.442c0,4.074-0.246,8.578-0.723,13.307
		c2.772,1.853,5.119,3.773,7.105,5.717c0.383-0.447,0.852-0.932,1.42-1.423c2.462-2.13,6.789-4.406,14.093-4.51h0.001
		c0.365-4.376,0.557-8.754,0.557-13.091c0-32.799-12.549-52.611-42.486-52.611c-38.521,0-62.076,49.971-62.076,100.599
		c0,29.06,10.126,52.613,42.266,52.613C213.766,156.917,232.593,133.39,242.189,103.547z"/>
	
		<radialGradient id="SVGID_4_" cx="-443.7529" cy="539.9019" r="0.9979" gradientTransform="matrix(36.2654 161.0429 161.0429 -36.2654 -70657.4922 91054.6875)" gradientUnits="userSpaceOnUse">
		<stop  offset="0" style="stop-color:#DFD4B7"/>
		<stop  offset="0.4585" style="stop-color:#BBA461"/>
		<stop  offset="0.8307" style="stop-color:#998750"/>
		<stop  offset="1" style="stop-color:#998750"/>
	</radialGradient>
	<path class="st4" d="M234.828,73.918c2.462-2.13,6.789-4.406,14.094-4.51h-0.001C241.617,69.512,237.29,71.788,234.828,73.918z"/>
	
		<radialGradient id="SVGID_5_" cx="-443.7529" cy="539.9019" r="0.9979" gradientTransform="matrix(36.2654 161.0429 161.0429 -36.2654 -70657.4922 91054.6875)" gradientUnits="userSpaceOnUse">
		<stop  offset="0" style="stop-color:#DFD4B7"/>
		<stop  offset="0.4585" style="stop-color:#BAA35F"/>
		<stop  offset="0.7234" style="stop-color:#897A47"/>
		<stop  offset="0.8307" style="stop-color:#74683C"/>
		<stop  offset="1" style="stop-color:#74683C"/>
	</radialGradient>
	<path class="st5" d="M234.828,73.918c2.462-2.13,6.789-4.406,14.094-4.51h-0.001C241.617,69.512,237.29,71.788,234.828,73.918z"/>
	
		<radialGradient id="SVGID_6_" cx="-443.4863" cy="538.6294" r="1" gradientTransform="matrix(159.728 272.1292 272.1292 -159.728 -75691.9375 206695.0625)" gradientUnits="userSpaceOnUse">
		<stop  offset="0" style="stop-color:#DFD4B7"/>
		<stop  offset="0.3987" style="stop-color:#BBA461"/>
		<stop  offset="0.7617" style="stop-color:#8B7C49"/>
		<stop  offset="0.8121" style="stop-color:#847645"/>
		<stop  offset="1" style="stop-color:#847645"/>
	</radialGradient>
	<path class="st6" d="M244.043,97.317c0.174,3.161-0.251,5.142-0.251,5.142c5.517-12.97,9.89-28.616,32.024-33.147l-26.105-0.015
		c-0.216,0.035-0.413,0.104-0.629,0.142c0.003-0.011,0.003-0.021,0.005-0.036c-0.058,0-0.108,0.006-0.165,0.006
		C248.129,78.866,246.486,88.31,244.043,97.317z"/>
	
		<radialGradient id="SVGID_7_" cx="-443.7515" cy="539.8989" r="0.9978" gradientTransform="matrix(36.2654 161.0429 161.0429 -36.2654 -70657.4922 91054.6875)" gradientUnits="userSpaceOnUse">
		<stop  offset="0" style="stop-color:#DFD4B7"/>
		<stop  offset="0.4585" style="stop-color:#BAA35F"/>
		<stop  offset="0.7234" style="stop-color:#897A47"/>
		<stop  offset="0.8307" style="stop-color:#74683C"/>
		<stop  offset="1" style="stop-color:#74683C"/>
	</radialGradient>
	<path class="st7" d="M234.828,73.918c-0.568,0.491-1.037,0.976-1.42,1.423c8.367,8.182,10.341,16.716,10.635,21.977
		c2.443-9.008,4.086-18.451,4.879-27.909C241.617,69.512,237.29,71.788,234.828,73.918z"/>
	
		<radialGradient id="SVGID_8_" cx="-443.4824" cy="538.6235" r="1.0004" gradientTransform="matrix(159.728 272.1292 272.1292 -159.728 -75691.9375 206695.0625)" gradientUnits="userSpaceOnUse">
		<stop  offset="0" style="stop-color:#DFD4B7"/>
		<stop  offset="0.3987" style="stop-color:#BBA461"/>
		<stop  offset="0.7617" style="stop-color:#8B7C49"/>
		<stop  offset="0.8121" style="stop-color:#847645"/>
		<stop  offset="1" style="stop-color:#847645"/>
	</radialGradient>
	<path class="st8" d="M234.828,73.918c-0.568,0.491-1.037,0.976-1.42,1.423c8.367,8.182,10.341,16.716,10.635,21.977
		c2.443-9.008,4.086-18.451,4.879-27.909C241.617,69.512,237.29,71.788,234.828,73.918z"/>
	
		<radialGradient id="SVGID_9_" cx="-443.0098" cy="539.7261" r="0.9999" gradientTransform="matrix(82.8878 141.2163 141.2163 -82.8878 -39332.6133 107287.3516)" gradientUnits="userSpaceOnUse">
		<stop  offset="0" style="stop-color:#DFD4B7"/>
		<stop  offset="0.3987" style="stop-color:#BAA35F"/>
		<stop  offset="0.7062" style="stop-color:#897A47"/>
		<stop  offset="0.8307" style="stop-color:#74683C"/>
		<stop  offset="1" style="stop-color:#74683C"/>
	</radialGradient>
	<polygon class="st9" points="203.514,69.269 184.423,69.26 184.423,69.26 203.514,69.27 	"/>
	
		<radialGradient id="SVGID_10_" cx="-443.04" cy="539.7261" r="1.0409" gradientTransform="matrix(82.8878 141.2163 141.2163 -82.8878 -39332.6133 107287.3516)" gradientUnits="userSpaceOnUse">
		<stop  offset="0" style="stop-color:#DFD4B7"/>
		<stop  offset="0.3987" style="stop-color:#BAA35F"/>
		<stop  offset="0.7062" style="stop-color:#897A47"/>
		<stop  offset="0.8307" style="stop-color:#74683C"/>
		<stop  offset="1" style="stop-color:#74683C"/>
	</radialGradient>
	<path class="st12" d="M218.294,99.233c0.209,0.634,0.394,1.278,0.559,1.931C218.688,100.512,218.503,99.867,218.294,99.233z"/>
	
		<radialGradient id="SVGID_11_" cx="-443.0098" cy="539.7251" r="0.9999" gradientTransform="matrix(82.8878 141.2163 141.2163 -82.8878 -39332.6133 107287.3516)" gradientUnits="userSpaceOnUse">
		<stop  offset="0" style="stop-color:#DFD4B7"/>
		<stop  offset="0.3987" style="stop-color:#BAA35F"/>
		<stop  offset="0.7062" style="stop-color:#897A47"/>
		<stop  offset="0.8307" style="stop-color:#74683C"/>
		<stop  offset="1" style="stop-color:#74683C"/>
	</radialGradient>
	<path class="st13" d="M184.422,69.26L184.422,69.26c0.012,0.004,27.329,10.167,33.869,29.965
		C211.75,79.429,184.434,69.264,184.422,69.26z"/>
	
		<radialGradient id="SVGID_12_" cx="-443.0098" cy="539.7261" r="1" gradientTransform="matrix(82.8878 141.2163 141.2163 -82.8878 -39332.6133 107287.3516)" gradientUnits="userSpaceOnUse">
		<stop  offset="0" style="stop-color:#DFD4B7"/>
		<stop  offset="0.3987" style="stop-color:#BAA35F"/>
		<stop  offset="0.7062" style="stop-color:#897A47"/>
		<stop  offset="0.8307" style="stop-color:#74683C"/>
		<stop  offset="1" style="stop-color:#74683C"/>
	</radialGradient>
	<path class="st14" d="M219.277,103.168c-0.113-0.646-0.243-1.284-0.398-1.911C219.034,101.884,219.164,102.522,219.277,103.168z"/>
	
		<radialGradient id="SVGID_13_" cx="-443.0098" cy="539.6606" r="0.9963" gradientTransform="matrix(82.8878 141.2163 141.2163 -82.8878 -39332.6133 107287.3516)" gradientUnits="userSpaceOnUse">
		<stop  offset="0" style="stop-color:#DFD4B7"/>
		<stop  offset="0.3987" style="stop-color:#BBA461"/>
		<stop  offset="0.7617" style="stop-color:#8B7C49"/>
		<stop  offset="0.8121" style="stop-color:#847645"/>
		<stop  offset="1" style="stop-color:#847645"/>
	</radialGradient>
	<path class="st15" d="M219.277,103.168c0.009,0.053,0.021,0.104,0.031,0.157c0-0.001,0-0.002,0-0.003
		C219.301,103.27,219.286,103.22,219.277,103.168z"/>
	
		<radialGradient id="SVGID_14_" cx="-442.6353" cy="539.6646" r="0.4986" gradientTransform="matrix(82.8878 141.2163 141.2163 -82.8878 -39332.6133 107287.3516)" gradientUnits="userSpaceOnUse">
		<stop  offset="0" style="stop-color:#DFD4B7"/>
		<stop  offset="0.3987" style="stop-color:#BBA461"/>
		<stop  offset="0.7617" style="stop-color:#8B7C49"/>
		<stop  offset="0.8121" style="stop-color:#847645"/>
		<stop  offset="1" style="stop-color:#847645"/>
	</radialGradient>
	<path class="st16" d="M218.879,101.257c-0.008-0.031-0.019-0.062-0.026-0.093C218.86,101.195,218.871,101.226,218.879,101.257z"/>
	
		<radialGradient id="SVGID_15_" cx="-442.2729" cy="539.6675" r="0" gradientTransform="matrix(82.8878 141.2163 141.2163 -82.8878 -39332.6133 107287.3516)" gradientUnits="userSpaceOnUse">
		<stop  offset="0" style="stop-color:#DFD4B7"/>
		<stop  offset="0.3987" style="stop-color:#BBA461"/>
		<stop  offset="0.7617" style="stop-color:#8B7C49"/>
		<stop  offset="0.8121" style="stop-color:#847645"/>
		<stop  offset="1" style="stop-color:#847645"/>
	</radialGradient>
	<path class="st17" d="M218.294,99.233c-0.001-0.003-0.003-0.006-0.003-0.009C218.291,99.228,218.293,99.23,218.294,99.233z"/>
	
		<radialGradient id="SVGID_16_" cx="-442.5356" cy="539.5825" r="0" gradientTransform="matrix(82.8878 141.2163 141.2163 -82.8878 -39332.6133 107287.3516)" gradientUnits="userSpaceOnUse">
		<stop  offset="0" style="stop-color:#DFD4B7"/>
		<stop  offset="0.3987" style="stop-color:#BBA461"/>
		<stop  offset="0.7617" style="stop-color:#8B7C49"/>
		<stop  offset="0.8121" style="stop-color:#847645"/>
		<stop  offset="1" style="stop-color:#847645"/>
	</radialGradient>
	<rect x="184.422" y="69.26" class="st18" width="0.001" height="0"/>
	
		<radialGradient id="SVGID_17_" cx="-443.0098" cy="539.7261" r="0.9999" gradientTransform="matrix(82.8878 141.2163 141.2163 -82.8878 -39332.6133 107287.3516)" gradientUnits="userSpaceOnUse">
		<stop  offset="0" style="stop-color:#DFD4B7"/>
		<stop  offset="0.3987" style="stop-color:#BBA461"/>
		<stop  offset="0.7617" style="stop-color:#8B7C49"/>
		<stop  offset="0.8121" style="stop-color:#847645"/>
		<stop  offset="1" style="stop-color:#847645"/>
	</radialGradient>
	<path class="st19" d="M221.376,87.901c0.125,0.17,0.772,0.93,1.632,1.93c2.262,2.632,6.051,6.983,6.051,6.983l13.047,6.69
		l0.003,0.001c-0.231-1.807-0.711-4.053-2.202-6.91c-0.098-0.188-0.202-0.356-0.303-0.541c-2.562-5.493-6.104-9.937-9.924-13.52
		c-1.125-1.125-2.133-2.018-2.91-2.607c-0.004,0.024-0.01,0.046-0.012,0.07c-10.027-8.071-20.789-10.728-20.789-10.728l-2.455-0.001
		l1.42,5.417C204.934,74.687,220.914,87.287,221.376,87.901z"/>
	
		<radialGradient id="SVGID_18_" cx="-443.752" cy="540.0464" r="0.9709" gradientTransform="matrix(36.2654 161.0429 161.0429 -36.2654 -70657.4922 91054.6875)" gradientUnits="userSpaceOnUse">
		<stop  offset="0" style="stop-color:#DFD4B7"/>
		<stop  offset="0.4585" style="stop-color:#BBA461"/>
		<stop  offset="0.8307" style="stop-color:#998750"/>
		<stop  offset="1" style="stop-color:#998750"/>
	</radialGradient>
	<path class="st20" d="M242.121,103.597c-0.004-0.029-0.009-0.061-0.013-0.091l-0.003-0.001
		C242.109,103.533,242.115,103.568,242.121,103.597z"/>
	
		<radialGradient id="SVGID_19_" cx="-443.0098" cy="539.7798" r="0.9979" gradientTransform="matrix(82.8878 141.2163 141.2163 -82.8878 -39332.6133 107287.3516)" gradientUnits="userSpaceOnUse">
		<stop  offset="0" style="stop-color:#DFD4B7"/>
		<stop  offset="0.3987" style="stop-color:#BBA461"/>
		<stop  offset="0.7617" style="stop-color:#8B7C49"/>
		<stop  offset="0.8121" style="stop-color:#847645"/>
		<stop  offset="1" style="stop-color:#847645"/>
	</radialGradient>
	<path class="st21" d="M242.121,103.597c-0.004-0.029-0.009-0.061-0.013-0.091l-0.003-0.001
		C242.109,103.533,242.115,103.568,242.121,103.597z"/>
	
		<radialGradient id="SVGID_20_" cx="-443.7529" cy="539.9116" r="1.0006" gradientTransform="matrix(36.2654 161.0429 161.0429 -36.2654 -70657.4922 91054.6875)" gradientUnits="userSpaceOnUse">
		<stop  offset="0" style="stop-color:#DFD4B7"/>
		<stop  offset="0.4585" style="stop-color:#BBA461"/>
		<stop  offset="0.8307" style="stop-color:#998750"/>
		<stop  offset="1" style="stop-color:#998750"/>
	</radialGradient>
	<path class="st22" d="M219.309,103.322c0,0.001,0,0.002,0,0.003c0.015,0.092,0.039,0.18,0.053,0.271
		C219.348,103.505,219.323,103.414,219.309,103.322z"/>
	
		<radialGradient id="SVGID_21_" cx="-443.0098" cy="539.7261" r="1" gradientTransform="matrix(82.8878 141.2163 141.2163 -82.8878 -39332.6133 107287.3516)" gradientUnits="userSpaceOnUse">
		<stop  offset="0" style="stop-color:#DFD4B7"/>
		<stop  offset="0.3987" style="stop-color:#BBA461"/>
		<stop  offset="0.7617" style="stop-color:#8B7C49"/>
		<stop  offset="0.8121" style="stop-color:#847645"/>
		<stop  offset="1" style="stop-color:#847645"/>
	</radialGradient>
	<path class="st23" d="M219.309,103.322c0,0.001,0,0.002,0,0.003c0.015,0.092,0.039,0.18,0.053,0.271
		C219.348,103.505,219.323,103.414,219.309,103.322z"/>
	
		<radialGradient id="SVGID_22_" cx="-443.0098" cy="539.7261" r="1" gradientTransform="matrix(82.8878 141.2163 141.2163 -82.8878 -39332.6133 107287.3516)" gradientUnits="userSpaceOnUse">
		<stop  offset="0" style="stop-color:#DFD4B7"/>
		<stop  offset="0.3987" style="stop-color:#BAA35F"/>
		<stop  offset="0.7062" style="stop-color:#897A47"/>
		<stop  offset="0.8307" style="stop-color:#74683C"/>
		<stop  offset="1" style="stop-color:#74683C"/>
	</radialGradient>
	<path class="st24" d="M223.008,89.831c-0.859-1-1.507-1.76-1.632-1.93c-0.462-0.614-16.442-13.215-16.442-13.215l-1.42-5.417
		l-19.091-0.01h-0.001c0.012,0.004,27.328,10.169,33.869,29.965c0,0.003,0.002,0.006,0.003,0.009
		c0.209,0.634,0.394,1.278,0.559,1.931c0.008,0.031,0.019,0.062,0.026,0.093c0.155,0.627,0.285,1.266,0.398,1.911
		c0.009,0.052,0.023,0.102,0.031,0.154C220.743,98.938,221.977,94.396,223.008,89.831z"/>
	
		<radialGradient id="SVGID_23_" cx="-443.0098" cy="539.7261" r="1" gradientTransform="matrix(82.8878 141.2163 141.2163 -82.8878 -39332.6133 107287.3516)" gradientUnits="userSpaceOnUse">
		<stop  offset="0" style="stop-color:#DFD4B7"/>
		<stop  offset="0.3987" style="stop-color:#BBA461"/>
		<stop  offset="0.7617" style="stop-color:#8B7C49"/>
		<stop  offset="0.8121" style="stop-color:#847645"/>
		<stop  offset="1" style="stop-color:#847645"/>
	</radialGradient>
	<path class="st25" d="M223.008,89.831c-0.859-1-1.507-1.76-1.632-1.93c-0.462-0.614-16.442-13.215-16.442-13.215l-1.42-5.417
		l-19.091-0.01h-0.001c0.012,0.004,27.328,10.169,33.869,29.965c0,0.003,0.002,0.006,0.003,0.009
		c0.209,0.634,0.394,1.278,0.559,1.931c0.008,0.031,0.019,0.062,0.026,0.093c0.155,0.627,0.285,1.266,0.398,1.911
		c0.009,0.052,0.023,0.102,0.031,0.154C220.743,98.938,221.977,94.396,223.008,89.831z"/>
	
		<radialGradient id="SVGID_24_" cx="-443.7554" cy="539.8999" r="1.0046" gradientTransform="matrix(36.2654 161.0429 161.0429 -36.2654 -70657.4922 91054.6875)" gradientUnits="userSpaceOnUse">
		<stop  offset="0" style="stop-color:#DFD4B7"/>
		<stop  offset="0.4585" style="stop-color:#BAA35F"/>
		<stop  offset="0.7234" style="stop-color:#897A47"/>
		<stop  offset="0.8307" style="stop-color:#74683C"/>
		<stop  offset="1" style="stop-color:#74683C"/>
	</radialGradient>
	<path class="st26" d="M229.059,96.814c0,0-3.789-4.352-6.051-6.983c-1.031,4.564-2.265,9.107-3.699,13.491
		c0.015,0.092,0.039,0.183,0.053,0.274h22.76c-0.006-0.028-0.012-0.063-0.016-0.092L229.059,96.814z"/>
	
		<radialGradient id="SVGID_25_" cx="-443.0098" cy="539.7261" r="1" gradientTransform="matrix(82.8878 141.2163 141.2163 -82.8878 -39332.6133 107287.3516)" gradientUnits="userSpaceOnUse">
		<stop  offset="0" style="stop-color:#DFD4B7"/>
		<stop  offset="0.3987" style="stop-color:#BAA35F"/>
		<stop  offset="0.7062" style="stop-color:#897A47"/>
		<stop  offset="0.8307" style="stop-color:#74683C"/>
		<stop  offset="1" style="stop-color:#74683C"/>
	</radialGradient>
	<path class="st27" d="M229.059,96.814c0,0-3.789-4.352-6.051-6.983c-1.031,4.564-2.265,9.107-3.699,13.491
		c0.015,0.092,0.039,0.183,0.053,0.274h22.76c-0.006-0.028-0.012-0.063-0.016-0.092L229.059,96.814z"/>
	
		<radialGradient id="SVGID_26_" cx="-443.0098" cy="539.7261" r="1" gradientTransform="matrix(82.8878 141.2163 141.2163 -82.8878 -39332.6133 107287.3516)" gradientUnits="userSpaceOnUse">
		<stop  offset="0" style="stop-color:#DFD4B7"/>
		<stop  offset="0.3987" style="stop-color:#BBA461"/>
		<stop  offset="0.7617" style="stop-color:#8B7C49"/>
		<stop  offset="0.8121" style="stop-color:#847645"/>
		<stop  offset="1" style="stop-color:#847645"/>
	</radialGradient>
	<path class="st28" d="M229.059,96.814c0,0-3.789-4.352-6.051-6.983c-1.031,4.564-2.265,9.107-3.699,13.491
		c0.015,0.092,0.039,0.183,0.053,0.274h22.76c-0.006-0.028-0.012-0.063-0.016-0.092L229.059,96.814z"/>
</g>
</svg>
