<?xml version="1.0" encoding="utf-8"?>
<!DOCTYPE svg PUBLIC "-//W3C//DTD SVG 1.1//EN" "http://www.w3.org/Graphics/SVG/1.1/DTD/svg11.dtd">
<svg version="1.1" id="Layer_1" xmlns="http://www.w3.org/2000/svg" xmlns:xlink="http://www.w3.org/1999/xlink" x="0px" y="0px"
	 width="466.667px" height="156.667px" viewBox="0 0 466.667 156.667" style="enable-background:new 0 0 466.667 156.667;"
	 xml:space="preserve">
<style type="text/css">
<![CDATA[
	.st0{clip-path:url(#SVGID_2_);fill:url(#SVGID_3_);}
	.st1{fill:#1D1D1B;}
	.st2{fill:#B9A25F;}
	.st3{clip-path:url(#SVGID_11_);fill:url(#SVGID_12_);}
	.st4{clip-path:url(#SVGID_14_);fill:url(#SVGID_15_);}
	.st5{clip-path:url(#SVGID_5_);fill:url(#SVGID_6_);}
	.st6{clip-path:url(#SVGID_17_);fill:url(#SVGID_18_);}
	.st7{fill:#FFFFFF;}
	.st8{clip-path:url(#SVGID_8_);fill:url(#SVGID_9_);}
	.st9{clip-path:url(#SVGID_20_);fill:url(#SVGID_21_);}
	.st10{clip-path:url(#SVGID_23_);fill:url(#SVGID_24_);}
	.st11{clip-path:url(#SVGID_26_);fill:url(#SVGID_27_);}
]]>
</style>
<g>
	<defs>
		<path id="SVGID_1_" d="M232.681,69.886l0.001,0.003c0,0-0.011-0.003-0.013-0.003h-2.972c-10.803,0-24.591,5.403-32.268,34.864
			c39.068,0.102,182.335,0.443,204.833,0.443c45.975,0,58.127-35.307,58.127-35.307H232.681z"/>
	</defs>
	<clipPath id="SVGID_2_">
		<use xlink:href="#SVGID_1_"  style="overflow:visible;"/>
	</clipPath>

		<radialGradient id="SVGID_3_" cx="-195.3091" cy="385.0225" r="1" gradientTransform="matrix(173.0303 169.8915 169.8915 -173.0303 -31370.9629 99765.7188)" gradientUnits="userSpaceOnUse">
		<stop  offset="0" style="stop-color:#DFD3B6"/>
		<stop  offset="0.3987" style="stop-color:#BAA361"/>
		<stop  offset="0.8144" style="stop-color:#988650"/>
		<stop  offset="1" style="stop-color:#988650"/>
	</radialGradient>
	<polygon class="st0" points="326.502,-61.572 478.04,87.217 331.316,236.651 179.779,87.863 	"/>
</g>
<g>
	<polygon class="st2" points="100.337,21.97 103.916,7.6 34.481,7.6 21.967,73.146 43.879,56.966 50.044,21.97 	"/>
</g>
<g>
	<defs>
		<path id="SVGID_4_" d="M21.967,73.146l-0.023,0.136H48.21c18.733,0,25.453,6.923,25.453,20.973
			c0,21.177-10.996,35.227-32.375,35.227c-12.015,0-23.62-1.831-32.987-4.684c-1.425,3.259-2.24,7.33-2.443,11.199
			c0,1.019,0,2.036,0.203,3.259c8.349,3.664,21.177,5.7,35.837,5.7c35.227,0,52.738-24.027,52.534-53.144
			c-0.204-22.399-14.457-34.005-40.52-34.005H43.731l0.149-0.842L21.967,73.146z"/>
	</defs>
	<clipPath id="SVGID_5_">
		<use xlink:href="#SVGID_4_"  style="overflow:visible;"/>
	</clipPath>

		<radialGradient id="SVGID_6_" cx="-195.3687" cy="384.9434" r="1" gradientTransform="matrix(-59.6986 -104.0461 -104.0461 59.6986 28482.7969 -43141.1523)" gradientUnits="userSpaceOnUse">
		<stop  offset="0" style="stop-color:#DFD3B6"/>
		<stop  offset="0.3987" style="stop-color:#BAA361"/>
		<stop  offset="0.8144" style="stop-color:#988650"/>
		<stop  offset="1" style="stop-color:#988650"/>
	</radialGradient>
	<polygon class="st5" points="27.847,183.278 -32.124,78.758 72.648,18.643 132.619,123.163 	"/>
</g>
<g>
	<path class="st1" d="M266.833,16.117l-18.451,26.757l-3.411,19.852c-1.573,0.264-3.322,0.437-5.334,0.437
		c-1.924,0-3.761-0.173-5.247-0.437l3.672-20.987l-7.87-24.486c-1.224-3.673-1.748-7.171-1.748-9.969
		c0-1.312,0.175-2.537,0.35-3.673c1.398-0.175,3.061-0.35,4.81-0.35c1.662,0,3.411,0.086,4.81,0.35
		c-0.175,1.049-0.262,2.185-0.262,3.323c0,2.449,0.437,4.897,1.398,8.045l3.236,10.582c0.874,2.799,1.661,5.509,2.011,7.783h0.175
		c1.051-2.186,2.624-4.635,4.198-6.91l8.657-12.679c1.924-2.799,3.41-6.733,4.022-10.144c1.486-0.264,3.411-0.437,5.072-0.437
		c1.836,0,3.322,0.173,4.722,0.437C271.032,8.333,269.544,12.181,266.833,16.117"/>
	<path class="st1" d="M305.663,62.726H269.72L280.127,3.61h34.63c0.087,0.35,0.087,0.875,0.087,1.4c0,2.448-0.699,4.983-1.66,7.432
		h-24.048l-2.712,15.391h20.55c0.088,0.438,0.088,0.963,0.088,1.576c0,2.272-0.613,4.897-1.662,7.257h-20.55l-2.974,17.228h25.098
		c0.088,0.612,0.088,1.311,0.088,1.661C307.062,58.179,306.538,60.714,305.663,62.726"/>
	<path class="st1" d="M363.818,62.726c-1.05,0.263-3.148,0.437-5.422,0.437c-1.749,0-4.548-0.174-5.684-0.437l-1.926-13.555h-20.461
		l-6.646,13.555c-1.576,0.263-3.762,0.437-5.773,0.437c-1.749,0-4.721-0.174-5.858-0.437L341.955,3.61
		c1.399-0.264,4.023-0.437,5.511-0.437c1.572,0,4.109,0.173,5.509,0.437L363.818,62.726z M349.476,40.426l-2.537-16.264
		c-0.35-2.187-0.699-4.811-0.961-7.872h-0.35c-1.225,3.061-2.188,5.247-3.587,8.222l-7.519,15.914H349.476z"/>
	<path class="st1" d="M412.79,62.726c-1.484,0.263-3.41,0.437-5.596,0.437c-2.012,0-4.112-0.174-5.684-0.437l-8.745-22.473h-6.734
		l-3.936,22.473c-1.922,0.263-3.585,0.437-5.509,0.437c-1.749,0-3.409-0.174-5.072-0.437L381.921,3.61
		c3.672-0.174,11.194-0.436,15.564-0.436c11.806,0,19.416,3.848,19.416,15.478c0,8.22-4.636,17.753-14.431,20.113L412.79,62.726z
		 M406.144,19.088c0-5.597-3.322-7.519-9.008-7.519c-2.012,0-5.07,0.087-6.384,0.173l-3.233,19.939h5.856
		C401.333,31.681,406.144,26.959,406.144,19.088"/>
	<path class="st1" d="M437.191,63.601c-6.907,0-13.467-1.399-18.189-3.498c0-1.311,0-2.624,0.262-3.936
		c0.264-1.749,0.788-3.498,1.487-5.159c4.46,2.099,11.369,3.587,16.18,3.587c8.132,0,12.329-2.799,12.329-8.572
		c0-5.159-2.712-6.733-9.357-9.706c-9.007-4.023-13.729-9.27-13.729-17.052c0-10.144,8.133-16.529,21.862-16.529
		c5.686,0,10.583,1.05,14.431,2.361c0.086,0.876,0,2.712-0.264,4.024c-0.263,1.572-0.699,3.148-1.312,4.634
		c-3.498-1.313-8.396-2.362-12.416-2.362c-6.734,0-11.282,2.187-11.282,7.172c0,3.76,2.188,6.47,9.445,9.795
		c7.783,3.584,13.467,6.996,13.467,16.702C460.103,55.644,452.669,63.601,437.191,63.601"/>
</g>
<g>
	<path class="st7" d="M258.188,78.906c0,0.704-0.182,1.317-0.432,1.839c-0.84-0.34-2.021-0.636-3.178-0.636
		c-2.725,0-5.858,2.112-5.858,7.266c0,2.748,1.453,3.815,4.019,3.815c0.954,0,2.248-0.205,3.179-0.455
		c0.068,0.387,0.114,0.841,0.114,1.295c0,0.363-0.023,0.727-0.092,1.021c-0.953,0.295-2.406,0.5-3.678,0.5
		c-4.382,0-6.402-2.316-6.402-5.995c0-6.199,3.973-9.809,8.65-9.809c1.453,0,2.701,0.34,3.655,0.794
		C258.188,78.68,258.188,78.815,258.188,78.906z"/>
	<path class="st7" d="M267.792,88.284h-7.288v0.431c0.022,1.839,0.886,2.793,2.838,2.793c1.204,0,2.18-0.159,3.021-0.386
		c0.113,0.658,0.136,1.385,0.067,1.952c-0.908,0.318-2.065,0.478-3.587,0.478c-3.383,0-5.041-1.885-5.041-4.95
		c0-3.724,1.976-7.334,6.289-7.334c2.702,0,4.11,1.635,4.11,4.201C268.201,86.286,268.042,87.353,267.792,88.284z M265.543,86.286
		c0.046-0.227,0.092-0.613,0.092-0.908c0-1.135-0.363-2.089-1.794-2.089c-1.771,0-2.747,1.453-3.021,2.997H265.543z"/>
	<path class="st7" d="M271.81,93.324c-0.386,0.068-0.976,0.113-1.362,0.113c-0.432,0-0.908-0.045-1.271-0.113l2.93-16.575
		c0.453-0.068,0.931-0.091,1.316-0.091c0.454,0,0.953,0.023,1.316,0.091L271.81,93.324z"/>
	<path class="st7" d="M284.933,88.284h-7.288v0.431c0.022,1.839,0.886,2.793,2.838,2.793c1.203,0,2.18-0.159,3.02-0.386
		c0.114,0.658,0.137,1.385,0.068,1.952c-0.908,0.318-2.066,0.478-3.587,0.478c-3.384,0-5.041-1.885-5.041-4.95
		c0-3.724,1.976-7.334,6.29-7.334c2.701,0,4.109,1.635,4.109,4.201C285.342,86.286,285.183,87.353,284.933,88.284z M282.686,86.286
		c0.045-0.227,0.09-0.613,0.09-0.908c0-1.135-0.363-2.089-1.793-2.089c-1.771,0-2.748,1.453-3.02,2.997H282.686z"/>
	<path class="st7" d="M291.04,93.552c-1.726,0-3.542-0.273-4.677-0.727l2.838-16.076c0.363-0.068,0.84-0.091,1.294-0.091
		c0.522,0,1.045,0.023,1.34,0.091l-0.977,5.654c0.795-0.636,2.021-1.136,3.088-1.136c2.793,0,3.86,2.021,3.86,4.405
		C297.806,89.714,295.808,93.552,291.04,93.552z M295.082,85.945c0-1.34-0.432-2.475-1.953-2.475c-0.84,0-1.952,0.431-2.679,1.09
		l-1.181,6.766c0.454,0.136,1.249,0.204,1.861,0.204C293.764,91.53,295.082,88.852,295.082,85.945z"/>
	<path class="st7" d="M307.046,83.743c-1.226,0.114-2.906,0.659-4.019,1.453l-1.408,8.128c-0.34,0.091-0.885,0.113-1.34,0.113
		c-0.453,0-0.998-0.045-1.294-0.113l2.089-11.829c0.318-0.068,0.727-0.114,1.09-0.114c0.341,0,0.795,0.045,1.067,0.114l-0.136,1.771
		h0.022c0.976-0.999,2.906-1.975,4.359-1.998C307.456,81.994,307.274,83.13,307.046,83.743z"/>
	<path class="st7" d="M318.739,82.153l-1.294,6.902c-0.25,1.294-0.363,2.838-0.409,4.269c-0.34,0.091-0.816,0.113-1.157,0.113
		c-0.363,0-0.817-0.045-1.09-0.113c-0.046-0.499-0.046-1.136-0.046-1.657h-0.022c-0.772,1.066-1.998,1.885-3.587,1.885
		c-2.18,0-3.633-1.612-3.633-4.405c0-4.586,3.133-7.879,7.038-7.879C316.264,81.268,317.786,81.654,318.739,82.153z M315.833,83.516
		c-0.363-0.113-0.84-0.204-1.385-0.204c-2.384,0-4.223,2.429-4.223,5.631c0,1.68,0.612,2.384,1.611,2.384
		c1.113,0,2.135-0.727,2.906-1.93L315.833,83.516z"/>
	<path class="st7" d="M326.572,93.233c-0.658,0.182-1.431,0.341-2.565,0.341c-2.361,0-3.293-1.022-3.293-2.565
		c0-0.363,0.114-1.249,0.341-2.521l0.908-5.063h-1.93c-0.046-0.272-0.022-0.681,0.022-0.954c0.046-0.25,0.159-0.613,0.272-0.84
		l1.976-0.113l0.522-3.065c0.317-0.068,0.908-0.091,1.339-0.091c0.455,0,1,0.023,1.295,0.091l-0.522,3.043h3.36
		c0.045,0.272,0,0.636-0.045,0.885c-0.046,0.272-0.182,0.772-0.296,1.044h-3.36l-0.977,5.381c-0.113,0.568-0.204,1.295-0.204,1.658
		c0,0.612,0.363,1.021,1.227,1.021c0.727,0,1.453-0.113,2.043-0.272C326.753,91.825,326.685,92.711,326.572,93.233z"/>
	<path class="st7" d="M338.241,88.284h-7.288v0.431c0.022,1.839,0.886,2.793,2.838,2.793c1.204,0,2.18-0.159,3.021-0.386
		c0.113,0.658,0.136,1.385,0.067,1.952c-0.908,0.318-2.065,0.478-3.587,0.478c-3.383,0-5.041-1.885-5.041-4.95
		c0-3.724,1.976-7.334,6.289-7.334c2.702,0,4.11,1.635,4.11,4.201C338.65,86.286,338.491,87.353,338.241,88.284z M335.993,86.286
		c0.046-0.227,0.092-0.613,0.092-0.908c0-1.135-0.363-2.089-1.794-2.089c-1.771,0-2.747,1.453-3.021,2.997H335.993z"/>
	<path class="st7" d="M360.127,84.878l-3.904,8.446c-0.318,0.091-0.977,0.113-1.363,0.113c-0.431,0-1.09-0.045-1.385-0.113
		l-0.749-7.924h-0.022l-3.656,7.924c-0.317,0.068-0.908,0.113-1.294,0.113c-0.431,0-1.067-0.045-1.316-0.113l-1.112-9.082
		c-0.092-0.795-0.114-1.703,0.067-2.747c0.363-0.068,0.817-0.114,1.249-0.114s1.021,0.045,1.316,0.114
		c-0.136,0.862-0.182,1.839-0.113,2.747l0.409,6.04h0.045l3.814-8.765c0.296-0.045,0.772-0.113,1.204-0.113
		c0.386,0,0.771,0.045,1.044,0.113l0.908,8.854h0.046l2.52-6.198c0.363-0.862,0.727-1.793,0.863-2.679
		c0.317-0.068,0.885-0.114,1.271-0.114c0.454,0,0.977,0.045,1.226,0.114C361.082,82.676,360.65,83.743,360.127,84.878z"/>
	<path class="st7" d="M363.874,93.324c-0.408,0.091-0.999,0.113-1.362,0.113c-0.432,0-0.908-0.045-1.249-0.113l2.066-11.829
		c0.432-0.068,0.908-0.114,1.294-0.114c0.454,0,0.931,0.045,1.317,0.114L363.874,93.324z M364.986,79.747
		c-0.817,0-1.339-0.613-1.339-1.317c0-1.067,0.727-1.68,1.68-1.68c0.749,0,1.408,0.568,1.385,1.294
		C366.711,79.043,366.098,79.747,364.986,79.747z"/>
	<path class="st7" d="M373.863,93.233c-0.658,0.182-1.431,0.341-2.565,0.341c-2.361,0-3.293-1.022-3.293-2.565
		c0-0.363,0.114-1.249,0.341-2.521l0.908-5.063h-1.93c-0.046-0.272-0.022-0.681,0.022-0.954c0.046-0.25,0.159-0.613,0.272-0.84
		l1.976-0.113l0.522-3.065c0.317-0.068,0.908-0.091,1.339-0.091c0.455,0,1,0.023,1.295,0.091l-0.522,3.043h3.36
		c0.045,0.272,0,0.636-0.045,0.885c-0.046,0.272-0.182,0.772-0.296,1.044h-3.36l-0.977,5.381c-0.113,0.568-0.204,1.295-0.204,1.658
		c0,0.612,0.363,1.021,1.227,1.021c0.727,0,1.453-0.113,2.043-0.272C374.044,91.825,373.976,92.711,373.863,93.233z"/>
	<path class="st7" d="M380.243,82.494c1.045-0.704,2.248-1.227,3.701-1.227c1.861,0,3.338,0.977,3.338,2.929
		c0,0.59-0.137,1.567-0.363,2.77l-1.136,6.357c-0.341,0.091-0.908,0.113-1.271,0.113c-0.386,0-0.977-0.045-1.34-0.113l1.136-6.267
		c0.158-0.84,0.227-1.589,0.227-1.953c0-1.067-0.636-1.567-1.703-1.567c-1.112,0-2.18,0.5-2.974,1.09l-1.544,8.696
		c-0.454,0.068-1.021,0.113-1.408,0.113c-0.363,0-0.84-0.022-1.226-0.113l2.929-16.575c0.341-0.068,0.863-0.091,1.316-0.091
		c0.455,0,1,0.023,1.317,0.091L380.243,82.494z"/>
	<path class="st7" d="M403.832,88.533c-0.613,3.61-1.885,5.041-5.563,5.041c-2.929,0-4.359-0.999-4.359-3.134
		c0-0.521,0.137-1.521,0.296-2.361l1.181-6.584c0.317-0.068,0.84-0.114,1.316-0.114c0.454,0,0.977,0.023,1.317,0.114l-1.158,6.562
		c-0.136,0.749-0.25,1.544-0.25,1.907c0,1.067,0.454,1.612,1.839,1.612c1.84,0,2.453-1.045,2.839-3.338l1.135-6.743
		c0.318-0.091,0.886-0.114,1.34-0.114s0.999,0.045,1.271,0.114L403.832,88.533z"/>
	<path class="st7" d="M409.076,93.574c-1.249,0-2.634-0.204-3.587-0.591c0-0.59,0.136-1.362,0.363-1.975
		c0.84,0.363,2.043,0.612,3.155,0.612c1.249,0,2.565-0.317,2.565-1.566c0-0.908-1.021-1.271-2.27-1.907
		c-1.635-0.84-2.476-1.771-2.476-3.292c0-2.521,2.226-3.588,4.769-3.588c0.953,0,2.134,0.205,2.793,0.432
		c0.022,0.113,0.022,0.227,0.022,0.341c0,0.545-0.159,1.135-0.386,1.612c-0.772-0.25-1.703-0.409-2.589-0.409
		c-0.954,0-2.044,0.295-2.044,1.385c0,0.772,0.659,1.227,1.84,1.839c1.68,0.885,2.883,1.567,2.883,3.383
		C414.116,92.394,412.028,93.574,409.076,93.574z"/>
</g>
<g>
	<path class="st1" d="M200.127,131.593l-1.548,8.257c-0.298,1.549-0.435,3.396-0.489,5.106c-0.407,0.108-0.978,0.136-1.385,0.136
		c-0.435,0-0.978-0.055-1.304-0.136c-0.054-0.598-0.054-1.358-0.054-1.982h-0.027c-0.924,1.276-2.391,2.254-4.292,2.254
		c-2.607,0-4.346-1.929-4.346-5.27c0-5.486,3.748-9.424,8.419-9.424C197.167,130.534,198.986,130.995,200.127,131.593z
		 M196.65,133.223c-0.435-0.136-1.005-0.244-1.657-0.244c-2.852,0-5.052,2.906-5.052,6.735c0,2.01,0.733,2.852,1.928,2.852
		c1.331,0,2.553-0.869,3.477-2.309L196.65,133.223z"/>
	<path class="st1" d="M209.467,144.848c-0.788,0.217-1.711,0.407-3.069,0.407c-2.825,0-3.938-1.223-3.938-3.069
		c0-0.435,0.136-1.494,0.407-3.015l1.086-6.057h-2.309c-0.054-0.326-0.027-0.815,0.027-1.141c0.054-0.299,0.19-0.733,0.326-1.005
		l2.363-0.136l0.625-3.667c0.38-0.082,1.086-0.108,1.603-0.108c0.543,0,1.195,0.026,1.548,0.108l-0.625,3.64h4.02
		c0.054,0.325,0,0.76-0.055,1.059c-0.054,0.326-0.217,0.924-0.353,1.25h-4.02l-1.168,6.437c-0.136,0.68-0.245,1.549-0.245,1.983
		c0,0.733,0.435,1.222,1.467,1.222c0.869,0,1.738-0.136,2.444-0.326C209.685,143.163,209.603,144.223,209.467,144.848z"/>
</g>
<g>
	<path class="st1" d="M242.789,116.77c0,1.376-0.354,2.575-0.843,3.596c-1.643-0.666-3.95-1.243-6.215-1.243
		c-5.326,0-11.452,4.128-11.452,14.204c0,5.371,2.84,7.457,7.856,7.457c1.865,0,4.396-0.399,6.215-0.888
		c0.133,0.755,0.222,1.643,0.222,2.53c0,0.71-0.044,1.421-0.177,1.998c-1.864,0.576-4.705,0.977-7.191,0.977
		c-8.567,0-12.517-4.528-12.517-11.719c0-12.118,7.767-19.176,16.912-19.176c2.841,0,5.282,0.666,7.146,1.554
		C242.789,116.326,242.789,116.592,242.789,116.77z"/>
	<path class="st1" d="M243.545,134.037c0-11.098,6.304-19.531,14.826-19.531c6.436,0,10.608,4.217,10.608,11.363
		c0,11.097-6.303,19.531-14.825,19.531C247.718,145.4,243.545,141.183,243.545,134.037z M263.387,126.18
		c0-4.749-1.643-7.146-5.326-7.146c-5.46,0-8.922,7.635-8.922,14.692c0,4.75,1.642,7.146,5.326,7.146
		C259.925,140.872,263.387,133.237,263.387,126.18z"/>
	<path class="st1" d="M276.352,114.95c0.799-0.134,1.731-0.223,2.663-0.223c0.977,0,1.953,0.089,2.708,0.223l-4.527,25.522h13.095
		c0.044,0.311,0.044,0.666,0.044,0.844c0,1.331-0.267,2.619-0.71,3.64H271.07L276.352,114.95z"/>
	<path class="st1" d="M312.176,144.956h-18.244l5.282-30.006h17.578c0.044,0.178,0.044,0.443,0.044,0.71
		c0,1.243-0.354,2.53-0.843,3.772h-12.207l-1.376,7.812h10.431c0.045,0.222,0.045,0.488,0.045,0.799
		c0,1.154-0.311,2.486-0.844,3.685h-10.431l-1.51,8.744h12.739c0.045,0.311,0.045,0.666,0.045,0.844
		C312.886,142.647,312.62,143.936,312.176,144.956z"/>
	<path class="st1" d="M338.412,144.956c-0.754,0.133-1.73,0.222-2.841,0.222c-1.021,0-2.086-0.089-2.885-0.222l-4.439-11.407h-3.417
		l-1.998,11.407c-0.977,0.133-1.819,0.222-2.796,0.222c-0.888,0-1.731-0.089-2.575-0.222l5.282-30.006
		c1.864-0.089,5.682-0.223,7.901-0.223c5.992,0,9.854,1.953,9.854,7.857c0,4.172-2.354,9.011-7.324,10.209L338.412,144.956z
		 M335.039,122.807c0-2.841-1.687-3.817-4.572-3.817c-1.021,0-2.574,0.044-3.24,0.089l-1.643,10.12h2.975
		C332.597,129.198,335.039,126.802,335.039,122.807z"/>
	<path class="st1" d="M367.132,144.956c-0.532,0.133-1.598,0.222-2.752,0.222c-0.888,0-2.308-0.089-2.885-0.222l-0.977-6.88h-10.387
		l-3.374,6.88c-0.799,0.133-1.908,0.222-2.93,0.222c-0.888,0-2.396-0.089-2.974-0.222l15.181-30.006
		c0.71-0.134,2.042-0.223,2.796-0.223c0.8,0,2.087,0.089,2.797,0.223L367.132,144.956z M359.853,133.637l-1.287-8.256
		c-0.178-1.109-0.355-2.441-0.488-3.995H357.9c-0.621,1.554-1.109,2.664-1.82,4.173l-3.817,8.078H359.853z"/>
	<path class="st1" d="M376.501,144.956c-0.799,0.133-1.687,0.222-2.708,0.222c-0.977,0-1.908-0.089-2.663-0.222l5.282-30.006
		c0.799-0.134,1.82-0.223,2.752-0.223c0.977,0,1.864,0.089,2.619,0.223L376.501,144.956z"/>
	<path class="st1" d="M406.109,144.956c-0.443,0.133-1.287,0.178-1.953,0.178c-0.621,0-1.376-0.045-1.908-0.178l-10.476-21.483
		l-3.729,21.483c-0.444,0.133-1.731,0.222-2.575,0.222c-0.754,0-1.775-0.089-2.353-0.222l5.282-30.006
		c0.533-0.089,1.465-0.178,2.087-0.178c0.71,0,1.598,0.044,2.13,0.178l10.21,20.729l3.64-20.729
		c0.665-0.134,1.775-0.223,2.485-0.223s1.82,0.089,2.441,0.223L406.109,144.956z"/>
	<path class="st1" d="M430.881,144.956h-18.244l5.282-30.006h17.578c0.044,0.178,0.044,0.443,0.044,0.71
		c0,1.243-0.354,2.53-0.843,3.772h-12.207l-1.376,7.812h10.431c0.045,0.222,0.045,0.488,0.045,0.799
		c0,1.154-0.311,2.486-0.844,3.685h-10.431l-1.51,8.744h12.739c0.045,0.311,0.045,0.666,0.045,0.844
		C431.591,142.647,431.325,143.936,430.881,144.956z"/>
</g>
<g>
	<defs>
		<path id="SVGID_7_" d="M99.274,96.291c0,26.879,9.366,48.665,39.095,48.665c24.59,0,42.006-21.763,50.883-49.367l-0.079-0.041
			c0.003,0.028,0.011,0.061,0.014,0.088h-21.05c-0.013-0.088-0.036-0.168-0.05-0.254c-6.017,18.382-15.873,33.691-29.718,33.691
			c-12.624,0-18.326-9.771-18.326-32.782c0-34.615,14.254-77.171,36.652-77.171c16.085,0,18.529,16.696,18.529,32.782
			c0,3.768-0.227,7.934-0.667,12.308c2.564,1.714,4.735,3.491,6.572,5.288c1.89-2.207,6.033-5.368,14.349-5.487
			c0.339-4.048,0.515-8.098,0.515-12.109c0-30.339-11.606-48.665-39.298-48.665C121.062,3.237,99.274,49.458,99.274,96.291"/>
	</defs>
	<clipPath id="SVGID_8_">
		<use xlink:href="#SVGID_7_"  style="overflow:visible;"/>
	</clipPath>

		<radialGradient id="SVGID_9_" cx="-195.3198" cy="385.0508" r="0.9995" gradientTransform="matrix(33.5449 148.9622 148.9622 -33.5449 -50658.8516 42022.6484)" gradientUnits="userSpaceOnUse">
		<stop  offset="0" style="stop-color:#DFD3B6"/>
		<stop  offset="0.4585" style="stop-color:#BAA361"/>
		<stop  offset="0.8307" style="stop-color:#988650"/>
		<stop  offset="1" style="stop-color:#988650"/>
	</radialGradient>
	<polygon class="st8" points="191.326,-17.492 226.368,138.116 103.942,165.686 68.901,10.077 	"/>
</g>
<g>
	<defs>
		<path id="SVGID_10_" d="M181.129,69.498c7.74,7.567,9.565,15.463,9.836,20.328c2.262-8.33,3.781-17.066,4.513-25.815
			C187.163,64.13,183.02,67.291,181.129,69.498"/>
	</defs>
	<clipPath id="SVGID_11_">
		<use xlink:href="#SVGID_10_"  style="overflow:visible;"/>
	</clipPath>

		<radialGradient id="SVGID_12_" cx="-195.3203" cy="385.0508" r="1" gradientTransform="matrix(33.5449 148.9622 148.9622 -33.5449 -50658.8516 42022.6484)" gradientUnits="userSpaceOnUse">
		<stop  offset="0" style="stop-color:#DFD3B6"/>
		<stop  offset="0.4585" style="stop-color:#B8A25F"/>
		<stop  offset="0.8307" style="stop-color:#74673C"/>
		<stop  offset="1" style="stop-color:#74673C"/>
	</radialGradient>
	<polygon class="st3" points="194.786,60.936 201.011,88.58 181.822,92.901 175.597,65.257 	"/>
</g>
<g>
	<defs>
		<path id="SVGID_13_" d="M195.629,64.039c0.001-0.009,0.001-0.022,0.003-0.034c-0.053,0.001-0.101,0.005-0.154,0.006
			c-8.316,0.119-12.459,3.28-14.349,5.487c7.74,7.567,9.565,15.463,9.836,20.328c0.162,2.925-0.231,4.756-0.231,4.756
			c5.102-11.997,9.146-26.47,29.62-30.661l-24.145-0.013C196.009,63.94,195.828,64.004,195.629,64.039"/>
	</defs>
	<clipPath id="SVGID_14_">
		<use xlink:href="#SVGID_13_"  style="overflow:visible;"/>
	</clipPath>

		<radialGradient id="SVGID_15_" cx="-195.3169" cy="385.0205" r="1" gradientTransform="matrix(147.7459 251.7153 251.7153 -147.7459 -68049.4453 106027.2109)" gradientUnits="userSpaceOnUse">
		<stop  offset="0" style="stop-color:#DFD3B6"/>
		<stop  offset="0.3987" style="stop-color:#BAA361"/>
		<stop  offset="0.8121" style="stop-color:#837646"/>
		<stop  offset="1" style="stop-color:#837646"/>
	</radialGradient>
	<polygon class="st4" points="210.304,46.784 233.746,86.723 191.181,111.706 167.739,71.768 	"/>
</g>
<g>
	<defs>
		<path id="SVGID_16_" d="M168.087,95.382c1.327-4.055,2.466-8.258,3.422-12.48c-0.796-0.925-1.394-1.628-1.511-1.784
			c-0.426-0.569-15.209-12.224-15.209-12.224l-1.313-5.009l-17.66-0.009C135.816,63.875,164.586,74.572,168.087,95.382"/>
	</defs>
	<clipPath id="SVGID_17_">
		<use xlink:href="#SVGID_16_"  style="overflow:visible;"/>
	</clipPath>

		<radialGradient id="SVGID_18_" cx="-195.3052" cy="385.0439" r="1" gradientTransform="matrix(76.67 130.6229 130.6229 -76.67 -35203.3477 55023.6641)" gradientUnits="userSpaceOnUse">
		<stop  offset="0" style="stop-color:#DFD3B6"/>
		<stop  offset="0.3987" style="stop-color:#B8A25F"/>
		<stop  offset="0.8307" style="stop-color:#74673C"/>
		<stop  offset="1" style="stop-color:#74673C"/>
	</radialGradient>
	<polygon class="st6" points="162.364,48.293 185.264,87.309 144.962,110.964 122.062,71.949 	"/>
</g>
<g>
	<defs>
		<path id="SVGID_19_" d="M168.087,95.382c0.014,0.086,0.037,0.166,0.05,0.254h21.05c-0.003-0.027-0.011-0.06-0.014-0.088
			l-12.068-6.187c0,0-3.503-4.025-5.596-6.46C170.554,87.124,169.415,91.327,168.087,95.382"/>
	</defs>
	<clipPath id="SVGID_20_">
		<use xlink:href="#SVGID_19_"  style="overflow:visible;"/>
	</clipPath>

		<radialGradient id="SVGID_21_" cx="-195.3198" cy="385.0508" r="1" gradientTransform="matrix(33.5449 148.9622 148.9622 -33.5449 -50658.8516 42022.6484)" gradientUnits="userSpaceOnUse">
		<stop  offset="0" style="stop-color:#DFD3B6"/>
		<stop  offset="0.4585" style="stop-color:#B8A25F"/>
		<stop  offset="0.8307" style="stop-color:#74673C"/>
		<stop  offset="1" style="stop-color:#74673C"/>
	</radialGradient>
	<polygon class="st9" points="188.169,78.379 191.917,95.021 169.106,100.157 165.358,83.516 	"/>
</g>
<g>
	<defs>
		<path id="SVGID_22_" d="M168.087,95.382c0.014,0.086,0.037,0.166,0.05,0.254h21.05c-0.003-0.027-0.011-0.06-0.014-0.088
			l-12.068-6.187c0,0-3.503-4.025-5.596-6.46C170.554,87.124,169.415,91.327,168.087,95.382"/>
	</defs>
	<clipPath id="SVGID_23_">
		<use xlink:href="#SVGID_22_"  style="overflow:visible;"/>
	</clipPath>

		<radialGradient id="SVGID_24_" cx="-195.3052" cy="385.0439" r="1" gradientTransform="matrix(76.67 130.6229 130.6229 -76.67 -35203.3477 55023.6641)" gradientUnits="userSpaceOnUse">
		<stop  offset="0" style="stop-color:#DFD3B6"/>
		<stop  offset="0.3987" style="stop-color:#B8A25F"/>
		<stop  offset="0.8307" style="stop-color:#74673C"/>
		<stop  offset="1" style="stop-color:#74673C"/>
	</radialGradient>
	<polygon class="st10" points="183.781,73.69 194.747,92.372 173.494,104.847 162.528,86.164 	"/>
</g>
<g>
	<defs>
		<path id="SVGID_25_" d="M168.137,95.636h21.051c-0.209-1.686-0.646-3.79-2.047-6.478c-0.091-0.172-0.189-0.328-0.28-0.499
			c-2.372-5.081-5.645-9.191-9.18-12.506c-1.041-1.04-1.971-1.866-2.692-2.412c-0.004,0.022-0.006,0.043-0.011,0.063
			c-9.276-7.462-19.228-9.919-19.228-9.919l-19.933-0.01C135.816,63.875,164.832,74.658,168.137,95.636"/>
	</defs>
	<clipPath id="SVGID_26_">
		<use xlink:href="#SVGID_25_"  style="overflow:visible;"/>
	</clipPath>

		<radialGradient id="SVGID_27_" cx="-195.3052" cy="385.0449" r="0.9998" gradientTransform="matrix(76.67 130.6229 130.6229 -76.67 -35203.3477 55023.6641)" gradientUnits="userSpaceOnUse">
		<stop  offset="0" style="stop-color:#DFD3B6"/>
		<stop  offset="0.3987" style="stop-color:#BAA361"/>
		<stop  offset="0.8121" style="stop-color:#837646"/>
		<stop  offset="1" style="stop-color:#837646"/>
	</radialGradient>
	<polygon class="st11" points="175.512,40.576 203.052,87.497 149.492,118.935 121.952,72.014 	"/>
</g>
</svg>
