<?xml version="1.0" encoding="utf-8"?>
<!-- Generator: Adobe Illustrator 23.0.1, SVG Export Plug-In . SVG Version: 6.00 Build 0)  -->
<svg version="1.1" id="Layer_1" xmlns="http://www.w3.org/2000/svg" xmlns:xlink="http://www.w3.org/1999/xlink" x="0px" y="0px"
	 viewBox="0 0 439 93.5" style="enable-background:new 0 0 439 93.5;" xml:space="preserve">
<style type="text/css">
	.st0{opacity:0.7;clip-path:url(#SVGID_2_);fill:#009FDF;}
	.st1{opacity:0.7;clip-path:url(#SVGID_4_);fill:#009FDF;}
	.st2{opacity:0.7;clip-path:url(#SVGID_6_);fill:#009FDF;}
	.st3{opacity:0.7;clip-path:url(#SVGID_8_);fill:#009FDF;}
	.st4{opacity:0.7;clip-path:url(#SVGID_10_);fill:#009FDF;}
	.st5{opacity:0.7;clip-path:url(#SVGID_12_);fill:#009FDF;}
	.st6{clip-path:url(#SVGID_14_);fill:#FFFFFF;}
	.st7{clip-path:url(#SVGID_16_);fill:#FFFFFF;}
	.st8{clip-path:url(#SVGID_18_);fill:#FFFFFF;}
	.st9{clip-path:url(#SVGID_20_);fill:#FFFFFF;}
	.st10{clip-path:url(#SVGID_22_);fill:#FFFFFF;}
	.st11{clip-path:url(#SVGID_24_);fill:#FFFFFF;}
	.st12{clip-path:url(#SVGID_26_);fill:#FFFFFF;}
	.st13{clip-path:url(#SVGID_28_);fill:#FFFFFF;}
	.st14{clip-path:url(#SVGID_30_);fill:#FFFFFF;}
	.st15{clip-path:url(#SVGID_32_);fill:#FFFFFF;}
	.st16{clip-path:url(#SVGID_34_);fill:#FFFFFF;}
</style>
<g>
	<defs>
		<rect id="SVGID_1_" width="439" height="93.5"/>
	</defs>
	<clipPath id="SVGID_2_">
		<use xlink:href="#SVGID_1_"  style="overflow:visible;"/>
	</clipPath>
	<path class="st0" d="M36.8,0C43.6,0,52.3,1.1,59,8c5.2,5.3,7.8,13.2,7.8,20.4c0,7.8-2.7,14.6-7.2,18.9c-3.5,3.4-8.3,5.5-12.5,6.3
		l28.5,37.2H46.2L23.6,56v34.9H0V0H36.8z M23.6,40.8h4.5c3.5,0,8.6-1,11.5-3.7c1.8-1.8,3-4.8,3-7.6c0-2.7-1.1-5.7-3.1-7.6
		c-2.2-2.2-6.1-3.5-11.3-3.5h-4.5L23.6,40.8L23.6,40.8z"/>
</g>
<g>
	<defs>
		<rect id="SVGID_3_" width="439" height="93.5"/>
	</defs>
	<clipPath id="SVGID_4_">
		<use xlink:href="#SVGID_3_"  style="overflow:visible;"/>
	</clipPath>
	<polygon class="st1" points="137.1,20 109,20 109,35.2 135.6,35.2 135.6,55.2 109,55.2 109,70.9 137.1,70.9 137.1,90.9 85.5,90.9 
		85.5,0 137.1,0 	"/>
</g>
<g>
	<defs>
		<rect id="SVGID_5_" width="439" height="93.5"/>
	</defs>
	<clipPath id="SVGID_6_">
		<use xlink:href="#SVGID_5_"  style="overflow:visible;"/>
	</clipPath>
	<path class="st2" d="M207.6,75.7h-33l-6.1,15.3h-24.9L178.4,0h25.8l34.2,90.9h-25.2L207.6,75.7z M201.3,57.7l-10.2-29.4l-10,29.4
		H201.3z"/>
</g>
<g>
	<defs>
		<rect id="SVGID_7_" width="439" height="93.5"/>
	</defs>
	<clipPath id="SVGID_8_">
		<use xlink:href="#SVGID_7_"  style="overflow:visible;"/>
	</clipPath>
	<path class="st3" d="M248.9,90.9V0h30.9c9.1,0,24.4,1.2,36.1,12.5c10.6,10.2,12.7,23.3,12.7,33.1c0,12-3,22.6-11.9,31.5
		c-7.2,7.2-19.4,13.8-34.9,13.8L248.9,90.9L248.9,90.9z M272.5,70.9h4.8c5.7,0,13.8-0.5,19.9-6.5c3-2.9,7-8.6,7-18.7
		c0-8.5-2.6-15.7-7.1-19.9c-5.6-5.2-12.9-5.7-18.8-5.7h-5.7L272.5,70.9L272.5,70.9z"/>
</g>
<g>
	<defs>
		<rect id="SVGID_9_" width="439" height="93.5"/>
	</defs>
	<clipPath id="SVGID_10_">
		<use xlink:href="#SVGID_9_"  style="overflow:visible;"/>
	</clipPath>
	<polygon class="st4" points="360.2,47.3 327.4,0 355.6,0 372.8,24.8 389.3,0 417.9,0 384,47.3 384,90.9 360.2,90.9 	"/>
</g>
<g>
	<defs>
		<rect id="SVGID_11_" width="439" height="93.5"/>
	</defs>
	<clipPath id="SVGID_12_">
		<use xlink:href="#SVGID_11_"  style="overflow:visible;"/>
	</clipPath>
	<path class="st5" d="M415,89.3c-1.8-1.8-4.2-5-4.2-9.9c0-4.9,2.5-8.2,4.2-10c3.3-3.3,7-4.2,10-4.2c3.4,0,7.1,1.4,10.1,4.4
		c2.3,2.3,4,5.3,4,9.8c0,4.5-1.6,7.5-4.1,9.9c-2.9,2.9-6.4,4.2-10,4.2C422,93.5,418.3,92.6,415,89.3"/>
</g>
<g>
	<defs>
		<rect id="SVGID_13_" x="251" y="25.5" width="188" height="27.7"/>
	</defs>
	<clipPath id="SVGID_14_">
		<use xlink:href="#SVGID_13_"  style="overflow:visible;"/>
	</clipPath>
	<path class="st6" d="M267.5,37.9l-0.5,3.4h-3l-0.8,5.3h-3.9l0.9-5.3h-2.5l-0.8,5.3h-3.8l0.9-5.3h-3l0.5-3.4h2.9l0.4-2.4h-2.9
		l0.5-3.4h2.9l0.8-4.9h3.8l-0.8,4.9h2.5l0.8-4.9h3.8l-0.8,4.9h2.9l-0.5,3.4H265l-0.4,2.4H267.5z M261.1,35.5h-2.5l-0.4,2.4h2.5
		L261.1,35.5z"/>
</g>
<g>
	<defs>
		<rect id="SVGID_15_" x="251" y="25.5" width="188" height="27.7"/>
	</defs>
	<clipPath id="SVGID_16_">
		<use xlink:href="#SVGID_15_"  style="overflow:visible;"/>
	</clipPath>
	<path class="st7" d="M278,27.3c1.4,0,3.3,0.2,4.7,1.7c1.1,1.1,1.6,2.8,1.6,4.3c0,1.6-0.6,3.1-1.5,4c-0.8,0.7-1.8,1.2-2.7,1.3l6,7.9
		H280l-4.8-7.4v7.4h-5V27.3H278z M275.2,35.9h1c0.8,0,1.8-0.2,2.4-0.8c0.4-0.4,0.6-1,0.6-1.6c0-0.6-0.2-1.2-0.7-1.6
		c-0.5-0.5-1.3-0.8-2.4-0.8h-1L275.2,35.9L275.2,35.9z"/>
</g>
<g>
	<defs>
		<rect id="SVGID_17_" x="251" y="25.5" width="188" height="27.7"/>
	</defs>
	<clipPath id="SVGID_18_">
		<use xlink:href="#SVGID_17_"  style="overflow:visible;"/>
	</clipPath>
	<path class="st8" d="M301.6,41H292c0,0.7,0.3,1.6,0.8,2.2c0.3,0.3,0.9,0.6,1.9,0.6c0.1,0,0.9,0,1.5-0.3c0.3-0.2,0.6-0.5,0.8-0.9
		h4.4c-0.2,0.7-0.6,1.7-1.6,2.7c-1,0.9-2.5,1.8-5.3,1.8c-1.7,0-3.8-0.4-5.4-2c-0.8-0.8-1.9-2.4-1.9-4.9c0-2.2,0.8-3.9,1.9-5
		c1.1-1,2.8-1.9,5.3-1.9c1.5,0,3.4,0.3,5,1.8c1.8,1.7,2.1,4,2.1,5.4L301.6,41L301.6,41z M297.4,38.3c-0.1-0.5-0.4-1-0.8-1.4
		c-0.6-0.6-1.4-0.7-1.9-0.7c-0.8,0-1.4,0.2-1.9,0.7c-0.3,0.3-0.6,0.8-0.7,1.4H297.4z"/>
</g>
<g>
	<defs>
		<rect id="SVGID_19_" x="251" y="25.5" width="188" height="27.7"/>
	</defs>
	<clipPath id="SVGID_20_">
		<use xlink:href="#SVGID_19_"  style="overflow:visible;"/>
	</clipPath>
	<path class="st9" d="M314.3,33.6h4.6v12.9h-4.6v-1.4c-1.1,1.5-2.8,1.9-4,1.9c-1.4,0-3.1-0.4-4.7-2.1c-1.2-1.3-1.9-2.8-1.9-4.7
		c0-2.4,1-4.1,2-5.2c1.1-1.1,2.8-1.8,4.7-1.8c2.1,0,3.3,1.1,3.9,1.7L314.3,33.6L314.3,33.6z M309.4,38c-0.6,0.6-0.9,1.4-0.9,2.1
		c0,0.8,0.3,1.6,0.9,2.1c0.5,0.5,1.3,0.9,2.1,0.9c0.8,0,1.5-0.3,2.1-0.9c0.4-0.4,0.9-1,0.9-2.1c0-0.6-0.2-1.4-0.9-2.1
		c-0.4-0.4-1.1-0.8-2.1-0.8C310.9,37.1,310.1,37.3,309.4,38"/>
</g>
<g>
	<defs>
		<rect id="SVGID_21_" x="251" y="25.5" width="188" height="27.7"/>
	</defs>
	<clipPath id="SVGID_22_">
		<use xlink:href="#SVGID_21_"  style="overflow:visible;"/>
	</clipPath>
	<path class="st10" d="M336.8,46.6h-4.6v-1.4c-1.3,1.7-3,1.9-3.9,1.9c-1.9,0-3.3-0.6-4.5-1.8c-1.3-1.3-2.1-3.1-2.1-5.2
		c0-2.2,0.9-4,2.1-5.1c1.3-1.2,3-1.7,4.6-1.7c1.8,0,3,0.8,3.9,1.7v-9.4h4.6V46.6z M331.3,42.3c0.6-0.5,1-1.4,1-2.2
		c0-0.7-0.4-1.6-0.9-2.1c-0.5-0.5-1.2-0.9-2.1-0.9c-1,0-1.6,0.4-2.1,0.8c-0.5,0.5-0.9,1.3-0.9,2.2c0,0.7,0.3,1.4,0.9,2
		c0.6,0.6,1.4,0.9,2.1,0.9C330,43.1,330.8,42.7,331.3,42.3"/>
</g>
<g>
	<defs>
		<rect id="SVGID_23_" x="251" y="25.5" width="188" height="27.7"/>
	</defs>
	<clipPath id="SVGID_24_">
		<use xlink:href="#SVGID_23_"  style="overflow:visible;"/>
	</clipPath>
	<polygon class="st11" points="344.6,44.8 338.3,33.6 343.7,33.6 347.2,40.3 350.5,33.6 355.8,33.6 345.4,53.2 340.3,53.2 	"/>
</g>
<g>
	<defs>
		<rect id="SVGID_25_" x="251" y="25.5" width="188" height="27.7"/>
	</defs>
	<clipPath id="SVGID_26_">
		<use xlink:href="#SVGID_25_"  style="overflow:visible;"/>
	</clipPath>
	<polygon class="st12" points="368.9,31.5 362.9,31.5 362.9,34.7 368.4,34.7 368.4,39 362.9,39 362.9,46.6 357.8,46.6 357.8,27.3 
		368.9,27.3 	"/>
</g>
<g>
	<defs>
		<rect id="SVGID_27_" x="251" y="25.5" width="188" height="27.7"/>
	</defs>
	<clipPath id="SVGID_28_">
		<use xlink:href="#SVGID_27_"  style="overflow:visible;"/>
	</clipPath>
	<path class="st13" d="M384.5,44.9c-1.7,1.7-3.7,2.1-5.8,2.1c-1.9,0-4-0.4-5.8-2.1c-1.4-1.4-2-3-2-4.8c0-2.3,1-3.8,2-4.7
		c1.1-1,3-2.1,5.8-2.1c2.9,0,4.7,1.1,5.8,2.1c1,0.9,2,2.4,2,4.7C386.5,41.8,385.9,43.5,384.5,44.9 M376.6,38
		c-0.6,0.5-0.9,1.4-0.9,2.1c0,0.8,0.4,1.5,0.9,2.1c0.5,0.5,1.3,0.9,2.1,0.9c0.8,0,1.5-0.3,2.1-0.9c0.6-0.6,0.9-1.3,0.9-2.1
		c0-0.7-0.3-1.5-0.9-2.1c-0.5-0.5-1.3-0.8-2.1-0.8C378,37.1,377.1,37.5,376.6,38"/>
</g>
<g>
	<defs>
		<rect id="SVGID_29_" x="251" y="25.5" width="188" height="27.7"/>
	</defs>
	<clipPath id="SVGID_30_">
		<use xlink:href="#SVGID_29_"  style="overflow:visible;"/>
	</clipPath>
	<path class="st14" d="M389.1,33.6h4.6v2.1c0.5-0.9,1.1-1.4,1.8-1.8c0.7-0.4,1.5-0.5,2.4-0.5c0.1,0,0.3,0,0.9,0.1v4.4
		c-0.2-0.1-0.9-0.5-2-0.5c-0.6,0-1.4,0.1-2.1,0.7c-1,0.9-1,2.3-1,3v5.5h-4.6V33.6z"/>
</g>
<g>
	<defs>
		<rect id="SVGID_31_" x="251" y="25.5" width="188" height="27.7"/>
	</defs>
	<clipPath id="SVGID_32_">
		<use xlink:href="#SVGID_31_"  style="overflow:visible;"/>
	</clipPath>
	<path class="st15" d="M406.4,27.3v11.4c0,0.8,0,2.1,1,3c0.6,0.5,1.5,0.9,2.4,0.9c0.9,0,1.8-0.3,2.3-0.8c1.2-1,1.1-2.4,1.1-3.5v-11
		h5v11.1c0,2-0.1,4.1-2.2,6.3c-1.6,1.6-3.6,2.4-6.4,2.4c-3,0-5.2-1-6.4-2.3c-1.7-1.8-1.9-4.3-1.9-6.3V27.3H406.4z"/>
</g>
<g>
	<defs>
		<rect id="SVGID_33_" x="251" y="25.5" width="188" height="27.7"/>
	</defs>
	<clipPath id="SVGID_34_">
		<use xlink:href="#SVGID_33_"  style="overflow:visible;"/>
	</clipPath>
	<path class="st16" d="M427.2,27.3v11.4c0,0.8,0,2.1,1,3c0.6,0.5,1.5,0.9,2.4,0.9s1.8-0.3,2.3-0.8c1.2-1,1.1-2.4,1.1-3.5v-11h5v11.1
		c0,2-0.1,4.1-2.2,6.3c-1.6,1.6-3.6,2.4-6.4,2.4c-3,0-5.2-1-6.4-2.3c-1.7-1.8-1.9-4.3-1.9-6.3V27.3H427.2z"/>
</g>
</svg>
