<?xml version="1.0" encoding="utf-8"?>
<!-- Generator: Adobe Illustrator 23.0.1, SVG Export Plug-In . SVG Version: 6.00 Build 0)  -->
<svg version="1.0" id="Layer_1" xmlns="http://www.w3.org/2000/svg" xmlns:xlink="http://www.w3.org/1999/xlink" x="0px" y="0px"
	 width="394px" height="150px" viewBox="0 0 394 150" style="enable-background:new 0 0 394 150;" xml:space="preserve">
<rect x="-1" style="fill:#00B3E1;" width="397" height="150"/>
<g>
	<path style="opacity:0.25;fill:#FFFFFF;stroke:#00B3E1;stroke-width:0.6;stroke-miterlimit:10;" d="M325.5,122.5
		c0,1,0.81,1.81,1.81,1.81c1,0,1.81-0.81,1.81-1.81s-0.81-1.81-1.81-1.81C326.31,120.69,325.5,121.5,325.5,122.5z"/>
	
		<ellipse style="opacity:0.25;fill:#FFFFFF;stroke:#00B3E1;stroke-width:0.6;stroke-miterlimit:10;" cx="323.69" cy="122.5" rx="1.81" ry="1.81"/>
	<path style="opacity:0.25;fill:#FFFFFF;stroke:#00B3E1;stroke-width:0.6;stroke-miterlimit:10;" d="M318.25,122.5
		c0,1,0.81,1.81,1.81,1.81c1,0,1.81-0.81,1.81-1.81s-0.81-1.81-1.81-1.81C319.07,120.69,318.25,121.5,318.25,122.5z"/>
	<path style="opacity:0.25;fill:#FFFFFF;stroke:#00B3E1;stroke-width:0.6;stroke-miterlimit:10;" d="M336.38,118.88
		c0,1,0.81,1.81,1.81,1.81c1,0,1.81-0.81,1.81-1.81s-0.81-1.81-1.81-1.81C337.19,117.07,336.38,117.88,336.38,118.88z"/>
	<path style="opacity:0.25;fill:#FFFFFF;stroke:#00B3E1;stroke-width:0.6;stroke-miterlimit:10;" d="M329.13,118.88
		c0,1,0.81,1.81,1.81,1.81s1.81-0.81,1.81-1.81s-0.81-1.81-1.81-1.81S329.13,117.88,329.13,118.88z"/>
	<path style="opacity:0.25;fill:#FFFFFF;stroke:#00B3E1;stroke-width:0.6;stroke-miterlimit:10;" d="M325.5,118.88
		c0,1,0.81,1.81,1.81,1.81c1,0,1.81-0.81,1.81-1.81s-0.81-1.81-1.81-1.81C326.31,117.07,325.5,117.88,325.5,118.88z"/>
	<path style="opacity:0.25;fill:#FFFFFF;stroke:#00B3E1;stroke-width:0.6;stroke-miterlimit:10;" d="M321.88,118.88
		c0,1,0.81,1.81,1.81,1.81c1,0,1.81-0.81,1.81-1.81s-0.81-1.81-1.81-1.81C322.69,117.07,321.88,117.88,321.88,118.88z"/>
	<path style="opacity:0.25;fill:#FFFFFF;stroke:#00B3E1;stroke-width:0.6;stroke-miterlimit:10;" d="M358.14,115.26
		c0,1,0.81,1.81,1.81,1.81c1,0,1.81-0.81,1.81-1.81s-0.81-1.81-1.81-1.81C358.95,113.45,358.14,114.26,358.14,115.26z"/>
	<path style="opacity:0.25;fill:#FFFFFF;stroke:#00B3E1;stroke-width:0.6;stroke-miterlimit:10;" d="M354.51,115.26
		c0,1,0.81,1.81,1.81,1.81s1.81-0.81,1.81-1.81s-0.81-1.81-1.81-1.81S354.51,114.26,354.51,115.26z"/>
	<path style="opacity:0.25;fill:#FFFFFF;stroke:#00B3E1;stroke-width:0.6;stroke-miterlimit:10;" d="M350.88,115.26
		c0,1,0.81,1.81,1.81,1.81s1.81-0.81,1.81-1.81s-0.81-1.81-1.81-1.81C351.7,113.45,350.88,114.26,350.88,115.26z"/>
	<path style="opacity:0.25;fill:#FFFFFF;stroke:#00B3E1;stroke-width:0.6;stroke-miterlimit:10;" d="M347.26,115.26
		c0,1,0.81,1.81,1.81,1.81c1,0,1.81-0.81,1.81-1.81s-0.81-1.81-1.81-1.81C348.07,113.45,347.26,114.26,347.26,115.26z"/>
	<path style="opacity:0.25;fill:#FFFFFF;stroke:#00B3E1;stroke-width:0.6;stroke-miterlimit:10;" d="M343.63,115.26
		c0,1,0.81,1.81,1.81,1.81c1,0,1.81-0.81,1.81-1.81s-0.81-1.81-1.81-1.81C344.44,113.45,343.63,114.26,343.63,115.26z"/>
	<path style="opacity:0.25;fill:#FFFFFF;stroke:#00B3E1;stroke-width:0.6;stroke-miterlimit:10;" d="M340,115.26
		c0,1,0.81,1.81,1.81,1.81c1,0,1.81-0.81,1.81-1.81s-0.81-1.81-1.81-1.81C340.82,113.45,340,114.26,340,115.26z"/>
	<path style="opacity:0.25;fill:#FFFFFF;stroke:#00B3E1;stroke-width:0.6;stroke-miterlimit:10;" d="M336.38,115.26
		c0,1,0.81,1.81,1.81,1.81c1,0,1.81-0.81,1.81-1.81s-0.81-1.81-1.81-1.81C337.19,113.45,336.38,114.26,336.38,115.26z"/>
	<path style="opacity:0.25;fill:#FFFFFF;stroke:#00B3E1;stroke-width:0.6;stroke-miterlimit:10;" d="M332.76,115.26
		c0,1,0.81,1.81,1.81,1.81s1.81-0.81,1.81-1.81s-0.81-1.81-1.81-1.81S332.76,114.26,332.76,115.26z"/>
	<path style="opacity:0.25;fill:#FFFFFF;stroke:#00B3E1;stroke-width:0.6;stroke-miterlimit:10;" d="M329.13,115.26
		c0,1,0.81,1.81,1.81,1.81s1.81-0.81,1.81-1.81s-0.81-1.81-1.81-1.81S329.13,114.26,329.13,115.26z"/>
	<path style="opacity:0.25;fill:#FFFFFF;stroke:#00B3E1;stroke-width:0.6;stroke-miterlimit:10;" d="M325.5,115.26
		c0,1,0.81,1.81,1.81,1.81c1,0,1.81-0.81,1.81-1.81s-0.81-1.81-1.81-1.81C326.31,113.45,325.5,114.26,325.5,115.26z"/>
	
		<ellipse style="opacity:0.25;fill:#FFFFFF;stroke:#00B3E1;stroke-width:0.6;stroke-miterlimit:10;" cx="363.57" cy="111.64" rx="1.81" ry="1.81"/>
	<path style="opacity:0.25;fill:#FFFFFF;stroke:#00B3E1;stroke-width:0.6;stroke-miterlimit:10;" d="M358.14,111.64
		c0,1,0.81,1.81,1.81,1.81c1,0,1.81-0.81,1.81-1.81s-0.81-1.81-1.81-1.81C358.95,109.83,358.14,110.65,358.14,111.64z"/>
	<path style="opacity:0.25;fill:#FFFFFF;stroke:#00B3E1;stroke-width:0.6;stroke-miterlimit:10;" d="M354.51,111.64
		c0,1,0.81,1.81,1.81,1.81s1.81-0.81,1.81-1.81s-0.81-1.81-1.81-1.81S354.51,110.65,354.51,111.64z"/>
	
		<ellipse style="opacity:0.25;fill:#FFFFFF;stroke:#00B3E1;stroke-width:0.6;stroke-miterlimit:10;" cx="352.7" cy="111.64" rx="1.81" ry="1.81"/>
	<path style="opacity:0.25;fill:#FFFFFF;stroke:#00B3E1;stroke-width:0.6;stroke-miterlimit:10;" d="M347.26,111.64
		c0,1,0.81,1.81,1.81,1.81c1,0,1.81-0.81,1.81-1.81s-0.81-1.81-1.81-1.81C348.07,109.83,347.26,110.65,347.26,111.64z"/>
	
		<ellipse style="opacity:0.25;fill:#FFFFFF;stroke:#00B3E1;stroke-width:0.6;stroke-miterlimit:10;" cx="345.44" cy="111.64" rx="1.81" ry="1.81"/>
	<path style="opacity:0.25;fill:#FFFFFF;stroke:#00B3E1;stroke-width:0.6;stroke-miterlimit:10;" d="M340,111.64
		c0,1,0.81,1.81,1.81,1.81c1,0,1.81-0.81,1.81-1.81s-0.81-1.81-1.81-1.81C340.82,109.83,340,110.65,340,111.64z"/>
	<path style="opacity:0.25;fill:#FFFFFF;stroke:#00B3E1;stroke-width:0.6;stroke-miterlimit:10;" d="M336.38,111.64
		c0,1,0.81,1.81,1.81,1.81c1,0,1.81-0.81,1.81-1.81s-0.81-1.81-1.81-1.81C337.19,109.83,336.38,110.65,336.38,111.64z"/>
	<path style="opacity:0.25;fill:#FFFFFF;stroke:#00B3E1;stroke-width:0.6;stroke-miterlimit:10;" d="M358.14,108.02
		c0,1,0.81,1.81,1.81,1.81c1,0,1.81-0.81,1.81-1.81s-0.81-1.81-1.81-1.81C358.95,106.22,358.14,107.03,358.14,108.02z"/>
	<path style="opacity:0.25;fill:#FFFFFF;stroke:#00B3E1;stroke-width:0.6;stroke-miterlimit:10;" d="M354.51,108.02
		c0,1,0.81,1.81,1.81,1.81s1.81-0.81,1.81-1.81s-0.81-1.81-1.81-1.81S354.51,107.03,354.51,108.02z"/>
	<path style="opacity:0.25;fill:#FFFFFF;stroke:#00B3E1;stroke-width:0.6;stroke-miterlimit:10;" d="M350.88,108.02
		c0,1,0.81,1.81,1.81,1.81s1.81-0.81,1.81-1.81s-0.81-1.81-1.81-1.81C351.7,106.22,350.88,107.03,350.88,108.02z"/>
	<path style="opacity:0.25;fill:#FFFFFF;stroke:#00B3E1;stroke-width:0.6;stroke-miterlimit:10;" d="M347.26,108.02
		c0,1,0.81,1.81,1.81,1.81c1,0,1.81-0.81,1.81-1.81s-0.81-1.81-1.81-1.81C348.07,106.22,347.26,107.03,347.26,108.02z"/>
	<path style="opacity:0.25;fill:#FFFFFF;stroke:#00B3E1;stroke-width:0.6;stroke-miterlimit:10;" d="M343.63,108.02
		c0,1,0.81,1.81,1.81,1.81c1,0,1.81-0.81,1.81-1.81s-0.81-1.81-1.81-1.81C344.44,106.22,343.63,107.03,343.63,108.02z"/>
	<path style="opacity:0.25;fill:#FFFFFF;stroke:#00B3E1;stroke-width:0.6;stroke-miterlimit:10;" d="M340,108.02
		c0,1,0.81,1.81,1.81,1.81c1,0,1.81-0.81,1.81-1.81s-0.81-1.81-1.81-1.81C340.82,106.22,340,107.03,340,108.02z"/>
	<path style="opacity:0.25;fill:#FFFFFF;stroke:#00B3E1;stroke-width:0.6;stroke-miterlimit:10;" d="M336.38,108.02
		c0,1,0.81,1.81,1.81,1.81c1,0,1.81-0.81,1.81-1.81s-0.81-1.81-1.81-1.81C337.19,106.22,336.38,107.03,336.38,108.02z"/>
	<path style="opacity:0.25;fill:#FFFFFF;stroke:#00B3E1;stroke-width:0.6;stroke-miterlimit:10;" d="M332.76,108.02
		c0,1,0.81,1.81,1.81,1.81s1.81-0.81,1.81-1.81s-0.81-1.81-1.81-1.81S332.76,107.03,332.76,108.02z"/>
	<path style="opacity:0.25;fill:#FFFFFF;stroke:#00B3E1;stroke-width:0.6;stroke-miterlimit:10;" d="M329.13,108.02
		c0,1,0.81,1.81,1.81,1.81s1.81-0.81,1.81-1.81s-0.81-1.81-1.81-1.81S329.13,107.03,329.13,108.02z"/>
	<path style="opacity:0.25;fill:#FFFFFF;stroke:#00B3E1;stroke-width:0.6;stroke-miterlimit:10;" d="M325.5,108.02
		c0,1,0.81,1.81,1.81,1.81c1,0,1.81-0.81,1.81-1.81s-0.81-1.81-1.81-1.81C326.31,106.22,325.5,107.03,325.5,108.02z"/>
	<path style="fill:#FFFFFF;stroke:#00B3E1;stroke-width:0.6;stroke-miterlimit:10;enable-background:new    ;" d="M289.25,108.02
		c0,1,0.81,1.81,1.81,1.81s1.81-0.81,1.81-1.81s-0.81-1.81-1.81-1.81C290.07,106.22,289.25,107.03,289.25,108.02z"/>
	<path style="opacity:0.25;fill:#FFFFFF;stroke:#00B3E1;stroke-width:0.6;stroke-miterlimit:10;" d="M361.75,104.41
		c0,1,0.81,1.81,1.81,1.81s1.81-0.81,1.81-1.81s-0.81-1.81-1.81-1.81C362.58,102.6,361.75,103.42,361.75,104.41z"/>
	<path style="opacity:0.25;fill:#FFFFFF;stroke:#00B3E1;stroke-width:0.6;stroke-miterlimit:10;" d="M358.14,104.41
		c0,1,0.81,1.81,1.81,1.81c1,0,1.81-0.81,1.81-1.81s-0.81-1.81-1.81-1.81C358.95,102.6,358.14,103.42,358.14,104.41z"/>
	<path style="opacity:0.25;fill:#FFFFFF;stroke:#00B3E1;stroke-width:0.6;stroke-miterlimit:10;" d="M354.51,104.41
		c0,1,0.81,1.81,1.81,1.81s1.81-0.81,1.81-1.81s-0.81-1.81-1.81-1.81C355.32,102.6,354.51,103.42,354.51,104.41z"/>
	<path style="opacity:0.25;fill:#FFFFFF;stroke:#00B3E1;stroke-width:0.6;stroke-miterlimit:10;" d="M350.88,104.41
		c0,1,0.81,1.81,1.81,1.81s1.81-0.81,1.81-1.81s-0.81-1.81-1.81-1.81C351.7,102.6,350.88,103.42,350.88,104.41z"/>
	<path style="opacity:0.25;fill:#FFFFFF;stroke:#00B3E1;stroke-width:0.6;stroke-miterlimit:10;" d="M347.26,104.41
		c0,1,0.81,1.81,1.81,1.81c1,0,1.81-0.81,1.81-1.81s-0.81-1.81-1.81-1.81C348.07,102.6,347.26,103.42,347.26,104.41z"/>
	<path style="opacity:0.25;fill:#FFFFFF;stroke:#00B3E1;stroke-width:0.6;stroke-miterlimit:10;" d="M343.63,104.41
		c0,1,0.81,1.81,1.81,1.81c1,0,1.81-0.81,1.81-1.81s-0.81-1.81-1.81-1.81C344.44,102.6,343.63,103.42,343.63,104.41z"/>
	<path style="opacity:0.25;fill:#FFFFFF;stroke:#00B3E1;stroke-width:0.6;stroke-miterlimit:10;" d="M340,104.41
		c0,1,0.81,1.81,1.81,1.81c1,0,1.81-0.81,1.81-1.81s-0.81-1.81-1.81-1.81C340.82,102.6,340,103.42,340,104.41z"/>
	<path style="opacity:0.25;fill:#FFFFFF;stroke:#00B3E1;stroke-width:0.6;stroke-miterlimit:10;" d="M336.38,104.41
		c0,1,0.81,1.81,1.81,1.81c1,0,1.81-0.81,1.81-1.81s-0.81-1.81-1.81-1.81C337.19,102.6,336.38,103.42,336.38,104.41z"/>
	<path style="opacity:0.25;fill:#FFFFFF;stroke:#00B3E1;stroke-width:0.6;stroke-miterlimit:10;" d="M332.76,104.41
		c0,1,0.81,1.81,1.81,1.81s1.81-0.81,1.81-1.81s-0.81-1.81-1.81-1.81C333.57,102.6,332.76,103.42,332.76,104.41z"/>
	<path style="opacity:0.25;fill:#FFFFFF;stroke:#00B3E1;stroke-width:0.6;stroke-miterlimit:10;" d="M329.13,104.41
		c0,1,0.81,1.81,1.81,1.81s1.81-0.81,1.81-1.81s-0.81-1.81-1.81-1.81S329.13,103.42,329.13,104.41z"/>
	<path style="opacity:0.25;fill:#FFFFFF;stroke:#00B3E1;stroke-width:0.6;stroke-miterlimit:10;" d="M325.5,104.41
		c0,1,0.81,1.81,1.81,1.81c1,0,1.81-0.81,1.81-1.81s-0.81-1.81-1.81-1.81C326.31,102.6,325.5,103.42,325.5,104.41z"/>
	<path style="opacity:0.25;fill:#FFFFFF;stroke:#00B3E1;stroke-width:0.6;stroke-miterlimit:10;" d="M321.88,104.41
		c0,1,0.81,1.81,1.81,1.81c1,0,1.81-0.81,1.81-1.81s-0.81-1.81-1.81-1.81C322.69,102.6,321.88,103.42,321.88,104.41z"/>
	<path style="opacity:0.25;fill:#FFFFFF;stroke:#00B3E1;stroke-width:0.6;stroke-miterlimit:10;" d="M318.25,104.41
		c0,1,0.81,1.81,1.81,1.81c1,0,1.81-0.81,1.81-1.81s-0.81-1.81-1.81-1.81C319.07,102.6,318.25,103.42,318.25,104.41z"/>
	<path style="fill:#FFFFFF;stroke:#00B3E1;stroke-width:0.6;stroke-miterlimit:10;enable-background:new    ;" d="M296.5,104.41
		c0,1,0.81,1.81,1.81,1.81s1.81-0.81,1.81-1.81s-0.81-1.81-1.81-1.81C297.32,102.6,296.5,103.42,296.5,104.41z"/>
	<path style="fill:#FFFFFF;stroke:#00B3E1;stroke-width:0.6;stroke-miterlimit:10;enable-background:new    ;" d="M292.88,104.41
		c0,1,0.81,1.81,1.81,1.81c1,0,1.81-0.81,1.81-1.81s-0.81-1.81-1.81-1.81C293.69,102.6,292.88,103.42,292.88,104.41z"/>
	<path style="fill:#FFFFFF;stroke:#00B3E1;stroke-width:0.6;stroke-miterlimit:10;enable-background:new    ;" d="M289.25,104.41
		c0,1,0.81,1.81,1.81,1.81s1.81-0.81,1.81-1.81s-0.81-1.81-1.81-1.81C290.07,102.6,289.25,103.42,289.25,104.41z"/>
	<path style="fill:#FFFFFF;stroke:#00B3E1;stroke-width:0.6;stroke-miterlimit:10;enable-background:new    ;" d="M285.63,104.41
		c0,1,0.81,1.81,1.81,1.81s1.81-0.81,1.81-1.81s-0.81-1.81-1.81-1.81C286.44,102.6,285.63,103.42,285.63,104.41z"/>
	<path style="fill:#FFFFFF;stroke:#00B3E1;stroke-width:0.6;stroke-miterlimit:10;enable-background:new    ;" d="M282,104.41
		c0,1,0.81,1.81,1.81,1.81c1,0,1.81-0.81,1.81-1.81s-0.81-1.81-1.81-1.81C282.81,102.6,282,103.42,282,104.41z"/>
	<path style="opacity:0.25;fill:#FFFFFF;stroke:#00B3E1;stroke-width:0.6;stroke-miterlimit:10;" d="M365.38,100.79
		c0,1,0.81,1.81,1.81,1.81c1,0,1.81-0.81,1.81-1.81s-0.81-1.81-1.81-1.81C366.19,98.99,365.38,99.8,365.38,100.79z"/>
	
		<ellipse style="opacity:0.25;fill:#FFFFFF;stroke:#00B3E1;stroke-width:0.6;stroke-miterlimit:10;" cx="363.57" cy="100.79" rx="1.81" ry="1.81"/>
	<path style="opacity:0.25;fill:#FFFFFF;stroke:#00B3E1;stroke-width:0.6;stroke-miterlimit:10;" d="M358.14,100.79
		c0,1,0.81,1.81,1.81,1.81c1,0,1.81-0.81,1.81-1.81s-0.81-1.81-1.81-1.81C358.95,98.99,358.14,99.8,358.14,100.79z"/>
	<path style="opacity:0.25;fill:#FFFFFF;stroke:#00B3E1;stroke-width:0.6;stroke-miterlimit:10;" d="M354.51,100.79
		c0,1,0.81,1.81,1.81,1.81s1.81-0.81,1.81-1.81s-0.81-1.81-1.81-1.81C355.32,98.99,354.51,99.8,354.51,100.79z"/>
	
		<ellipse style="opacity:0.25;fill:#FFFFFF;stroke:#00B3E1;stroke-width:0.6;stroke-miterlimit:10;" cx="352.7" cy="100.79" rx="1.81" ry="1.81"/>
	<path style="opacity:0.25;fill:#FFFFFF;stroke:#00B3E1;stroke-width:0.6;stroke-miterlimit:10;" d="M347.26,100.79
		c0,1,0.81,1.81,1.81,1.81c1,0,1.81-0.81,1.81-1.81s-0.81-1.81-1.81-1.81C348.07,98.99,347.26,99.8,347.26,100.79z"/>
	
		<ellipse style="opacity:0.25;fill:#FFFFFF;stroke:#00B3E1;stroke-width:0.6;stroke-miterlimit:10;" cx="345.44" cy="100.79" rx="1.81" ry="1.81"/>
	<path style="opacity:0.25;fill:#FFFFFF;stroke:#00B3E1;stroke-width:0.6;stroke-miterlimit:10;" d="M340,100.79
		c0,1,0.81,1.81,1.81,1.81c1,0,1.81-0.81,1.81-1.81s-0.81-1.81-1.81-1.81C340.82,98.98,340,99.8,340,100.79z"/>
	<path style="opacity:0.25;fill:#FFFFFF;stroke:#00B3E1;stroke-width:0.6;stroke-miterlimit:10;" d="M336.38,100.79
		c0,1,0.81,1.81,1.81,1.81c1,0,1.81-0.81,1.81-1.81s-0.81-1.81-1.81-1.81C337.19,98.98,336.38,99.8,336.38,100.79z"/>
	
		<ellipse style="opacity:0.25;fill:#FFFFFF;stroke:#00B3E1;stroke-width:0.6;stroke-miterlimit:10;" cx="334.57" cy="100.79" rx="1.81" ry="1.81"/>
	<path style="opacity:0.25;fill:#FFFFFF;stroke:#00B3E1;stroke-width:0.6;stroke-miterlimit:10;" d="M329.13,100.79
		c0,1,0.81,1.81,1.81,1.81s1.81-0.81,1.81-1.81s-0.81-1.81-1.81-1.81S329.13,99.8,329.13,100.79z"/>
	<path style="opacity:0.25;fill:#FFFFFF;stroke:#00B3E1;stroke-width:0.6;stroke-miterlimit:10;" d="M325.5,100.79
		c0,1,0.81,1.81,1.81,1.81c1,0,1.81-0.81,1.81-1.81s-0.81-1.81-1.81-1.81C326.31,98.98,325.5,99.8,325.5,100.79z"/>
	<path style="fill:#FFFFFF;stroke:#00B3E1;stroke-width:0.6;stroke-miterlimit:10;enable-background:new    ;" d="M307.38,100.79
		c0,1,0.81,1.81,1.81,1.81s1.81-0.81,1.81-1.81s-0.81-1.81-1.81-1.81C308.19,98.99,307.38,99.8,307.38,100.79z"/>
	
		<ellipse style="fill:#FFFFFF;stroke:#00B3E1;stroke-width:0.6;stroke-miterlimit:10;enable-background:new    ;" cx="305.57" cy="100.79" rx="1.81" ry="1.81"/>
	<path style="fill:#FFFFFF;stroke:#00B3E1;stroke-width:0.6;stroke-miterlimit:10;enable-background:new    ;" d="M300.12,100.79
		c0,1,0.81,1.81,1.81,1.81s1.81-0.81,1.81-1.81s-0.81-1.81-1.81-1.81C300.94,98.99,300.12,99.8,300.12,100.79z"/>
	
		<ellipse style="fill:#FFFFFF;stroke:#00B3E1;stroke-width:0.6;stroke-miterlimit:10;enable-background:new    ;" cx="298.31" cy="100.79" rx="1.81" ry="1.81"/>
	<path style="fill:#FFFFFF;stroke:#00B3E1;stroke-width:0.6;stroke-miterlimit:10;enable-background:new    ;" d="M292.88,100.79
		c0,1,0.81,1.81,1.81,1.81c1,0,1.81-0.81,1.81-1.81s-0.81-1.81-1.81-1.81C293.69,98.98,292.88,99.8,292.88,100.79z"/>
	<path style="fill:#FFFFFF;stroke:#00B3E1;stroke-width:0.6;stroke-miterlimit:10;enable-background:new    ;" d="M289.25,100.79
		c0,1,0.81,1.81,1.81,1.81s1.81-0.81,1.81-1.81s-0.81-1.81-1.81-1.81C290.07,98.99,289.25,99.8,289.25,100.79z"/>
	
		<ellipse style="fill:#FFFFFF;stroke:#00B3E1;stroke-width:0.6;stroke-miterlimit:10;enable-background:new    ;" cx="287.44" cy="100.79" rx="1.81" ry="1.81"/>
	<path style="fill:#FFFFFF;stroke:#00B3E1;stroke-width:0.6;stroke-miterlimit:10;enable-background:new    ;" d="M282,100.79
		c0,1,0.81,1.81,1.81,1.81c1,0,1.81-0.81,1.81-1.81s-0.81-1.81-1.81-1.81C282.81,98.99,282,99.8,282,100.79z"/>
	<path style="opacity:0.25;fill:#FFFFFF;stroke:#00B3E1;stroke-width:0.6;stroke-miterlimit:10;" d="M365.38,97.18
		c0,1,0.81,1.81,1.81,1.81c1,0,1.81-0.81,1.81-1.81s-0.81-1.81-1.81-1.81C366.19,95.37,365.38,96.19,365.38,97.18z"/>
	<path style="opacity:0.25;fill:#FFFFFF;stroke:#00B3E1;stroke-width:0.6;stroke-miterlimit:10;" d="M361.75,97.18
		c0,1,0.81,1.81,1.81,1.81s1.81-0.81,1.81-1.81s-0.81-1.81-1.81-1.81C362.58,95.37,361.75,96.19,361.75,97.18z"/>
	<path style="opacity:0.25;fill:#FFFFFF;stroke:#00B3E1;stroke-width:0.6;stroke-miterlimit:10;" d="M358.14,97.18
		c0,1,0.81,1.81,1.81,1.81c1,0,1.81-0.81,1.81-1.81s-0.81-1.81-1.81-1.81C358.95,95.37,358.14,96.19,358.14,97.18z"/>
	<path style="opacity:0.25;fill:#FFFFFF;stroke:#00B3E1;stroke-width:0.6;stroke-miterlimit:10;" d="M354.51,97.18
		c0,1,0.81,1.81,1.81,1.81s1.81-0.81,1.81-1.81s-0.81-1.81-1.81-1.81S354.51,96.19,354.51,97.18z"/>
	<path style="opacity:0.25;fill:#FFFFFF;stroke:#00B3E1;stroke-width:0.6;stroke-miterlimit:10;" d="M350.88,97.18
		c0,1,0.81,1.81,1.81,1.81s1.81-0.81,1.81-1.81s-0.81-1.81-1.81-1.81C351.7,95.37,350.88,96.19,350.88,97.18z"/>
	<path style="opacity:0.25;fill:#FFFFFF;stroke:#00B3E1;stroke-width:0.6;stroke-miterlimit:10;" d="M347.26,97.18
		c0,1,0.81,1.81,1.81,1.81c1,0,1.81-0.81,1.81-1.81s-0.81-1.81-1.81-1.81C348.07,95.37,347.26,96.19,347.26,97.18z"/>
	<path style="opacity:0.25;fill:#FFFFFF;stroke:#00B3E1;stroke-width:0.6;stroke-miterlimit:10;" d="M343.63,97.18
		c0,1,0.81,1.81,1.81,1.81c1,0,1.81-0.81,1.81-1.81s-0.81-1.81-1.81-1.81C344.44,95.37,343.63,96.19,343.63,97.18z"/>
	<path style="opacity:0.25;fill:#FFFFFF;stroke:#00B3E1;stroke-width:0.6;stroke-miterlimit:10;" d="M340,97.18
		c0,1,0.81,1.81,1.81,1.81c1,0,1.81-0.81,1.81-1.81s-0.81-1.81-1.81-1.81C340.82,95.37,340,96.19,340,97.18z"/>
	<path style="opacity:0.25;fill:#FFFFFF;stroke:#00B3E1;stroke-width:0.6;stroke-miterlimit:10;" d="M336.38,97.18
		c0,1,0.81,1.81,1.81,1.81c1,0,1.81-0.81,1.81-1.81s-0.81-1.81-1.81-1.81C337.19,95.37,336.38,96.19,336.38,97.18z"/>
	<path style="opacity:0.25;fill:#FFFFFF;stroke:#00B3E1;stroke-width:0.6;stroke-miterlimit:10;" d="M332.76,97.18
		c0,1,0.81,1.81,1.81,1.81s1.81-0.81,1.81-1.81s-0.81-1.81-1.81-1.81S332.76,96.19,332.76,97.18z"/>
	<path style="opacity:0.25;fill:#FFFFFF;stroke:#00B3E1;stroke-width:0.6;stroke-miterlimit:10;" d="M329.13,97.18
		c0,1,0.81,1.81,1.81,1.81s1.81-0.81,1.81-1.81s-0.81-1.81-1.81-1.81S329.13,96.19,329.13,97.18z"/>
	<path style="opacity:0.25;fill:#FFFFFF;stroke:#00B3E1;stroke-width:0.6;stroke-miterlimit:10;" d="M325.5,97.18
		c0,1,0.81,1.81,1.81,1.81c1,0,1.81-0.81,1.81-1.81s-0.81-1.81-1.81-1.81C326.31,95.37,325.5,96.19,325.5,97.18z"/>
	<path style="fill:#FFFFFF;stroke:#00B3E1;stroke-width:0.6;stroke-miterlimit:10;enable-background:new    ;" d="M307.38,97.18
		c0,1,0.81,1.81,1.81,1.81s1.81-0.81,1.81-1.81s-0.81-1.81-1.81-1.81S307.38,96.19,307.38,97.18z"/>
	<path style="fill:#FFFFFF;stroke:#00B3E1;stroke-width:0.6;stroke-miterlimit:10;enable-background:new    ;" d="M303.75,97.18
		c0,1,0.81,1.81,1.81,1.81c1,0,1.81-0.81,1.81-1.81s-0.81-1.81-1.81-1.81C304.56,95.37,303.75,96.19,303.75,97.18z"/>
	<path style="fill:#FFFFFF;stroke:#00B3E1;stroke-width:0.6;stroke-miterlimit:10;enable-background:new    ;" d="M300.12,97.18
		c0,1,0.81,1.81,1.81,1.81s1.81-0.81,1.81-1.81s-0.81-1.81-1.81-1.81C300.94,95.37,300.12,96.19,300.12,97.18z"/>
	<path style="fill:#FFFFFF;stroke:#00B3E1;stroke-width:0.6;stroke-miterlimit:10;enable-background:new    ;" d="M296.5,97.18
		c0,1,0.81,1.81,1.81,1.81s1.81-0.81,1.81-1.81s-0.81-1.81-1.81-1.81S296.5,96.19,296.5,97.18z"/>
	<path style="fill:#FFFFFF;stroke:#00B3E1;stroke-width:0.6;stroke-miterlimit:10;enable-background:new    ;" d="M292.88,97.18
		c0,1,0.81,1.81,1.81,1.81c1,0,1.81-0.81,1.81-1.81s-0.81-1.81-1.81-1.81C293.69,95.37,292.88,96.19,292.88,97.18z"/>
	<path style="fill:#FFFFFF;stroke:#00B3E1;stroke-width:0.6;stroke-miterlimit:10;enable-background:new    ;" d="M289.25,97.18
		c0,1,0.81,1.81,1.81,1.81s1.81-0.81,1.81-1.81s-0.81-1.81-1.81-1.81C290.07,95.37,289.25,96.19,289.25,97.18z"/>
	<path style="fill:#FFFFFF;stroke:#00B3E1;stroke-width:0.6;stroke-miterlimit:10;enable-background:new    ;" d="M285.63,97.18
		c0,1,0.81,1.81,1.81,1.81s1.81-0.81,1.81-1.81s-0.81-1.81-1.81-1.81S285.63,96.19,285.63,97.18z"/>
	
		<ellipse style="opacity:0.25;fill:#FFFFFF;stroke:#00B3E1;stroke-width:0.6;stroke-miterlimit:10;" cx="363.57" cy="93.56" rx="1.81" ry="1.81"/>
	<path style="opacity:0.25;fill:#FFFFFF;stroke:#00B3E1;stroke-width:0.6;stroke-miterlimit:10;" d="M358.14,93.56
		c0,1,0.81,1.81,1.81,1.81c1,0,1.81-0.81,1.81-1.81s-0.81-1.81-1.81-1.81C358.95,91.76,358.14,92.57,358.14,93.56z"/>
	
		<ellipse style="opacity:0.25;fill:#FFFFFF;stroke:#00B3E1;stroke-width:0.6;stroke-miterlimit:10;" cx="352.7" cy="93.56" rx="1.81" ry="1.81"/>
	<path style="opacity:0.25;fill:#FFFFFF;stroke:#00B3E1;stroke-width:0.6;stroke-miterlimit:10;" d="M347.26,93.56
		c0,1,0.81,1.81,1.81,1.81c1,0,1.81-0.81,1.81-1.81s-0.81-1.81-1.81-1.81C348.07,91.76,347.26,92.57,347.26,93.56z"/>
	
		<ellipse style="opacity:0.25;fill:#FFFFFF;stroke:#00B3E1;stroke-width:0.6;stroke-miterlimit:10;" cx="345.44" cy="93.56" rx="1.81" ry="1.81"/>
	<path style="opacity:0.25;fill:#FFFFFF;stroke:#00B3E1;stroke-width:0.6;stroke-miterlimit:10;" d="M340,93.56
		c0,1,0.81,1.81,1.81,1.81c1,0,1.81-0.81,1.81-1.81s-0.81-1.81-1.81-1.81C340.82,91.76,340,92.57,340,93.56z"/>
	<path style="opacity:0.25;fill:#FFFFFF;stroke:#00B3E1;stroke-width:0.6;stroke-miterlimit:10;" d="M336.38,93.56
		c0,1,0.81,1.81,1.81,1.81c1,0,1.81-0.81,1.81-1.81s-0.81-1.81-1.81-1.81C337.19,91.76,336.38,92.57,336.38,93.56z"/>
	
		<ellipse style="opacity:0.25;fill:#FFFFFF;stroke:#00B3E1;stroke-width:0.6;stroke-miterlimit:10;" cx="334.57" cy="93.56" rx="1.81" ry="1.81"/>
	<path style="opacity:0.25;fill:#FFFFFF;stroke:#00B3E1;stroke-width:0.6;stroke-miterlimit:10;" d="M329.13,93.56
		c0,1,0.81,1.81,1.81,1.81s1.81-0.81,1.81-1.81s-0.81-1.81-1.81-1.81S329.13,92.57,329.13,93.56z"/>
	<path style="opacity:0.25;fill:#FFFFFF;stroke:#00B3E1;stroke-width:0.6;stroke-miterlimit:10;" d="M325.5,93.56
		c0,1,0.81,1.81,1.81,1.81c1,0,1.81-0.81,1.81-1.81s-0.81-1.81-1.81-1.81C326.31,91.76,325.5,92.57,325.5,93.56z"/>
	
		<ellipse style="opacity:0.25;fill:#FFFFFF;stroke:#00B3E1;stroke-width:0.6;stroke-miterlimit:10;" cx="323.69" cy="93.56" rx="1.81" ry="1.81"/>
	<path style="fill:#FFFFFF;stroke:#00B3E1;stroke-width:0.6;stroke-miterlimit:10;enable-background:new    ;" d="M311.01,93.56
		c0,1,0.81,1.81,1.81,1.81c1,0,1.81-0.81,1.81-1.81s-0.81-1.81-1.81-1.81C311.82,91.76,311.01,92.57,311.01,93.56z"/>
	<path style="fill:#FFFFFF;stroke:#00B3E1;stroke-width:0.6;stroke-miterlimit:10;enable-background:new    ;" d="M307.38,93.56
		c0,1,0.81,1.81,1.81,1.81s1.81-0.81,1.81-1.81s-0.81-1.81-1.81-1.81S307.38,92.57,307.38,93.56z"/>
	
		<ellipse style="fill:#FFFFFF;stroke:#00B3E1;stroke-width:0.6;stroke-miterlimit:10;enable-background:new    ;" cx="305.57" cy="93.56" rx="1.81" ry="1.81"/>
	<path style="fill:#FFFFFF;stroke:#00B3E1;stroke-width:0.6;stroke-miterlimit:10;enable-background:new    ;" d="M300.12,93.56
		c0,1,0.81,1.81,1.81,1.81s1.81-0.81,1.81-1.81s-0.81-1.81-1.81-1.81C300.94,91.76,300.12,92.57,300.12,93.56z"/>
	
		<ellipse style="fill:#FFFFFF;stroke:#00B3E1;stroke-width:0.6;stroke-miterlimit:10;enable-background:new    ;" cx="298.31" cy="93.56" rx="1.81" ry="1.81"/>
	<path style="fill:#FFFFFF;stroke:#00B3E1;stroke-width:0.6;stroke-miterlimit:10;enable-background:new    ;" d="M292.88,93.56
		c0,1,0.81,1.81,1.81,1.81c1,0,1.81-0.81,1.81-1.81s-0.81-1.81-1.81-1.81C293.69,91.76,292.88,92.57,292.88,93.56z"/>
	<path style="fill:#FFFFFF;stroke:#00B3E1;stroke-width:0.6;stroke-miterlimit:10;enable-background:new    ;" d="M289.25,93.56
		c0,1,0.81,1.81,1.81,1.81s1.81-0.81,1.81-1.81s-0.81-1.81-1.81-1.81C290.07,91.76,289.25,92.57,289.25,93.56z"/>
	<path style="opacity:0.25;fill:#FFFFFF;stroke:#00B3E1;stroke-width:0.6;stroke-miterlimit:10;" d="M354.51,89.95
		c0,1,0.81,1.81,1.81,1.81s1.81-0.81,1.81-1.81s-0.81-1.81-1.81-1.81S354.51,88.95,354.51,89.95z"/>
	<path style="opacity:0.25;fill:#FFFFFF;stroke:#00B3E1;stroke-width:0.6;stroke-miterlimit:10;" d="M350.88,89.95
		c0,1,0.81,1.81,1.81,1.81s1.81-0.81,1.81-1.81s-0.81-1.81-1.81-1.81C351.7,88.14,350.88,88.95,350.88,89.95z"/>
	<path style="opacity:0.25;fill:#FFFFFF;stroke:#00B3E1;stroke-width:0.6;stroke-miterlimit:10;" d="M347.26,89.95
		c0,1,0.81,1.81,1.81,1.81c1,0,1.81-0.81,1.81-1.81s-0.81-1.81-1.81-1.81C348.07,88.14,347.26,88.95,347.26,89.95z"/>
	<path style="opacity:0.25;fill:#FFFFFF;stroke:#00B3E1;stroke-width:0.6;stroke-miterlimit:10;" d="M343.63,89.95
		c0,1,0.81,1.81,1.81,1.81c1,0,1.81-0.81,1.81-1.81s-0.81-1.81-1.81-1.81C344.44,88.14,343.63,88.95,343.63,89.95z"/>
	<path style="opacity:0.25;fill:#FFFFFF;stroke:#00B3E1;stroke-width:0.6;stroke-miterlimit:10;" d="M340,89.95
		c0,1,0.81,1.81,1.81,1.81c1,0,1.81-0.81,1.81-1.81s-0.81-1.81-1.81-1.81C340.82,88.14,340,88.95,340,89.95z"/>
	<path style="opacity:0.25;fill:#FFFFFF;stroke:#00B3E1;stroke-width:0.6;stroke-miterlimit:10;" d="M336.38,89.95
		c0,1,0.81,1.81,1.81,1.81c1,0,1.81-0.81,1.81-1.81s-0.81-1.81-1.81-1.81C337.19,88.14,336.38,88.95,336.38,89.95z"/>
	<path style="opacity:0.25;fill:#FFFFFF;stroke:#00B3E1;stroke-width:0.6;stroke-miterlimit:10;" d="M332.76,89.95
		c0,1,0.81,1.81,1.81,1.81s1.81-0.81,1.81-1.81s-0.81-1.81-1.81-1.81S332.76,88.95,332.76,89.95z"/>
	<path style="opacity:0.25;fill:#FFFFFF;stroke:#00B3E1;stroke-width:0.6;stroke-miterlimit:10;" d="M329.13,89.95
		c0,1,0.81,1.81,1.81,1.81s1.81-0.81,1.81-1.81s-0.81-1.81-1.81-1.81S329.13,88.95,329.13,89.95z"/>
	<path style="opacity:0.25;fill:#FFFFFF;stroke:#00B3E1;stroke-width:0.6;stroke-miterlimit:10;" d="M325.5,89.95
		c0,1,0.81,1.81,1.81,1.81c1,0,1.81-0.81,1.81-1.81s-0.81-1.81-1.81-1.81C326.31,88.14,325.5,88.95,325.5,89.95z"/>
	<path style="fill:#FFFFFF;stroke:#00B3E1;stroke-width:0.6;stroke-miterlimit:10;enable-background:new    ;" d="M307.38,89.95
		c0,1,0.81,1.81,1.81,1.81s1.81-0.81,1.81-1.81s-0.81-1.81-1.81-1.81S307.38,88.95,307.38,89.95z"/>
	<path style="fill:#FFFFFF;stroke:#00B3E1;stroke-width:0.6;stroke-miterlimit:10;enable-background:new    ;" d="M303.75,89.95
		c0,1,0.81,1.81,1.81,1.81c1,0,1.81-0.81,1.81-1.81s-0.81-1.81-1.81-1.81C304.56,88.14,303.75,88.95,303.75,89.95z"/>
	<path style="fill:#FFFFFF;stroke:#00B3E1;stroke-width:0.6;stroke-miterlimit:10;enable-background:new    ;" d="M300.12,89.95
		c0,1,0.81,1.81,1.81,1.81s1.81-0.81,1.81-1.81s-0.81-1.81-1.81-1.81C300.94,88.14,300.12,88.95,300.12,89.95z"/>
	<path style="fill:#FFFFFF;stroke:#00B3E1;stroke-width:0.6;stroke-miterlimit:10;enable-background:new    ;" d="M296.5,89.95
		c0,1,0.81,1.81,1.81,1.81s1.81-0.81,1.81-1.81s-0.81-1.81-1.81-1.81S296.5,88.95,296.5,89.95z"/>
	<path style="fill:#FFFFFF;stroke:#00B3E1;stroke-width:0.6;stroke-miterlimit:10;enable-background:new    ;" d="M292.88,89.95
		c0,1,0.81,1.81,1.81,1.81c1,0,1.81-0.81,1.81-1.81s-0.81-1.81-1.81-1.81C293.69,88.14,292.88,88.95,292.88,89.95z"/>
	<path style="fill:#FFFFFF;stroke:#00B3E1;stroke-width:0.6;stroke-miterlimit:10;enable-background:new    ;" d="M289.25,89.95
		c0,1,0.81,1.81,1.81,1.81s1.81-0.81,1.81-1.81s-0.81-1.81-1.81-1.81C290.07,88.14,289.25,88.95,289.25,89.95z"/>
	<path style="opacity:0.25;fill:#FFFFFF;stroke:#00B3E1;stroke-width:0.6;stroke-miterlimit:10;" d="M354.51,86.33
		c0,1,0.81,1.81,1.81,1.81s1.81-0.81,1.81-1.81s-0.81-1.81-1.81-1.81C355.32,84.52,354.51,85.33,354.51,86.33z"/>
	<path style="opacity:0.25;fill:#FFFFFF;stroke:#00B3E1;stroke-width:0.6;stroke-miterlimit:10;" d="M350.88,86.33
		c0,1,0.81,1.81,1.81,1.81s1.81-0.81,1.81-1.81s-0.81-1.81-1.81-1.81C351.7,84.52,350.88,85.33,350.88,86.33z"/>
	<path style="opacity:0.25;fill:#FFFFFF;stroke:#00B3E1;stroke-width:0.6;stroke-miterlimit:10;" d="M347.26,86.33
		c0,1,0.81,1.81,1.81,1.81c1,0,1.81-0.81,1.81-1.81s-0.81-1.81-1.81-1.81C348.07,84.52,347.26,85.33,347.26,86.33z"/>
	<path style="opacity:0.25;fill:#FFFFFF;stroke:#00B3E1;stroke-width:0.6;stroke-miterlimit:10;" d="M343.63,86.33
		c0,1,0.81,1.81,1.81,1.81c1,0,1.81-0.81,1.81-1.81s-0.81-1.81-1.81-1.81C344.44,84.52,343.63,85.33,343.63,86.33z"/>
	<path style="opacity:0.25;fill:#FFFFFF;stroke:#00B3E1;stroke-width:0.6;stroke-miterlimit:10;" d="M340,86.33
		c0,1,0.81,1.81,1.81,1.81c1,0,1.81-0.81,1.81-1.81s-0.81-1.81-1.81-1.81C340.82,84.52,340,85.33,340,86.33z"/>
	<path style="opacity:0.25;fill:#FFFFFF;stroke:#00B3E1;stroke-width:0.6;stroke-miterlimit:10;" d="M336.38,86.33
		c0,1,0.81,1.81,1.81,1.81c1,0,1.81-0.81,1.81-1.81s-0.81-1.81-1.81-1.81C337.19,84.52,336.38,85.33,336.38,86.33z"/>
	<path style="opacity:0.25;fill:#FFFFFF;stroke:#00B3E1;stroke-width:0.6;stroke-miterlimit:10;" d="M332.76,86.33
		c0,1,0.81,1.81,1.81,1.81s1.81-0.81,1.81-1.81s-0.81-1.81-1.81-1.81C333.57,84.52,332.76,85.33,332.76,86.33z"/>
	<path style="fill:#FFFFFF;stroke:#00B3E1;stroke-width:0.6;stroke-miterlimit:10;enable-background:new    ;" d="M307.38,86.33
		c0,1,0.81,1.81,1.81,1.81s1.81-0.81,1.81-1.81s-0.81-1.81-1.81-1.81C308.19,84.52,307.38,85.33,307.38,86.33z"/>
	<path style="fill:#FFFFFF;stroke:#00B3E1;stroke-width:0.6;stroke-miterlimit:10;enable-background:new    ;" d="M303.75,86.33
		c0,1,0.81,1.81,1.81,1.81c1,0,1.81-0.81,1.81-1.81s-0.81-1.81-1.81-1.81C304.56,84.52,303.75,85.33,303.75,86.33z"/>
	<path style="fill:#FFFFFF;stroke:#00B3E1;stroke-width:0.6;stroke-miterlimit:10;enable-background:new    ;" d="M300.12,86.33
		c0,1,0.81,1.81,1.81,1.81s1.81-0.81,1.81-1.81s-0.81-1.81-1.81-1.81C300.94,84.52,300.12,85.33,300.12,86.33z"/>
	<path style="fill:#FFFFFF;stroke:#00B3E1;stroke-width:0.6;stroke-miterlimit:10;enable-background:new    ;" d="M296.5,86.33
		c0,1,0.81,1.81,1.81,1.81s1.81-0.81,1.81-1.81s-0.81-1.81-1.81-1.81C297.32,84.52,296.5,85.33,296.5,86.33z"/>
	<path style="fill:#FFFFFF;stroke:#00B3E1;stroke-width:0.6;stroke-miterlimit:10;enable-background:new    ;" d="M292.88,86.33
		c0,1,0.81,1.81,1.81,1.81c1,0,1.81-0.81,1.81-1.81s-0.81-1.81-1.81-1.81C293.69,84.52,292.88,85.33,292.88,86.33z"/>
	<path style="fill:#FFFFFF;stroke:#00B3E1;stroke-width:0.6;stroke-miterlimit:10;enable-background:new    ;" d="M289.25,86.33
		c0,1,0.81,1.81,1.81,1.81s1.81-0.81,1.81-1.81s-0.81-1.81-1.81-1.81C290.07,84.52,289.25,85.33,289.25,86.33z"/>
	<path style="fill:#FFFFFF;stroke:#00B3E1;stroke-width:0.6;stroke-miterlimit:10;enable-background:new    ;" d="M285.63,86.33
		c0,1,0.81,1.81,1.81,1.81s1.81-0.81,1.81-1.81s-0.81-1.81-1.81-1.81C286.44,84.52,285.63,85.33,285.63,86.33z"/>
	
		<ellipse style="opacity:0.25;fill:#FFFFFF;stroke:#00B3E1;stroke-width:0.6;stroke-miterlimit:10;" cx="352.7" cy="82.71" rx="1.81" ry="1.81"/>
	<path style="opacity:0.25;fill:#FFFFFF;stroke:#00B3E1;stroke-width:0.6;stroke-miterlimit:10;" d="M347.26,82.71
		c0,1,0.81,1.81,1.81,1.81c1,0,1.81-0.81,1.81-1.81s-0.81-1.81-1.81-1.81C348.07,80.9,347.26,81.71,347.26,82.71z"/>
	
		<ellipse style="opacity:0.25;fill:#FFFFFF;stroke:#00B3E1;stroke-width:0.6;stroke-miterlimit:10;" cx="345.44" cy="82.71" rx="1.81" ry="1.81"/>
	<path style="opacity:0.25;fill:#FFFFFF;stroke:#00B3E1;stroke-width:0.6;stroke-miterlimit:10;" d="M340,82.71
		c0,1,0.81,1.81,1.81,1.81c1,0,1.81-0.81,1.81-1.81s-0.81-1.81-1.81-1.81C340.82,80.9,340,81.71,340,82.71z"/>
	<path style="opacity:0.25;fill:#FFFFFF;stroke:#00B3E1;stroke-width:0.6;stroke-miterlimit:10;" d="M336.38,82.71
		c0,1,0.81,1.81,1.81,1.81c1,0,1.81-0.81,1.81-1.81s-0.81-1.81-1.81-1.81C337.19,80.9,336.38,81.71,336.38,82.71z"/>
	
		<ellipse style="opacity:0.25;fill:#FFFFFF;stroke:#00B3E1;stroke-width:0.6;stroke-miterlimit:10;" cx="334.57" cy="82.71" rx="1.81" ry="1.81"/>
	<path style="fill:#FFFFFF;stroke:#00B3E1;stroke-width:0.6;stroke-miterlimit:10;enable-background:new    ;" d="M307.38,82.71
		c0,1,0.81,1.81,1.81,1.81s1.81-0.81,1.81-1.81s-0.81-1.81-1.81-1.81C308.19,80.9,307.38,81.71,307.38,82.71z"/>
	
		<ellipse style="fill:#FFFFFF;stroke:#00B3E1;stroke-width:0.6;stroke-miterlimit:10;enable-background:new    ;" cx="305.57" cy="82.71" rx="1.81" ry="1.81"/>
	<path style="fill:#FFFFFF;stroke:#00B3E1;stroke-width:0.6;stroke-miterlimit:10;enable-background:new    ;" d="M300.12,82.71
		c0,1,0.81,1.81,1.81,1.81s1.81-0.81,1.81-1.81s-0.81-1.81-1.81-1.81C300.94,80.9,300.12,81.71,300.12,82.71z"/>
	
		<ellipse style="fill:#FFFFFF;stroke:#00B3E1;stroke-width:0.6;stroke-miterlimit:10;enable-background:new    ;" cx="298.31" cy="82.71" rx="1.81" ry="1.81"/>
	<path style="fill:#FFFFFF;stroke:#00B3E1;stroke-width:0.6;stroke-miterlimit:10;enable-background:new    ;" d="M292.88,82.71
		c0,1,0.81,1.81,1.81,1.81c1,0,1.81-0.81,1.81-1.81s-0.81-1.81-1.81-1.81C293.69,80.9,292.88,81.71,292.88,82.71z"/>
	<path style="fill:#FFFFFF;stroke:#00B3E1;stroke-width:0.6;stroke-miterlimit:10;enable-background:new    ;" d="M289.25,82.71
		c0,1,0.81,1.81,1.81,1.81s1.81-0.81,1.81-1.81s-0.81-1.81-1.81-1.81C290.07,80.9,289.25,81.71,289.25,82.71z"/>
	
		<ellipse style="fill:#FFFFFF;stroke:#00B3E1;stroke-width:0.6;stroke-miterlimit:10;enable-background:new    ;" cx="287.44" cy="82.71" rx="1.81" ry="1.81"/>
	<path style="opacity:0.25;fill:#FFFFFF;stroke:#00B3E1;stroke-width:0.6;stroke-miterlimit:10;" d="M350.88,79.09
		c0,1,0.81,1.81,1.81,1.81s1.81-0.81,1.81-1.81s-0.81-1.81-1.81-1.81C351.7,77.28,350.88,78.11,350.88,79.09z"/>
	<path style="opacity:0.25;fill:#FFFFFF;stroke:#00B3E1;stroke-width:0.6;stroke-miterlimit:10;" d="M347.26,79.09
		c0,1,0.81,1.81,1.81,1.81c1,0,1.81-0.81,1.81-1.81s-0.81-1.81-1.81-1.81C348.07,77.28,347.26,78.11,347.26,79.09z"/>
	<path style="opacity:0.25;fill:#FFFFFF;stroke:#00B3E1;stroke-width:0.6;stroke-miterlimit:10;" d="M343.63,79.09
		c0,1,0.81,1.81,1.81,1.81c1,0,1.81-0.81,1.81-1.81s-0.81-1.81-1.81-1.81C344.44,77.28,343.63,78.11,343.63,79.09z"/>
	<path style="opacity:0.25;fill:#FFFFFF;stroke:#00B3E1;stroke-width:0.6;stroke-miterlimit:10;" d="M340,79.09
		c0,1,0.81,1.81,1.81,1.81c1,0,1.81-0.81,1.81-1.81s-0.81-1.81-1.81-1.81C340.82,77.28,340,78.11,340,79.09z"/>
	<path style="opacity:0.25;fill:#FFFFFF;stroke:#00B3E1;stroke-width:0.6;stroke-miterlimit:10;" d="M336.38,79.09
		c0,1,0.81,1.81,1.81,1.81c1,0,1.81-0.81,1.81-1.81s-0.81-1.81-1.81-1.81C337.19,77.28,336.38,78.11,336.38,79.09z"/>
	<path style="opacity:0.25;fill:#FFFFFF;stroke:#00B3E1;stroke-width:0.6;stroke-miterlimit:10;" d="M332.76,79.09
		c0,1,0.81,1.81,1.81,1.81s1.81-0.81,1.81-1.81s-0.81-1.81-1.81-1.81C333.57,77.28,332.76,78.11,332.76,79.09z"/>
	<path style="fill:#FFFFFF;stroke:#00B3E1;stroke-width:0.6;stroke-miterlimit:10;enable-background:new    ;" d="M311.01,79.09
		c0,1,0.81,1.81,1.81,1.81c1,0,1.81-0.81,1.81-1.81s-0.81-1.81-1.81-1.81C311.82,77.28,311.01,78.11,311.01,79.09z"/>
	<path style="fill:#FFFFFF;stroke:#00B3E1;stroke-width:0.6;stroke-miterlimit:10;enable-background:new    ;" d="M307.38,79.09
		c0,1,0.81,1.81,1.81,1.81s1.81-0.81,1.81-1.81s-0.81-1.81-1.81-1.81C308.19,77.28,307.38,78.11,307.38,79.09z"/>
	<path style="fill:#FFFFFF;stroke:#00B3E1;stroke-width:0.6;stroke-miterlimit:10;enable-background:new    ;" d="M303.75,79.09
		c0,1,0.81,1.81,1.81,1.81c1,0,1.81-0.81,1.81-1.81s-0.81-1.81-1.81-1.81C304.56,77.28,303.75,78.11,303.75,79.09z"/>
	<path style="fill:#FFFFFF;stroke:#00B3E1;stroke-width:0.6;stroke-miterlimit:10;enable-background:new    ;" d="M300.12,79.09
		c0,1,0.81,1.81,1.81,1.81s1.81-0.81,1.81-1.81s-0.81-1.81-1.81-1.81C300.94,77.28,300.12,78.11,300.12,79.09z"/>
	<path style="fill:#FFFFFF;stroke:#00B3E1;stroke-width:0.6;stroke-miterlimit:10;enable-background:new    ;" d="M296.5,79.09
		c0,1,0.81,1.81,1.81,1.81s1.81-0.81,1.81-1.81s-0.81-1.81-1.81-1.81C297.32,77.28,296.5,78.11,296.5,79.09z"/>
	<path style="fill:#FFFFFF;stroke:#00B3E1;stroke-width:0.6;stroke-miterlimit:10;enable-background:new    ;" d="M292.88,79.09
		c0,1,0.81,1.81,1.81,1.81c1,0,1.81-0.81,1.81-1.81s-0.81-1.81-1.81-1.81C293.69,77.28,292.88,78.11,292.88,79.09z"/>
	<path style="fill:#FFFFFF;stroke:#00B3E1;stroke-width:0.6;stroke-miterlimit:10;enable-background:new    ;" d="M289.25,79.09
		c0,1,0.81,1.81,1.81,1.81s1.81-0.81,1.81-1.81s-0.81-1.81-1.81-1.81C290.07,77.28,289.25,78.11,289.25,79.09z"/>
	<path style="fill:#FFFFFF;stroke:#00B3E1;stroke-width:0.6;stroke-miterlimit:10;enable-background:new    ;" d="M285.63,79.09
		c0,1,0.81,1.81,1.81,1.81s1.81-0.81,1.81-1.81s-0.81-1.81-1.81-1.81C286.44,77.28,285.63,78.11,285.63,79.09z"/>
	
		<ellipse style="opacity:0.25;fill:#FFFFFF;stroke:#00B3E1;stroke-width:0.6;stroke-miterlimit:10;" cx="352.7" cy="75.49" rx="1.81" ry="1.81"/>
	<path style="opacity:0.25;fill:#FFFFFF;stroke:#00B3E1;stroke-width:0.6;stroke-miterlimit:10;" d="M347.26,75.49
		c0,1,0.81,1.81,1.81,1.81c1,0,1.81-0.81,1.81-1.81s-0.81-1.81-1.81-1.81C348.07,73.68,347.26,74.49,347.26,75.49z"/>
	
		<ellipse style="opacity:0.25;fill:#FFFFFF;stroke:#00B3E1;stroke-width:0.6;stroke-miterlimit:10;" cx="345.44" cy="75.49" rx="1.81" ry="1.81"/>
	<path style="opacity:0.25;fill:#FFFFFF;stroke:#00B3E1;stroke-width:0.6;stroke-miterlimit:10;" d="M340,75.49
		c0,1,0.81,1.81,1.81,1.81c1,0,1.81-0.81,1.81-1.81s-0.81-1.81-1.81-1.81C340.82,73.68,340,74.49,340,75.49z"/>
	<path style="opacity:0.25;fill:#FFFFFF;stroke:#00B3E1;stroke-width:0.6;stroke-miterlimit:10;" d="M336.38,75.49
		c0,1,0.81,1.81,1.81,1.81c1,0,1.81-0.81,1.81-1.81s-0.81-1.81-1.81-1.81C337.19,73.68,336.38,74.49,336.38,75.49z"/>
	
		<ellipse style="opacity:0.25;fill:#FFFFFF;stroke:#00B3E1;stroke-width:0.6;stroke-miterlimit:10;" cx="334.57" cy="75.49" rx="1.81" ry="1.81"/>
	<path style="opacity:0.25;fill:#FFFFFF;stroke:#00B3E1;stroke-width:0.6;stroke-miterlimit:10;" d="M329.13,75.49
		c0,1,0.81,1.81,1.81,1.81s1.81-0.81,1.81-1.81s-0.81-1.81-1.81-1.81S329.13,74.49,329.13,75.49z"/>
	
		<ellipse style="fill:#FFFFFF;stroke:#00B3E1;stroke-width:0.6;stroke-miterlimit:10;enable-background:new    ;" cx="316.44" cy="75.49" rx="1.81" ry="1.81"/>
	<path style="fill:#FFFFFF;stroke:#00B3E1;stroke-width:0.6;stroke-miterlimit:10;enable-background:new    ;" d="M311.01,75.49
		c0,1,0.81,1.81,1.81,1.81c1,0,1.81-0.81,1.81-1.81s-0.81-1.81-1.81-1.81C311.82,73.68,311.01,74.49,311.01,75.49z"/>
	<path style="fill:#FFFFFF;stroke:#00B3E1;stroke-width:0.6;stroke-miterlimit:10;enable-background:new    ;" d="M307.38,75.49
		c0,1,0.81,1.81,1.81,1.81s1.81-0.81,1.81-1.81s-0.81-1.81-1.81-1.81S307.38,74.49,307.38,75.49z"/>
	
		<ellipse style="fill:#FFFFFF;stroke:#00B3E1;stroke-width:0.6;stroke-miterlimit:10;enable-background:new    ;" cx="305.57" cy="75.49" rx="1.81" ry="1.81"/>
	<path style="fill:#FFFFFF;stroke:#00B3E1;stroke-width:0.6;stroke-miterlimit:10;enable-background:new    ;" d="M300.12,75.49
		c0,1,0.81,1.81,1.81,1.81s1.81-0.81,1.81-1.81s-0.81-1.81-1.81-1.81C300.94,73.68,300.12,74.49,300.12,75.49z"/>
	
		<ellipse style="fill:#FFFFFF;stroke:#00B3E1;stroke-width:0.6;stroke-miterlimit:10;enable-background:new    ;" cx="298.31" cy="75.49" rx="1.81" ry="1.81"/>
	
		<ellipse style="fill:#FFFFFF;stroke:#00B3E1;stroke-width:0.6;stroke-miterlimit:10;enable-background:new    ;" cx="287.44" cy="75.49" rx="1.81" ry="1.81"/>
	<path style="opacity:0.25;fill:#FFFFFF;stroke:#00B3E1;stroke-width:0.6;stroke-miterlimit:10;" d="M347.26,71.87
		c0,1,0.81,1.81,1.81,1.81c1,0,1.81-0.81,1.81-1.81s-0.81-1.81-1.81-1.81C348.07,70.06,347.26,70.87,347.26,71.87z"/>
	<path style="opacity:0.25;fill:#FFFFFF;stroke:#00B3E1;stroke-width:0.6;stroke-miterlimit:10;" d="M343.63,71.87
		c0,1,0.81,1.81,1.81,1.81c1,0,1.81-0.81,1.81-1.81s-0.81-1.81-1.81-1.81C344.44,70.06,343.63,70.87,343.63,71.87z"/>
	<path style="opacity:0.25;fill:#FFFFFF;stroke:#00B3E1;stroke-width:0.6;stroke-miterlimit:10;" d="M340,71.87
		c0,1,0.81,1.81,1.81,1.81c1,0,1.81-0.81,1.81-1.81s-0.81-1.81-1.81-1.81C340.82,70.06,340,70.87,340,71.87z"/>
	<path style="opacity:0.25;fill:#FFFFFF;stroke:#00B3E1;stroke-width:0.6;stroke-miterlimit:10;" d="M336.38,71.87
		c0,1,0.81,1.81,1.81,1.81c1,0,1.81-0.81,1.81-1.81s-0.81-1.81-1.81-1.81C337.19,70.06,336.38,70.87,336.38,71.87z"/>
	<path style="opacity:0.25;fill:#FFFFFF;stroke:#00B3E1;stroke-width:0.6;stroke-miterlimit:10;" d="M332.76,71.87
		c0,1,0.81,1.81,1.81,1.81s1.81-0.81,1.81-1.81s-0.81-1.81-1.81-1.81S332.76,70.87,332.76,71.87z"/>
	<path style="opacity:0.25;fill:#FFFFFF;stroke:#00B3E1;stroke-width:0.6;stroke-miterlimit:10;" d="M329.13,71.87
		c0,1,0.81,1.81,1.81,1.81s1.81-0.81,1.81-1.81s-0.81-1.81-1.81-1.81S329.13,70.87,329.13,71.87z"/>
	<path style="fill:#FFFFFF;stroke:#00B3E1;stroke-width:0.6;stroke-miterlimit:10;enable-background:new    ;" d="M311.01,71.87
		c0,1,0.81,1.81,1.81,1.81c1,0,1.81-0.81,1.81-1.81s-0.81-1.81-1.81-1.81C311.82,70.06,311.01,70.87,311.01,71.87z"/>
	<path style="fill:#FFFFFF;stroke:#00B3E1;stroke-width:0.6;stroke-miterlimit:10;enable-background:new    ;" d="M307.38,71.87
		c0,1,0.81,1.81,1.81,1.81s1.81-0.81,1.81-1.81s-0.81-1.81-1.81-1.81S307.38,70.87,307.38,71.87z"/>
	<path style="fill:#FFFFFF;stroke:#00B3E1;stroke-width:0.6;stroke-miterlimit:10;enable-background:new    ;" d="M303.75,71.87
		c0,1,0.81,1.81,1.81,1.81c1,0,1.81-0.81,1.81-1.81s-0.81-1.81-1.81-1.81C304.56,70.06,303.75,70.87,303.75,71.87z"/>
	<path style="fill:#FFFFFF;stroke:#00B3E1;stroke-width:0.6;stroke-miterlimit:10;enable-background:new    ;" d="M300.12,71.87
		c0,1,0.81,1.81,1.81,1.81s1.81-0.81,1.81-1.81s-0.81-1.81-1.81-1.81C300.94,70.06,300.12,70.87,300.12,71.87z"/>
	<path style="fill:#FFFFFF;stroke:#00B3E1;stroke-width:0.6;stroke-miterlimit:10;enable-background:new    ;" d="M296.5,71.87
		c0,1,0.81,1.81,1.81,1.81s1.81-0.81,1.81-1.81s-0.81-1.81-1.81-1.81S296.5,70.87,296.5,71.87z"/>
	<path style="fill:#FFFFFF;stroke:#00B3E1;stroke-width:0.6;stroke-miterlimit:10;enable-background:new    ;" d="M292.88,71.87
		c0,1,0.81,1.81,1.81,1.81c1,0,1.81-0.81,1.81-1.81s-0.81-1.81-1.81-1.81C293.69,70.06,292.88,70.87,292.88,71.87z"/>
	<path style="opacity:0.25;fill:#FFFFFF;stroke:#00B3E1;stroke-width:0.6;stroke-miterlimit:10;" d="M343.63,68.25
		c0,1,0.81,1.81,1.81,1.81c1,0,1.81-0.81,1.81-1.81s-0.81-1.81-1.81-1.81C344.44,66.44,343.63,67.25,343.63,68.25z"/>
	<path style="opacity:0.25;fill:#FFFFFF;stroke:#00B3E1;stroke-width:0.6;stroke-miterlimit:10;" d="M340,68.25
		c0,1,0.81,1.81,1.81,1.81c1,0,1.81-0.81,1.81-1.81s-0.81-1.81-1.81-1.81C340.82,66.44,340,67.25,340,68.25z"/>
	<path style="opacity:0.25;fill:#FFFFFF;stroke:#00B3E1;stroke-width:0.6;stroke-miterlimit:10;" d="M336.38,68.25
		c0,1,0.81,1.81,1.81,1.81c1,0,1.81-0.81,1.81-1.81s-0.81-1.81-1.81-1.81C337.19,66.44,336.38,67.25,336.38,68.25z"/>
	<path style="opacity:0.25;fill:#FFFFFF;stroke:#00B3E1;stroke-width:0.6;stroke-miterlimit:10;" d="M332.76,68.25
		c0,1,0.81,1.81,1.81,1.81s1.81-0.81,1.81-1.81s-0.81-1.81-1.81-1.81S332.76,67.25,332.76,68.25z"/>
	<path style="opacity:0.25;fill:#FFFFFF;stroke:#00B3E1;stroke-width:0.6;stroke-miterlimit:10;" d="M325.5,68.25
		c0,1,0.81,1.81,1.81,1.81c1,0,1.81-0.81,1.81-1.81s-0.81-1.81-1.81-1.81C326.31,66.44,325.5,67.25,325.5,68.25z"/>
	<path style="opacity:0.25;fill:#FFFFFF;stroke:#00B3E1;stroke-width:0.6;stroke-miterlimit:10;" d="M321.88,68.25
		c0,1,0.81,1.81,1.81,1.81c1,0,1.81-0.81,1.81-1.81s-0.81-1.81-1.81-1.81C322.69,66.44,321.88,67.25,321.88,68.25z"/>
	<path style="opacity:0.25;fill:#FFFFFF;stroke:#00B3E1;stroke-width:0.6;stroke-miterlimit:10;" d="M318.25,68.25
		c0,1,0.81,1.81,1.81,1.81c1,0,1.81-0.81,1.81-1.81s-0.81-1.81-1.81-1.81C319.07,66.44,318.25,67.25,318.25,68.25z"/>
	<path style="fill:#FFFFFF;stroke:#00B3E1;stroke-width:0.6;stroke-miterlimit:10;enable-background:new    ;" d="M311.01,68.25
		c0,1,0.81,1.81,1.81,1.81c1,0,1.81-0.81,1.81-1.81s-0.81-1.81-1.81-1.81C311.82,66.44,311.01,67.25,311.01,68.25z"/>
	<path style="fill:#FFFFFF;stroke:#00B3E1;stroke-width:0.6;stroke-miterlimit:10;enable-background:new    ;" d="M307.38,68.25
		c0,1,0.81,1.81,1.81,1.81s1.81-0.81,1.81-1.81s-0.81-1.81-1.81-1.81S307.38,67.25,307.38,68.25z"/>
	<path style="fill:#FFFFFF;stroke:#00B3E1;stroke-width:0.6;stroke-miterlimit:10;enable-background:new    ;" d="M307.38,64.63
		c0,1,0.81,1.81,1.81,1.81s1.81-0.81,1.81-1.81c0-1-0.81-1.81-1.81-1.81C308.19,62.82,307.38,63.64,307.38,64.63z"/>
	<path style="fill:#FFFFFF;stroke:#00B3E1;stroke-width:0.6;stroke-miterlimit:10;enable-background:new    ;" d="M303.75,68.25
		c0,1,0.81,1.81,1.81,1.81c1,0,1.81-0.81,1.81-1.81s-0.81-1.81-1.81-1.81C304.56,66.44,303.75,67.25,303.75,68.25z"/>
	<path style="fill:#FFFFFF;stroke:#00B3E1;stroke-width:0.6;stroke-miterlimit:10;enable-background:new    ;" d="M300.12,68.25
		c0,1,0.81,1.81,1.81,1.81s1.81-0.81,1.81-1.81s-0.81-1.81-1.81-1.81C300.94,66.44,300.12,67.25,300.12,68.25z"/>
	<path style="fill:#FFFFFF;stroke:#00B3E1;stroke-width:0.6;stroke-miterlimit:10;enable-background:new    ;" d="M296.5,68.25
		c0,1,0.81,1.81,1.81,1.81s1.81-0.81,1.81-1.81s-0.81-1.81-1.81-1.81S296.5,67.25,296.5,68.25z"/>
	
		<ellipse style="opacity:0.25;fill:#FFFFFF;stroke:#00B3E1;stroke-width:0.6;stroke-miterlimit:10;" cx="345.44" cy="64.63" rx="1.81" ry="1.81"/>
	<path style="opacity:0.25;fill:#FFFFFF;stroke:#00B3E1;stroke-width:0.6;stroke-miterlimit:10;" d="M340,64.63
		c0,1,0.81,1.81,1.81,1.81c1,0,1.81-0.81,1.81-1.81c0-1-0.81-1.81-1.81-1.81C340.82,62.82,340,63.64,340,64.63z"/>
	<path style="opacity:0.25;fill:#FFFFFF;stroke:#00B3E1;stroke-width:0.6;stroke-miterlimit:10;" d="M336.38,64.63
		c0,1,0.81,1.81,1.81,1.81c1,0,1.81-0.81,1.81-1.81c0-1-0.81-1.81-1.81-1.81C337.19,62.82,336.38,63.64,336.38,64.63z"/>
	
		<ellipse style="opacity:0.25;fill:#FFFFFF;stroke:#00B3E1;stroke-width:0.6;stroke-miterlimit:10;" cx="334.57" cy="64.63" rx="1.81" ry="1.81"/>
	<path style="opacity:0.25;fill:#FFFFFF;stroke:#00B3E1;stroke-width:0.6;stroke-miterlimit:10;" d="M329.13,64.63
		c0,1,0.81,1.81,1.81,1.81s1.81-0.81,1.81-1.81c0-1-0.81-1.81-1.81-1.81S329.13,63.64,329.13,64.63z"/>
	<path style="opacity:0.25;fill:#FFFFFF;stroke:#00B3E1;stroke-width:0.6;stroke-miterlimit:10;" d="M325.5,64.63
		c0,1,0.81,1.81,1.81,1.81c1,0,1.81-0.81,1.81-1.81c0-1-0.81-1.81-1.81-1.81C326.31,62.82,325.5,63.64,325.5,64.63z"/>
	
		<ellipse style="opacity:0.25;fill:#FFFFFF;stroke:#00B3E1;stroke-width:0.6;stroke-miterlimit:10;" cx="323.69" cy="64.63" rx="1.81" ry="1.81"/>
	<path style="opacity:0.25;fill:#FFFFFF;stroke:#00B3E1;stroke-width:0.6;stroke-miterlimit:10;" d="M340,61.02
		c0,1,0.81,1.81,1.81,1.81c1,0,1.81-0.81,1.81-1.81s-0.81-1.81-1.81-1.81C340.82,59.21,340,60.02,340,61.02z"/>
	<path style="opacity:0.25;fill:#FFFFFF;stroke:#00B3E1;stroke-width:0.6;stroke-miterlimit:10;" d="M336.38,61.02
		c0,1,0.81,1.81,1.81,1.81c1,0,1.81-0.81,1.81-1.81s-0.81-1.81-1.81-1.81C337.19,59.21,336.38,60.02,336.38,61.02z"/>
	<path style="opacity:0.25;fill:#FFFFFF;stroke:#00B3E1;stroke-width:0.6;stroke-miterlimit:10;" d="M332.76,61.02
		c0,1,0.81,1.81,1.81,1.81s1.81-0.81,1.81-1.81s-0.81-1.81-1.81-1.81C333.57,59.21,332.76,60.02,332.76,61.02z"/>
	<path style="opacity:0.25;fill:#FFFFFF;stroke:#00B3E1;stroke-width:0.6;stroke-miterlimit:10;" d="M329.13,61.02
		c0,1,0.81,1.81,1.81,1.81s1.81-0.81,1.81-1.81s-0.81-1.81-1.81-1.81S329.13,60.02,329.13,61.02z"/>
	<path style="opacity:0.25;fill:#FFFFFF;stroke:#00B3E1;stroke-width:0.6;stroke-miterlimit:10;" d="M325.5,61.02
		c0,1,0.81,1.81,1.81,1.81c1,0,1.81-0.81,1.81-1.81s-0.81-1.81-1.81-1.81C326.31,59.21,325.5,60.02,325.5,61.02z"/>
	<path style="opacity:0.25;fill:#FFFFFF;stroke:#00B3E1;stroke-width:0.6;stroke-miterlimit:10;" d="M321.88,61.02
		c0,1,0.81,1.81,1.81,1.81c1,0,1.81-0.81,1.81-1.81s-0.81-1.81-1.81-1.81C322.69,59.21,321.88,60.02,321.88,61.02z"/>
	<path style="opacity:0.25;fill:#FFFFFF;stroke:#00B3E1;stroke-width:0.6;stroke-miterlimit:10;" d="M340,57.4
		c0,1,0.81,1.81,1.81,1.81c1,0,1.81-0.81,1.81-1.81s-0.81-1.81-1.81-1.81C340.82,55.59,340,56.41,340,57.4z"/>
	<path style="opacity:0.25;fill:#FFFFFF;stroke:#00B3E1;stroke-width:0.6;stroke-miterlimit:10;" d="M336.38,57.4
		c0,1,0.81,1.81,1.81,1.81c1,0,1.81-0.81,1.81-1.81s-0.81-1.81-1.81-1.81C337.19,55.59,336.38,56.41,336.38,57.4z"/>
	<path style="opacity:0.25;fill:#FFFFFF;stroke:#00B3E1;stroke-width:0.6;stroke-miterlimit:10;" d="M332.76,57.4
		c0,1,0.81,1.81,1.81,1.81s1.81-0.81,1.81-1.81s-0.81-1.81-1.81-1.81C333.57,55.59,332.76,56.41,332.76,57.4z"/>
	<path style="opacity:0.25;fill:#FFFFFF;stroke:#00B3E1;stroke-width:0.6;stroke-miterlimit:10;" d="M329.13,57.4
		c0,1,0.81,1.81,1.81,1.81s1.81-0.81,1.81-1.81s-0.81-1.81-1.81-1.81S329.13,56.41,329.13,57.4z"/>
	<path style="opacity:0.25;fill:#FFFFFF;stroke:#00B3E1;stroke-width:0.6;stroke-miterlimit:10;" d="M325.5,57.4
		c0,1,0.81,1.81,1.81,1.81c1,0,1.81-0.81,1.81-1.81s-0.81-1.81-1.81-1.81C326.31,55.59,325.5,56.41,325.5,57.4z"/>
	<path style="opacity:0.25;fill:#FFFFFF;stroke:#00B3E1;stroke-width:0.6;stroke-miterlimit:10;" d="M321.88,57.4
		c0,1,0.81,1.81,1.81,1.81c1,0,1.81-0.81,1.81-1.81s-0.81-1.81-1.81-1.81C322.69,55.59,321.88,56.41,321.88,57.4z"/>
	<path style="opacity:0.25;fill:#FFFFFF;stroke:#00B3E1;stroke-width:0.6;stroke-miterlimit:10;" d="M336.38,53.78
		c0,1,0.81,1.81,1.81,1.81c1,0,1.81-0.81,1.81-1.81s-0.81-1.81-1.81-1.81C337.19,51.97,336.38,52.79,336.38,53.78z"/>
	<path style="opacity:0.25;fill:#FFFFFF;stroke:#00B3E1;stroke-width:0.6;stroke-miterlimit:10;" d="M329.13,53.78
		c0,1,0.81,1.81,1.81,1.81s1.81-0.81,1.81-1.81s-0.81-1.81-1.81-1.81S329.13,52.79,329.13,53.78z"/>
	<path style="opacity:0.25;fill:#FFFFFF;stroke:#00B3E1;stroke-width:0.6;stroke-miterlimit:10;" d="M325.5,53.78
		c0,1,0.81,1.81,1.81,1.81c1,0,1.81-0.81,1.81-1.81s-0.81-1.81-1.81-1.81C326.31,51.97,325.5,52.79,325.5,53.78z"/>
	
		<ellipse style="opacity:0.25;fill:#FFFFFF;stroke:#00B3E1;stroke-width:0.6;stroke-miterlimit:10;" cx="323.69" cy="53.78" rx="1.81" ry="1.81"/>
	
		<ellipse style="opacity:0.25;fill:#FFFFFF;stroke:#00B3E1;stroke-width:0.6;stroke-miterlimit:10;" cx="316.44" cy="53.78" rx="1.81" ry="1.81"/>
	<path style="opacity:0.25;fill:#FFFFFF;stroke:#00B3E1;stroke-width:0.6;stroke-miterlimit:10;" d="M332.76,50.17
		c0,1,0.81,1.81,1.81,1.81s1.81-0.81,1.81-1.81s-0.81-1.81-1.81-1.81S332.76,49.18,332.76,50.17z"/>
	<path style="opacity:0.25;fill:#FFFFFF;stroke:#00B3E1;stroke-width:0.6;stroke-miterlimit:10;" d="M329.13,50.17
		c0,1,0.81,1.81,1.81,1.81s1.81-0.81,1.81-1.81s-0.81-1.81-1.81-1.81S329.13,49.18,329.13,50.17z"/>
	<path style="opacity:0.25;fill:#FFFFFF;stroke:#00B3E1;stroke-width:0.6;stroke-miterlimit:10;" d="M325.5,50.17
		c0,1,0.81,1.81,1.81,1.81c1,0,1.81-0.81,1.81-1.81s-0.81-1.81-1.81-1.81C326.31,48.36,325.5,49.18,325.5,50.17z"/>
	<path style="opacity:0.25;fill:#FFFFFF;stroke:#00B3E1;stroke-width:0.6;stroke-miterlimit:10;" d="M321.88,50.17
		c0,1,0.81,1.81,1.81,1.81c1,0,1.81-0.81,1.81-1.81s-0.81-1.81-1.81-1.81C322.69,48.36,321.88,49.18,321.88,50.17z"/>
	<path style="opacity:0.25;fill:#FFFFFF;stroke:#00B3E1;stroke-width:0.6;stroke-miterlimit:10;" d="M318.25,50.17
		c0,1,0.81,1.81,1.81,1.81c1,0,1.81-0.81,1.81-1.81s-0.81-1.81-1.81-1.81C319.07,48.36,318.25,49.18,318.25,50.17z"/>
	
		<ellipse style="opacity:0.25;fill:#FFFFFF;stroke:#00B3E1;stroke-width:0.6;stroke-miterlimit:10;" cx="334.57" cy="46.55" rx="1.81" ry="1.81"/>
	<path style="opacity:0.25;fill:#FFFFFF;stroke:#00B3E1;stroke-width:0.6;stroke-miterlimit:10;" d="M329.13,46.55
		c0,1,0.81,1.81,1.81,1.81s1.81-0.81,1.81-1.81c0-1-0.81-1.81-1.81-1.81S329.13,45.56,329.13,46.55z"/>
	<path style="opacity:0.25;fill:#FFFFFF;stroke:#00B3E1;stroke-width:0.6;stroke-miterlimit:10;" d="M325.5,46.55
		c0,1,0.81,1.81,1.81,1.81c1,0,1.81-0.81,1.81-1.81c0-1-0.81-1.81-1.81-1.81C326.31,44.75,325.5,45.56,325.5,46.55z"/>
	
		<ellipse style="opacity:0.25;fill:#FFFFFF;stroke:#00B3E1;stroke-width:0.6;stroke-miterlimit:10;" cx="323.69" cy="46.55" rx="1.81" ry="1.81"/>
	<path style="opacity:0.25;fill:#FFFFFF;stroke:#00B3E1;stroke-width:0.6;stroke-miterlimit:10;" d="M318.25,46.55
		c0,1,0.81,1.81,1.81,1.81c1,0,1.81-0.81,1.81-1.81c0-1-0.81-1.81-1.81-1.81C319.07,44.75,318.25,45.56,318.25,46.55z"/>
	
		<ellipse style="opacity:0.25;fill:#FFFFFF;stroke:#00B3E1;stroke-width:0.6;stroke-miterlimit:10;" cx="316.44" cy="46.55" rx="1.81" ry="1.81"/>
	<path style="opacity:0.25;fill:#FFFFFF;stroke:#00B3E1;stroke-width:0.6;stroke-miterlimit:10;" d="M336.38,42.94
		c0,1,0.81,1.81,1.81,1.81c1,0,1.81-0.81,1.81-1.81c0-1-0.81-1.81-1.81-1.81C337.19,41.13,336.38,41.94,336.38,42.94z"/>
	<path style="opacity:0.25;fill:#FFFFFF;stroke:#00B3E1;stroke-width:0.6;stroke-miterlimit:10;" d="M332.76,42.94
		c0,1,0.81,1.81,1.81,1.81s1.81-0.81,1.81-1.81c0-1-0.81-1.81-1.81-1.81S332.76,41.94,332.76,42.94z"/>
	<path style="opacity:0.25;fill:#FFFFFF;stroke:#00B3E1;stroke-width:0.6;stroke-miterlimit:10;" d="M329.13,42.94
		c0,1,0.81,1.81,1.81,1.81s1.81-0.81,1.81-1.81c0-1-0.81-1.81-1.81-1.81S329.13,41.94,329.13,42.94z"/>
	<path style="opacity:0.25;fill:#FFFFFF;stroke:#00B3E1;stroke-width:0.6;stroke-miterlimit:10;" d="M325.5,42.94
		c0,1,0.81,1.81,1.81,1.81c1,0,1.81-0.81,1.81-1.81c0-1-0.81-1.81-1.81-1.81C326.31,41.13,325.5,41.94,325.5,42.94z"/>
	<path style="opacity:0.25;fill:#FFFFFF;stroke:#00B3E1;stroke-width:0.6;stroke-miterlimit:10;" d="M321.88,42.94
		c0,1,0.81,1.81,1.81,1.81c1,0,1.81-0.81,1.81-1.81c0-1-0.81-1.81-1.81-1.81C322.69,41.13,321.88,41.94,321.88,42.94z"/>
	<path style="opacity:0.25;fill:#FFFFFF;stroke:#00B3E1;stroke-width:0.6;stroke-miterlimit:10;" d="M318.25,42.94
		c0,1,0.81,1.81,1.81,1.81c1,0,1.81-0.81,1.81-1.81c0-1-0.81-1.81-1.81-1.81C319.07,41.13,318.25,41.94,318.25,42.94z"/>
	<path style="opacity:0.25;fill:#FFFFFF;stroke:#00B3E1;stroke-width:0.6;stroke-miterlimit:10;" d="M314.63,42.94
		c0,1,0.81,1.81,1.81,1.81c1,0,1.81-0.81,1.81-1.81c0-1-0.81-1.81-1.81-1.81C315.45,41.13,314.63,41.94,314.63,42.94z"/>
	<path style="opacity:0.25;fill:#FFFFFF;stroke:#00B3E1;stroke-width:0.6;stroke-miterlimit:10;" d="M340,39.32
		c0,1,0.81,1.81,1.81,1.81c1,0,1.81-0.81,1.81-1.81c0-1-0.81-1.81-1.81-1.81C340.82,37.51,340,38.32,340,39.32z"/>
	<path style="opacity:0.25;fill:#FFFFFF;stroke:#00B3E1;stroke-width:0.6;stroke-miterlimit:10;" d="M336.38,39.32
		c0,1,0.81,1.81,1.81,1.81c1,0,1.81-0.81,1.81-1.81c0-1-0.81-1.81-1.81-1.81C337.19,37.51,336.38,38.32,336.38,39.32z"/>
	<path style="opacity:0.25;fill:#FFFFFF;stroke:#00B3E1;stroke-width:0.6;stroke-miterlimit:10;" d="M332.76,39.32
		c0,1,0.81,1.81,1.81,1.81s1.81-0.81,1.81-1.81c0-1-0.81-1.81-1.81-1.81C333.57,37.51,332.76,38.32,332.76,39.32z"/>
	<path style="opacity:0.25;fill:#FFFFFF;stroke:#00B3E1;stroke-width:0.6;stroke-miterlimit:10;" d="M329.13,39.32
		c0,1,0.81,1.81,1.81,1.81s1.81-0.81,1.81-1.81c0-1-0.81-1.81-1.81-1.81S329.13,38.32,329.13,39.32z"/>
	<path style="opacity:0.25;fill:#FFFFFF;stroke:#00B3E1;stroke-width:0.6;stroke-miterlimit:10;" d="M325.5,39.32
		c0,1,0.81,1.81,1.81,1.81c1,0,1.81-0.81,1.81-1.81c0-1-0.81-1.81-1.81-1.81C326.31,37.51,325.5,38.32,325.5,39.32z"/>
	<path style="opacity:0.25;fill:#FFFFFF;stroke:#00B3E1;stroke-width:0.6;stroke-miterlimit:10;" d="M321.88,39.32
		c0,1,0.81,1.81,1.81,1.81c1,0,1.81-0.81,1.81-1.81c0-1-0.81-1.81-1.81-1.81C322.69,37.51,321.88,38.32,321.88,39.32z"/>
	<path style="opacity:0.25;fill:#FFFFFF;stroke:#00B3E1;stroke-width:0.6;stroke-miterlimit:10;" d="M318.25,39.32
		c0,1,0.81,1.81,1.81,1.81c1,0,1.81-0.81,1.81-1.81c0-1-0.81-1.81-1.81-1.81C319.07,37.51,318.25,38.32,318.25,39.32z"/>
	<path style="opacity:0.25;fill:#FFFFFF;stroke:#00B3E1;stroke-width:0.6;stroke-miterlimit:10;" d="M340,35.7
		c0,1,0.81,1.81,1.81,1.81c1,0,1.81-0.81,1.81-1.81c0-1-0.81-1.81-1.81-1.81C340.82,33.89,340,34.71,340,35.7z"/>
	<path style="opacity:0.25;fill:#FFFFFF;stroke:#00B3E1;stroke-width:0.6;stroke-miterlimit:10;" d="M336.38,35.7
		c0,1,0.81,1.81,1.81,1.81c1,0,1.81-0.81,1.81-1.81c0-1-0.81-1.81-1.81-1.81C337.19,33.89,336.38,34.71,336.38,35.7z"/>
	
		<ellipse style="opacity:0.25;fill:#FFFFFF;stroke:#00B3E1;stroke-width:0.6;stroke-miterlimit:10;" cx="334.57" cy="35.7" rx="1.81" ry="1.81"/>
	<path style="opacity:0.25;fill:#FFFFFF;stroke:#00B3E1;stroke-width:0.6;stroke-miterlimit:10;" d="M329.13,35.7
		c0,1,0.81,1.81,1.81,1.81s1.81-0.81,1.81-1.81c0-1-0.81-1.81-1.81-1.81S329.13,34.71,329.13,35.7z"/>
	<path style="opacity:0.25;fill:#FFFFFF;stroke:#00B3E1;stroke-width:0.6;stroke-miterlimit:10;" d="M325.5,35.7
		c0,1,0.81,1.81,1.81,1.81c1,0,1.81-0.81,1.81-1.81c0-1-0.81-1.81-1.81-1.81C326.31,33.89,325.5,34.71,325.5,35.7z"/>
	
		<ellipse style="opacity:0.25;fill:#FFFFFF;stroke:#00B3E1;stroke-width:0.6;stroke-miterlimit:10;" cx="323.69" cy="35.7" rx="1.81" ry="1.81"/>
	<path style="opacity:0.25;fill:#FFFFFF;stroke:#00B3E1;stroke-width:0.6;stroke-miterlimit:10;" d="M318.25,35.7
		c0,1,0.81,1.81,1.81,1.81c1,0,1.81-0.81,1.81-1.81c0-1-0.81-1.81-1.81-1.81C319.07,33.89,318.25,34.71,318.25,35.7z"/>
	
		<ellipse style="opacity:0.25;fill:#FFFFFF;stroke:#00B3E1;stroke-width:0.6;stroke-miterlimit:10;" cx="316.44" cy="35.7" rx="1.81" ry="1.81"/>
	<path style="opacity:0.25;fill:#FFFFFF;stroke:#00B3E1;stroke-width:0.6;stroke-miterlimit:10;" d="M332.76,32.08
		c0,1,0.81,1.81,1.81,1.81s1.81-0.81,1.81-1.81c0-1-0.81-1.81-1.81-1.81S332.76,31.1,332.76,32.08z"/>
	<path style="opacity:0.25;fill:#FFFFFF;stroke:#00B3E1;stroke-width:0.6;stroke-miterlimit:10;" d="M321.88,32.08
		c0,1,0.81,1.81,1.81,1.81c1,0,1.81-0.81,1.81-1.81c0-1-0.81-1.81-1.81-1.81C322.69,30.27,321.88,31.1,321.88,32.08z"/>
	<path style="opacity:0.25;fill:#FFFFFF;stroke:#00B3E1;stroke-width:0.6;stroke-miterlimit:10;" d="M318.25,32.08
		c0,1,0.81,1.81,1.81,1.81c1,0,1.81-0.81,1.81-1.81c0-1-0.81-1.81-1.81-1.81C319.07,30.27,318.25,31.1,318.25,32.08z"/>
	<path style="opacity:0.25;fill:#FFFFFF;stroke:#00B3E1;stroke-width:0.6;stroke-miterlimit:10;" d="M314.63,32.08
		c0,1,0.81,1.81,1.81,1.81c1,0,1.81-0.81,1.81-1.81c0-1-0.81-1.81-1.81-1.81C315.45,30.27,314.63,31.1,314.63,32.08z"/>
	<path style="opacity:0.25;fill:#FFFFFF;stroke:#00B3E1;stroke-width:0.6;stroke-miterlimit:10;" d="M325.5,28.48
		c0,1,0.81,1.81,1.81,1.81c1,0,1.81-0.81,1.81-1.81c0-1-0.81-1.81-1.81-1.81C326.31,26.67,325.5,27.48,325.5,28.48z"/>
	
		<ellipse style="opacity:0.25;fill:#FFFFFF;stroke:#00B3E1;stroke-width:0.6;stroke-miterlimit:10;" cx="323.69" cy="28.48" rx="1.81" ry="1.81"/>
	<path style="opacity:0.25;fill:#FFFFFF;stroke:#00B3E1;stroke-width:0.6;stroke-miterlimit:10;" d="M318.25,28.48
		c0,1,0.81,1.81,1.81,1.81c1,0,1.81-0.81,1.81-1.81c0-1-0.81-1.81-1.81-1.81C319.07,26.67,318.25,27.48,318.25,28.48z"/>
	<path style="opacity:0.25;fill:#FFFFFF;stroke:#00B3E1;stroke-width:0.6;stroke-miterlimit:10;" d="M329.13,24.86
		c0,1,0.81,1.81,1.81,1.81s1.81-0.81,1.81-1.81c0-1-0.81-1.81-1.81-1.81S329.13,23.86,329.13,24.86z"/>
	<path style="opacity:0.25;fill:#FFFFFF;stroke:#00B3E1;stroke-width:0.6;stroke-miterlimit:10;" d="M325.5,24.86
		c0,1,0.81,1.81,1.81,1.81c1,0,1.81-0.81,1.81-1.81c0-1-0.81-1.81-1.81-1.81C326.31,23.05,325.5,23.86,325.5,24.86z"/>
	<path style="opacity:0.25;fill:#FFFFFF;stroke:#00B3E1;stroke-width:0.6;stroke-miterlimit:10;" d="M321.88,24.86
		c0,1,0.81,1.81,1.81,1.81c1,0,1.81-0.81,1.81-1.81c0-1-0.81-1.81-1.81-1.81C322.69,23.05,321.88,23.86,321.88,24.86z"/>
	<path style="opacity:0.25;fill:#FFFFFF;stroke:#00B3E1;stroke-width:0.6;stroke-miterlimit:10;" d="M318.25,24.86
		c0,1,0.81,1.81,1.81,1.81c1,0,1.81-0.81,1.81-1.81c0-1-0.81-1.81-1.81-1.81C319.07,23.05,318.25,23.86,318.25,24.86z"/>
	<path style="opacity:0.25;fill:#FFFFFF;stroke:#00B3E1;stroke-width:0.6;stroke-miterlimit:10;" d="M332.76,21.24
		c0,1,0.81,1.81,1.81,1.81s1.81-0.81,1.81-1.81c0-1-0.81-1.81-1.81-1.81S332.76,20.24,332.76,21.24z"/>
	<path style="opacity:0.25;fill:#FFFFFF;stroke:#00B3E1;stroke-width:0.6;stroke-miterlimit:10;" d="M329.13,21.24
		c0,1,0.81,1.81,1.81,1.81s1.81-0.81,1.81-1.81c0-1-0.81-1.81-1.81-1.81S329.13,20.24,329.13,21.24z"/>
	<path style="opacity:0.25;fill:#FFFFFF;stroke:#00B3E1;stroke-width:0.6;stroke-miterlimit:10;" d="M325.5,21.24
		c0,1,0.81,1.81,1.81,1.81c1,0,1.81-0.81,1.81-1.81c0-1-0.81-1.81-1.81-1.81C326.31,19.43,325.5,20.24,325.5,21.24z"/>
	<path style="opacity:0.25;fill:#FFFFFF;stroke:#00B3E1;stroke-width:0.6;stroke-miterlimit:10;" d="M321.88,21.24
		c0,1,0.81,1.81,1.81,1.81c1,0,1.81-0.81,1.81-1.81c0-1-0.81-1.81-1.81-1.81C322.69,19.43,321.88,20.24,321.88,21.24z"/>
</g>
</svg>
