<?xml version="1.0" encoding="utf-8"?>
<!-- Generator: Adobe Illustrator 23.0.1, SVG Export Plug-In . SVG Version: 6.00 Build 0)  -->
<svg version="1.1" id="Layer_1" xmlns="http://www.w3.org/2000/svg" xmlns:xlink="http://www.w3.org/1999/xlink" x="0px" y="0px"
	 width="145px" height="200px" viewBox="0 0 145 200" style="enable-background:new 0 0 145 200;" xml:space="preserve">
<style type="text/css">
	.st0{clip-path:url(#SVGID_2_);fill:#00B3E1;}
	.st1{fill:#FFFFFF;}
</style>
<g>
	<defs>
		<rect id="SVGID_1_" x="1" y="2.1" width="143" height="196.2"/>
	</defs>
	<clipPath id="SVGID_2_">
		<use xlink:href="#SVGID_1_"  style="overflow:visible;"/>
	</clipPath>
	<path class="st0" d="M130.2,2.1H30.3L13.7,105.4c10.4-5.2,21.9-8.1,35.4-8.1c6.3,0,24.2,0.3,34.5,9.5c4.3,3.7,9.2,10.6,9.2,20.7
		c0,8.1-3.2,15-7.5,19.6c-5.8,6-15,9.5-25,9.5c-9.5,0-20.1-2.6-28.8-6.6c-3.2-1.4-12.9-6.3-23-15.5L1,181.1
		c15.5,9.8,35.7,17.3,64.7,17.3c18.4,0,42-3.2,59.8-21.6c9.2-9.5,18.4-25,18.4-48.1c0-22.2-8.9-36.8-17.6-45.5
		c-8.9-9.2-25-19-50.6-19c-2.6,0-8.3,0.3-15.5,1.4l3.5-21.3h66.5V2.1z"/>
</g>
<path class="st1" d="M126.4,7.6h-16.4v30.7h16.4v-6.8h-8.9v-5.3h8.4v-6.8h-8.4v-5.1h8.9V7.6z M88.8,7.6h-7.5v30.7h7.5V25l9.8,13.3
	h9.7L95.8,22.1l11.4-14.5H98l-9.2,12.7V7.6z M61.5,27l3.2-9.9l3.2,9.9H61.5z M71.6,38.3h8L68.8,7.6h-8.2L49.5,38.3h7.9l1.9-5.2h10.4
	L71.6,38.3z M52.4,14.3V7.6H32.7v6.8h6.1v23.9h7.5V14.3H52.4z"/>
</svg>
