<?xml version="1.0" encoding="utf-8"?>
<!-- Generator: Adobe Illustrator 23.0.1, SVG Export Plug-In . SVG Version: 6.00 Build 0)  -->
<svg version="1.1" id="Layer_1" xmlns="http://www.w3.org/2000/svg" xmlns:xlink="http://www.w3.org/1999/xlink" x="0px" y="0px"
	 viewBox="0 0 88.2 91.3" style="enable-background:new 0 0 88.2 91.3;" xml:space="preserve">
<style type="text/css">
	.st0{fill:#FFFFFF;}
</style>
<g>
	<g>
		<path class="st0" d="M61.1,0.9h-7.5c0,0,8,0.9,13.1,11.3h7.5C69.1,1.8,61.1,0.9,61.1,0.9z"/>
		<path class="st0" d="M74.3,12.2c1.9-4.4,3.4-9.8,11.1-11.3h-9.1c-1.9,0.3-3.5,1.1-4.8,1.9c-0.2,0.1-0.4,0.3-0.6,0.4
			C70.9,3.2,74.7,6.4,74.3,12.2z"/>
	</g>
	<path class="st0" d="M32.7,18.4l0,53.8c0,4.3,1.3,7.8,3.7,10.1l0,0c2.9,2.5,8.9,4.2,14.7,4.2c3.8,0,7.3-0.5,10.2-1.5
		c2.7-0.9,4.9-2.3,6.6-4c0,0,0.1-0.1,0.2-0.1c0.1,0,0,0.2,0,0.2c-0.7,0.9-2.4,2.9-6.6,5.2c-5.7,3.2-11.4,4.6-19.3,4.6
		C28.5,90.8,15.9,86,10,78.5c-2.3-3-3.3-5.8-3.3-11.6l0-57.8c0-3.7-2.3-6.8-5.5-8.2c0,0,13.6,0,17.2,0C22.9,0.9,32.7,4.9,32.7,18.4z
		"/>
</g>
</svg>
