<?xml version="1.0" encoding="utf-8"?>
<!-- Generator: Adobe Illustrator 23.0.3, SVG Export Plug-In . SVG Version: 6.00 Build 0)  -->
<svg version="1.1" id="Layer_1" xmlns="http://www.w3.org/2000/svg" xmlns:xlink="http://www.w3.org/1999/xlink" x="0px" y="0px"
	 viewBox="0 0 507 109" style="enable-background:new 0 0 507 109;" xml:space="preserve">
<style type="text/css">
	.st0{fill:none;stroke:#FFFFFF;stroke-width:3;stroke-miterlimit:10;}
</style>
<g>
	<path class="st0" d="M81.78,60.82L79.51,76.5H65.84l-3.89,24.39H44l4.02-24.39H36.63l-3.89,24.39H15.05l4.02-24.39H5.4l2.41-15.68
		h13.53l1.88-11.12H9.69l2.41-15.54h13.53l3.62-22.65h17.69l-3.75,22.65h11.39l3.62-22.65h17.82L72.4,34.16h13.4L83.39,49.7h-13.4
		l-1.74,11.12H81.78z M52.17,49.7H40.78l-1.74,11.12h11.39L52.17,49.7z"/>
	<path class="st0" d="M129.49,11.51c6.7,0,15.28,1.07,21.84,7.91c5.09,5.23,7.64,13,7.64,20.1c0,7.64-2.68,14.34-7.1,18.63
		c-3.48,3.35-8.17,5.36-12.33,6.16l28.01,36.58h-28.81l-22.24-34.3v34.3H93.31V11.51H129.49z M116.49,51.58h4.42
		c3.48,0,8.44-0.94,11.26-3.62c1.74-1.74,2.95-4.69,2.95-7.5c0-2.68-1.07-5.63-3.08-7.5c-2.14-2.14-6.03-3.48-11.12-3.48h-4.42
		V51.58z"/>
	<path class="st0" d="M227.04,31.21h-27.6v14.87h26.13v19.7h-26.13v15.41h27.6v19.7h-50.79V11.51h50.79V31.21z"/>
	<path class="st0" d="M295.25,85.88h-32.43l-6.03,15.01h-24.52l34.3-89.38h25.33l33.63,89.38h-24.79L295.25,85.88z M289.08,68.19
		l-10.05-28.94l-9.78,28.94H289.08z"/>
	<path class="st0" d="M334.77,100.89V11.51h30.42c8.98,0,23.99,1.21,35.51,12.33c10.45,10.05,12.46,22.91,12.46,32.56
		c0,11.79-2.95,22.24-11.66,30.95c-7.1,7.1-19.03,13.53-34.3,13.53H334.77z M357.96,81.19h4.69c5.63,0,13.53-0.54,19.56-6.43
		c2.95-2.81,6.83-8.44,6.83-18.36c0-8.31-2.55-15.41-6.97-19.56c-5.49-5.09-12.73-5.63-18.49-5.63h-5.63V81.19z"/>
	<path class="st0" d="M443.18,58.01l-32.29-46.5h27.74l16.88,24.39l16.21-24.39h28.14l-33.37,46.5v42.88h-23.32V58.01z"/>
</g>
</svg>
