<?xml version="1.0" encoding="utf-8"?>
<!-- Generator: Adobe Illustrator 23.0.1, SVG Export Plug-In . SVG Version: 6.00 Build 0)  -->
<svg version="1.1" id="Layer_1" xmlns="http://www.w3.org/2000/svg" xmlns:xlink="http://www.w3.org/1999/xlink" x="0px" y="0px"
	 width="150px" height="150px" viewBox="0 0 150 150" style="enable-background:new 0 0 150 150;" xml:space="preserve">
<style type="text/css">
	.st0{fill:#00B3E1;}
	.st1{fill:#FFFFFF;stroke:#00B3E1;stroke-width:0.6;stroke-miterlimit:10;enable-background:new    ;}
	.st2{opacity:0.3;fill:#FFFFFF;stroke:#00B3E1;stroke-width:0.6;stroke-miterlimit:10;}
</style>
<rect x="-1.1" class="st0" width="153" height="150"/>
<g>
	<path class="st1" d="M75.4,127.4c0,1.1,0.9,1.9,1.9,1.9s1.9-0.9,1.9-1.9c0-1.1-0.9-1.9-1.9-1.9S75.4,126.3,75.4,127.4z"/>
	<ellipse class="st1" cx="73.5" cy="127.4" rx="1.9" ry="1.9"/>
	<path class="st1" d="M67.7,127.4c0,1.1,0.9,1.9,1.9,1.9s1.9-0.9,1.9-1.9c0-1.1-0.9-1.9-1.9-1.9S67.7,126.3,67.7,127.4z"/>
	<path class="st1" d="M87.1,123.5c0,1.1,0.9,1.9,1.9,1.9s1.9-0.9,1.9-1.9s-0.9-1.9-1.9-1.9S87.1,122.4,87.1,123.5z"/>
	<path class="st1" d="M79.3,123.5c0,1.1,0.9,1.9,1.9,1.9s1.9-0.9,1.9-1.9s-0.9-1.9-1.9-1.9C80.2,121.6,79.3,122.4,79.3,123.5z"/>
	<path class="st1" d="M75.4,123.5c0,1.1,0.9,1.9,1.9,1.9s1.9-0.9,1.9-1.9s-0.9-1.9-1.9-1.9S75.4,122.4,75.4,123.5z"/>
	<path class="st1" d="M71.5,123.5c0,1.1,0.9,1.9,1.9,1.9s1.9-0.9,1.9-1.9s-0.9-1.9-1.9-1.9C72.4,121.6,71.5,122.4,71.5,123.5z"/>
	<path class="st1" d="M110.4,119.6c0,1.1,0.9,1.9,1.9,1.9s1.9-0.9,1.9-1.9s-0.9-1.9-1.9-1.9C111.2,117.7,110.4,118.6,110.4,119.6z"
		/>
	<path class="st1" d="M106.5,119.6c0,1.1,0.9,1.9,1.9,1.9s1.9-0.9,1.9-1.9s-0.9-1.9-1.9-1.9S106.5,118.6,106.5,119.6z"/>
	<path class="st1" d="M102.6,119.6c0,1.1,0.9,1.9,1.9,1.9s1.9-0.9,1.9-1.9s-0.9-1.9-1.9-1.9C103.5,117.7,102.6,118.6,102.6,119.6z"
		/>
	<path class="st1" d="M98.7,119.6c0,1.1,0.9,1.9,1.9,1.9s1.9-0.9,1.9-1.9s-0.9-1.9-1.9-1.9S98.7,118.6,98.7,119.6z"/>
	<path class="st1" d="M94.8,119.6c0,1.1,0.9,1.9,1.9,1.9s1.9-0.9,1.9-1.9s-0.9-1.9-1.9-1.9S94.8,118.6,94.8,119.6z"/>
	<path class="st1" d="M90.9,119.6c0,1.1,0.9,1.9,1.9,1.9s1.9-0.9,1.9-1.9s-0.9-1.9-1.9-1.9S90.9,118.6,90.9,119.6z"/>
	<path class="st1" d="M87.1,119.6c0,1.1,0.9,1.9,1.9,1.9s1.9-0.9,1.9-1.9s-0.9-1.9-1.9-1.9S87.1,118.6,87.1,119.6z"/>
	<path class="st1" d="M83.2,119.6c0,1.1,0.9,1.9,1.9,1.9s1.9-0.9,1.9-1.9s-0.9-1.9-1.9-1.9C84.1,117.7,83.2,118.6,83.2,119.6z"/>
	<path class="st1" d="M79.3,119.6c0,1.1,0.9,1.9,1.9,1.9s1.9-0.9,1.9-1.9s-0.9-1.9-1.9-1.9C80.2,117.7,79.3,118.6,79.3,119.6z"/>
	<path class="st1" d="M75.4,119.6c0,1.1,0.9,1.9,1.9,1.9s1.9-0.9,1.9-1.9s-0.9-1.9-1.9-1.9S75.4,118.6,75.4,119.6z"/>
	<ellipse class="st1" cx="116.2" cy="115.8" rx="1.9" ry="1.9"/>
	<path class="st1" d="M110.4,115.8c0,1.1,0.9,1.9,1.9,1.9s1.9-0.9,1.9-1.9s-0.9-1.9-1.9-1.9C111.2,113.8,110.4,114.7,110.4,115.8z"
		/>
	<path class="st1" d="M106.5,115.8c0,1.1,0.9,1.9,1.9,1.9s1.9-0.9,1.9-1.9s-0.9-1.9-1.9-1.9S106.5,114.7,106.5,115.8z"/>
	<ellipse class="st1" cx="104.5" cy="115.8" rx="1.9" ry="1.9"/>
	<path class="st1" d="M98.7,115.8c0,1.1,0.9,1.9,1.9,1.9s1.9-0.9,1.9-1.9s-0.9-1.9-1.9-1.9S98.7,114.7,98.7,115.8z"/>
	<ellipse class="st1" cx="96.8" cy="115.8" rx="1.9" ry="1.9"/>
	<path class="st1" d="M90.9,115.8c0,1.1,0.9,1.9,1.9,1.9s1.9-0.9,1.9-1.9s-0.9-1.9-1.9-1.9S90.9,114.7,90.9,115.8z"/>
	<path class="st1" d="M87.1,115.8c0,1.1,0.9,1.9,1.9,1.9s1.9-0.9,1.9-1.9s-0.9-1.9-1.9-1.9S87.1,114.7,87.1,115.8z"/>
	<path class="st1" d="M110.4,111.9c0,1.1,0.9,1.9,1.9,1.9s1.9-0.9,1.9-1.9s-0.9-1.9-1.9-1.9C111.2,109.9,110.4,110.8,110.4,111.9z"
		/>
	<path class="st1" d="M106.5,111.9c0,1.1,0.9,1.9,1.9,1.9s1.9-0.9,1.9-1.9s-0.9-1.9-1.9-1.9S106.5,110.8,106.5,111.9z"/>
	<path class="st1" d="M102.6,111.9c0,1.1,0.9,1.9,1.9,1.9s1.9-0.9,1.9-1.9s-0.9-1.9-1.9-1.9C103.5,109.9,102.6,110.8,102.6,111.9z"
		/>
	<path class="st1" d="M98.7,111.9c0,1.1,0.9,1.9,1.9,1.9s1.9-0.9,1.9-1.9s-0.9-1.9-1.9-1.9S98.7,110.8,98.7,111.9z"/>
	<path class="st1" d="M94.8,111.9c0,1.1,0.9,1.9,1.9,1.9s1.9-0.9,1.9-1.9s-0.9-1.9-1.9-1.9S94.8,110.8,94.8,111.9z"/>
	<path class="st1" d="M90.9,111.9c0,1.1,0.9,1.9,1.9,1.9s1.9-0.9,1.9-1.9s-0.9-1.9-1.9-1.9S90.9,110.8,90.9,111.9z"/>
	<path class="st1" d="M87.1,111.9c0,1.1,0.9,1.9,1.9,1.9s1.9-0.9,1.9-1.9s-0.9-1.9-1.9-1.9S87.1,110.8,87.1,111.9z"/>
	<path class="st1" d="M83.2,111.9c0,1.1,0.9,1.9,1.9,1.9s1.9-0.9,1.9-1.9s-0.9-1.9-1.9-1.9C84.1,109.9,83.2,110.8,83.2,111.9z"/>
	<path class="st1" d="M79.3,111.9c0,1.1,0.9,1.9,1.9,1.9s1.9-0.9,1.9-1.9s-0.9-1.9-1.9-1.9C80.2,109.9,79.3,110.8,79.3,111.9z"/>
	<path class="st1" d="M75.4,111.9c0,1.1,0.9,1.9,1.9,1.9s1.9-0.9,1.9-1.9s-0.9-1.9-1.9-1.9S75.4,110.8,75.4,111.9z"/>
	<path class="st2" d="M36.6,111.9c0,1.1,0.9,1.9,1.9,1.9s1.9-0.9,1.9-1.9s-0.9-1.9-1.9-1.9C37.5,109.9,36.6,110.8,36.6,111.9z"/>
	<path class="st1" d="M114.2,108c0,1.1,0.9,1.9,1.9,1.9s1.9-0.9,1.9-1.9s-0.9-1.9-1.9-1.9C115.1,106.1,114.2,106.9,114.2,108z"/>
	<path class="st1" d="M110.4,108c0,1.1,0.9,1.9,1.9,1.9s1.9-0.9,1.9-1.9s-0.9-1.9-1.9-1.9C111.2,106.1,110.4,106.9,110.4,108z"/>
	<path class="st1" d="M106.5,108c0,1.1,0.9,1.9,1.9,1.9s1.9-0.9,1.9-1.9s-0.9-1.9-1.9-1.9C107.3,106.1,106.5,106.9,106.5,108z"/>
	<path class="st1" d="M102.6,108c0,1.1,0.9,1.9,1.9,1.9s1.9-0.9,1.9-1.9s-0.9-1.9-1.9-1.9C103.5,106.1,102.6,106.9,102.6,108z"/>
	<path class="st1" d="M98.7,108c0,1.1,0.9,1.9,1.9,1.9s1.9-0.9,1.9-1.9s-0.9-1.9-1.9-1.9C99.6,106.1,98.7,106.9,98.7,108z"/>
	<path class="st1" d="M94.8,108c0,1.1,0.9,1.9,1.9,1.9s1.9-0.9,1.9-1.9s-0.9-1.9-1.9-1.9C95.7,106.1,94.8,106.9,94.8,108z"/>
	<path class="st1" d="M90.9,108c0,1.1,0.9,1.9,1.9,1.9s1.9-0.9,1.9-1.9s-0.9-1.9-1.9-1.9S90.9,106.9,90.9,108z"/>
	<path class="st1" d="M87.1,108c0,1.1,0.9,1.9,1.9,1.9s1.9-0.9,1.9-1.9s-0.9-1.9-1.9-1.9S87.1,106.9,87.1,108z"/>
	<path class="st1" d="M83.2,108c0,1.1,0.9,1.9,1.9,1.9s1.9-0.9,1.9-1.9s-0.9-1.9-1.9-1.9C84.1,106.1,83.2,106.9,83.2,108z"/>
	<path class="st1" d="M79.3,108c0,1.1,0.9,1.9,1.9,1.9s1.9-0.9,1.9-1.9s-0.9-1.9-1.9-1.9C80.2,106.1,79.3,106.9,79.3,108z"/>
	<path class="st1" d="M75.4,108c0,1.1,0.9,1.9,1.9,1.9s1.9-0.9,1.9-1.9s-0.9-1.9-1.9-1.9S75.4,106.9,75.4,108z"/>
	<path class="st1" d="M71.5,108c0,1.1,0.9,1.9,1.9,1.9s1.9-0.9,1.9-1.9s-0.9-1.9-1.9-1.9S71.5,106.9,71.5,108z"/>
	<path class="st1" d="M67.7,108c0,1.1,0.9,1.9,1.9,1.9s1.9-0.9,1.9-1.9s-0.9-1.9-1.9-1.9C68.5,106.1,67.7,106.9,67.7,108z"/>
	<path class="st2" d="M44.4,108c0,1.1,0.9,1.9,1.9,1.9s1.9-0.9,1.9-1.9s-0.9-1.9-1.9-1.9C45.2,106.1,44.4,106.9,44.4,108z"/>
	<path class="st2" d="M40.5,108c0,1.1,0.9,1.9,1.9,1.9s1.9-0.9,1.9-1.9s-0.9-1.9-1.9-1.9S40.5,106.9,40.5,108z"/>
	<path class="st2" d="M36.6,108c0,1.1,0.9,1.9,1.9,1.9s1.9-0.9,1.9-1.9s-0.9-1.9-1.9-1.9C37.5,106.1,36.6,106.9,36.6,108z"/>
	<path class="st2" d="M32.7,108c0,1.1,0.9,1.9,1.9,1.9s1.9-0.9,1.9-1.9s-0.9-1.9-1.9-1.9S32.7,106.9,32.7,108z"/>
	<path class="st2" d="M28.8,108c0,1.1,0.9,1.9,1.9,1.9s1.9-0.9,1.9-1.9s-0.9-1.9-1.9-1.9C29.7,106.1,28.8,106.9,28.8,108z"/>
	<path class="st1" d="M118.1,104.1c0,1.1,0.9,1.9,1.9,1.9s1.9-0.9,1.9-1.9s-0.9-1.9-1.9-1.9C119,102.2,118.1,103.1,118.1,104.1z"/>
	<ellipse class="st1" cx="116.2" cy="104.1" rx="1.9" ry="1.9"/>
	<path class="st1" d="M110.4,104.1c0,1.1,0.9,1.9,1.9,1.9s1.9-0.9,1.9-1.9s-0.9-1.9-1.9-1.9C111.2,102.2,110.4,103.1,110.4,104.1z"
		/>
	<path class="st1" d="M106.5,104.1c0,1.1,0.9,1.9,1.9,1.9s1.9-0.9,1.9-1.9s-0.9-1.9-1.9-1.9C107.3,102.2,106.5,103.1,106.5,104.1z"
		/>
	<ellipse class="st1" cx="104.5" cy="104.1" rx="1.9" ry="1.9"/>
	<path class="st1" d="M98.7,104.1c0,1.1,0.9,1.9,1.9,1.9s1.9-0.9,1.9-1.9s-0.9-1.9-1.9-1.9C99.6,102.2,98.7,103.1,98.7,104.1z"/>
	<ellipse class="st1" cx="96.8" cy="104.1" rx="1.9" ry="1.9"/>
	<path class="st1" d="M90.9,104.1c0,1.1,0.9,1.9,1.9,1.9s1.9-0.9,1.9-1.9s-0.9-1.9-1.9-1.9C91.8,102.2,90.9,103.1,90.9,104.1z"/>
	<path class="st1" d="M87.1,104.1c0,1.1,0.9,1.9,1.9,1.9s1.9-0.9,1.9-1.9s-0.9-1.9-1.9-1.9S87.1,103.1,87.1,104.1z"/>
	<ellipse class="st1" cx="85.1" cy="104.1" rx="1.9" ry="1.9"/>
	<path class="st1" d="M79.3,104.1c0,1.1,0.9,1.9,1.9,1.9s1.9-0.9,1.9-1.9s-0.9-1.9-1.9-1.9C80.2,102.2,79.3,103.1,79.3,104.1z"/>
	<path class="st1" d="M75.4,104.1c0,1.1,0.9,1.9,1.9,1.9s1.9-0.9,1.9-1.9s-0.9-1.9-1.9-1.9S75.4,103.1,75.4,104.1z"/>
	<path class="st2" d="M56,104.1c0,1.1,0.9,1.9,1.9,1.9s1.9-0.9,1.9-1.9s-0.9-1.9-1.9-1.9C56.9,102.2,56,103.1,56,104.1z"/>
	<ellipse class="st2" cx="54.1" cy="104.1" rx="1.9" ry="1.9"/>
	<path class="st2" d="M48.2,104.1c0,1.1,0.9,1.9,1.9,1.9s1.9-0.9,1.9-1.9s-0.9-1.9-1.9-1.9C49.1,102.2,48.2,103.1,48.2,104.1z"/>
	<ellipse class="st2" cx="46.3" cy="104.1" rx="1.9" ry="1.9"/>
	<path class="st2" d="M40.5,104.1c0,1.1,0.9,1.9,1.9,1.9s1.9-0.9,1.9-1.9s-0.9-1.9-1.9-1.9C41.3,102.2,40.5,103.1,40.5,104.1z"/>
	<path class="st2" d="M36.6,104.1c0,1.1,0.9,1.9,1.9,1.9s1.9-0.9,1.9-1.9s-0.9-1.9-1.9-1.9C37.5,102.2,36.6,103.1,36.6,104.1z"/>
	<ellipse class="st2" cx="34.7" cy="104.1" rx="1.9" ry="1.9"/>
	<path class="st2" d="M28.8,104.1c0,1.1,0.9,1.9,1.9,1.9s1.9-0.9,1.9-1.9s-0.9-1.9-1.9-1.9C29.7,102.2,28.8,103.1,28.8,104.1z"/>
	<path class="st1" d="M118.1,100.3c0,1.1,0.9,1.9,1.9,1.9s1.9-0.9,1.9-1.9s-0.9-1.9-1.9-1.9S118.1,99.2,118.1,100.3z"/>
	<path class="st1" d="M114.2,100.3c0,1.1,0.9,1.9,1.9,1.9s1.9-0.9,1.9-1.9s-0.9-1.9-1.9-1.9C115.1,98.3,114.2,99.2,114.2,100.3z"/>
	<path class="st1" d="M110.4,100.3c0,1.1,0.9,1.9,1.9,1.9s1.9-0.9,1.9-1.9s-0.9-1.9-1.9-1.9C111.2,98.3,110.4,99.2,110.4,100.3z"/>
	<path class="st1" d="M106.5,100.3c0,1.1,0.9,1.9,1.9,1.9s1.9-0.9,1.9-1.9s-0.9-1.9-1.9-1.9S106.5,99.2,106.5,100.3z"/>
	<path class="st1" d="M102.6,100.3c0,1.1,0.9,1.9,1.9,1.9s1.9-0.9,1.9-1.9s-0.9-1.9-1.9-1.9C103.5,98.3,102.6,99.2,102.6,100.3z"/>
	<path class="st1" d="M98.7,100.3c0,1.1,0.9,1.9,1.9,1.9s1.9-0.9,1.9-1.9s-0.9-1.9-1.9-1.9S98.7,99.2,98.7,100.3z"/>
	<path class="st1" d="M94.8,100.3c0,1.1,0.9,1.9,1.9,1.9s1.9-0.9,1.9-1.9s-0.9-1.9-1.9-1.9S94.8,99.2,94.8,100.3z"/>
	<path class="st1" d="M90.9,100.3c0,1.1,0.9,1.9,1.9,1.9s1.9-0.9,1.9-1.9s-0.9-1.9-1.9-1.9S90.9,99.2,90.9,100.3z"/>
	<path class="st1" d="M87.1,100.3c0,1.1,0.9,1.9,1.9,1.9s1.9-0.9,1.9-1.9s-0.9-1.9-1.9-1.9S87.1,99.2,87.1,100.3z"/>
	<path class="st1" d="M83.2,100.3c0,1.1,0.9,1.9,1.9,1.9s1.9-0.9,1.9-1.9s-0.9-1.9-1.9-1.9C84.1,98.3,83.2,99.2,83.2,100.3z"/>
	<path class="st1" d="M79.3,100.3c0,1.1,0.9,1.9,1.9,1.9s1.9-0.9,1.9-1.9s-0.9-1.9-1.9-1.9C80.2,98.3,79.3,99.2,79.3,100.3z"/>
	<path class="st1" d="M75.4,100.3c0,1.1,0.9,1.9,1.9,1.9s1.9-0.9,1.9-1.9s-0.9-1.9-1.9-1.9S75.4,99.2,75.4,100.3z"/>
	<path class="st2" d="M56,100.3c0,1.1,0.9,1.9,1.9,1.9s1.9-0.9,1.9-1.9s-0.9-1.9-1.9-1.9C56.9,98.3,56,99.2,56,100.3z"/>
	<path class="st2" d="M52.1,100.3c0,1.1,0.9,1.9,1.9,1.9s1.9-0.9,1.9-1.9s-0.9-1.9-1.9-1.9S52.1,99.2,52.1,100.3z"/>
	<path class="st2" d="M48.2,100.3c0,1.1,0.9,1.9,1.9,1.9s1.9-0.9,1.9-1.9s-0.9-1.9-1.9-1.9C49.1,98.3,48.2,99.2,48.2,100.3z"/>
	<path class="st2" d="M44.4,100.3c0,1.1,0.9,1.9,1.9,1.9s1.9-0.9,1.9-1.9s-0.9-1.9-1.9-1.9S44.4,99.2,44.4,100.3z"/>
	<path class="st2" d="M40.5,100.3c0,1.1,0.9,1.9,1.9,1.9s1.9-0.9,1.9-1.9s-0.9-1.9-1.9-1.9S40.5,99.2,40.5,100.3z"/>
	<path class="st2" d="M36.6,100.3c0,1.1,0.9,1.9,1.9,1.9s1.9-0.9,1.9-1.9s-0.9-1.9-1.9-1.9C37.5,98.3,36.6,99.2,36.6,100.3z"/>
	<path class="st2" d="M32.7,100.3c0,1.1,0.9,1.9,1.9,1.9s1.9-0.9,1.9-1.9s-0.9-1.9-1.9-1.9S32.7,99.2,32.7,100.3z"/>
	<ellipse class="st1" cx="116.2" cy="96.4" rx="1.9" ry="1.9"/>
	<path class="st1" d="M110.4,96.4c0,1.1,0.9,1.9,1.9,1.9s1.9-0.9,1.9-1.9s-0.9-1.9-1.9-1.9C111.2,94.4,110.4,95.3,110.4,96.4z"/>
	<ellipse class="st1" cx="104.5" cy="96.4" rx="1.9" ry="1.9"/>
	<path class="st1" d="M98.7,96.4c0,1.1,0.9,1.9,1.9,1.9s1.9-0.9,1.9-1.9s-0.9-1.9-1.9-1.9S98.7,95.3,98.7,96.4z"/>
	<ellipse class="st1" cx="96.8" cy="96.4" rx="1.9" ry="1.9"/>
	<path class="st1" d="M90.9,96.4c0,1.1,0.9,1.9,1.9,1.9s1.9-0.9,1.9-1.9s-0.9-1.9-1.9-1.9S90.9,95.3,90.9,96.4z"/>
	<path class="st1" d="M87.1,96.4c0,1.1,0.9,1.9,1.9,1.9s1.9-0.9,1.9-1.9s-0.9-1.9-1.9-1.9S87.1,95.3,87.1,96.4z"/>
	<ellipse class="st1" cx="85.1" cy="96.4" rx="1.9" ry="1.9"/>
	<path class="st1" d="M79.3,96.4c0,1.1,0.9,1.9,1.9,1.9s1.9-0.9,1.9-1.9s-0.9-1.9-1.9-1.9C80.2,94.4,79.3,95.3,79.3,96.4z"/>
	<path class="st1" d="M75.4,96.4c0,1.1,0.9,1.9,1.9,1.9s1.9-0.9,1.9-1.9s-0.9-1.9-1.9-1.9S75.4,95.3,75.4,96.4z"/>
	<ellipse class="st1" cx="73.5" cy="96.4" rx="1.9" ry="1.9"/>
	<path class="st2" d="M59.9,96.4c0,1.1,0.9,1.9,1.9,1.9s1.9-0.9,1.9-1.9s-0.9-1.9-1.9-1.9S59.9,95.3,59.9,96.4z"/>
	<path class="st2" d="M56,96.4c0,1.1,0.9,1.9,1.9,1.9s1.9-0.9,1.9-1.9s-0.9-1.9-1.9-1.9C56.9,94.4,56,95.3,56,96.4z"/>
	<ellipse class="st2" cx="54.1" cy="96.4" rx="1.9" ry="1.9"/>
	<path class="st2" d="M48.2,96.4c0,1.1,0.9,1.9,1.9,1.9s1.9-0.9,1.9-1.9s-0.9-1.9-1.9-1.9C49.1,94.4,48.2,95.3,48.2,96.4z"/>
	<ellipse class="st2" cx="46.3" cy="96.4" rx="1.9" ry="1.9"/>
	<path class="st2" d="M40.5,96.4c0,1.1,0.9,1.9,1.9,1.9s1.9-0.9,1.9-1.9s-0.9-1.9-1.9-1.9S40.5,95.3,40.5,96.4z"/>
	<path class="st2" d="M36.6,96.4c0,1.1,0.9,1.9,1.9,1.9s1.9-0.9,1.9-1.9s-0.9-1.9-1.9-1.9C37.5,94.4,36.6,95.3,36.6,96.4z"/>
	<path class="st1" d="M106.5,92.5c0,1.1,0.9,1.9,1.9,1.9s1.9-0.9,1.9-1.9s-0.9-1.9-1.9-1.9S106.5,91.4,106.5,92.5z"/>
	<path class="st1" d="M102.6,92.5c0,1.1,0.9,1.9,1.9,1.9s1.9-0.9,1.9-1.9s-0.9-1.9-1.9-1.9C103.5,90.6,102.6,91.4,102.6,92.5z"/>
	<path class="st1" d="M98.7,92.5c0,1.1,0.9,1.9,1.9,1.9s1.9-0.9,1.9-1.9s-0.9-1.9-1.9-1.9S98.7,91.4,98.7,92.5z"/>
	<path class="st1" d="M94.8,92.5c0,1.1,0.9,1.9,1.9,1.9s1.9-0.9,1.9-1.9s-0.9-1.9-1.9-1.9S94.8,91.4,94.8,92.5z"/>
	<path class="st1" d="M90.9,92.5c0,1.1,0.9,1.9,1.9,1.9s1.9-0.9,1.9-1.9s-0.9-1.9-1.9-1.9S90.9,91.4,90.9,92.5z"/>
	<path class="st1" d="M87.1,92.5c0,1.1,0.9,1.9,1.9,1.9s1.9-0.9,1.9-1.9s-0.9-1.9-1.9-1.9S87.1,91.4,87.1,92.5z"/>
	<path class="st1" d="M83.2,92.5c0,1.1,0.9,1.9,1.9,1.9s1.9-0.9,1.9-1.9s-0.9-1.9-1.9-1.9C84.1,90.6,83.2,91.4,83.2,92.5z"/>
	<path class="st1" d="M79.3,92.5c0,1.1,0.9,1.9,1.9,1.9s1.9-0.9,1.9-1.9s-0.9-1.9-1.9-1.9C80.2,90.6,79.3,91.4,79.3,92.5z"/>
	<path class="st1" d="M75.4,92.5c0,1.1,0.9,1.9,1.9,1.9s1.9-0.9,1.9-1.9s-0.9-1.9-1.9-1.9S75.4,91.4,75.4,92.5z"/>
	<path class="st2" d="M56,92.5c0,1.1,0.9,1.9,1.9,1.9s1.9-0.9,1.9-1.9s-0.9-1.9-1.9-1.9C56.9,90.6,56,91.4,56,92.5z"/>
	<path class="st2" d="M52.1,92.5c0,1.1,0.9,1.9,1.9,1.9s1.9-0.9,1.9-1.9s-0.9-1.9-1.9-1.9S52.1,91.4,52.1,92.5z"/>
	<path class="st2" d="M48.2,92.5c0,1.1,0.9,1.9,1.9,1.9s1.9-0.9,1.9-1.9s-0.9-1.9-1.9-1.9C49.1,90.6,48.2,91.4,48.2,92.5z"/>
	<path class="st2" d="M44.4,92.5c0,1.1,0.9,1.9,1.9,1.9s1.9-0.9,1.9-1.9s-0.9-1.9-1.9-1.9S44.4,91.4,44.4,92.5z"/>
	<path class="st2" d="M40.5,92.5c0,1.1,0.9,1.9,1.9,1.9s1.9-0.9,1.9-1.9s-0.9-1.9-1.9-1.9S40.5,91.4,40.5,92.5z"/>
	<path class="st2" d="M36.6,92.5c0,1.1,0.9,1.9,1.9,1.9s1.9-0.9,1.9-1.9s-0.9-1.9-1.9-1.9C37.5,90.6,36.6,91.4,36.6,92.5z"/>
	<path class="st1" d="M106.5,88.6c0,1.1,0.9,1.9,1.9,1.9s1.9-0.9,1.9-1.9s-0.9-1.9-1.9-1.9C107.3,86.7,106.5,87.6,106.5,88.6z"/>
	<path class="st1" d="M102.6,88.6c0,1.1,0.9,1.9,1.9,1.9s1.9-0.9,1.9-1.9s-0.9-1.9-1.9-1.9C103.5,86.7,102.6,87.6,102.6,88.6z"/>
	<path class="st1" d="M98.7,88.6c0,1.1,0.9,1.9,1.9,1.9s1.9-0.9,1.9-1.9s-0.9-1.9-1.9-1.9C99.6,86.7,98.7,87.6,98.7,88.6z"/>
	<path class="st1" d="M94.8,88.6c0,1.1,0.9,1.9,1.9,1.9s1.9-0.9,1.9-1.9s-0.9-1.9-1.9-1.9C95.7,86.7,94.8,87.6,94.8,88.6z"/>
	<path class="st1" d="M90.9,88.6c0,1.1,0.9,1.9,1.9,1.9s1.9-0.9,1.9-1.9s-0.9-1.9-1.9-1.9S90.9,87.6,90.9,88.6z"/>
	<path class="st1" d="M87.1,88.6c0,1.1,0.9,1.9,1.9,1.9s1.9-0.9,1.9-1.9s-0.9-1.9-1.9-1.9S87.1,87.6,87.1,88.6z"/>
	<path class="st1" d="M83.2,88.6c0,1.1,0.9,1.9,1.9,1.9s1.9-0.9,1.9-1.9s-0.9-1.9-1.9-1.9C84.1,86.7,83.2,87.6,83.2,88.6z"/>
	<path class="st2" d="M56,88.6c0,1.1,0.9,1.9,1.9,1.9s1.9-0.9,1.9-1.9s-0.9-1.9-1.9-1.9C56.9,86.7,56,87.6,56,88.6z"/>
	<path class="st2" d="M52.1,88.6c0,1.1,0.9,1.9,1.9,1.9s1.9-0.9,1.9-1.9s-0.9-1.9-1.9-1.9S52.1,87.6,52.1,88.6z"/>
	<path class="st2" d="M48.2,88.6c0,1.1,0.9,1.9,1.9,1.9s1.9-0.9,1.9-1.9s-0.9-1.9-1.9-1.9C49.1,86.7,48.2,87.6,48.2,88.6z"/>
	<path class="st2" d="M44.4,88.6c0,1.1,0.9,1.9,1.9,1.9s1.9-0.9,1.9-1.9s-0.9-1.9-1.9-1.9C45.2,86.7,44.4,87.6,44.4,88.6z"/>
	<path class="st2" d="M40.5,88.6c0,1.1,0.9,1.9,1.9,1.9s1.9-0.9,1.9-1.9s-0.9-1.9-1.9-1.9S40.5,87.6,40.5,88.6z"/>
	<path class="st2" d="M36.6,88.6c0,1.1,0.9,1.9,1.9,1.9s1.9-0.9,1.9-1.9s-0.9-1.9-1.9-1.9C37.5,86.7,36.6,87.6,36.6,88.6z"/>
	<path class="st2" d="M32.7,88.6c0,1.1,0.9,1.9,1.9,1.9s1.9-0.9,1.9-1.9s-0.9-1.9-1.9-1.9S32.7,87.6,32.7,88.6z"/>
	<ellipse class="st1" cx="104.5" cy="84.8" rx="1.9" ry="1.9"/>
	<path class="st1" d="M98.7,84.8c0,1.1,0.9,1.9,1.9,1.9s1.9-0.9,1.9-1.9s-0.9-1.9-1.9-1.9C99.6,82.8,98.7,83.7,98.7,84.8z"/>
	<ellipse class="st1" cx="96.8" cy="84.8" rx="1.9" ry="1.9"/>
	<path class="st1" d="M90.9,84.8c0,1.1,0.9,1.9,1.9,1.9s1.9-0.9,1.9-1.9s-0.9-1.9-1.9-1.9C91.8,82.8,90.9,83.7,90.9,84.8z"/>
	<path class="st1" d="M87.1,84.8c0,1.1,0.9,1.9,1.9,1.9s1.9-0.9,1.9-1.9s-0.9-1.9-1.9-1.9S87.1,83.7,87.1,84.8z"/>
	<ellipse class="st1" cx="85.1" cy="84.8" rx="1.9" ry="1.9"/>
	<path class="st2" d="M56,84.8c0,1.1,0.9,1.9,1.9,1.9s1.9-0.9,1.9-1.9s-0.9-1.9-1.9-1.9C56.9,82.8,56,83.7,56,84.8z"/>
	<ellipse class="st2" cx="54.1" cy="84.8" rx="1.9" ry="1.9"/>
	<path class="st2" d="M48.2,84.8c0,1.1,0.9,1.9,1.9,1.9s1.9-0.9,1.9-1.9s-0.9-1.9-1.9-1.9C49.1,82.8,48.2,83.7,48.2,84.8z"/>
	<ellipse class="st2" cx="46.3" cy="84.8" rx="1.9" ry="1.9"/>
	<path class="st2" d="M40.5,84.8c0,1.1,0.9,1.9,1.9,1.9s1.9-0.9,1.9-1.9s-0.9-1.9-1.9-1.9C41.3,82.8,40.5,83.7,40.5,84.8z"/>
	<path class="st2" d="M36.6,84.8c0,1.1,0.9,1.9,1.9,1.9s1.9-0.9,1.9-1.9s-0.9-1.9-1.9-1.9C37.5,82.8,36.6,83.7,36.6,84.8z"/>
	<ellipse class="st2" cx="34.7" cy="84.8" rx="1.9" ry="1.9"/>
	<path class="st1" d="M102.6,80.9c0,1.1,0.9,1.9,1.9,1.9s1.9-0.9,1.9-1.9s-0.9-1.9-1.9-1.9C103.5,78.9,102.6,79.8,102.6,80.9z"/>
	<path class="st1" d="M98.7,80.9c0,1.1,0.9,1.9,1.9,1.9s1.9-0.9,1.9-1.9s-0.9-1.9-1.9-1.9C99.6,78.9,98.7,79.8,98.7,80.9z"/>
	<path class="st1" d="M94.8,80.9c0,1.1,0.9,1.9,1.9,1.9s1.9-0.9,1.9-1.9s-0.9-1.9-1.9-1.9C95.7,78.9,94.8,79.8,94.8,80.9z"/>
	<path class="st1" d="M90.9,80.9c0,1.1,0.9,1.9,1.9,1.9s1.9-0.9,1.9-1.9s-0.9-1.9-1.9-1.9S90.9,79.8,90.9,80.9z"/>
	<path class="st1" d="M87.1,80.9c0,1.1,0.9,1.9,1.9,1.9s1.9-0.9,1.9-1.9s-0.9-1.9-1.9-1.9S87.1,79.8,87.1,80.9z"/>
	<path class="st1" d="M83.2,80.9c0,1.1,0.9,1.9,1.9,1.9s1.9-0.9,1.9-1.9s-0.9-1.9-1.9-1.9C84.1,78.9,83.2,79.8,83.2,80.9z"/>
	<path class="st2" d="M59.9,80.9c0,1.1,0.9,1.9,1.9,1.9s1.9-0.9,1.9-1.9s-0.9-1.9-1.9-1.9S59.9,79.8,59.9,80.9z"/>
	<path class="st2" d="M56,80.9c0,1.1,0.9,1.9,1.9,1.9s1.9-0.9,1.9-1.9s-0.9-1.9-1.9-1.9C56.9,78.9,56,79.8,56,80.9z"/>
	<path class="st2" d="M52.1,80.9c0,1.1,0.9,1.9,1.9,1.9S56,82,56,80.9s-0.9-1.9-1.9-1.9S52.1,79.8,52.1,80.9z"/>
	<path class="st2" d="M48.2,80.9c0,1.1,0.9,1.9,1.9,1.9s1.9-0.9,1.9-1.9s-0.9-1.9-1.9-1.9C49.1,78.9,48.2,79.8,48.2,80.9z"/>
	<path class="st2" d="M44.4,80.9c0,1.1,0.9,1.9,1.9,1.9s1.9-0.9,1.9-1.9s-0.9-1.9-1.9-1.9C45.2,78.9,44.4,79.8,44.4,80.9z"/>
	<path class="st2" d="M40.5,80.9c0,1.1,0.9,1.9,1.9,1.9s1.9-0.9,1.9-1.9s-0.9-1.9-1.9-1.9S40.5,79.8,40.5,80.9z"/>
	<path class="st2" d="M36.6,80.9c0,1.1,0.9,1.9,1.9,1.9s1.9-0.9,1.9-1.9s-0.9-1.9-1.9-1.9C37.5,78.9,36.6,79.8,36.6,80.9z"/>
	<path class="st2" d="M32.7,80.9c0,1.1,0.9,1.9,1.9,1.9s1.9-0.9,1.9-1.9s-0.9-1.9-1.9-1.9S32.7,79.8,32.7,80.9z"/>
	<ellipse class="st1" cx="104.5" cy="77" rx="1.9" ry="1.9"/>
	<path class="st1" d="M98.7,77c0,1.1,0.9,1.9,1.9,1.9s1.9-0.9,1.9-1.9s-0.9-1.9-1.9-1.9S98.7,76,98.7,77z"/>
	<ellipse class="st1" cx="96.8" cy="77" rx="1.9" ry="1.9"/>
	<path class="st1" d="M90.9,77c0,1.1,0.9,1.9,1.9,1.9s1.9-0.9,1.9-1.9s-0.9-1.9-1.9-1.9S90.9,76,90.9,77z"/>
	<path class="st1" d="M87.1,77c0,1.1,0.9,1.9,1.9,1.9s1.9-0.9,1.9-1.9s-0.9-1.9-1.9-1.9S87.1,76,87.1,77z"/>
	<ellipse class="st1" cx="85.1" cy="77" rx="1.9" ry="1.9"/>
	<path class="st1" d="M79.3,77c0,1.1,0.9,1.9,1.9,1.9s1.9-0.9,1.9-1.9s-0.9-1.9-1.9-1.9C80.2,75.1,79.3,76,79.3,77z"/>
	<ellipse class="st2" cx="65.7" cy="77" rx="1.9" ry="1.9"/>
	<path class="st2" d="M59.9,77c0,1.1,0.9,1.9,1.9,1.9s1.9-0.9,1.9-1.9s-0.9-1.9-1.9-1.9S59.9,76,59.9,77z"/>
	<path class="st2" d="M56,77c0,1.1,0.9,1.9,1.9,1.9s1.9-0.9,1.9-1.9s-0.9-1.9-1.9-1.9C56.9,75.1,56,76,56,77z"/>
	<ellipse class="st2" cx="54.1" cy="77" rx="1.9" ry="1.9"/>
	<path class="st2" d="M48.2,77c0,1.1,0.9,1.9,1.9,1.9s1.9-0.9,1.9-1.9s-0.9-1.9-1.9-1.9C49.1,75.1,48.2,76,48.2,77z"/>
	<ellipse class="st2" cx="46.3" cy="77" rx="1.9" ry="1.9"/>
	<ellipse class="st2" cx="34.7" cy="77" rx="1.9" ry="1.9"/>
	<path class="st1" d="M98.7,73.2c0,1.1,0.9,1.9,1.9,1.9s1.9-0.9,1.9-1.9s-0.9-1.9-1.9-1.9S98.7,72.1,98.7,73.2z"/>
	<path class="st1" d="M94.8,73.2c0,1.1,0.9,1.9,1.9,1.9s1.9-0.9,1.9-1.9s-0.9-1.9-1.9-1.9S94.8,72.1,94.8,73.2z"/>
	<path class="st1" d="M90.9,73.2c0,1.1,0.9,1.9,1.9,1.9s1.9-0.9,1.9-1.9s-0.9-1.9-1.9-1.9C91.8,71.2,90.9,72.1,90.9,73.2z"/>
	<path class="st1" d="M87.1,73.2c0,1.1,0.9,1.9,1.9,1.9s1.9-0.9,1.9-1.9s-0.9-1.9-1.9-1.9S87.1,72.1,87.1,73.2z"/>
	<path class="st1" d="M83.2,73.2c0,1.1,0.9,1.9,1.9,1.9s1.9-0.9,1.9-1.9s-0.9-1.9-1.9-1.9C84.1,71.2,83.2,72.1,83.2,73.2z"/>
	<path class="st1" d="M79.3,73.2c0,1.1,0.9,1.9,1.9,1.9s1.9-0.9,1.9-1.9s-0.9-1.9-1.9-1.9C80.2,71.2,79.3,72.1,79.3,73.2z"/>
	<path class="st2" d="M59.9,73.2c0,1.1,0.9,1.9,1.9,1.9s1.9-0.9,1.9-1.9s-0.9-1.9-1.9-1.9C60.8,71.2,59.9,72.1,59.9,73.2z"/>
	<path class="st2" d="M56,73.2c0,1.1,0.9,1.9,1.9,1.9s1.9-0.9,1.9-1.9s-0.9-1.9-1.9-1.9C56.9,71.2,56,72.1,56,73.2z"/>
	<path class="st2" d="M52.1,73.2c0,1.1,0.9,1.9,1.9,1.9s1.9-0.9,1.9-1.9s-0.9-1.9-1.9-1.9C53,71.2,52.1,72.1,52.1,73.2z"/>
	<path class="st2" d="M48.2,73.2c0,1.1,0.9,1.9,1.9,1.9s1.9-0.9,1.9-1.9s-0.9-1.9-1.9-1.9C49.1,71.2,48.2,72.1,48.2,73.2z"/>
	<path class="st2" d="M44.4,73.2c0,1.1,0.9,1.9,1.9,1.9s1.9-0.9,1.9-1.9s-0.9-1.9-1.9-1.9S44.4,72.1,44.4,73.2z"/>
	<path class="st2" d="M40.5,73.2c0,1.1,0.9,1.9,1.9,1.9s1.9-0.9,1.9-1.9s-0.9-1.9-1.9-1.9C41.3,71.2,40.5,72.1,40.5,73.2z"/>
	<path class="st1" d="M94.8,69.3c0,1.1,0.9,1.9,1.9,1.9s1.9-0.9,1.9-1.9s-0.9-1.9-1.9-1.9S94.8,68.2,94.8,69.3z"/>
	<path class="st1" d="M90.9,69.3c0,1.1,0.9,1.9,1.9,1.9s1.9-0.9,1.9-1.9s-0.9-1.9-1.9-1.9S90.9,68.2,90.9,69.3z"/>
	<path class="st1" d="M87.1,69.3c0,1.1,0.9,1.9,1.9,1.9s1.9-0.9,1.9-1.9s-0.9-1.9-1.9-1.9S87.1,68.2,87.1,69.3z"/>
	<path class="st1" d="M83.2,69.3c0,1.1,0.9,1.9,1.9,1.9s1.9-0.9,1.9-1.9s-0.9-1.9-1.9-1.9C84.1,67.3,83.2,68.2,83.2,69.3z"/>
	<path class="st1" d="M75.4,69.3c0,1.1,0.9,1.9,1.9,1.9s1.9-0.9,1.9-1.9s-0.9-1.9-1.9-1.9S75.4,68.2,75.4,69.3z"/>
	<path class="st1" d="M71.5,69.3c0,1.1,0.9,1.9,1.9,1.9s1.9-0.9,1.9-1.9s-0.9-1.9-1.9-1.9S71.5,68.2,71.5,69.3z"/>
	<path class="st1" d="M67.7,69.3c0,1.1,0.9,1.9,1.9,1.9s1.9-0.9,1.9-1.9s-0.9-1.9-1.9-1.9S67.7,68.2,67.7,69.3z"/>
	<path class="st2" d="M59.9,69.3c0,1.1,0.9,1.9,1.9,1.9s1.9-0.9,1.9-1.9s-0.9-1.9-1.9-1.9S59.9,68.2,59.9,69.3z"/>
	<path class="st2" d="M56,69.3c0,1.1,0.9,1.9,1.9,1.9s1.9-0.9,1.9-1.9s-0.9-1.9-1.9-1.9C56.9,67.3,56,68.2,56,69.3z"/>
	<path class="st2" d="M56,65.4c0,1.1,0.9,1.9,1.9,1.9s1.9-0.9,1.9-1.9s-0.9-1.9-1.9-1.9C56.9,63.5,56,64.3,56,65.4z"/>
	<path class="st2" d="M52.1,69.3c0,1.1,0.9,1.9,1.9,1.9s1.9-0.9,1.9-1.9s-0.9-1.9-1.9-1.9S52.1,68.2,52.1,69.3z"/>
	<path class="st2" d="M48.2,69.3c0,1.1,0.9,1.9,1.9,1.9s1.9-0.9,1.9-1.9s-0.9-1.9-1.9-1.9C49.1,67.3,48.2,68.2,48.2,69.3z"/>
	<path class="st2" d="M44.4,69.3c0,1.1,0.9,1.9,1.9,1.9s1.9-0.9,1.9-1.9s-0.9-1.9-1.9-1.9S44.4,68.2,44.4,69.3z"/>
	<ellipse class="st1" cx="96.8" cy="65.4" rx="1.9" ry="1.9"/>
	<path class="st1" d="M90.9,65.4c0,1.1,0.9,1.9,1.9,1.9s1.9-0.9,1.9-1.9s-0.9-1.9-1.9-1.9C91.8,63.5,90.9,64.3,90.9,65.4z"/>
	<path class="st1" d="M87.1,65.4c0,1.1,0.9,1.9,1.9,1.9s1.9-0.9,1.9-1.9s-0.9-1.9-1.9-1.9S87.1,64.3,87.1,65.4z"/>
	<ellipse class="st1" cx="85.1" cy="65.4" rx="1.9" ry="1.9"/>
	<path class="st1" d="M79.3,65.4c0,1.1,0.9,1.9,1.9,1.9s1.9-0.9,1.9-1.9s-0.9-1.9-1.9-1.9C80.2,63.5,79.3,64.3,79.3,65.4z"/>
	<path class="st1" d="M75.4,65.4c0,1.1,0.9,1.9,1.9,1.9s1.9-0.9,1.9-1.9s-0.9-1.9-1.9-1.9S75.4,64.3,75.4,65.4z"/>
	<ellipse class="st1" cx="73.5" cy="65.4" rx="1.9" ry="1.9"/>
	<path class="st1" d="M90.9,61.5c0,1.1,0.9,1.9,1.9,1.9s1.9-0.9,1.9-1.9s-0.9-1.9-1.9-1.9S90.9,60.5,90.9,61.5z"/>
	<path class="st1" d="M87.1,61.5c0,1.1,0.9,1.9,1.9,1.9s1.9-0.9,1.9-1.9s-0.9-1.9-1.9-1.9S87.1,60.5,87.1,61.5z"/>
	<path class="st1" d="M83.2,61.5c0,1.1,0.9,1.9,1.9,1.9s1.9-0.9,1.9-1.9s-0.9-1.9-1.9-1.9C84.1,59.6,83.2,60.5,83.2,61.5z"/>
	<path class="st1" d="M79.3,61.5c0,1.1,0.9,1.9,1.9,1.9s1.9-0.9,1.9-1.9s-0.9-1.9-1.9-1.9C80.2,59.6,79.3,60.5,79.3,61.5z"/>
	<path class="st1" d="M75.4,61.5c0,1.1,0.9,1.9,1.9,1.9s1.9-0.9,1.9-1.9s-0.9-1.9-1.9-1.9S75.4,60.5,75.4,61.5z"/>
	<path class="st1" d="M71.5,61.5c0,1.1,0.9,1.9,1.9,1.9s1.9-0.9,1.9-1.9s-0.9-1.9-1.9-1.9S71.5,60.5,71.5,61.5z"/>
	<path class="st1" d="M90.9,57.7c0,1.1,0.9,1.9,1.9,1.9s1.9-0.9,1.9-1.9s-0.9-1.9-1.9-1.9S90.9,56.6,90.9,57.7z"/>
	<path class="st1" d="M87.1,57.7c0,1.1,0.9,1.9,1.9,1.9s1.9-0.9,1.9-1.9s-0.9-1.9-1.9-1.9S87.1,56.6,87.1,57.7z"/>
	<path class="st1" d="M83.2,57.7c0,1.1,0.9,1.9,1.9,1.9s1.9-0.9,1.9-1.9s-0.9-1.9-1.9-1.9C84.1,55.7,83.2,56.6,83.2,57.7z"/>
	<path class="st1" d="M79.3,57.7c0,1.1,0.9,1.9,1.9,1.9s1.9-0.9,1.9-1.9s-0.9-1.9-1.9-1.9C80.2,55.7,79.3,56.6,79.3,57.7z"/>
	<path class="st1" d="M75.4,57.7c0,1.1,0.9,1.9,1.9,1.9s1.9-0.9,1.9-1.9s-0.9-1.9-1.9-1.9S75.4,56.6,75.4,57.7z"/>
	<path class="st1" d="M71.5,57.7c0,1.1,0.9,1.9,1.9,1.9s1.9-0.9,1.9-1.9s-0.9-1.9-1.9-1.9S71.5,56.6,71.5,57.7z"/>
	<path class="st1" d="M87.1,53.8c0,1.1,0.9,1.9,1.9,1.9s1.9-0.9,1.9-1.9s-0.9-1.9-1.9-1.9S87.1,52.7,87.1,53.8z"/>
	<path class="st1" d="M79.3,53.8c0,1.1,0.9,1.9,1.9,1.9s1.9-0.9,1.9-1.9s-0.9-1.9-1.9-1.9C80.2,51.8,79.3,52.7,79.3,53.8z"/>
	<path class="st1" d="M75.4,53.8c0,1.1,0.9,1.9,1.9,1.9s1.9-0.9,1.9-1.9s-0.9-1.9-1.9-1.9S75.4,52.7,75.4,53.8z"/>
	<ellipse class="st1" cx="73.5" cy="53.8" rx="1.9" ry="1.9"/>
	<ellipse class="st1" cx="65.7" cy="53.8" rx="1.9" ry="1.9"/>
	<path class="st1" d="M83.2,49.9c0,1.1,0.9,1.9,1.9,1.9s1.9-0.9,1.9-1.9S86.2,48,85.1,48C84.1,48,83.2,48.8,83.2,49.9z"/>
	<path class="st1" d="M79.3,49.9c0,1.1,0.9,1.9,1.9,1.9s1.9-0.9,1.9-1.9S82.3,48,81.2,48C80.2,48,79.3,48.8,79.3,49.9z"/>
	<path class="st1" d="M75.4,49.9c0,1.1,0.9,1.9,1.9,1.9s1.9-0.9,1.9-1.9S78.4,48,77.4,48S75.4,48.8,75.4,49.9z"/>
	<path class="st1" d="M71.5,49.9c0,1.1,0.9,1.9,1.9,1.9s1.9-0.9,1.9-1.9S74.6,48,73.5,48S71.5,48.8,71.5,49.9z"/>
	<path class="st1" d="M67.7,49.9c0,1.1,0.9,1.9,1.9,1.9s1.9-0.9,1.9-1.9S70.7,48,69.6,48S67.7,48.8,67.7,49.9z"/>
	<ellipse class="st1" cx="85.1" cy="46" rx="1.9" ry="1.9"/>
	<path class="st1" d="M79.3,46c0,1.1,0.9,1.9,1.9,1.9s1.9-0.9,1.9-1.9s-0.9-1.9-1.9-1.9C80.2,44.1,79.3,45,79.3,46z"/>
	<path class="st1" d="M75.4,46c0,1.1,0.9,1.9,1.9,1.9s1.9-0.9,1.9-1.9s-0.9-1.9-1.9-1.9S75.4,45,75.4,46z"/>
	<ellipse class="st1" cx="73.5" cy="46" rx="1.9" ry="1.9"/>
	<path class="st1" d="M67.7,46c0,1.1,0.9,1.9,1.9,1.9s1.9-0.9,1.9-1.9s-0.9-1.9-1.9-1.9S67.7,45,67.7,46z"/>
	<ellipse class="st1" cx="65.7" cy="46" rx="1.9" ry="1.9"/>
	<path class="st1" d="M87.1,42.2c0,1.1,0.9,1.9,1.9,1.9s1.9-0.9,1.9-1.9s-0.9-1.9-1.9-1.9S87.1,41.1,87.1,42.2z"/>
	<path class="st1" d="M83.2,42.2c0,1.1,0.9,1.9,1.9,1.9s1.9-0.9,1.9-1.9s-0.9-1.9-1.9-1.9C84.1,40.2,83.2,41.1,83.2,42.2z"/>
	<path class="st1" d="M79.3,42.2c0,1.1,0.9,1.9,1.9,1.9s1.9-0.9,1.9-1.9s-0.9-1.9-1.9-1.9C80.2,40.2,79.3,41.1,79.3,42.2z"/>
	<path class="st1" d="M75.4,42.2c0,1.1,0.9,1.9,1.9,1.9s1.9-0.9,1.9-1.9s-0.9-1.9-1.9-1.9S75.4,41.1,75.4,42.2z"/>
	<path class="st1" d="M71.5,42.2c0,1.1,0.9,1.9,1.9,1.9s1.9-0.9,1.9-1.9s-0.9-1.9-1.9-1.9S71.5,41.1,71.5,42.2z"/>
	<path class="st1" d="M67.7,42.2c0,1.1,0.9,1.9,1.9,1.9s1.9-0.9,1.9-1.9s-0.9-1.9-1.9-1.9S67.7,41.1,67.7,42.2z"/>
	<path class="st1" d="M63.8,42.2c0,1.1,0.9,1.9,1.9,1.9s1.9-0.9,1.9-1.9s-0.9-1.9-1.9-1.9C64.7,40.2,63.8,41.1,63.8,42.2z"/>
	<path class="st1" d="M90.9,38.3c0,1.1,0.9,1.9,1.9,1.9s1.9-0.9,1.9-1.9s-0.9-1.9-1.9-1.9S90.9,37.2,90.9,38.3z"/>
	<path class="st1" d="M87.1,38.3c0,1.1,0.9,1.9,1.9,1.9s1.9-0.9,1.9-1.9s-0.9-1.9-1.9-1.9S87.1,37.2,87.1,38.3z"/>
	<path class="st1" d="M83.2,38.3c0,1.1,0.9,1.9,1.9,1.9s1.9-0.9,1.9-1.9s-0.9-1.9-1.9-1.9C84.1,36.4,83.2,37.2,83.2,38.3z"/>
	<path class="st1" d="M79.3,38.3c0,1.1,0.9,1.9,1.9,1.9s1.9-0.9,1.9-1.9s-0.9-1.9-1.9-1.9C80.2,36.4,79.3,37.2,79.3,38.3z"/>
	<path class="st1" d="M75.4,38.3c0,1.1,0.9,1.9,1.9,1.9s1.9-0.9,1.9-1.9s-0.9-1.9-1.9-1.9S75.4,37.2,75.4,38.3z"/>
	<path class="st1" d="M71.5,38.3c0,1.1,0.9,1.9,1.9,1.9s1.9-0.9,1.9-1.9s-0.9-1.9-1.9-1.9S71.5,37.2,71.5,38.3z"/>
	<path class="st1" d="M67.7,38.3c0,1.1,0.9,1.9,1.9,1.9s1.9-0.9,1.9-1.9s-0.9-1.9-1.9-1.9C68.5,36.4,67.7,37.2,67.7,38.3z"/>
	<path class="st1" d="M90.9,34.4c0,1.1,0.9,1.9,1.9,1.9s1.9-0.9,1.9-1.9s-0.9-1.9-1.9-1.9C91.8,32.5,90.9,33.4,90.9,34.4z"/>
	<path class="st1" d="M87.1,34.4c0,1.1,0.9,1.9,1.9,1.9s1.9-0.9,1.9-1.9s-0.9-1.9-1.9-1.9S87.1,33.4,87.1,34.4z"/>
	<ellipse class="st1" cx="85.1" cy="34.4" rx="1.9" ry="1.9"/>
	<path class="st1" d="M79.3,34.4c0,1.1,0.9,1.9,1.9,1.9s1.9-0.9,1.9-1.9s-0.9-1.9-1.9-1.9C80.2,32.5,79.3,33.4,79.3,34.4z"/>
	<path class="st1" d="M75.4,34.4c0,1.1,0.9,1.9,1.9,1.9s1.9-0.9,1.9-1.9s-0.9-1.9-1.9-1.9S75.4,33.4,75.4,34.4z"/>
	<ellipse class="st1" cx="73.5" cy="34.4" rx="1.9" ry="1.9"/>
	<path class="st1" d="M67.7,34.4c0,1.1,0.9,1.9,1.9,1.9s1.9-0.9,1.9-1.9s-0.9-1.9-1.9-1.9S67.7,33.4,67.7,34.4z"/>
	<ellipse class="st1" cx="65.7" cy="34.4" rx="1.9" ry="1.9"/>
	<path class="st1" d="M83.2,30.5c0,1.1,0.9,1.9,1.9,1.9s1.9-0.9,1.9-1.9s-0.9-1.9-1.9-1.9C84.1,28.6,83.2,29.5,83.2,30.5z"/>
	<path class="st1" d="M71.5,30.5c0,1.1,0.9,1.9,1.9,1.9s1.9-0.9,1.9-1.9s-0.9-1.9-1.9-1.9C72.4,28.6,71.5,29.5,71.5,30.5z"/>
	<path class="st1" d="M67.7,30.5c0,1.1,0.9,1.9,1.9,1.9s1.9-0.9,1.9-1.9s-0.9-1.9-1.9-1.9S67.7,29.5,67.7,30.5z"/>
	<path class="st1" d="M63.8,30.5c0,1.1,0.9,1.9,1.9,1.9s1.9-0.9,1.9-1.9s-0.9-1.9-1.9-1.9C64.7,28.6,63.8,29.5,63.8,30.5z"/>
	<path class="st1" d="M75.4,26.7c0,1.1,0.9,1.9,1.9,1.9s1.9-0.9,1.9-1.9s-0.9-1.9-1.9-1.9S75.4,25.6,75.4,26.7z"/>
	<ellipse class="st1" cx="73.5" cy="26.7" rx="1.9" ry="1.9"/>
	<path class="st1" d="M67.7,26.7c0,1.1,0.9,1.9,1.9,1.9s1.9-0.9,1.9-1.9s-0.9-1.9-1.9-1.9S67.7,25.6,67.7,26.7z"/>
	<path class="st1" d="M79.3,22.8c0,1.1,0.9,1.9,1.9,1.9s1.9-0.9,1.9-1.9s-0.9-1.9-1.9-1.9C80.2,20.9,79.3,21.7,79.3,22.8z"/>
	<path class="st1" d="M75.4,22.8c0,1.1,0.9,1.9,1.9,1.9s1.9-0.9,1.9-1.9s-0.9-1.9-1.9-1.9S75.4,21.7,75.4,22.8z"/>
	<path class="st1" d="M71.5,22.8c0,1.1,0.9,1.9,1.9,1.9s1.9-0.9,1.9-1.9s-0.9-1.9-1.9-1.9C72.4,20.9,71.5,21.7,71.5,22.8z"/>
	<path class="st1" d="M67.7,22.8c0,1.1,0.9,1.9,1.9,1.9s1.9-0.9,1.9-1.9s-0.9-1.9-1.9-1.9S67.7,21.7,67.7,22.8z"/>
	<path class="st1" d="M83.2,18.9c0,1.1,0.9,1.9,1.9,1.9s1.9-0.9,1.9-1.9S86.2,17,85.1,17C84.1,17,83.2,17.9,83.2,18.9z"/>
	<path class="st1" d="M79.3,18.9c0,1.1,0.9,1.9,1.9,1.9s1.9-0.9,1.9-1.9S82.3,17,81.2,17S79.3,17.9,79.3,18.9z"/>
	<path class="st1" d="M75.4,18.9c0,1.1,0.9,1.9,1.9,1.9s1.9-0.9,1.9-1.9s-0.9-1.9-2-1.9S75.4,17.9,75.4,18.9z"/>
	<path class="st1" d="M71.5,18.9c0,1.1,0.9,1.9,1.9,1.9s1.9-0.9,1.9-1.9S74.6,17,73.5,17S71.5,17.9,71.5,18.9z"/>
</g>
</svg>
