<?xml version="1.0" encoding="utf-8"?>
<!-- Generator: Adobe Illustrator 23.0.1, SVG Export Plug-In . SVG Version: 6.00 Build 0)  -->
<svg version="1.1" id="Layer_1" xmlns="http://www.w3.org/2000/svg" xmlns:xlink="http://www.w3.org/1999/xlink" x="0px" y="0px"
	 width="149.9px" height="204px" viewBox="0 0 149.9 204" style="enable-background:new 0 0 149.9 204;" xml:space="preserve">
<style type="text/css">
	.st0{fill:#E3E9EC;}
	.st1{clip-path:url(#SVGID_2_);fill:#00B3E1;}
	.st2{fill:#FFFFFF;}
</style>
<g>
	<path class="st0" d="M114.6,187.4c1.9-1.5,13.1-8.8,14.9-10.6c9.2-9.5,18.4-25,18.4-48.1c0-22.2-8.9-36.8-17.6-45.5
		c-1.8-1.8-10.2-8.5-15.7-11.1V187.4z"/>
	<rect x="114.6" y="2.1" class="st0" width="19.6" height="42.2"/>
</g>
<g>
	<g>
		<defs>
			<rect id="SVGID_1_" x="1" y="6.1" width="143" height="196.2"/>
		</defs>
		<clipPath id="SVGID_2_">
			<use xlink:href="#SVGID_1_"  style="overflow:visible;"/>
		</clipPath>
		<path class="st1" d="M130.2,6.1H30.3L13.7,109.4c10.4-5.2,21.9-8.1,35.4-8.1c6.3,0,24.2,0.3,34.5,9.5c4.3,3.7,9.2,10.6,9.2,20.7
			c0,8.1-3.2,15-7.5,19.6c-5.8,6-15,9.5-25,9.5c-9.5,0-20.1-2.6-28.8-6.6c-3.2-1.4-12.9-6.3-23-15.5L1,185.1
			c15.5,9.8,35.7,17.3,64.7,17.3c18.4,0,42-3.2,59.8-21.6c9.2-9.5,18.4-25,18.4-48.1c0-22.2-8.9-36.8-17.6-45.5
			c-8.9-9.2-25-19-50.6-19c-2.6,0-8.3,0.3-15.5,1.4l3.5-21.3h66.5V6.1z"/>
	</g>
</g>
<path class="st2" d="M126.4,11.6H110v30.7h16.4v-6.8h-8.9v-5.3h8.4v-6.8h-8.4v-5.1h8.9V11.6z M88.8,11.6h-7.5v30.7h7.5V29l9.8,13.3
	h9.7L95.8,26.1l11.4-14.5H98l-9.2,12.7V11.6z M61.5,31l3.2-9.9l3.2,9.9H61.5z M71.6,42.3h8L68.8,11.6h-8.2L49.5,42.3h7.9l1.9-5.2
	h10.4L71.6,42.3z M52.4,18.3v-6.7H32.7v6.8h6.1v23.9h7.5v-24H52.4z"/>
<g>
	<g>
		<defs>
			<rect id="SVGID_3_" x="1" y="6.1" width="143" height="196.2"/>
		</defs>
		<clipPath id="SVGID_4_">
			<use xlink:href="#SVGID_3_"  style="overflow:visible;"/>
		</clipPath>
	</g>
</g>
</svg>
