<svg version="1.1" id="Layer_1" xmlns="http://www.w3.org/2000/svg" xmlns:xlink="http://www.w3.org/1999/xlink" x="0px" y="0px" width="165px" height="91.32px" viewBox="0 0 393.684 217.895" style="enable-background:new 0 0 165 91.32;" xml:space="preserve">
<g>
	<g>
		<g>
			<path class="st0" fill="#FFFFFF" d="M175.923,123.55c-3.074,2.665-7.331,4.011-12.753,4.011c-5.505,0-9.766-1.337-12.78-3.993
				c-3.02-2.648-4.531-6.749-4.531-12.296V85.984h8.949v25.288c0,1.102,0.087,2.182,0.28,3.245c0.181,1.07,0.586,2.011,1.191,2.818
				c0.604,0.817,1.458,1.484,2.536,1.999c1.082,0.506,2.537,0.76,4.354,0.76c3.193,0,5.387-0.708,6.603-2.122
				c1.22-1.435,1.825-3.658,1.825-6.7V85.984h8.94v25.288C180.538,116.778,179.002,120.87,175.923,123.55z"></path>
			<path class="st0" fill="#FFFFFF" d="M192.576,85.984v40.666h-8.089V85.984H192.576z"></path>
			<path class="st0" fill="#FFFFFF" d="M204.127,119.334c0.357,0.619,0.822,1.133,1.396,1.536c0.562,0.395,1.218,0.689,1.964,0.88
				c0.732,0.191,1.51,0.282,2.302,0.282c0.57,0,1.168-0.06,1.795-0.201c0.626-0.13,1.195-0.336,1.703-0.617
				c0.516-0.294,0.951-0.666,1.288-1.142c0.343-0.474,0.516-1.068,0.516-1.796c0-1.213-0.808-2.123-2.426-2.73
				c-1.614-0.605-3.865-1.212-6.744-1.829c-1.176-0.264-2.33-0.576-3.447-0.938c-1.119-0.354-2.113-0.828-2.988-1.415
				c-0.875-0.596-1.576-1.334-2.111-2.232c-0.531-0.89-0.794-1.979-0.794-3.264c0-1.898,0.366-3.454,1.105-4.676
				c0.74-1.213,1.723-2.174,2.938-2.871c1.209-0.706,2.585-1.201,4.102-1.483c1.515-0.284,3.072-0.425,4.666-0.425
				c1.599,0,3.146,0.151,4.648,0.456c1.494,0.303,2.83,0.817,4.01,1.535c1.173,0.728,2.153,1.688,2.936,2.881
				c0.774,1.19,1.244,2.706,1.389,4.524h-7.684c-0.114-1.554-0.707-2.615-1.763-3.162c-1.062-0.546-2.325-0.819-3.758-0.819
				c-0.455,0-0.952,0.021-1.484,0.081c-0.538,0.051-1.015,0.183-1.451,0.374c-0.438,0.184-0.808,0.467-1.113,0.819
				c-0.302,0.363-0.454,0.85-0.454,1.456c0,0.717,0.265,1.312,0.801,1.767c0.528,0.455,1.215,0.819,2.077,1.103
				c0.853,0.292,1.826,0.544,2.93,0.767c1.103,0.233,2.224,0.486,3.355,0.748c1.181,0.263,2.332,0.587,3.451,0.971
				c1.115,0.373,2.12,0.879,2.991,1.505c0.874,0.627,1.571,1.404,2.102,2.333c0.534,0.931,0.799,2.082,0.799,3.447
				c0,1.94-0.385,3.556-1.168,4.868c-0.776,1.314-1.796,2.367-3.046,3.164c-1.252,0.797-2.688,1.354-4.301,1.676
				c-1.608,0.326-3.248,0.485-4.924,0.485c-1.71,0-3.38-0.17-5.009-0.516c-1.637-0.333-3.084-0.909-4.36-1.707
				c-1.268-0.796-2.314-1.848-3.125-3.16c-0.819-1.304-1.264-2.953-1.345-4.92h7.685
				C203.58,117.962,203.761,118.708,204.127,119.334z"></path>
			<path class="st0" fill="#FFFFFF" d="M225.849,88.38h8.091v8.83h5.923v5.404h-5.923v14.58c0,1.372,0.223,2.273,0.684,2.737
				c0.454,0.456,1.363,0.687,2.731,0.687c0.457,0,0.892-0.018,1.311-0.058c0.416-0.042,0.815-0.092,1.197-0.173v6.264
				c-0.684,0.11-1.443,0.191-2.279,0.221c-0.832,0.042-1.651,0.062-2.452,0.062c-1.248,0-2.438-0.081-3.556-0.251
				c-1.121-0.185-2.112-0.509-2.956-1.003c-0.862-0.495-1.535-1.191-2.021-2.111c-0.499-0.909-0.75-2.102-0.75-3.587V88.38z"></path>
			<path class="st0" fill="#FFFFFF" d="M250.537,119.587c1.22,1.174,2.962,1.77,5.239,1.77c1.637,0,3.04-0.415,4.21-1.222
				c1.181-0.82,1.9-1.687,2.169-2.598h7.117c-1.138,3.537-2.884,6.05-5.243,7.578c-2.352,1.515-5.197,2.271-8.534,2.271
				c-2.317,0-4.407-0.363-6.265-1.1c-1.865-0.746-3.438-1.799-4.724-3.163c-1.301-1.374-2.291-3.01-2.996-4.899
				c-0.706-1.909-1.051-3.994-1.051-6.265c0-2.204,0.361-4.254,1.083-6.153c0.719-1.898,1.745-3.536,3.08-4.931
				c1.321-1.384,2.907-2.475,4.75-3.272c1.837-0.798,3.88-1.193,6.122-1.193c2.504,0,4.685,0.486,6.548,1.455
				c1.854,0.961,3.389,2.264,4.585,3.9c1.187,1.637,2.06,3.495,2.583,5.577c0.538,2.091,0.729,4.276,0.571,6.546h-21.236
				C248.658,116.516,249.326,118.406,250.537,119.587z M259.677,104.09c-0.974-1.052-2.436-1.587-4.409-1.587
				c-1.29,0-2.37,0.222-3.221,0.657c-0.86,0.433-1.534,0.979-2.051,1.626c-0.508,0.636-0.873,1.322-1.08,2.041
				c-0.208,0.729-0.335,1.363-0.371,1.939h13.155C261.319,106.716,260.644,105.16,259.677,104.09z"></path>
			<path class="st0" fill="#FFFFFF" d="M280.127,97.209v5.465h0.11c0.381-0.909,0.891-1.756,1.541-2.534c0.648-0.779,1.388-1.444,2.218-1.99
				c0.838-0.546,1.727-0.98,2.679-1.283c0.946-0.305,1.935-0.456,2.966-0.456c0.524,0,1.109,0.09,1.758,0.283v7.518
				c-0.377-0.071-0.828-0.142-1.368-0.203c-0.526-0.05-1.04-0.082-1.533-0.082c-1.481,0-2.731,0.245-3.755,0.739
				c-1.027,0.494-1.852,1.172-2.483,2.02c-0.626,0.859-1.072,1.848-1.339,2.991c-0.263,1.144-0.394,2.374-0.394,3.699v13.274h-8.093
				v-29.44H280.127z"></path>
		</g>
		<g>
			<path class="st0" fill="#FFFFFF" d="M175.923,169.516c-3.074,2.677-7.331,4.01-12.753,4.01c-5.505,0-9.766-1.333-12.78-3.979
				c-3.02-2.666-4.531-6.76-4.531-12.305v-25.287h8.949v25.287c0,1.101,0.087,2.181,0.28,3.241c0.188,1.062,0.586,2.012,1.191,2.819
				c0.604,0.819,1.458,1.486,2.536,1.991c1.082,0.515,2.537,0.779,4.354,0.779c3.193,0,5.387-0.72,6.603-2.143
				c1.22-1.427,1.825-3.657,1.825-6.688v-25.287h8.94v25.287C180.538,162.75,179.002,166.833,175.923,169.516z"></path>
			<path class="st0" fill="#FFFFFF" d="M192.16,143.179v4.1h0.168c1.025-1.706,2.362-2.96,3.99-3.737c1.627-0.776,3.307-1.162,5.011-1.162
				c2.163,0,3.94,0.294,5.325,0.881c1.386,0.594,2.475,1.403,3.275,2.442c0.796,1.052,1.354,2.326,1.674,3.82
				c0.324,1.503,0.491,3.16,0.491,4.979v18.117H204v-16.631c0-2.426-0.377-4.242-1.136-5.435c-0.756-1.201-2.107-1.799-4.036-1.799
				c-2.205,0-3.801,0.656-4.794,1.972c-0.985,1.303-1.479,3.455-1.479,6.456v15.437h-8.083v-29.439H192.16z"></path>
			<path class="st0" fill="#FFFFFF" d="M215.948,138.621v-6.666h8.091v6.666H215.948z M224.039,143.179v29.439h-8.091v-29.439H224.039z"></path>
			<path class="st0" fill="#FFFFFF" d="M236.061,172.619l-10.079-29.439h8.482l6.212,20.103h0.109l6.21-20.103h8.03l-9.965,29.439H236.061z"></path>
			<path class="st0" fill="#FFFFFF" d="M263.679,165.557c1.214,1.168,2.961,1.766,5.24,1.766c1.631,0,3.031-0.414,4.213-1.233
				c1.177-0.806,1.898-1.676,2.165-2.583h7.119c-1.138,3.524-2.883,6.05-5.241,7.577c-2.356,1.519-5.202,2.271-8.537,2.271
				c-2.318,0-4.406-0.365-6.268-1.113c-1.861-0.732-3.435-1.794-4.728-3.16c-1.292-1.361-2.281-2.997-2.99-4.891
				c-0.703-1.899-1.05-3.989-1.05-6.272c0-2.195,0.356-4.244,1.082-6.143c0.716-1.9,1.747-3.549,3.076-4.93
				c1.325-1.386,2.914-2.475,4.752-3.275c1.839-0.796,3.88-1.191,6.125-1.191c2.503,0,4.685,0.483,6.543,1.456
				c1.861,0.958,3.393,2.261,4.589,3.899c1.195,1.627,2.056,3.484,2.588,5.574c0.533,2.094,0.726,4.277,0.574,6.55h-21.246
				C261.794,162.474,262.46,164.384,263.679,165.557z M272.821,150.068c-0.969-1.061-2.438-1.597-4.418-1.597
				c-1.288,0-2.358,0.225-3.217,0.648c-0.856,0.442-1.537,0.98-2.045,1.625c-0.514,0.646-0.882,1.335-1.082,2.053
				c-0.212,0.726-0.33,1.372-0.373,1.937h13.161C274.459,152.683,273.788,151.129,272.821,150.068z"></path>
			<path class="st0" fill="#FFFFFF" d="M292.62,143.179v5.465h0.112c0.384-0.909,0.893-1.761,1.543-2.537c0.637-0.775,1.383-1.443,2.216-1.99
				c0.838-0.555,1.733-0.98,2.682-1.282c0.945-0.302,1.931-0.455,2.96-0.455c0.53,0,1.117,0.09,1.763,0.282v7.519
				c-0.379-0.08-0.833-0.144-1.363-0.202c-0.536-0.051-1.048-0.082-1.537-0.082c-1.484,0-2.738,0.241-3.755,0.736
				c-1.03,0.497-1.855,1.174-2.481,2.022c-0.628,0.858-1.076,1.847-1.342,2.99c-0.265,1.142-0.397,2.375-0.397,3.708v13.266h-8.087
				v-29.439H292.62z"></path>
			<path class="st0" fill="#FFFFFF" d="M313.295,165.293c0.356,0.635,0.83,1.142,1.395,1.539c0.571,0.398,1.224,0.695,1.965,0.888
				c0.744,0.189,1.513,0.279,2.311,0.279c0.564,0,1.164-0.06,1.796-0.19c0.617-0.13,1.19-0.344,1.706-0.638
				c0.508-0.271,0.936-0.656,1.28-1.131c0.336-0.474,0.506-1.07,0.506-1.797c0-1.211-0.812-2.124-2.418-2.728
				c-1.61-0.607-3.857-1.213-6.744-1.83c-1.178-0.264-2.321-0.575-3.445-0.937c-1.117-0.356-2.118-0.831-2.996-1.427
				c-0.864-0.587-1.574-1.323-2.096-2.222c-0.536-0.891-0.804-1.983-0.804-3.264c0-1.898,0.375-3.454,1.113-4.681
				c0.736-1.211,1.708-2.17,2.93-2.879c1.22-0.685,2.578-1.181,4.098-1.474c1.521-0.283,3.076-0.425,4.676-0.425
				c1.593,0,3.134,0.153,4.634,0.455c1.497,0.302,2.836,0.817,4.017,1.537c1.176,0.726,2.159,1.676,2.93,2.877
				c0.778,1.194,1.249,2.698,1.4,4.527h-7.688c-0.112-1.556-0.708-2.607-1.77-3.162c-1.057-0.557-2.312-0.821-3.758-0.821
				c-0.454,0-0.949,0.022-1.478,0.081c-0.532,0.054-1.018,0.184-1.454,0.365c-0.431,0.195-0.809,0.463-1.106,0.83
				c-0.31,0.364-0.457,0.848-0.457,1.453c0,0.72,0.264,1.315,0.799,1.758c0.533,0.465,1.222,0.829,2.076,1.11
				c0.854,0.296,1.831,0.547,2.934,0.779c1.101,0.222,2.218,0.475,3.355,0.739c1.176,0.262,2.326,0.584,3.445,0.967
				c1.121,0.386,2.114,0.883,2.994,1.509c0.871,0.626,1.572,1.402,2.106,2.334c0.528,0.926,0.8,2.077,0.8,3.445
				c0,1.937-0.396,3.556-1.175,4.868c-0.775,1.314-1.792,2.363-3.04,3.162c-1.254,0.799-2.692,1.354-4.302,1.676
				c-1.614,0.324-3.253,0.485-4.931,0.485c-1.7,0-3.376-0.172-5.009-0.515c-1.63-0.334-3.083-0.909-4.358-1.708
				c-1.27-0.797-2.308-1.847-3.126-3.153c-0.819-1.312-1.26-2.96-1.339-4.93h7.688C312.755,163.919,312.937,164.676,313.295,165.293
				z"></path>
			<path class="st0" fill="#FFFFFF" d="M334.982,138.621v-6.666h8.09v6.666H334.982z M343.072,143.179v29.439h-8.09v-29.439H343.072z"></path>
			<path class="st0" fill="#FFFFFF" d="M347.016,134.346h8.089v8.833h5.919v5.402h-5.919v14.582c0,1.362,0.223,2.281,0.68,2.738
				c0.454,0.452,1.363,0.677,2.733,0.677c0.452,0,0.896-0.011,1.311-0.054c0.416-0.042,0.818-0.1,1.195-0.171v6.265
				c-0.68,0.11-1.443,0.184-2.279,0.222c-0.838,0.041-1.653,0.062-2.446,0.062c-1.256,0-2.438-0.081-3.565-0.263
				c-1.119-0.163-2.103-0.495-2.96-0.991c-0.853-0.493-1.525-1.2-2.021-2.102c-0.496-0.909-0.736-2.112-0.736-3.586V134.346z"></path>
			<path class="st0" fill="#FFFFFF" d="M375.859,181.389c-1.556,1.019-3.719,1.534-6.485,1.534c-0.84,0-1.663-0.03-2.482-0.081
				c-0.816-0.059-1.638-0.129-2.479-0.202v-6.658c0.765,0.071,1.543,0.144,2.336,0.225c0.806,0.069,1.6,0.088,2.391,0.049
				c1.071-0.112,1.851-0.527,2.368-1.254c0.516-0.717,0.769-1.513,0.769-2.383c0-0.646-0.112-1.254-0.346-1.82l-10.305-27.619h8.602
				l6.658,20.155H377l6.438-20.155h8.362l-12.293,33.076C378.627,178.649,377.414,180.357,375.859,181.389z"></path>
		</g>
	</g>
	<g>
		<path class="st1" fill="#BBA461" d="M145.838,2.13H127.98c0,0,18.984,2.222,31.362,26.984h17.853C164.816,4.352,145.838,2.13,145.838,2.13z"></path>
		<path class="st1" fill="#BBA461" d="M177.195,29.114c4.562-10.557,8.182-23.285,26.52-26.984h-21.63c-4.489,0.706-8.458,2.606-11.539,4.577
			c-0.495,0.323-0.97,0.646-1.419,0.961C169.126,7.667,178.212,15.273,177.195,29.114z"></path>
	</g>
	<path class="st1" fill="#BBA461" d="M77.967,43.805l0.005,128.42c0,10.173,3.119,18.7,8.785,24.015l0.061,0.049
		c7.019,5.972,21.125,9.972,35.096,9.972c9.18,0,17.375-1.231,24.366-3.678c6.395-2.241,11.659-5.434,15.696-9.526
		c0,0,0.266-0.304,0.375-0.202c0.119,0.102-0.089,0.383-0.089,0.383c-1.588,2.225-5.786,6.893-15.771,12.518
		c-13.542,7.618-27.257,10.994-46.033,10.994c-32.559,0-62.622-11.539-76.568-29.379c-5.483-7.094-7.904-13.823-7.904-27.692
		L16,21.647C16,12.838,10.597,5.303,2.931,2.13c0,0,32.395,0,41.129,0C54.559,2.13,77.967,11.617,77.967,43.805z"></path>
</g>
</svg>