<?xml version="1.0" encoding="utf-8"?>
<!-- Generator: Adobe Illustrator 16.0.4, SVG Export Plug-In . SVG Version: 6.00 Build 0)  -->
<!DOCTYPE svg PUBLIC "-//W3C//DTD SVG 1.1//EN" "http://www.w3.org/Graphics/SVG/1.1/DTD/svg11.dtd">
<svg version="1.1" id="Layer_1" xmlns="http://www.w3.org/2000/svg" xmlns:xlink="http://www.w3.org/1999/xlink" x="0px" y="0px"
	 width="88.25px" height="91.32px" viewBox="0 0 88.25 91.32" enable-background="new 0 0 88.25 91.32" xml:space="preserve">
<g>
	<g>
		<path fill="#BBA461" d="M61.124,0.892H53.64c0,0,7.957,0.932,13.144,11.31h7.482C69.078,1.824,61.124,0.892,61.124,0.892z"/>
		<path fill="#BBA461" d="M74.266,12.202c1.912-4.425,3.429-9.759,11.115-11.31h-9.065c-1.881,0.296-3.545,1.093-4.836,1.919
			c-0.208,0.135-0.407,0.271-0.595,0.402C70.884,3.214,74.692,6.401,74.266,12.202z"/>
	</g>
	<path fill="#BBA461" d="M32.679,18.359l0.002,53.82c0,4.264,1.307,7.837,3.682,10.064l0.025,0.021
		c2.942,2.503,8.854,4.18,14.709,4.18c3.847,0,7.282-0.516,10.212-1.541c2.68-0.939,4.886-2.277,6.578-3.993
		c0,0,0.111-0.127,0.157-0.084c0.05,0.043-0.038,0.16-0.038,0.16c-0.666,0.933-2.425,2.889-6.609,5.246
		c-5.676,3.193-11.423,4.608-19.292,4.608c-13.646,0-26.245-4.837-32.09-12.313c-2.298-2.973-3.312-5.793-3.312-11.605l0.006-57.85
		c0-3.691-2.265-6.85-5.477-8.18c0,0,13.577,0,17.237,0C22.869,0.892,32.679,4.869,32.679,18.359z"/>
</g>
</svg>
