<?xml version="1.0" encoding="utf-8"?>
<!-- Generator: Adobe Illustrator 16.0.4, SVG Export Plug-In . SVG Version: 6.00 Build 0)  -->
<!DOCTYPE svg PUBLIC "-//W3C//DTD SVG 1.1//EN" "http://www.w3.org/Graphics/SVG/1.1/DTD/svg11.dtd">
<svg version="1.1" id="Layer_1" xmlns="http://www.w3.org/2000/svg" xmlns:xlink="http://www.w3.org/1999/xlink" x="0px" y="0px"
	 width="165px" height="91.32px" viewBox="0 0 165 91.32" enable-background="new 0 0 165 91.32" xml:space="preserve">
<g>
	<g>
		<g>
			<path fill="#FFFFFF" d="M73.733,51.78c-1.289,1.117-3.073,1.681-5.345,1.681c-2.307,0-4.093-0.561-5.356-1.673
				c-1.266-1.11-1.899-2.829-1.899-5.153V36.036h3.75v10.599c0,0.462,0.037,0.914,0.118,1.359c0.076,0.448,0.246,0.843,0.499,1.182
				c0.253,0.342,0.611,0.622,1.063,0.838c0.453,0.212,1.063,0.318,1.825,0.318c1.338,0,2.258-0.297,2.767-0.89
				c0.511-0.602,0.765-1.533,0.765-2.808V36.036h3.747v10.599C75.667,48.942,75.023,50.657,73.733,51.78z"/>
			<path fill="#FFFFFF" d="M80.712,36.036v17.043h-3.39V36.036H80.712z"/>
			<path fill="#FFFFFF" d="M85.553,50.013c0.15,0.259,0.345,0.475,0.586,0.644c0.234,0.165,0.51,0.288,0.822,0.368
				c0.307,0.08,0.633,0.118,0.965,0.118c0.239,0,0.49-0.024,0.752-0.084c0.264-0.055,0.502-0.141,0.715-0.259
				c0.216-0.123,0.398-0.278,0.539-0.479c0.145-0.198,0.217-0.447,0.217-0.753c0-0.508-0.339-0.89-1.018-1.144
				c-0.676-0.254-1.619-0.508-2.826-0.767c-0.492-0.11-0.977-0.241-1.444-0.394c-0.469-0.148-0.886-0.347-1.253-0.593
				c-0.366-0.25-0.66-0.559-0.884-0.936c-0.222-0.373-0.333-0.829-0.333-1.368c0-0.795,0.153-1.447,0.463-1.959
				c0.311-0.509,0.723-0.911,1.231-1.203c0.507-0.296,1.083-0.504,1.72-0.622c0.635-0.119,1.287-0.178,1.955-0.178
				c0.67,0,1.318,0.063,1.947,0.19c0.627,0.127,1.187,0.343,1.682,0.644c0.491,0.306,0.902,0.708,1.23,1.208
				c0.324,0.498,0.521,1.134,0.582,1.896H89.98c-0.048-0.651-0.297-1.096-0.738-1.325c-0.445-0.229-0.975-0.343-1.576-0.343
				c-0.189,0-0.398,0.009-0.621,0.033c-0.226,0.021-0.426,0.077-0.608,0.157c-0.184,0.077-0.339,0.195-0.466,0.343
				c-0.127,0.152-0.191,0.356-0.191,0.61c0,0.301,0.111,0.55,0.336,0.741c0.222,0.19,0.51,0.343,0.871,0.462
				c0.357,0.122,0.766,0.228,1.228,0.321c0.462,0.098,0.933,0.204,1.406,0.313c0.495,0.11,0.978,0.246,1.446,0.407
				c0.467,0.156,0.889,0.368,1.254,0.631s0.658,0.588,0.881,0.978c0.224,0.39,0.334,0.872,0.334,1.444c0,0.813-0.16,1.49-0.488,2.04
				c-0.326,0.551-0.754,0.992-1.277,1.326c-0.524,0.334-1.127,0.567-1.803,0.703c-0.674,0.136-1.361,0.203-2.063,0.203
				c-0.716,0-1.417-0.071-2.099-0.217c-0.687-0.14-1.293-0.381-1.828-0.715c-0.531-0.334-0.969-0.774-1.31-1.324
				c-0.343-0.547-0.529-1.238-0.563-2.062h3.221C85.324,49.438,85.4,49.751,85.553,50.013z"/>
			<path fill="#FFFFFF" d="M94.656,37.04h3.392v3.701h2.482v2.265h-2.482v6.11c0,0.575,0.093,0.953,0.286,1.147
				c0.191,0.19,0.572,0.288,1.145,0.288c0.191,0,0.375-0.008,0.55-0.024c0.175-0.018,0.342-0.039,0.502-0.073v2.626
				c-0.286,0.046-0.604,0.08-0.955,0.093c-0.349,0.018-0.692,0.025-1.028,0.025c-0.522,0-1.021-0.034-1.49-0.105
				c-0.469-0.077-0.885-0.213-1.238-0.42c-0.361-0.207-0.644-0.499-0.848-0.885c-0.209-0.381-0.314-0.881-0.314-1.503V37.04
				L94.656,37.04z"/>
			<path fill="#FFFFFF" d="M105.004,50.119c0.512,0.492,1.241,0.742,2.195,0.742c0.686,0,1.273-0.174,1.765-0.513
				c0.495-0.344,0.796-0.707,0.909-1.089h2.982c-0.477,1.482-1.209,2.536-2.197,3.176c-0.986,0.636-2.178,0.952-3.576,0.952
				c-0.972,0-1.848-0.152-2.626-0.461c-0.782-0.312-1.44-0.754-1.979-1.325c-0.546-0.576-0.961-1.262-1.256-2.054
				c-0.297-0.8-0.441-1.674-0.441-2.626c0-0.923,0.152-1.782,0.455-2.578c0.301-0.796,0.73-1.482,1.29-2.066
				c0.554-0.58,1.219-1.038,1.991-1.372c0.77-0.334,1.626-0.5,2.565-0.5c1.05,0,1.964,0.204,2.744,0.61
				c0.777,0.402,1.421,0.949,1.922,1.635c0.497,0.686,0.863,1.465,1.083,2.337c0.225,0.876,0.305,1.792,0.238,2.743h-8.899
				C104.217,48.832,104.496,49.624,105.004,50.119z M108.834,43.624c-0.408-0.44-1.021-0.665-1.848-0.665
				c-0.541,0-0.993,0.094-1.35,0.275c-0.361,0.182-0.643,0.41-0.859,0.682c-0.213,0.267-0.366,0.554-0.453,0.855
				c-0.087,0.306-0.141,0.571-0.155,0.812h5.513C109.522,44.724,109.239,44.073,108.834,43.624z"/>
			<path fill="#FFFFFF" d="M117.404,40.74v2.291h0.047c0.159-0.381,0.373-0.736,0.646-1.062c0.271-0.326,0.581-0.604,0.93-0.834
				c0.351-0.229,0.724-0.41,1.122-0.537c0.396-0.128,0.812-0.191,1.244-0.191c0.219,0,0.465,0.038,0.736,0.118v3.151
				c-0.158-0.03-0.348-0.06-0.573-0.085c-0.221-0.021-0.437-0.035-0.643-0.035c-0.62,0-1.145,0.104-1.573,0.311
				c-0.431,0.207-0.777,0.491-1.041,0.847c-0.263,0.359-0.449,0.774-0.561,1.253c-0.111,0.479-0.166,0.995-0.166,1.551v5.562h-3.392
				V40.741L117.404,40.74L117.404,40.74z"/>
		</g>
		<g>
			<path fill="#FFFFFF" d="M73.733,71.045c-1.289,1.121-3.073,1.681-5.345,1.681c-2.307,0-4.093-0.56-5.356-1.668
				c-1.266-1.117-1.899-2.833-1.899-5.157V55.302h3.75V65.9c0,0.462,0.037,0.914,0.118,1.358c0.079,0.445,0.246,0.843,0.499,1.182
				c0.253,0.343,0.611,0.623,1.063,0.834c0.453,0.216,1.063,0.327,1.825,0.327c1.338,0,2.258-0.302,2.767-0.898
				c0.511-0.599,0.765-1.533,0.765-2.803V55.302h3.747V65.9C75.667,68.209,75.023,69.92,73.733,71.045z"/>
			<path fill="#FFFFFF" d="M80.538,60.007v1.718h0.071c0.429-0.715,0.99-1.24,1.672-1.565s1.386-0.487,2.101-0.487
				c0.906,0,1.65,0.123,2.231,0.369c0.581,0.249,1.037,0.588,1.372,1.023c0.334,0.441,0.568,0.975,0.702,1.601
				c0.136,0.63,0.206,1.325,0.206,2.087v7.593H85.5v-6.97c0-1.017-0.158-1.778-0.477-2.278c-0.316-0.503-0.883-0.754-1.691-0.754
				c-0.924,0-1.593,0.275-2.009,0.827c-0.413,0.546-0.62,1.447-0.62,2.705v6.47h-3.387V60.007H80.538L80.538,60.007z"/>
			<path fill="#FFFFFF" d="M90.508,58.096v-2.794h3.391v2.794H90.508z M93.898,60.007v12.338h-3.391V60.007H93.898z"/>
			<path fill="#FFFFFF" d="M98.937,72.344l-4.224-12.338h3.555l2.604,8.426h0.045l2.604-8.426h3.365l-4.177,12.338H98.937z"/>
			<path fill="#FFFFFF" d="M110.512,69.385c0.508,0.489,1.24,0.739,2.195,0.739c0.684,0,1.271-0.173,1.766-0.517
				c0.494-0.338,0.796-0.702,0.908-1.082h2.983c-0.478,1.477-1.208,2.535-2.196,3.176c-0.988,0.636-2.181,0.951-3.578,0.951
				c-0.972,0-1.847-0.152-2.627-0.467c-0.779-0.307-1.439-0.751-1.981-1.324c-0.542-0.57-0.956-1.256-1.253-2.05
				c-0.295-0.796-0.44-1.672-0.44-2.628c0-0.92,0.149-1.779,0.454-2.575c0.299-0.796,0.731-1.487,1.289-2.065
				c0.555-0.581,1.221-1.038,1.991-1.373c0.771-0.334,1.626-0.499,2.567-0.499c1.049,0,1.963,0.202,2.742,0.61
				c0.779,0.401,1.422,0.947,1.923,1.634c0.501,0.682,0.861,1.46,1.085,2.336c0.223,0.878,0.304,1.793,0.24,2.745h-8.904
				C109.722,68.093,110,68.893,110.512,69.385z M114.343,62.893c-0.406-0.444-1.021-0.669-1.852-0.669
				c-0.54,0-0.988,0.095-1.349,0.271c-0.358,0.186-0.644,0.411-0.856,0.681c-0.216,0.271-0.37,0.56-0.454,0.86
				c-0.088,0.305-0.138,0.575-0.156,0.812h5.516C115.029,63.99,114.748,63.339,114.343,62.893z"/>
			<path fill="#FFFFFF" d="M122.641,60.007v2.29h0.047c0.161-0.381,0.375-0.738,0.646-1.063c0.268-0.324,0.58-0.604,0.93-0.834
				c0.351-0.232,0.726-0.41,1.123-0.537c0.396-0.126,0.81-0.19,1.24-0.19c0.223,0,0.469,0.038,0.739,0.118v3.151
				c-0.159-0.034-0.349-0.061-0.571-0.085c-0.225-0.021-0.439-0.034-0.645-0.034c-0.621,0-1.146,0.101-1.573,0.309
				c-0.432,0.208-0.777,0.492-1.04,0.848c-0.263,0.359-0.451,0.773-0.562,1.253c-0.11,0.479-0.166,0.995-0.166,1.554v5.56h-3.389
				V60.007H122.641L122.641,60.007z"/>
			<path fill="#FFFFFF" d="M131.306,69.274c0.149,0.267,0.348,0.479,0.585,0.646c0.238,0.167,0.513,0.291,0.823,0.372
				c0.312,0.079,0.634,0.117,0.968,0.117c0.236,0,0.488-0.025,0.754-0.08c0.258-0.055,0.498-0.145,0.715-0.268
				c0.213-0.113,0.392-0.274,0.536-0.474c0.141-0.199,0.212-0.448,0.212-0.753c0-0.508-0.34-0.891-1.014-1.144
				c-0.674-0.255-1.616-0.509-2.826-0.767c-0.494-0.111-0.973-0.241-1.443-0.394c-0.469-0.148-0.889-0.348-1.256-0.598
				c-0.362-0.246-0.66-0.555-0.879-0.932c-0.225-0.373-0.336-0.831-0.336-1.367c0-0.796,0.156-1.448,0.466-1.962
				c0.309-0.508,0.716-0.91,1.228-1.207c0.512-0.287,1.081-0.495,1.718-0.617c0.638-0.119,1.289-0.179,1.96-0.179
				c0.668,0,1.313,0.064,1.941,0.191c0.628,0.126,1.189,0.342,1.684,0.644c0.493,0.305,0.905,0.702,1.229,1.206
				c0.326,0.5,0.523,1.131,0.587,1.897h-3.222c-0.047-0.652-0.297-1.093-0.742-1.325c-0.443-0.233-0.969-0.345-1.575-0.345
				c-0.19,0-0.397,0.01-0.62,0.034c-0.223,0.022-0.426,0.077-0.609,0.153c-0.18,0.081-0.338,0.193-0.463,0.348
				c-0.13,0.152-0.191,0.355-0.191,0.608c0,0.302,0.11,0.552,0.335,0.737c0.224,0.194,0.512,0.348,0.87,0.465
				c0.357,0.124,0.768,0.229,1.229,0.327c0.462,0.093,0.93,0.198,1.406,0.31c0.493,0.109,0.975,0.244,1.443,0.405
				c0.47,0.161,0.886,0.37,1.255,0.632c0.365,0.263,0.658,0.588,0.883,0.979c0.221,0.388,0.335,0.87,0.335,1.443
				c0,0.812-0.165,1.491-0.492,2.041c-0.325,0.551-0.751,0.99-1.274,1.325c-0.525,0.335-1.128,0.567-1.803,0.702
				c-0.676,0.136-1.363,0.203-2.066,0.203c-0.713,0-1.415-0.072-2.1-0.216c-0.684-0.14-1.292-0.381-1.826-0.716
				c-0.532-0.334-0.967-0.774-1.311-1.321c-0.343-0.55-0.527-1.24-0.561-2.066h3.222C131.079,68.699,131.155,69.015,131.306,69.274z
				"/>
			<path fill="#FFFFFF" d="M140.395,58.096v-2.794h3.391v2.794H140.395z M143.785,60.007v12.338h-3.391V60.007H143.785z"/>
			<path fill="#FFFFFF" d="M145.438,56.304h3.391v3.702h2.48v2.264h-2.48v6.111c0,0.571,0.094,0.956,0.285,1.147
				c0.189,0.189,0.571,0.284,1.146,0.284c0.188,0,0.376-0.005,0.55-0.022s0.342-0.042,0.5-0.072v2.626
				c-0.285,0.046-0.604,0.077-0.955,0.093c-0.352,0.018-0.692,0.026-1.025,0.026c-0.525,0-1.021-0.034-1.494-0.11
				c-0.469-0.068-0.881-0.208-1.24-0.415c-0.357-0.207-0.639-0.503-0.847-0.882c-0.208-0.381-0.309-0.885-0.309-1.502
				L145.438,56.304L145.438,56.304z"/>
			<path fill="#FFFFFF" d="M157.526,76.02c-0.652,0.427-1.559,0.643-2.718,0.643c-0.353,0-0.697-0.013-1.041-0.033
				c-0.342-0.025-0.686-0.055-1.039-0.085v-2.79c0.321,0.029,0.647,0.06,0.979,0.094c0.338,0.029,0.671,0.037,1.003,0.021
				c0.448-0.047,0.775-0.221,0.992-0.525c0.216-0.301,0.322-0.634,0.322-0.999c0-0.271-0.047-0.525-0.146-0.763l-4.319-11.575h3.605
				l2.791,8.447h0.047l2.699-8.447h3.504l-5.152,13.862C158.686,74.872,158.178,75.588,157.526,76.02z"/>
		</g>
	</g>
	<g>
		<path fill="#FFFFFF" d="M61.124,0.892H53.64c0,0,7.957,0.932,13.144,11.31h7.482C69.078,1.824,61.124,0.892,61.124,0.892z"/>
		<path fill="#FFFFFF" d="M74.266,12.202c1.912-4.425,3.429-9.759,11.115-11.31h-9.065c-1.881,0.296-3.545,1.093-4.836,1.919
			c-0.208,0.135-0.407,0.271-0.595,0.402C70.884,3.214,74.692,6.401,74.266,12.202z"/>
	</g>
	<path fill="#FFFFFF" d="M32.679,18.359l0.002,53.82c0,4.264,1.307,7.837,3.682,10.064l0.025,0.021
		c2.942,2.503,8.854,4.18,14.709,4.18c3.847,0,7.282-0.516,10.212-1.541c2.68-0.939,4.886-2.277,6.578-3.993
		c0,0,0.111-0.127,0.157-0.084c0.05,0.043-0.038,0.16-0.038,0.16c-0.666,0.933-2.425,2.889-6.609,5.246
		c-5.676,3.193-11.423,4.608-19.292,4.608c-13.646,0-26.245-4.837-32.09-12.313c-2.298-2.973-3.312-5.793-3.312-11.605l0.006-57.85
		c0-3.691-2.265-6.85-5.477-8.18c0,0,13.577,0,17.237,0C22.869,0.892,32.679,4.869,32.679,18.359z"/>
</g>
</svg>
