<svg xmlns="http://www.w3.org/2000/svg" width="300" height="237.021" viewBox="0 0 300 237.021"><style>.st0{fill:#baa35f}.st1{fill:url(#SVGID_1_)}.st2{fill:url(#SVGID_2_)}.st3{fill:url(#SVGID_3_)}.st4{fill:url(#SVGID_4_)}.st5{fill:url(#SVGID_5_)}.st6{fill:url(#SVGID_6_)}.st7{fill:url(#SVGID_7_)}.st8{fill:url(#SVGID_8_)}.st9{fill:url(#SVGID_9_)}.st10{fill:#fff}.st11{fill:none}.st12{fill:url(#SVGID_10_)}.st13{fill:url(#SVGID_11_)}.st14{fill:url(#SVGID_12_)}.st15{fill:url(#SVGID_13_)}.st16{fill:url(#SVGID_14_)}.st17{fill:url(#SVGID_15_)}.st18{fill:url(#SVGID_16_)}.st19{fill:url(#SVGID_17_)}.st20{fill:url(#SVGID_18_)}.st21{fill:url(#SVGID_19_)}.st22{fill:url(#SVGID_20_)}.st23{fill:url(#SVGID_21_)}.st24{fill:url(#SVGID_22_)}.st25{fill:url(#SVGID_23_)}.st26{fill:url(#SVGID_24_)}.st27{fill:url(#SVGID_25_)}.st28{fill:url(#SVGID_26_)}</style><g id="_x31_"><path class="st11" d="M113.247 205.195c-3.805 0-6.942 3.344-7.508 8.023h11.878c.206-.979.309-2.264.309-3.035 0-3.086-1.44-4.988-4.679-4.988zM236.9 210.183c0-3.086-1.439-4.988-4.679-4.988-3.806 0-6.942 3.344-7.508 8.023h11.878c.208-.978.309-2.263.309-3.035zM146.57 172.115c1.862 0 2.679-.682 2.679-2.361 0-1.682-.817-2.227-2.316-2.227-.5 0-1.113.023-1.499.047v4.541h1.136zM178.872 177.767c1.952 0 3.065-1.498 3.065-5.107 0-3.611-1.113-5.109-3.065-5.109-1.953 0-3.065 1.498-3.065 5.109 0 3.609 1.112 5.107 3.065 5.107zM18.899 225.25c2.365 0 4.782-1.543 7.25-5.297l2.777-14.088c-1.131-.463-2.263-.67-4.062-.67-5.554 0-10.233 5.965-10.233 13.68 0 4.472 1.748 6.375 4.268 6.375zM133.404 170.183a16.628 16.628 0 0 1-.454-1.838h-.045c-.114.703-.295 1.34-.454 1.838l-1.271 4.338h3.565l-1.341-4.338zM167.182 210.183c0-3.086-1.439-4.988-4.68-4.988-3.805 0-6.941 3.344-7.508 8.023h11.879c.206-.978.309-2.263.309-3.035z"/><path class="st0" d="M18.127 229.107c3.137 0 5.862-1.801 7.713-4.68h.103a62.387 62.387 0 0 0 0 4.422c.565.154 1.439.258 2.057.258.566 0 1.286-.104 1.954-.258.154-2.725.514-6.736 1.131-9.924l2.931-15.324c-2.366-1.234-5.348-2.057-8.639-2.057-9.667 0-15.684 8.434-15.684 17.484.001 7.046 3.961 10.079 8.434 10.079zm6.737-23.912c1.8 0 2.931.207 4.062.67l-2.777 14.088c-2.468 3.754-4.885 5.297-7.25 5.297-2.52 0-4.268-1.902-4.268-6.375 0-7.715 4.679-13.68 10.233-13.68zM51.549 201.544c-8.793 0-14.295 6.941-14.295 16.506 0 7.354 4.114 11.314 11.313 11.314 2.057 0 4.371-.309 6.376-.979.103-.617.103-1.336.103-2.004 0-.566-.051-1.08-.103-1.596-1.491.516-3.651.824-5.811.824-4.371 0-6.942-2.777-6.942-7.869 0-6.582 2.982-12.443 9.41-12.443 1.851 0 4.114.514 5.656 1.234.36-.771.668-1.801.668-2.777 0-.309 0-.564-.051-.822-1.696-.821-4.165-1.388-6.324-1.388zM68.052 204.476l2.314-13.164c-.72-.154-1.491-.207-2.314-.207-.771 0-1.646.053-2.468.207l-6.531 37.537c.771.154 1.44.258 2.211.258.874 0 1.697-.104 2.571-.258l3.548-20.311c2.005-1.543 4.833-2.828 7.507-2.828 3.137 0 4.114 1.541 4.114 4.113 0 1.234-.411 3.445-.874 6.119l-2.314 12.906c.823.154 1.646.258 2.468.258.771 0 1.594-.051 2.314-.258l2.52-14.449c.36-2.057.668-4.422.668-5.811 0-4.525-2.776-7.045-7.302-7.045-2.724.001-5.963 1.185-8.432 2.933zM92.371 228.849L97 202.058a12.98 12.98 0 0 0-2.468-.256c-.72 0-1.543.102-2.366.256l-4.577 26.791c.72.154 1.543.258 2.263.258.822 0 1.696-.104 2.519-.258zM92.834 195.117c0 1.594 1.08 2.623 2.571 2.623 1.8 0 3.291-1.389 3.291-3.189 0-1.541-1.08-2.674-2.468-2.674-1.903-.001-3.394 1.441-3.394 3.24zM100.237 218.513c0 7.252 3.754 10.852 11.107 10.852 2.468 0 5.194-.361 7.096-1.029.257-1.08.206-2.57.052-3.549-2.005.617-4.474.979-6.582.979-4.834 0-6.891-2.572-6.891-7.303 0-.359.051-1.029.154-1.543h16.455c.514-1.953.823-4.627.823-6.891 0-4.781-2.571-8.484-8.69-8.484-8.896-.001-13.524 7.611-13.524 16.968zm17.38-5.295h-11.878c.566-4.68 3.703-8.023 7.508-8.023 3.24 0 4.679 1.902 4.679 4.988 0 .772-.103 2.057-.309 3.035zM130.675 228.849c.72.154 1.749.258 2.52.258.72 0 1.646-.104 2.366-.258l10.438-18.615c1.8-3.238 2.931-6.324 3.137-8.176-.514-.102-1.748-.256-2.16-.256-.823 0-1.748.102-2.571.256-.206 1.543-.926 4.115-2.263 6.531l-8.331 15.066h-.103l-2.211-12.959c-.309-1.748-.565-4.781-.565-5.861 0-.926.051-1.953.206-2.777a11.51 11.51 0 0 0-2.365-.256c-.617 0-1.543.102-2.263.256-.103.771-.206 1.852-.206 2.623 0 1.285.462 4.113.925 6.428l3.446 17.74zM160.6 229.365c2.469 0 5.193-.361 7.096-1.029.258-1.08.207-2.57.053-3.549-2.006.617-4.475.979-6.582.979-4.834 0-6.891-2.572-6.891-7.303 0-.359.051-1.029.154-1.543h16.455c.514-1.953.822-4.627.822-6.891 0-4.781-2.571-8.484-8.69-8.484-8.896 0-13.524 7.611-13.524 16.969 0 7.251 3.753 10.851 11.107 10.851zm1.902-24.17c3.24 0 4.68 1.902 4.68 4.988 0 .771-.103 2.057-.309 3.035h-11.879c.567-4.679 3.703-8.023 7.508-8.023zM214.795 208.126c0-4.113-3.033-6.582-7.096-6.582-4.012 0-6.942 1.338-9.822 3.342-.977-2.107-3.496-3.342-6.479-3.342-3.086 0-6.068 1.338-8.64 3.24h-.052l.104-2.727a7.66 7.66 0 0 0-1.852-.256c-.668 0-1.337.102-2.006.256l-4.627 26.791c.771.154 1.439.258 2.159.258.874 0 1.8-.104 2.622-.258l3.6-20.568c2.006-1.594 4.629-2.828 7.045-2.828 2.982 0 3.908 2.006 3.908 4.268 0 .977-.154 2.16-.309 3.137l-2.725 15.992c.771.154 1.594.258 2.468.258.72 0 1.543-.051 2.313-.258l2.881-16.248c.205-1.133.309-2.572.359-3.498 0-.359-.051-.463-.051-.822 2.159-1.594 5.142-2.777 7.507-2.777 2.776 0 3.754 1.338 3.754 3.857 0 1.027-.154 2.365-.36 3.496l-2.776 15.992c.823.154 1.595.258 2.468.258.771 0 1.543-.051 2.314-.258l2.88-16.352c.259-1.542.413-3.136.413-4.371zM240.604 216.919c.514-1.953.822-4.627.822-6.891 0-4.781-2.57-8.484-8.689-8.484-8.896 0-13.524 7.611-13.524 16.969 0 7.252 3.754 10.852 11.106 10.852 2.469 0 5.194-.361 7.097-1.029.257-1.08.206-2.57.052-3.549-2.006.617-4.474.979-6.582.979-4.834 0-6.891-2.572-6.891-7.303 0-.359.051-1.029.154-1.543h16.455zm-8.382-11.724c3.239 0 4.679 1.902 4.679 4.988 0 .771-.102 2.057-.309 3.035h-11.878c.565-4.679 3.702-8.023 7.508-8.023zM260.809 228.849c.822.154 1.646.258 2.469.258.771 0 1.594-.051 2.313-.258l2.52-14.449c.36-2.057.669-4.422.669-5.811 0-4.525-2.777-7.045-7.303-7.045-2.931 0-6.53 1.389-9.05 3.395h-.052l.154-2.881c-.565-.154-1.285-.256-1.902-.256s-1.285.102-1.954.256l-4.628 26.791c.771.154 1.389.258 2.16.258.874 0 1.748-.104 2.622-.258l3.497-20.311c2.006-1.543 4.885-2.828 7.404-2.828 3.291 0 4.268 1.541 4.268 4.113 0 1.234-.41 3.445-.873 6.119l-2.314 12.907zM277.98 205.556l-2.16 11.826c-.565 3.086-.926 5.039-.926 6.324 0 3.6 2.006 5.658 6.994 5.658 2.057 0 4.113-.309 5.604-.771.206-.617.309-1.596.36-2.469 0-.463 0-.875-.052-1.234-1.44.412-3.188.617-4.731.617-2.416 0-3.239-.926-3.239-2.674 0-1.08.257-2.52.669-4.68l2.314-12.598h7.713c.359-.875.617-1.904.617-2.881 0-.205 0-.41-.052-.617h-7.662l1.132-6.891c-.771-.154-1.543-.205-2.365-.205-.823 0-1.697.051-2.418.205l-1.182 6.943-4.731.256a4.056 4.056 0 0 0-.617 2.16c0 .309.052.771.103 1.029h4.629z"/><path class="st10" d="M108.071 180.333v-5.131l3.474-6.699c.5-.977.954-2.361.954-3.52a8.107 8.107 0 0 0-1.476-.113c-.545 0-1.227.045-1.658.113 0 1.045-.205 1.863-.545 2.566l-1.567 3.293c-.272.59-.636 1.43-.749 1.906h-.022c-.091-.477-.386-1.295-.727-1.975l-1.521-3.135c-.522-1.09-.658-1.725-.658-2.678-.432-.068-1.045-.092-1.59-.092-.567 0-1.226.045-1.589.092 0 1.158.386 2.314 1.112 3.723l3.315 6.471v5.178a11.08 11.08 0 0 0 1.635.113 9.754 9.754 0 0 0 1.612-.112zM114.63 164.984v15.35h9.604c.113-.477.159-.908.159-1.408 0-.635-.068-1.113-.159-1.361h-6.357v-3.77h5.199c.114-.477.159-.887.159-1.385 0-.637-.068-1.09-.159-1.34h-5.199v-3.314h6.153a5.86 5.86 0 0 0 .159-1.408c0-.637-.068-1.113-.159-1.363h-9.4zM129.204 180.333l1.067-3.111h5.449l1.135 3.111c.295.045.977.113 1.566.113.75 0 1.453-.045 1.749-.113l-5.745-15.35c-.25-.068-.976-.113-1.589-.113-.5 0-1.249.045-1.567.113l-5.358 15.35c.34.068 1.022.113 1.612.113.591.001 1.181-.044 1.681-.113zm3.247-10.15c.159-.498.34-1.135.454-1.838h.045c.136.703.295 1.34.454 1.838l1.34 4.338h-3.565l1.272-4.338zM145.435 174.816h1.34l3.11 5.518c.432.09 1.067.113 1.703.113.703 0 1.316-.045 1.907-.137l-3.701-6.084c1.589-.682 2.725-2.566 2.725-4.451 0-3.541-1.93-4.904-5.79-4.904-1.316 0-3.496.045-4.541.113v15.35c.568.09 1.045.113 1.59.113a9.91 9.91 0 0 0 1.657-.113v-5.518zm0-7.242c.386-.023.999-.047 1.499-.047 1.499 0 2.316.545 2.316 2.227 0 1.68-.817 2.361-2.679 2.361h-1.135v-4.541zM155.081 178.562c0 .363.046.771.113 1.09 1.294.59 3.11.908 4.769.908 3.133 0 5.472-1.793 5.472-4.768 0-2.725-1.816-3.883-4.269-4.654-2.043-.637-2.884-1.068-2.884-2.135 0-.908.931-1.477 2.634-1.477 1.045 0 2.339.16 3.475.455.09-.363.136-1.021.136-1.453 0-.59-.046-1-.113-1.25-.886-.295-2.202-.521-3.679-.521-3.201 0-5.631 1.566-5.631 4.383 0 2.633 1.794 3.814 4.246 4.562 2.202.682 2.929 1.158 2.929 2.293 0 1.023-.862 1.771-2.475 1.771-1.385 0-3.156-.34-4.495-.885a6.45 6.45 0 0 0-.228 1.681zM178.872 180.56c4.2 0 6.425-2.906 6.425-7.9 0-4.996-2.225-7.902-6.425-7.902s-6.426 2.906-6.426 7.902c0 4.994 2.226 7.9 6.426 7.9zm-3.065-7.9c0-3.611 1.112-5.109 3.065-5.109 1.952 0 3.065 1.498 3.065 5.109 0 3.609-1.113 5.107-3.065 5.107-1.953 0-3.065-1.498-3.065-5.107zM187.996 164.984v15.35a11.08 11.08 0 0 0 1.635.113c.681 0 1.181-.045 1.611-.113v-6.539h5.086c.114-.477.159-.887.159-1.385 0-.637-.067-1.09-.159-1.34h-5.086v-3.314h6.04a5.86 5.86 0 0 0 .159-1.408c0-.637-.068-1.113-.159-1.363h-9.286z"/><path class="st0" d="M91.692 23.958h54.372l3.869-15.536H74.867L61.339 79.283l23.689-17.491z"/><radialGradient id="SVGID_1_" cx="-445.225" cy="534.553" r="1" gradientTransform="scale(-129.6847 129.6847) rotate(-60.154 -683.451 -115.48)" gradientUnits="userSpaceOnUse"><stop offset="0" stop-color="#dfd4b7"/><stop offset=".399" stop-color="#bba461"/><stop offset=".814" stop-color="#998750"/><stop offset="1" stop-color="#998750"/></radialGradient><path class="st1" d="M82.888 156.917c38.081 0 57.012-25.975 56.791-57.455-.217-24.213-15.63-36.762-43.806-36.762H84.868l.161-.909-23.69 17.492-.001.001-.025.147h28.396c20.253 0 27.517 7.484 27.517 22.674 0 22.894-11.886 38.082-35.001 38.082-12.987 0-25.535-1.979-35.662-5.062-1.538 3.521-2.42 7.926-2.641 12.107 0 1.102 0 2.201.221 3.523 9.025 3.961 22.896 6.162 38.745 6.162z"/><radialGradient id="SVGID_2_" cx="-445.224" cy="534.552" r="1" gradientTransform="scale(-129.6847 129.6847) rotate(-60.154 -683.451 -115.48)" gradientUnits="userSpaceOnUse"><stop offset="0" stop-color="#dfd4b7"/><stop offset=".399" stop-color="#bba461"/><stop offset=".814" stop-color="#998750"/><stop offset="1" stop-color="#998750"/></radialGradient><radialGradient id="SVGID_3_" cx="-443.752" cy="539.9" r="1" gradientTransform="scale(165.0757 -165.0757) rotate(-77.309 -558.825 -8.228)" gradientUnits="userSpaceOnUse"><stop offset="0" stop-color="#dfd4b7"/><stop offset=".459" stop-color="#bba461"/><stop offset=".831" stop-color="#998750"/><stop offset="1" stop-color="#998750"/></radialGradient><path class="st3" d="M242.189 103.547l-.081-.041.013.091h-22.76c-.014-.092-.038-.18-.053-.271-6.507 19.872-17.16 36.422-32.127 36.422-13.648 0-19.812-10.566-19.812-35.443 0-37.422 15.41-83.43 39.623-83.43 17.391 0 20.033 18.053 20.033 35.442 0 4.074-.246 8.578-.723 13.307 2.772 1.853 5.119 3.773 7.105 5.717.383-.447.852-.932 1.42-1.423 2.462-2.13 6.789-4.406 14.093-4.51h.001c.365-4.376.557-8.754.557-13.091 0-32.799-12.549-52.611-42.486-52.611-38.521 0-62.076 49.971-62.076 100.599 0 29.06 10.126 52.613 42.266 52.613 26.584-.001 45.411-23.528 55.007-53.371z"/><radialGradient id="SVGID_4_" cx="-443.752" cy="539.902" r=".998" gradientTransform="scale(165.0757 -165.0757) rotate(-77.309 -558.825 -8.228)" gradientUnits="userSpaceOnUse"><stop offset="0" stop-color="#dfd4b7"/><stop offset=".459" stop-color="#bba461"/><stop offset=".831" stop-color="#998750"/><stop offset="1" stop-color="#998750"/></radialGradient><path class="st4" d="M234.828 73.918c2.462-2.13 6.789-4.406 14.094-4.51h-.001c-7.304.104-11.631 2.38-14.093 4.51z"/><radialGradient id="SVGID_5_" cx="-443.752" cy="539.902" r=".998" gradientTransform="scale(165.0757 -165.0757) rotate(-77.309 -558.825 -8.228)" gradientUnits="userSpaceOnUse"><stop offset="0" stop-color="#dfd4b7"/><stop offset=".459" stop-color="#baa35f"/><stop offset=".723" stop-color="#897a47"/><stop offset=".831" stop-color="#74683c"/><stop offset="1" stop-color="#74683c"/></radialGradient><path class="st5" d="M234.828 73.918c2.462-2.13 6.789-4.406 14.094-4.51h-.001c-7.304.104-11.631 2.38-14.093 4.51z"/><radialGradient id="SVGID_6_" cx="-443.486" cy="538.628" r="1" gradientTransform="scale(315.543 -315.543) rotate(-59.589 -691.954 -118.05)" gradientUnits="userSpaceOnUse"><stop offset="0" stop-color="#dfd4b7"/><stop offset=".399" stop-color="#bba461"/><stop offset=".762" stop-color="#8b7c49"/><stop offset=".812" stop-color="#847645"/><stop offset="1" stop-color="#847645"/></radialGradient><path class="st6" d="M244.043 97.317c.174 3.161-.251 5.142-.251 5.142 5.517-12.97 9.89-28.616 32.024-33.147l-26.105-.015c-.216.035-.413.104-.629.142.003-.011.003-.021.005-.036-.058 0-.108.006-.165.006-.793 9.457-2.436 18.901-4.879 27.908z"/><radialGradient id="SVGID_7_" cx="-443.75" cy="539.899" r=".998" gradientTransform="scale(165.0757 -165.0757) rotate(-77.309 -558.825 -8.228)" gradientUnits="userSpaceOnUse"><stop offset="0" stop-color="#dfd4b7"/><stop offset=".459" stop-color="#baa35f"/><stop offset=".723" stop-color="#897a47"/><stop offset=".831" stop-color="#74683c"/><stop offset="1" stop-color="#74683c"/></radialGradient><path class="st7" d="M234.828 73.918c-.568.491-1.037.976-1.42 1.423 8.367 8.182 10.341 16.716 10.635 21.977 2.443-9.008 4.086-18.451 4.879-27.909-7.305.103-11.632 2.379-14.094 4.509z"/><radialGradient id="SVGID_8_" cx="-443.482" cy="538.623" r="1" gradientTransform="scale(315.543 -315.543) rotate(-59.589 -691.954 -118.05)" gradientUnits="userSpaceOnUse"><stop offset="0" stop-color="#dfd4b7"/><stop offset=".399" stop-color="#bba461"/><stop offset=".762" stop-color="#8b7c49"/><stop offset=".812" stop-color="#847645"/><stop offset="1" stop-color="#847645"/></radialGradient><path class="st8" d="M234.828 73.918c-.568.491-1.037.976-1.42 1.423 8.367 8.182 10.341 16.716 10.635 21.977 2.443-9.008 4.086-18.451 4.879-27.909-7.305.103-11.632 2.379-14.094 4.509z"/><radialGradient id="SVGID_9_" cx="-443.01" cy="539.73" r="1" gradientTransform="scale(163.745 -163.745) rotate(-59.589 -692.264 -117.844)" gradientUnits="userSpaceOnUse"><stop offset="0" stop-color="#dfd4b7"/><stop offset=".399" stop-color="#baa35f"/><stop offset=".706" stop-color="#897a47"/><stop offset=".831" stop-color="#74683c"/><stop offset="1" stop-color="#74683c"/></radialGradient><path class="st9" d="M203.514 69.269l-19.091-.009 19.091.01z"/><radialGradient id="SVGID_10_" cx="-443.04" cy="539.73" r="1.041" gradientTransform="scale(163.745 -163.745) rotate(-59.589 -692.264 -117.844)" gradientUnits="userSpaceOnUse"><stop offset="0" stop-color="#dfd4b7"/><stop offset=".399" stop-color="#baa35f"/><stop offset=".706" stop-color="#897a47"/><stop offset=".831" stop-color="#74683c"/><stop offset="1" stop-color="#74683c"/></radialGradient><path class="st12" d="M218.294 99.233z"/><radialGradient id="SVGID_11_" cx="-443.01" cy="539.729" r="1" gradientTransform="scale(163.745 -163.745) rotate(-59.589 -692.264 -117.844)" gradientUnits="userSpaceOnUse"><stop offset="0" stop-color="#dfd4b7"/><stop offset=".399" stop-color="#baa35f"/><stop offset=".706" stop-color="#897a47"/><stop offset=".831" stop-color="#74683c"/><stop offset="1" stop-color="#74683c"/></radialGradient><path class="st13" d="M184.422 69.26c.012.004 27.329 10.167 33.869 29.965-6.541-19.796-33.857-29.961-33.869-29.965z"/><radialGradient id="SVGID_12_" cx="-443.01" cy="539.729" r="1" gradientTransform="scale(163.745 -163.745) rotate(-59.589 -692.264 -117.844)" gradientUnits="userSpaceOnUse"><stop offset="0" stop-color="#dfd4b7"/><stop offset=".399" stop-color="#baa35f"/><stop offset=".706" stop-color="#897a47"/><stop offset=".831" stop-color="#74683c"/><stop offset="1" stop-color="#74683c"/></radialGradient><path class="st14" d="M219.277 103.168z"/><radialGradient id="SVGID_13_" cx="-443.01" cy="539.664" r=".996" gradientTransform="scale(163.745 -163.745) rotate(-59.589 -692.264 -117.844)" gradientUnits="userSpaceOnUse"><stop offset="0" stop-color="#dfd4b7"/><stop offset=".399" stop-color="#bba461"/><stop offset=".762" stop-color="#8b7c49"/><stop offset=".812" stop-color="#847645"/><stop offset="1" stop-color="#847645"/></radialGradient><path class="st15" d="M219.277 103.168c.009.053.021.104.031.157v-.003c-.007-.052-.022-.102-.031-.154z"/><radialGradient id="SVGID_14_" cx="-442.635" cy="539.668" r=".499" gradientTransform="scale(163.745 -163.745) rotate(-59.589 -692.264 -117.844)" gradientUnits="userSpaceOnUse"><stop offset="0" stop-color="#dfd4b7"/><stop offset=".399" stop-color="#bba461"/><stop offset=".762" stop-color="#8b7c49"/><stop offset=".812" stop-color="#847645"/><stop offset="1" stop-color="#847645"/></radialGradient><path class="st16" d="M218.879 101.257c-.008-.031-.019-.062-.026-.093.007.031.018.062.026.093z"/><radialGradient id="SVGID_15_" cx="-442.273" cy="539.67" r="0" gradientTransform="scale(163.745 -163.745) rotate(-59.589 -692.264 -117.844)" gradientUnits="userSpaceOnUse"><stop offset="0" stop-color="#dfd4b7"/><stop offset=".399" stop-color="#bba461"/><stop offset=".762" stop-color="#8b7c49"/><stop offset=".812" stop-color="#847645"/><stop offset="1" stop-color="#847645"/></radialGradient><path class="st17" d="M218.294 99.233l-.003-.009c0 .004.002.006.003.009z"/><radialGradient id="SVGID_16_" cx="-442.536" cy="539.585" r="0" gradientTransform="scale(163.745 -163.745) rotate(-59.589 -692.264 -117.844)" gradientUnits="userSpaceOnUse"><stop offset="0" stop-color="#dfd4b7"/><stop offset=".399" stop-color="#bba461"/><stop offset=".762" stop-color="#8b7c49"/><stop offset=".812" stop-color="#847645"/><stop offset="1" stop-color="#847645"/></radialGradient><radialGradient id="SVGID_17_" cx="-443.01" cy="539.729" r="1" gradientTransform="scale(163.745 -163.745) rotate(-59.589 -692.264 -117.844)" gradientUnits="userSpaceOnUse"><stop offset="0" stop-color="#dfd4b7"/><stop offset=".399" stop-color="#bba461"/><stop offset=".762" stop-color="#8b7c49"/><stop offset=".812" stop-color="#847645"/><stop offset="1" stop-color="#847645"/></radialGradient><path class="st19" d="M221.376 87.901c.125.17.772.93 1.632 1.93 2.262 2.632 6.051 6.983 6.051 6.983l13.047 6.69.003.001c-.231-1.807-.711-4.053-2.202-6.91-.098-.188-.202-.356-.303-.541-2.562-5.493-6.104-9.937-9.924-13.52-1.125-1.125-2.133-2.018-2.91-2.607-.004.024-.01.046-.012.07-10.027-8.071-20.789-10.728-20.789-10.728l-2.455-.001 1.42 5.417c0 .002 15.98 12.602 16.442 13.216z"/><radialGradient id="SVGID_18_" cx="-443.751" cy="540.046" r=".971" gradientTransform="scale(165.0757 -165.0757) rotate(-77.309 -558.825 -8.228)" gradientUnits="userSpaceOnUse"><stop offset="0" stop-color="#dfd4b7"/><stop offset=".459" stop-color="#bba461"/><stop offset=".831" stop-color="#998750"/><stop offset="1" stop-color="#998750"/></radialGradient><path class="st20" d="M242.121 103.597l-.013-.091-.003-.001.016.092z"/><radialGradient id="SVGID_19_" cx="-443.01" cy="539.783" r=".998" gradientTransform="scale(163.745 -163.745) rotate(-59.589 -692.264 -117.844)" gradientUnits="userSpaceOnUse"><stop offset="0" stop-color="#dfd4b7"/><stop offset=".399" stop-color="#bba461"/><stop offset=".762" stop-color="#8b7c49"/><stop offset=".812" stop-color="#847645"/><stop offset="1" stop-color="#847645"/></radialGradient><path class="st21" d="M242.121 103.597l-.013-.091-.003-.001.016.092z"/><radialGradient id="SVGID_20_" cx="-443.752" cy="539.912" r="1.001" gradientTransform="scale(165.0757 -165.0757) rotate(-77.309 -558.825 -8.228)" gradientUnits="userSpaceOnUse"><stop offset="0" stop-color="#dfd4b7"/><stop offset=".459" stop-color="#bba461"/><stop offset=".831" stop-color="#998750"/><stop offset="1" stop-color="#998750"/></radialGradient><path class="st22" d="M219.309 103.322v.003c.015.092.039.18.053.271-.014-.091-.039-.182-.053-.274z"/><radialGradient id="SVGID_21_" cx="-443.01" cy="539.73" r="1" gradientTransform="scale(163.745 -163.745) rotate(-59.589 -692.264 -117.844)" gradientUnits="userSpaceOnUse"><stop offset="0" stop-color="#dfd4b7"/><stop offset=".399" stop-color="#bba461"/><stop offset=".762" stop-color="#8b7c49"/><stop offset=".812" stop-color="#847645"/><stop offset="1" stop-color="#847645"/></radialGradient><path class="st23" d="M219.309 103.322v.003c.015.092.039.18.053.271-.014-.091-.039-.182-.053-.274z"/><radialGradient id="SVGID_22_" cx="-443.01" cy="539.73" r="1" gradientTransform="scale(163.745 -163.745) rotate(-59.589 -692.264 -117.844)" gradientUnits="userSpaceOnUse"><stop offset="0" stop-color="#dfd4b7"/><stop offset=".399" stop-color="#baa35f"/><stop offset=".706" stop-color="#897a47"/><stop offset=".831" stop-color="#74683c"/><stop offset="1" stop-color="#74683c"/></radialGradient><path class="st24" d="M223.008 89.831c-.859-1-1.507-1.76-1.632-1.93-.462-.614-16.442-13.215-16.442-13.215l-1.42-5.417-19.091-.01h-.001c.012.004 27.328 10.169 33.869 29.965l.003.009c.209.634.394 1.278.559 1.931.008.031.019.062.026.093.155.627.285 1.266.398 1.911.009.052.023.102.031.154a149.188 149.188 0 0 0 3.7-13.491z"/><radialGradient id="SVGID_23_" cx="-443.01" cy="539.73" r="1" gradientTransform="scale(163.745 -163.745) rotate(-59.589 -692.264 -117.844)" gradientUnits="userSpaceOnUse"><stop offset="0" stop-color="#dfd4b7"/><stop offset=".399" stop-color="#bba461"/><stop offset=".762" stop-color="#8b7c49"/><stop offset=".812" stop-color="#847645"/><stop offset="1" stop-color="#847645"/></radialGradient><path class="st25" d="M223.008 89.831c-.859-1-1.507-1.76-1.632-1.93-.462-.614-16.442-13.215-16.442-13.215l-1.42-5.417-19.091-.01h-.001c.012.004 27.328 10.169 33.869 29.965l.003.009c.209.634.394 1.278.559 1.931.008.031.019.062.026.093.155.627.285 1.266.398 1.911.009.052.023.102.031.154a149.188 149.188 0 0 0 3.7-13.491z"/><radialGradient id="SVGID_24_" cx="-443.754" cy="539.9" r="1.005" gradientTransform="scale(165.0757 -165.0757) rotate(-77.309 -558.825 -8.228)" gradientUnits="userSpaceOnUse"><stop offset="0" stop-color="#dfd4b7"/><stop offset=".459" stop-color="#baa35f"/><stop offset=".723" stop-color="#897a47"/><stop offset=".831" stop-color="#74683c"/><stop offset="1" stop-color="#74683c"/></radialGradient><path class="st26" d="M229.059 96.814s-3.789-4.352-6.051-6.983a149.603 149.603 0 0 1-3.699 13.491c.015.092.039.183.053.274h22.76a1.358 1.358 0 0 1-.016-.092l-13.047-6.69z"/><radialGradient id="SVGID_25_" cx="-443.01" cy="539.728" r="1" gradientTransform="scale(163.745 -163.745) rotate(-59.589 -692.264 -117.844)" gradientUnits="userSpaceOnUse"><stop offset="0" stop-color="#dfd4b7"/><stop offset=".399" stop-color="#baa35f"/><stop offset=".706" stop-color="#897a47"/><stop offset=".831" stop-color="#74683c"/><stop offset="1" stop-color="#74683c"/></radialGradient><path class="st27" d="M229.059 96.814s-3.789-4.352-6.051-6.983a149.603 149.603 0 0 1-3.699 13.491c.015.092.039.183.053.274h22.76a1.358 1.358 0 0 1-.016-.092l-13.047-6.69z"/><radialGradient id="SVGID_26_" cx="-443.01" cy="539.728" r="1" gradientTransform="scale(163.745 -163.745) rotate(-59.589 -692.264 -117.844)" gradientUnits="userSpaceOnUse"><stop offset="0" stop-color="#dfd4b7"/><stop offset=".399" stop-color="#bba461"/><stop offset=".762" stop-color="#8b7c49"/><stop offset=".812" stop-color="#847645"/><stop offset="1" stop-color="#847645"/></radialGradient><path class="st28" d="M229.059 96.814s-3.789-4.352-6.051-6.983a149.603 149.603 0 0 1-3.699 13.491c.015.092.039.183.053.274h22.76a1.358 1.358 0 0 1-.016-.092l-13.047-6.69z"/></g></svg>