<?xml version="1.0" encoding="utf-8"?>
<!-- Generator: Adobe Illustrator 16.0.4, SVG Export Plug-In . SVG Version: 6.00 Build 0)  -->
<!DOCTYPE svg PUBLIC "-//W3C//DTD SVG 1.1//EN" "http://www.w3.org/Graphics/SVG/1.1/DTD/svg11.dtd">
<svg version="1.1" xmlns="http://www.w3.org/2000/svg" xmlns:xlink="http://www.w3.org/1999/xlink" x="0px" y="0px" width="300px"
	 height="237.021px" viewBox="0 0 300 237.021" style="enable-background:new 0 0 300 237.021;" xml:space="preserve">
<style type="text/css">
<![CDATA[
	.st0{fill:#BAA35F;}
	.st1{fill:url(#SVGID_1_);}
	.st2{fill:url(#SVGID_2_);}
	.st3{fill:url(#SVGID_3_);}
	.st4{fill:url(#SVGID_4_);}
	.st5{fill:url(#SVGID_5_);}
	.st6{fill:url(#SVGID_6_);}
	.st7{fill:url(#SVGID_7_);}
	.st8{fill:url(#SVGID_8_);}
	.st9{fill:url(#SVGID_9_);}
	.st10{fill:#FFFFFF;}
	.st11{fill:none;}
	.st12{display:inline;}
	.st13{fill:url(#SVGID_10_);}
	.st14{fill:url(#SVGID_11_);}
	.st15{fill:url(#SVGID_12_);}
	.st16{fill:url(#SVGID_13_);}
	.st17{fill:url(#SVGID_14_);}
	.st18{fill:url(#SVGID_15_);}
	.st19{fill:url(#SVGID_16_);}
	.st20{fill:url(#SVGID_17_);}
	.st21{fill:url(#SVGID_18_);}
	.st22{fill:url(#SVGID_19_);}
	.st23{fill:url(#SVGID_20_);}
	.st24{fill:url(#SVGID_21_);}
	.st25{fill:url(#SVGID_22_);}
	.st26{fill:url(#SVGID_23_);}
	.st27{fill:url(#SVGID_24_);}
	.st28{fill:url(#SVGID_25_);}
	.st29{fill:url(#SVGID_26_);}
	.st30{fill:url(#SVGID_27_);}
	.st31{fill:url(#SVGID_28_);}
	.st32{fill:url(#SVGID_29_);}
	.st33{fill:url(#SVGID_30_);}
	.st34{fill:url(#SVGID_31_);}
	.st35{fill:url(#SVGID_32_);}
	.st36{fill:url(#SVGID_33_);}
	.st37{fill:url(#SVGID_34_);}
	.st38{fill:url(#SVGID_35_);}
	.st39{fill:url(#SVGID_36_);}
	.st40{fill:url(#SVGID_37_);}
	.st41{fill:url(#SVGID_38_);}
	.st42{fill:url(#SVGID_39_);}
	.st43{fill:url(#SVGID_40_);}
	.st44{fill:url(#SVGID_41_);}
	.st45{fill:url(#SVGID_42_);}
	.st46{fill:url(#SVGID_43_);}
	.st47{fill:url(#SVGID_44_);}
	.st48{fill:url(#SVGID_45_);}
	.st49{fill:url(#SVGID_46_);}
	.st50{fill:url(#SVGID_47_);}
	.st51{fill:url(#SVGID_48_);}
	.st52{fill:url(#SVGID_49_);}
	.st53{fill:url(#SVGID_50_);}
	.st54{fill:url(#SVGID_51_);}
	.st55{fill:url(#SVGID_52_);}
	.st56{display:none;}
]]>
</style>
<g id="_x31_" class="st56">
	<g class="st12">
		<path class="st11" d="M113.247,205.195c-3.805,0-6.942,3.344-7.508,8.023h11.878c0.206-0.979,0.309-2.264,0.309-3.035
			C117.926,207.097,116.486,205.195,113.247,205.195z"/>
		<path class="st11" d="M236.9,210.183c0-3.086-1.439-4.988-4.679-4.988c-3.806,0-6.942,3.344-7.508,8.023h11.878
			C236.799,212.24,236.9,210.955,236.9,210.183z"/>
		<path class="st11" d="M146.57,172.115c1.862,0,2.679-0.682,2.679-2.361c0-1.682-0.817-2.227-2.316-2.227
			c-0.5,0-1.113,0.023-1.499,0.047v4.541H146.57z"/>
		<path class="st11" d="M178.872,177.767c1.952,0,3.065-1.498,3.065-5.107c0-3.611-1.113-5.109-3.065-5.109
			c-1.953,0-3.065,1.498-3.065,5.109C175.807,176.269,176.919,177.767,178.872,177.767z"/>
		<path class="st11" d="M18.899,225.25c2.365,0,4.782-1.543,7.25-5.297l2.777-14.088c-1.131-0.463-2.263-0.67-4.062-0.67
			c-5.554,0-10.233,5.965-10.233,13.68C14.631,223.347,16.379,225.25,18.899,225.25z"/>
		<path class="st11" d="M133.404,170.183c-0.159-0.498-0.318-1.135-0.454-1.838h-0.045c-0.114,0.703-0.295,1.34-0.454,1.838
			l-1.271,4.338h3.565L133.404,170.183z"/>
		<path class="st11" d="M167.182,210.183c0-3.086-1.439-4.988-4.68-4.988c-3.805,0-6.941,3.344-7.508,8.023h11.879
			C167.079,212.24,167.182,210.955,167.182,210.183z"/>
		<path class="st0" d="M18.127,229.107c3.137,0,5.862-1.801,7.713-4.68h0.103c-0.052,1.748-0.052,3.086,0,4.422
			c0.565,0.154,1.439,0.258,2.057,0.258c0.566,0,1.286-0.104,1.954-0.258c0.154-2.725,0.514-6.736,1.131-9.924l2.931-15.324
			c-2.366-1.234-5.348-2.057-8.639-2.057c-9.667,0-15.684,8.434-15.684,17.484C9.694,226.074,13.654,229.107,18.127,229.107z
			 M24.864,205.195c1.8,0,2.931,0.207,4.062,0.67l-2.777,14.088c-2.468,3.754-4.885,5.297-7.25,5.297
			c-2.52,0-4.268-1.902-4.268-6.375C14.631,211.16,19.31,205.195,24.864,205.195z"/>
		<path class="st0" d="M51.549,201.544c-8.793,0-14.295,6.941-14.295,16.506c0,7.354,4.114,11.314,11.313,11.314
			c2.057,0,4.371-0.309,6.376-0.979c0.103-0.617,0.103-1.336,0.103-2.004c0-0.566-0.051-1.08-0.103-1.596
			c-1.491,0.516-3.651,0.824-5.811,0.824c-4.371,0-6.942-2.777-6.942-7.869c0-6.582,2.982-12.443,9.41-12.443
			c1.851,0,4.114,0.514,5.656,1.234c0.36-0.771,0.668-1.801,0.668-2.777c0-0.309,0-0.564-0.051-0.822
			C56.177,202.111,53.708,201.544,51.549,201.544z"/>
		<path class="st0" d="M68.052,204.476l2.314-13.164c-0.72-0.154-1.491-0.207-2.314-0.207c-0.771,0-1.646,0.053-2.468,0.207
			l-6.531,37.537c0.771,0.154,1.44,0.258,2.211,0.258c0.874,0,1.697-0.104,2.571-0.258l3.548-20.311
			c2.005-1.543,4.833-2.828,7.507-2.828c3.137,0,4.114,1.541,4.114,4.113c0,1.234-0.411,3.445-0.874,6.119l-2.314,12.906
			c0.823,0.154,1.646,0.258,2.468,0.258c0.771,0,1.594-0.051,2.314-0.258l2.52-14.449c0.36-2.057,0.668-4.422,0.668-5.811
			c0-4.525-2.776-7.045-7.302-7.045C73.76,201.544,70.521,202.728,68.052,204.476z"/>
		<path class="st0" d="M92.371,228.849L97,202.058c-0.771-0.154-1.646-0.256-2.468-0.256c-0.72,0-1.543,0.102-2.366,0.256
			l-4.577,26.791c0.72,0.154,1.543,0.258,2.263,0.258C90.674,229.107,91.548,229.003,92.371,228.849z"/>
		<path class="st0" d="M92.834,195.117c0,1.594,1.08,2.623,2.571,2.623c1.8,0,3.291-1.389,3.291-3.189
			c0-1.541-1.08-2.674-2.468-2.674C94.325,191.876,92.834,193.318,92.834,195.117z"/>
		<path class="st0" d="M100.237,218.513c0,7.252,3.754,10.852,11.107,10.852c2.468,0,5.194-0.361,7.096-1.029
			c0.257-1.08,0.206-2.57,0.052-3.549c-2.005,0.617-4.474,0.979-6.582,0.979c-4.834,0-6.891-2.572-6.891-7.303
			c0-0.359,0.051-1.029,0.154-1.543h16.455c0.514-1.953,0.823-4.627,0.823-6.891c0-4.781-2.571-8.484-8.69-8.484
			C104.865,201.544,100.237,209.156,100.237,218.513z M117.617,213.218h-11.878c0.566-4.68,3.703-8.023,7.508-8.023
			c3.24,0,4.679,1.902,4.679,4.988C117.926,210.955,117.823,212.24,117.617,213.218z"/>
		<path class="st0" d="M130.675,228.849c0.72,0.154,1.749,0.258,2.52,0.258c0.72,0,1.646-0.104,2.366-0.258l10.438-18.615
			c1.8-3.238,2.931-6.324,3.137-8.176c-0.514-0.102-1.748-0.256-2.16-0.256c-0.823,0-1.748,0.102-2.571,0.256
			c-0.206,1.543-0.926,4.115-2.263,6.531l-8.331,15.066h-0.103l-2.211-12.959c-0.309-1.748-0.565-4.781-0.565-5.861
			c0-0.926,0.051-1.953,0.206-2.777c-0.72-0.154-1.542-0.256-2.365-0.256c-0.617,0-1.543,0.102-2.263,0.256
			c-0.103,0.771-0.206,1.852-0.206,2.623c0,1.285,0.462,4.113,0.925,6.428L130.675,228.849z"/>
		<path class="st0" d="M160.6,229.365c2.469,0,5.193-0.361,7.096-1.029c0.258-1.08,0.207-2.57,0.053-3.549
			c-2.006,0.617-4.475,0.979-6.582,0.979c-4.834,0-6.891-2.572-6.891-7.303c0-0.359,0.051-1.029,0.154-1.543h16.455
			c0.514-1.953,0.822-4.627,0.822-6.891c0-4.781-2.571-8.484-8.69-8.484c-8.896,0-13.524,7.611-13.524,16.969
			C149.493,225.765,153.246,229.365,160.6,229.365z M162.502,205.195c3.24,0,4.68,1.902,4.68,4.988c0,0.771-0.103,2.057-0.309,3.035
			h-11.879C155.561,208.539,158.697,205.195,162.502,205.195z"/>
		<path class="st0" d="M214.795,208.126c0-4.113-3.033-6.582-7.096-6.582c-4.012,0-6.942,1.338-9.822,3.342
			c-0.977-2.107-3.496-3.342-6.479-3.342c-3.086,0-6.068,1.338-8.64,3.24h-0.052l0.104-2.727c-0.566-0.154-1.285-0.256-1.852-0.256
			c-0.668,0-1.337,0.102-2.006,0.256l-4.627,26.791c0.771,0.154,1.439,0.258,2.159,0.258c0.874,0,1.8-0.104,2.622-0.258l3.6-20.568
			c2.006-1.594,4.629-2.828,7.045-2.828c2.982,0,3.908,2.006,3.908,4.268c0,0.977-0.154,2.16-0.309,3.137l-2.725,15.992
			c0.771,0.154,1.594,0.258,2.468,0.258c0.72,0,1.543-0.051,2.313-0.258l2.881-16.248c0.205-1.133,0.309-2.572,0.359-3.498
			c0-0.359-0.051-0.463-0.051-0.822c2.159-1.594,5.142-2.777,7.507-2.777c2.776,0,3.754,1.338,3.754,3.857
			c0,1.027-0.154,2.365-0.36,3.496l-2.776,15.992c0.823,0.154,1.595,0.258,2.468,0.258c0.771,0,1.543-0.051,2.314-0.258l2.88-16.352
			C214.641,210.955,214.795,209.361,214.795,208.126z"/>
		<path class="st0" d="M240.604,216.919c0.514-1.953,0.822-4.627,0.822-6.891c0-4.781-2.57-8.484-8.689-8.484
			c-8.896,0-13.524,7.611-13.524,16.969c0,7.252,3.754,10.852,11.106,10.852c2.469,0,5.194-0.361,7.097-1.029
			c0.257-1.08,0.206-2.57,0.052-3.549c-2.006,0.617-4.474,0.979-6.582,0.979c-4.834,0-6.891-2.572-6.891-7.303
			c0-0.359,0.051-1.029,0.154-1.543H240.604z M232.222,205.195c3.239,0,4.679,1.902,4.679,4.988c0,0.771-0.102,2.057-0.309,3.035
			h-11.878C225.279,208.539,228.416,205.195,232.222,205.195z"/>
		<path class="st0" d="M260.809,228.849c0.822,0.154,1.646,0.258,2.469,0.258c0.771,0,1.594-0.051,2.313-0.258l2.52-14.449
			c0.36-2.057,0.669-4.422,0.669-5.811c0-4.525-2.777-7.045-7.303-7.045c-2.931,0-6.53,1.389-9.05,3.395h-0.052l0.154-2.881
			c-0.565-0.154-1.285-0.256-1.902-0.256s-1.285,0.102-1.954,0.256l-4.628,26.791c0.771,0.154,1.389,0.258,2.16,0.258
			c0.874,0,1.748-0.104,2.622-0.258l3.497-20.311c2.006-1.543,4.885-2.828,7.404-2.828c3.291,0,4.268,1.541,4.268,4.113
			c0,1.234-0.41,3.445-0.873,6.119L260.809,228.849z"/>
		<path class="st0" d="M277.98,205.556l-2.16,11.826c-0.565,3.086-0.926,5.039-0.926,6.324c0,3.6,2.006,5.658,6.994,5.658
			c2.057,0,4.113-0.309,5.604-0.771c0.206-0.617,0.309-1.596,0.36-2.469c0-0.463,0-0.875-0.052-1.234
			c-1.44,0.412-3.188,0.617-4.731,0.617c-2.416,0-3.239-0.926-3.239-2.674c0-1.08,0.257-2.52,0.669-4.68l2.314-12.598h7.713
			c0.359-0.875,0.617-1.904,0.617-2.881c0-0.205,0-0.41-0.052-0.617h-7.662l1.132-6.891c-0.771-0.154-1.543-0.205-2.365-0.205
			c-0.823,0-1.697,0.051-2.418,0.205l-1.182,6.943l-4.731,0.256c-0.411,0.67-0.617,1.389-0.617,2.16
			c0,0.309,0.052,0.771,0.103,1.029H277.98z"/>
		<path class="st10" d="M108.071,180.333v-5.131l3.474-6.699c0.5-0.977,0.954-2.361,0.954-3.52c-0.363-0.068-0.84-0.113-1.476-0.113
			c-0.545,0-1.227,0.045-1.658,0.113c0,1.045-0.205,1.863-0.545,2.566l-1.567,3.293c-0.272,0.59-0.636,1.43-0.749,1.906h-0.022
			c-0.091-0.477-0.386-1.295-0.727-1.975l-1.521-3.135c-0.522-1.09-0.658-1.725-0.658-2.678c-0.432-0.068-1.045-0.092-1.59-0.092
			c-0.567,0-1.226,0.045-1.589,0.092c0,1.158,0.386,2.314,1.112,3.723l3.315,6.471v5.178c0.431,0.068,1.022,0.113,1.635,0.113
			C107.141,180.447,107.64,180.402,108.071,180.333z"/>
		<path class="st10" d="M114.63,164.984v15.35h9.604c0.113-0.477,0.159-0.908,0.159-1.408c0-0.635-0.068-1.113-0.159-1.361h-6.357
			v-3.77h5.199c0.114-0.477,0.159-0.887,0.159-1.385c0-0.637-0.068-1.09-0.159-1.34h-5.199v-3.314h6.153
			c0.113-0.479,0.159-0.908,0.159-1.408c0-0.637-0.068-1.113-0.159-1.363H114.63z"/>
		<path class="st10" d="M129.204,180.333l1.067-3.111h5.449l1.135,3.111c0.295,0.045,0.977,0.113,1.566,0.113
			c0.75,0,1.453-0.045,1.749-0.113l-5.745-15.35c-0.25-0.068-0.976-0.113-1.589-0.113c-0.5,0-1.249,0.045-1.567,0.113l-5.358,15.35
			c0.34,0.068,1.022,0.113,1.612,0.113C128.114,180.447,128.704,180.402,129.204,180.333z M132.451,170.183
			c0.159-0.498,0.34-1.135,0.454-1.838h0.045c0.136,0.703,0.295,1.34,0.454,1.838l1.34,4.338h-3.565L132.451,170.183z"/>
		<path class="st10" d="M145.435,174.816h1.34l3.11,5.518c0.432,0.09,1.067,0.113,1.703,0.113c0.703,0,1.316-0.045,1.907-0.137
			l-3.701-6.084c1.589-0.682,2.725-2.566,2.725-4.451c0-3.541-1.93-4.904-5.79-4.904c-1.316,0-3.496,0.045-4.541,0.113v15.35
			c0.568,0.09,1.045,0.113,1.59,0.113c0.613,0,1.09-0.023,1.657-0.113V174.816z M145.435,167.574
			c0.386-0.023,0.999-0.047,1.499-0.047c1.499,0,2.316,0.545,2.316,2.227c0,1.68-0.817,2.361-2.679,2.361h-1.135V167.574z"/>
		<path class="st10" d="M155.081,178.562c0,0.363,0.046,0.771,0.113,1.09c1.294,0.59,3.11,0.908,4.769,0.908
			c3.133,0,5.472-1.793,5.472-4.768c0-2.725-1.816-3.883-4.269-4.654c-2.043-0.637-2.884-1.068-2.884-2.135
			c0-0.908,0.931-1.477,2.634-1.477c1.045,0,2.339,0.16,3.475,0.455c0.09-0.363,0.136-1.021,0.136-1.453c0-0.59-0.046-1-0.113-1.25
			c-0.886-0.295-2.202-0.521-3.679-0.521c-3.201,0-5.631,1.566-5.631,4.383c0,2.633,1.794,3.814,4.246,4.562
			c2.202,0.682,2.929,1.158,2.929,2.293c0,1.023-0.862,1.771-2.475,1.771c-1.385,0-3.156-0.34-4.495-0.885
			C155.149,177.496,155.081,178.017,155.081,178.562z"/>
		<path class="st10" d="M178.872,180.56c4.2,0,6.425-2.906,6.425-7.9c0-4.996-2.225-7.902-6.425-7.902s-6.426,2.906-6.426,7.902
			C172.446,177.654,174.672,180.56,178.872,180.56z M175.807,172.66c0-3.611,1.112-5.109,3.065-5.109
			c1.952,0,3.065,1.498,3.065,5.109c0,3.609-1.113,5.107-3.065,5.107C176.919,177.767,175.807,176.269,175.807,172.66z"/>
		<path class="st10" d="M187.996,164.984v15.35c0.432,0.068,1.021,0.113,1.635,0.113c0.681,0,1.181-0.045,1.611-0.113v-6.539h5.086
			c0.114-0.477,0.159-0.887,0.159-1.385c0-0.637-0.067-1.09-0.159-1.34h-5.086v-3.314h6.04c0.113-0.479,0.159-0.908,0.159-1.408
			c0-0.637-0.068-1.113-0.159-1.363H187.996z"/>
		<polygon class="st0" points="91.692,23.958 146.064,23.958 149.933,8.422 74.867,8.422 61.339,79.283 85.028,61.792 		"/>
		
			<radialGradient id="SVGID_1_" cx="-445.2217" cy="534.5562" r="1" gradientTransform="matrix(-64.5401 -112.4842 -112.4842 64.5401 31533.918 -84400.1172)" gradientUnits="userSpaceOnUse">
			<stop  offset="0" style="stop-color:#DFD4B7"/>
			<stop  offset="0.3987" style="stop-color:#BBA461"/>
			<stop  offset="0.8144" style="stop-color:#998750"/>
			<stop  offset="1" style="stop-color:#998750"/>
		</radialGradient>
		<path class="st1" d="M82.888,156.917c38.081,0,57.012-25.975,56.791-57.455c-0.217-24.213-15.63-36.762-43.806-36.762H84.868
			l0.161-0.909l0,0l0,0L61.339,79.283l0,0l-0.001,0.001l-0.025,0.147h28.396c20.253,0,27.517,7.484,27.517,22.674
			c0,22.894-11.886,38.082-35.001,38.082c-12.987,0-25.535-1.979-35.662-5.062c-1.538,3.521-2.42,7.926-2.641,12.107
			c0,1.102,0,2.201,0.221,3.523C53.168,154.716,67.039,156.917,82.888,156.917z"/>
		<rect x="73.184" y="55.815" class="st0" width="0" height="29.446"/>
		
			<radialGradient id="SVGID_2_" cx="-445.2217" cy="534.5562" r="1" gradientTransform="matrix(-64.5401 -112.4842 -112.4842 64.5401 31533.918 -84400.1172)" gradientUnits="userSpaceOnUse">
			<stop  offset="0" style="stop-color:#DFD4B7"/>
			<stop  offset="0.3987" style="stop-color:#BBA461"/>
			<stop  offset="0.8144" style="stop-color:#998750"/>
			<stop  offset="1" style="stop-color:#998750"/>
		</radialGradient>
		<rect x="73.184" y="55.815" class="st2" width="0" height="29.446"/>
		
			<radialGradient id="SVGID_3_" cx="-443.7524" cy="539.8999" r="0.9997" gradientTransform="matrix(36.2654 161.0429 161.0429 -36.2654 -70657.4922 91054.6875)" gradientUnits="userSpaceOnUse">
			<stop  offset="0" style="stop-color:#DFD4B7"/>
			<stop  offset="0.4585" style="stop-color:#BBA461"/>
			<stop  offset="0.8307" style="stop-color:#998750"/>
			<stop  offset="1" style="stop-color:#998750"/>
		</radialGradient>
		<path class="st3" d="M242.189,103.547l-0.081-0.041c0.004,0.03,0.009,0.062,0.013,0.091h-22.76
			c-0.014-0.092-0.038-0.18-0.053-0.271c-6.507,19.872-17.16,36.422-32.127,36.422c-13.648,0-19.812-10.566-19.812-35.443
			c0-37.422,15.41-83.43,39.623-83.43c17.391,0,20.033,18.053,20.033,35.442c0,4.074-0.246,8.578-0.723,13.307
			c2.772,1.853,5.119,3.773,7.105,5.717c0.383-0.447,0.852-0.932,1.42-1.423c2.462-2.13,6.789-4.406,14.093-4.51h0.001
			c0.365-4.376,0.557-8.754,0.557-13.091c0-32.799-12.549-52.611-42.486-52.611c-38.521,0-62.076,49.971-62.076,100.599
			c0,29.06,10.126,52.613,42.266,52.613C213.766,156.917,232.593,133.39,242.189,103.547z"/>
		
			<radialGradient id="SVGID_4_" cx="-443.7529" cy="539.9019" r="0.9979" gradientTransform="matrix(36.2654 161.0429 161.0429 -36.2654 -70657.4922 91054.6875)" gradientUnits="userSpaceOnUse">
			<stop  offset="0" style="stop-color:#DFD4B7"/>
			<stop  offset="0.4585" style="stop-color:#BBA461"/>
			<stop  offset="0.8307" style="stop-color:#998750"/>
			<stop  offset="1" style="stop-color:#998750"/>
		</radialGradient>
		<path class="st4" d="M234.828,73.918c2.462-2.13,6.789-4.406,14.094-4.51h-0.001C241.617,69.512,237.29,71.788,234.828,73.918z"/>
		
			<radialGradient id="SVGID_5_" cx="-443.7529" cy="539.9019" r="0.9979" gradientTransform="matrix(36.2654 161.0429 161.0429 -36.2654 -70657.4922 91054.6875)" gradientUnits="userSpaceOnUse">
			<stop  offset="0" style="stop-color:#DFD4B7"/>
			<stop  offset="0.4585" style="stop-color:#BAA35F"/>
			<stop  offset="0.7234" style="stop-color:#897A47"/>
			<stop  offset="0.8307" style="stop-color:#74683C"/>
			<stop  offset="1" style="stop-color:#74683C"/>
		</radialGradient>
		<path class="st5" d="M234.828,73.918c2.462-2.13,6.789-4.406,14.094-4.51h-0.001C241.617,69.512,237.29,71.788,234.828,73.918z"/>
		
			<radialGradient id="SVGID_6_" cx="-443.4863" cy="538.6294" r="1" gradientTransform="matrix(159.728 272.1292 272.1292 -159.728 -75691.9375 206695.0625)" gradientUnits="userSpaceOnUse">
			<stop  offset="0" style="stop-color:#DFD4B7"/>
			<stop  offset="0.3987" style="stop-color:#BBA461"/>
			<stop  offset="0.7617" style="stop-color:#8B7C49"/>
			<stop  offset="0.8121" style="stop-color:#847645"/>
			<stop  offset="1" style="stop-color:#847645"/>
		</radialGradient>
		<path class="st6" d="M244.043,97.317c0.174,3.161-0.251,5.142-0.251,5.142c5.517-12.97,9.89-28.616,32.024-33.147l-26.105-0.015
			c-0.216,0.035-0.413,0.104-0.629,0.142c0.003-0.011,0.003-0.021,0.005-0.036c-0.058,0-0.108,0.006-0.165,0.006
			C248.129,78.866,246.486,88.31,244.043,97.317z"/>
		
			<radialGradient id="SVGID_7_" cx="-443.7515" cy="539.8989" r="0.9978" gradientTransform="matrix(36.2654 161.0429 161.0429 -36.2654 -70657.4922 91054.6875)" gradientUnits="userSpaceOnUse">
			<stop  offset="0" style="stop-color:#DFD4B7"/>
			<stop  offset="0.4585" style="stop-color:#BAA35F"/>
			<stop  offset="0.7234" style="stop-color:#897A47"/>
			<stop  offset="0.8307" style="stop-color:#74683C"/>
			<stop  offset="1" style="stop-color:#74683C"/>
		</radialGradient>
		<path class="st7" d="M234.828,73.918c-0.568,0.491-1.037,0.976-1.42,1.423c8.367,8.182,10.341,16.716,10.635,21.977
			c2.443-9.008,4.086-18.451,4.879-27.909C241.617,69.512,237.29,71.788,234.828,73.918z"/>
		
			<radialGradient id="SVGID_8_" cx="-443.4824" cy="538.6235" r="1.0004" gradientTransform="matrix(159.728 272.1292 272.1292 -159.728 -75691.9375 206695.0625)" gradientUnits="userSpaceOnUse">
			<stop  offset="0" style="stop-color:#DFD4B7"/>
			<stop  offset="0.3987" style="stop-color:#BBA461"/>
			<stop  offset="0.7617" style="stop-color:#8B7C49"/>
			<stop  offset="0.8121" style="stop-color:#847645"/>
			<stop  offset="1" style="stop-color:#847645"/>
		</radialGradient>
		<path class="st8" d="M234.828,73.918c-0.568,0.491-1.037,0.976-1.42,1.423c8.367,8.182,10.341,16.716,10.635,21.977
			c2.443-9.008,4.086-18.451,4.879-27.909C241.617,69.512,237.29,71.788,234.828,73.918z"/>
		
			<radialGradient id="SVGID_9_" cx="-443.0098" cy="539.7261" r="0.9999" gradientTransform="matrix(82.8878 141.2163 141.2163 -82.8878 -39332.6133 107287.3516)" gradientUnits="userSpaceOnUse">
			<stop  offset="0" style="stop-color:#DFD4B7"/>
			<stop  offset="0.3987" style="stop-color:#BAA35F"/>
			<stop  offset="0.7062" style="stop-color:#897A47"/>
			<stop  offset="0.8307" style="stop-color:#74683C"/>
			<stop  offset="1" style="stop-color:#74683C"/>
		</radialGradient>
		<polygon class="st9" points="203.514,69.269 184.423,69.26 184.423,69.26 203.514,69.27 		"/>
		
			<radialGradient id="SVGID_10_" cx="-443.04" cy="539.7261" r="1.0409" gradientTransform="matrix(82.8878 141.2163 141.2163 -82.8878 -39332.6133 107287.3516)" gradientUnits="userSpaceOnUse">
			<stop  offset="0" style="stop-color:#DFD4B7"/>
			<stop  offset="0.3987" style="stop-color:#BAA35F"/>
			<stop  offset="0.7062" style="stop-color:#897A47"/>
			<stop  offset="0.8307" style="stop-color:#74683C"/>
			<stop  offset="1" style="stop-color:#74683C"/>
		</radialGradient>
		<path class="st13" d="M218.294,99.233c0.209,0.634,0.394,1.278,0.559,1.931C218.688,100.512,218.503,99.867,218.294,99.233z"/>
		
			<radialGradient id="SVGID_11_" cx="-443.0098" cy="539.7251" r="0.9999" gradientTransform="matrix(82.8878 141.2163 141.2163 -82.8878 -39332.6133 107287.3516)" gradientUnits="userSpaceOnUse">
			<stop  offset="0" style="stop-color:#DFD4B7"/>
			<stop  offset="0.3987" style="stop-color:#BAA35F"/>
			<stop  offset="0.7062" style="stop-color:#897A47"/>
			<stop  offset="0.8307" style="stop-color:#74683C"/>
			<stop  offset="1" style="stop-color:#74683C"/>
		</radialGradient>
		<path class="st14" d="M184.422,69.26L184.422,69.26c0.012,0.004,27.329,10.167,33.869,29.965
			C211.75,79.429,184.434,69.264,184.422,69.26z"/>
		
			<radialGradient id="SVGID_12_" cx="-443.0098" cy="539.7261" r="1" gradientTransform="matrix(82.8878 141.2163 141.2163 -82.8878 -39332.6133 107287.3516)" gradientUnits="userSpaceOnUse">
			<stop  offset="0" style="stop-color:#DFD4B7"/>
			<stop  offset="0.3987" style="stop-color:#BAA35F"/>
			<stop  offset="0.7062" style="stop-color:#897A47"/>
			<stop  offset="0.8307" style="stop-color:#74683C"/>
			<stop  offset="1" style="stop-color:#74683C"/>
		</radialGradient>
		<path class="st15" d="M219.277,103.168c-0.113-0.646-0.243-1.284-0.398-1.911C219.034,101.884,219.164,102.522,219.277,103.168z"
			/>
		
			<radialGradient id="SVGID_13_" cx="-443.0098" cy="539.6606" r="0.9963" gradientTransform="matrix(82.8878 141.2163 141.2163 -82.8878 -39332.6133 107287.3516)" gradientUnits="userSpaceOnUse">
			<stop  offset="0" style="stop-color:#DFD4B7"/>
			<stop  offset="0.3987" style="stop-color:#BBA461"/>
			<stop  offset="0.7617" style="stop-color:#8B7C49"/>
			<stop  offset="0.8121" style="stop-color:#847645"/>
			<stop  offset="1" style="stop-color:#847645"/>
		</radialGradient>
		<path class="st16" d="M219.277,103.168c0.009,0.053,0.021,0.104,0.031,0.157c0-0.001,0-0.002,0-0.003
			C219.301,103.27,219.286,103.22,219.277,103.168z"/>
		
			<radialGradient id="SVGID_14_" cx="-442.6353" cy="539.6646" r="0.4986" gradientTransform="matrix(82.8878 141.2163 141.2163 -82.8878 -39332.6133 107287.3516)" gradientUnits="userSpaceOnUse">
			<stop  offset="0" style="stop-color:#DFD4B7"/>
			<stop  offset="0.3987" style="stop-color:#BBA461"/>
			<stop  offset="0.7617" style="stop-color:#8B7C49"/>
			<stop  offset="0.8121" style="stop-color:#847645"/>
			<stop  offset="1" style="stop-color:#847645"/>
		</radialGradient>
		<path class="st17" d="M218.879,101.257c-0.008-0.031-0.019-0.062-0.026-0.093C218.86,101.195,218.871,101.226,218.879,101.257z"/>
		
			<radialGradient id="SVGID_15_" cx="-442.2729" cy="539.6675" r="0" gradientTransform="matrix(82.8878 141.2163 141.2163 -82.8878 -39332.6133 107287.3516)" gradientUnits="userSpaceOnUse">
			<stop  offset="0" style="stop-color:#DFD4B7"/>
			<stop  offset="0.3987" style="stop-color:#BBA461"/>
			<stop  offset="0.7617" style="stop-color:#8B7C49"/>
			<stop  offset="0.8121" style="stop-color:#847645"/>
			<stop  offset="1" style="stop-color:#847645"/>
		</radialGradient>
		<path class="st18" d="M218.294,99.233c-0.001-0.003-0.003-0.006-0.003-0.009C218.291,99.228,218.293,99.23,218.294,99.233z"/>
		
			<radialGradient id="SVGID_16_" cx="-442.5356" cy="539.5825" r="0" gradientTransform="matrix(82.8878 141.2163 141.2163 -82.8878 -39332.6133 107287.3516)" gradientUnits="userSpaceOnUse">
			<stop  offset="0" style="stop-color:#DFD4B7"/>
			<stop  offset="0.3987" style="stop-color:#BBA461"/>
			<stop  offset="0.7617" style="stop-color:#8B7C49"/>
			<stop  offset="0.8121" style="stop-color:#847645"/>
			<stop  offset="1" style="stop-color:#847645"/>
		</radialGradient>
		<rect x="184.422" y="69.26" class="st19" width="0.001" height="0"/>
		
			<radialGradient id="SVGID_17_" cx="-443.0098" cy="539.7261" r="0.9999" gradientTransform="matrix(82.8878 141.2163 141.2163 -82.8878 -39332.6133 107287.3516)" gradientUnits="userSpaceOnUse">
			<stop  offset="0" style="stop-color:#DFD4B7"/>
			<stop  offset="0.3987" style="stop-color:#BBA461"/>
			<stop  offset="0.7617" style="stop-color:#8B7C49"/>
			<stop  offset="0.8121" style="stop-color:#847645"/>
			<stop  offset="1" style="stop-color:#847645"/>
		</radialGradient>
		<path class="st20" d="M221.376,87.901c0.125,0.17,0.772,0.93,1.632,1.93c2.262,2.632,6.051,6.983,6.051,6.983l13.047,6.69
			l0.003,0.001c-0.231-1.807-0.711-4.053-2.202-6.91c-0.098-0.188-0.202-0.356-0.303-0.541c-2.562-5.493-6.104-9.937-9.924-13.52
			c-1.125-1.125-2.133-2.018-2.91-2.607c-0.004,0.024-0.01,0.046-0.012,0.07c-10.027-8.071-20.789-10.728-20.789-10.728
			l-2.455-0.001l1.42,5.417C204.934,74.687,220.914,87.287,221.376,87.901z"/>
		
			<radialGradient id="SVGID_18_" cx="-443.752" cy="540.0464" r="0.9709" gradientTransform="matrix(36.2654 161.0429 161.0429 -36.2654 -70657.4922 91054.6875)" gradientUnits="userSpaceOnUse">
			<stop  offset="0" style="stop-color:#DFD4B7"/>
			<stop  offset="0.4585" style="stop-color:#BBA461"/>
			<stop  offset="0.8307" style="stop-color:#998750"/>
			<stop  offset="1" style="stop-color:#998750"/>
		</radialGradient>
		<path class="st21" d="M242.121,103.597c-0.004-0.029-0.009-0.061-0.013-0.091l-0.003-0.001
			C242.109,103.533,242.115,103.568,242.121,103.597z"/>
		
			<radialGradient id="SVGID_19_" cx="-443.0098" cy="539.7798" r="0.9979" gradientTransform="matrix(82.8878 141.2163 141.2163 -82.8878 -39332.6133 107287.3516)" gradientUnits="userSpaceOnUse">
			<stop  offset="0" style="stop-color:#DFD4B7"/>
			<stop  offset="0.3987" style="stop-color:#BBA461"/>
			<stop  offset="0.7617" style="stop-color:#8B7C49"/>
			<stop  offset="0.8121" style="stop-color:#847645"/>
			<stop  offset="1" style="stop-color:#847645"/>
		</radialGradient>
		<path class="st22" d="M242.121,103.597c-0.004-0.029-0.009-0.061-0.013-0.091l-0.003-0.001
			C242.109,103.533,242.115,103.568,242.121,103.597z"/>
		
			<radialGradient id="SVGID_20_" cx="-443.7529" cy="539.9116" r="1.0006" gradientTransform="matrix(36.2654 161.0429 161.0429 -36.2654 -70657.4922 91054.6875)" gradientUnits="userSpaceOnUse">
			<stop  offset="0" style="stop-color:#DFD4B7"/>
			<stop  offset="0.4585" style="stop-color:#BBA461"/>
			<stop  offset="0.8307" style="stop-color:#998750"/>
			<stop  offset="1" style="stop-color:#998750"/>
		</radialGradient>
		<path class="st23" d="M219.309,103.322c0,0.001,0,0.002,0,0.003c0.015,0.092,0.039,0.18,0.053,0.271
			C219.348,103.505,219.323,103.414,219.309,103.322z"/>
		
			<radialGradient id="SVGID_21_" cx="-443.0098" cy="539.7261" r="1" gradientTransform="matrix(82.8878 141.2163 141.2163 -82.8878 -39332.6133 107287.3516)" gradientUnits="userSpaceOnUse">
			<stop  offset="0" style="stop-color:#DFD4B7"/>
			<stop  offset="0.3987" style="stop-color:#BBA461"/>
			<stop  offset="0.7617" style="stop-color:#8B7C49"/>
			<stop  offset="0.8121" style="stop-color:#847645"/>
			<stop  offset="1" style="stop-color:#847645"/>
		</radialGradient>
		<path class="st24" d="M219.309,103.322c0,0.001,0,0.002,0,0.003c0.015,0.092,0.039,0.18,0.053,0.271
			C219.348,103.505,219.323,103.414,219.309,103.322z"/>
		
			<radialGradient id="SVGID_22_" cx="-443.0098" cy="539.7261" r="1" gradientTransform="matrix(82.8878 141.2163 141.2163 -82.8878 -39332.6133 107287.3516)" gradientUnits="userSpaceOnUse">
			<stop  offset="0" style="stop-color:#DFD4B7"/>
			<stop  offset="0.3987" style="stop-color:#BAA35F"/>
			<stop  offset="0.7062" style="stop-color:#897A47"/>
			<stop  offset="0.8307" style="stop-color:#74683C"/>
			<stop  offset="1" style="stop-color:#74683C"/>
		</radialGradient>
		<path class="st25" d="M223.008,89.831c-0.859-1-1.507-1.76-1.632-1.93c-0.462-0.614-16.442-13.215-16.442-13.215l-1.42-5.417
			l-19.091-0.01h-0.001c0.012,0.004,27.328,10.169,33.869,29.965c0,0.003,0.002,0.006,0.003,0.009
			c0.209,0.634,0.394,1.278,0.559,1.931c0.008,0.031,0.019,0.062,0.026,0.093c0.155,0.627,0.285,1.266,0.398,1.911
			c0.009,0.052,0.023,0.102,0.031,0.154C220.743,98.938,221.977,94.396,223.008,89.831z"/>
		
			<radialGradient id="SVGID_23_" cx="-443.0098" cy="539.7261" r="1" gradientTransform="matrix(82.8878 141.2163 141.2163 -82.8878 -39332.6133 107287.3516)" gradientUnits="userSpaceOnUse">
			<stop  offset="0" style="stop-color:#DFD4B7"/>
			<stop  offset="0.3987" style="stop-color:#BBA461"/>
			<stop  offset="0.7617" style="stop-color:#8B7C49"/>
			<stop  offset="0.8121" style="stop-color:#847645"/>
			<stop  offset="1" style="stop-color:#847645"/>
		</radialGradient>
		<path class="st26" d="M223.008,89.831c-0.859-1-1.507-1.76-1.632-1.93c-0.462-0.614-16.442-13.215-16.442-13.215l-1.42-5.417
			l-19.091-0.01h-0.001c0.012,0.004,27.328,10.169,33.869,29.965c0,0.003,0.002,0.006,0.003,0.009
			c0.209,0.634,0.394,1.278,0.559,1.931c0.008,0.031,0.019,0.062,0.026,0.093c0.155,0.627,0.285,1.266,0.398,1.911
			c0.009,0.052,0.023,0.102,0.031,0.154C220.743,98.938,221.977,94.396,223.008,89.831z"/>
		
			<radialGradient id="SVGID_24_" cx="-443.7554" cy="539.8999" r="1.0046" gradientTransform="matrix(36.2654 161.0429 161.0429 -36.2654 -70657.4922 91054.6875)" gradientUnits="userSpaceOnUse">
			<stop  offset="0" style="stop-color:#DFD4B7"/>
			<stop  offset="0.4585" style="stop-color:#BAA35F"/>
			<stop  offset="0.7234" style="stop-color:#897A47"/>
			<stop  offset="0.8307" style="stop-color:#74683C"/>
			<stop  offset="1" style="stop-color:#74683C"/>
		</radialGradient>
		<path class="st27" d="M229.059,96.814c0,0-3.789-4.352-6.051-6.983c-1.031,4.564-2.265,9.107-3.699,13.491
			c0.015,0.092,0.039,0.183,0.053,0.274h22.76c-0.006-0.028-0.012-0.063-0.016-0.092L229.059,96.814z"/>
		
			<radialGradient id="SVGID_25_" cx="-443.0098" cy="539.7261" r="1" gradientTransform="matrix(82.8878 141.2163 141.2163 -82.8878 -39332.6133 107287.3516)" gradientUnits="userSpaceOnUse">
			<stop  offset="0" style="stop-color:#DFD4B7"/>
			<stop  offset="0.3987" style="stop-color:#BAA35F"/>
			<stop  offset="0.7062" style="stop-color:#897A47"/>
			<stop  offset="0.8307" style="stop-color:#74683C"/>
			<stop  offset="1" style="stop-color:#74683C"/>
		</radialGradient>
		<path class="st28" d="M229.059,96.814c0,0-3.789-4.352-6.051-6.983c-1.031,4.564-2.265,9.107-3.699,13.491
			c0.015,0.092,0.039,0.183,0.053,0.274h22.76c-0.006-0.028-0.012-0.063-0.016-0.092L229.059,96.814z"/>
		
			<radialGradient id="SVGID_26_" cx="-443.0098" cy="539.7261" r="1" gradientTransform="matrix(82.8878 141.2163 141.2163 -82.8878 -39332.6133 107287.3516)" gradientUnits="userSpaceOnUse">
			<stop  offset="0" style="stop-color:#DFD4B7"/>
			<stop  offset="0.3987" style="stop-color:#BBA461"/>
			<stop  offset="0.7617" style="stop-color:#8B7C49"/>
			<stop  offset="0.8121" style="stop-color:#847645"/>
			<stop  offset="1" style="stop-color:#847645"/>
		</radialGradient>
		<path class="st29" d="M229.059,96.814c0,0-3.789-4.352-6.051-6.983c-1.031,4.564-2.265,9.107-3.699,13.491
			c0.015,0.092,0.039,0.183,0.053,0.274h22.76c-0.006-0.028-0.012-0.063-0.016-0.092L229.059,96.814z"/>
	</g>
</g>
<g id="Layer_2">
	<path class="st11" d="M113.247,205.195c-3.805,0-6.942,3.344-7.508,8.023h11.878c0.206-0.979,0.309-2.264,0.309-3.035
		C117.926,207.097,116.486,205.195,113.247,205.195z"/>
	<path class="st11" d="M236.9,210.183c0-3.086-1.439-4.988-4.679-4.988c-3.806,0-6.942,3.344-7.508,8.023h11.878
		C236.799,212.24,236.9,210.955,236.9,210.183z"/>
	<path class="st10" d="M146.57,172.115c1.862,0,2.679-0.682,2.679-2.361c0-1.682-0.817-2.227-2.316-2.227
		c-0.5,0-1.113,0.023-1.499,0.047v4.541H146.57z"/>
	<path class="st11" d="M18.899,225.25c2.365,0,4.782-1.543,7.25-5.297l2.777-14.088c-1.131-0.463-2.263-0.67-4.062-0.67
		c-5.554,0-10.233,5.965-10.233,13.68C14.631,223.347,16.379,225.25,18.899,225.25z"/>
	<path class="st11" d="M167.182,210.183c0-3.086-1.439-4.988-4.68-4.988c-3.805,0-6.941,3.344-7.508,8.023h11.879
		C167.079,212.24,167.182,210.955,167.182,210.183z"/>
	<path class="st0" d="M18.127,229.107c3.137,0,5.862-1.801,7.713-4.68h0.103c-0.052,1.748-0.052,3.086,0,4.422
		c0.565,0.154,1.439,0.258,2.057,0.258c0.566,0,1.286-0.104,1.954-0.258c0.154-2.725,0.514-6.736,1.131-9.924l2.931-15.324
		c-2.366-1.234-5.348-2.057-8.639-2.057c-9.667,0-15.684,8.434-15.684,17.484C9.694,226.074,13.654,229.107,18.127,229.107z
		 M24.864,205.195c1.8,0,2.931,0.207,4.062,0.67l-2.777,14.088c-2.468,3.754-4.885,5.297-7.25,5.297
		c-2.52,0-4.268-1.902-4.268-6.375C14.631,211.16,19.31,205.195,24.864,205.195z"/>
	<path class="st0" d="M51.549,201.544c-8.793,0-14.295,6.941-14.295,16.506c0,7.354,4.114,11.314,11.313,11.314
		c2.057,0,4.371-0.309,6.376-0.979c0.103-0.617,0.103-1.336,0.103-2.004c0-0.566-0.051-1.08-0.103-1.596
		c-1.491,0.516-3.651,0.824-5.811,0.824c-4.371,0-6.942-2.777-6.942-7.869c0-6.582,2.982-12.443,9.41-12.443
		c1.851,0,4.114,0.514,5.656,1.234c0.36-0.771,0.668-1.801,0.668-2.777c0-0.309,0-0.564-0.051-0.822
		C56.177,202.111,53.708,201.544,51.549,201.544z"/>
	<path class="st0" d="M68.052,204.476l2.314-13.164c-0.72-0.154-1.491-0.207-2.314-0.207c-0.771,0-1.646,0.053-2.468,0.207
		l-6.531,37.537c0.771,0.154,1.44,0.258,2.211,0.258c0.874,0,1.697-0.104,2.571-0.258l3.548-20.311
		c2.005-1.543,4.833-2.828,7.507-2.828c3.137,0,4.114,1.541,4.114,4.113c0,1.234-0.411,3.445-0.874,6.119l-2.314,12.906
		c0.823,0.154,1.646,0.258,2.468,0.258c0.771,0,1.594-0.051,2.314-0.258l2.52-14.449c0.36-2.057,0.668-4.422,0.668-5.811
		c0-4.525-2.776-7.045-7.302-7.045C73.76,201.544,70.521,202.728,68.052,204.476z"/>
	<path class="st0" d="M92.371,228.849L97,202.058c-0.771-0.154-1.646-0.256-2.468-0.256c-0.72,0-1.543,0.102-2.366,0.256
		l-4.577,26.791c0.72,0.154,1.543,0.258,2.263,0.258C90.674,229.107,91.548,229.003,92.371,228.849z"/>
	<path class="st0" d="M92.834,195.117c0,1.594,1.08,2.623,2.571,2.623c1.8,0,3.291-1.389,3.291-3.189
		c0-1.541-1.08-2.674-2.468-2.674C94.325,191.876,92.834,193.318,92.834,195.117z"/>
	<path class="st0" d="M100.237,218.513c0,7.252,3.754,10.852,11.107,10.852c2.468,0,5.194-0.361,7.096-1.029
		c0.257-1.08,0.206-2.57,0.052-3.549c-2.005,0.617-4.474,0.979-6.582,0.979c-4.834,0-6.891-2.572-6.891-7.303
		c0-0.359,0.051-1.029,0.154-1.543h16.455c0.514-1.953,0.823-4.627,0.823-6.891c0-4.781-2.571-8.484-8.69-8.484
		C104.865,201.544,100.237,209.156,100.237,218.513z M117.617,213.218h-11.878c0.566-4.68,3.703-8.023,7.508-8.023
		c3.24,0,4.679,1.902,4.679,4.988C117.926,210.955,117.823,212.24,117.617,213.218z"/>
	<path class="st0" d="M130.675,228.849c0.72,0.154,1.749,0.258,2.52,0.258c0.72,0,1.646-0.104,2.366-0.258l10.438-18.615
		c1.8-3.238,2.931-6.324,3.137-8.176c-0.514-0.102-1.748-0.256-2.16-0.256c-0.823,0-1.748,0.102-2.571,0.256
		c-0.206,1.543-0.926,4.115-2.263,6.531l-8.331,15.066h-0.103l-2.211-12.959c-0.309-1.748-0.565-4.781-0.565-5.861
		c0-0.926,0.051-1.953,0.206-2.777c-0.72-0.154-1.542-0.256-2.365-0.256c-0.617,0-1.543,0.102-2.263,0.256
		c-0.103,0.771-0.206,1.852-0.206,2.623c0,1.285,0.462,4.113,0.925,6.428L130.675,228.849z"/>
	<path class="st0" d="M160.6,229.365c2.469,0,5.193-0.361,7.096-1.029c0.258-1.08,0.207-2.57,0.053-3.549
		c-2.006,0.617-4.475,0.979-6.582,0.979c-4.834,0-6.891-2.572-6.891-7.303c0-0.359,0.051-1.029,0.154-1.543h16.455
		c0.514-1.953,0.822-4.627,0.822-6.891c0-4.781-2.571-8.484-8.69-8.484c-8.896,0-13.524,7.611-13.524,16.969
		C149.493,225.765,153.246,229.365,160.6,229.365z M162.502,205.195c3.24,0,4.68,1.902,4.68,4.988c0,0.771-0.103,2.057-0.309,3.035
		h-11.879C155.561,208.539,158.697,205.195,162.502,205.195z"/>
	<path class="st0" d="M214.795,208.126c0-4.113-3.033-6.582-7.096-6.582c-4.012,0-6.942,1.338-9.822,3.342
		c-0.977-2.107-3.496-3.342-6.479-3.342c-3.086,0-6.068,1.338-8.64,3.24h-0.052l0.104-2.727c-0.566-0.154-1.285-0.256-1.852-0.256
		c-0.668,0-1.337,0.102-2.006,0.256l-4.627,26.791c0.771,0.154,1.439,0.258,2.159,0.258c0.874,0,1.8-0.104,2.622-0.258l3.6-20.568
		c2.006-1.594,4.629-2.828,7.045-2.828c2.982,0,3.908,2.006,3.908,4.268c0,0.977-0.154,2.16-0.309,3.137l-2.725,15.992
		c0.771,0.154,1.594,0.258,2.468,0.258c0.72,0,1.543-0.051,2.313-0.258l2.881-16.248c0.205-1.133,0.309-2.572,0.359-3.498
		c0-0.359-0.051-0.463-0.051-0.822c2.159-1.594,5.142-2.777,7.507-2.777c2.776,0,3.754,1.338,3.754,3.857
		c0,1.027-0.154,2.365-0.36,3.496l-2.776,15.992c0.823,0.154,1.595,0.258,2.468,0.258c0.771,0,1.543-0.051,2.314-0.258l2.88-16.352
		C214.641,210.955,214.795,209.361,214.795,208.126z"/>
	<path class="st0" d="M240.604,216.919c0.514-1.953,0.822-4.627,0.822-6.891c0-4.781-2.57-8.484-8.689-8.484
		c-8.896,0-13.524,7.611-13.524,16.969c0,7.252,3.754,10.852,11.106,10.852c2.469,0,5.194-0.361,7.097-1.029
		c0.257-1.08,0.206-2.57,0.052-3.549c-2.006,0.617-4.474,0.979-6.582,0.979c-4.834,0-6.891-2.572-6.891-7.303
		c0-0.359,0.051-1.029,0.154-1.543H240.604z M232.222,205.195c3.239,0,4.679,1.902,4.679,4.988c0,0.771-0.102,2.057-0.309,3.035
		h-11.878C225.279,208.539,228.416,205.195,232.222,205.195z"/>
	<path class="st0" d="M260.809,228.849c0.822,0.154,1.646,0.258,2.469,0.258c0.771,0,1.594-0.051,2.313-0.258l2.52-14.449
		c0.36-2.057,0.669-4.422,0.669-5.811c0-4.525-2.777-7.045-7.303-7.045c-2.931,0-6.53,1.389-9.05,3.395h-0.052l0.154-2.881
		c-0.565-0.154-1.285-0.256-1.902-0.256s-1.285,0.102-1.954,0.256l-4.628,26.791c0.771,0.154,1.389,0.258,2.16,0.258
		c0.874,0,1.748-0.104,2.622-0.258l3.497-20.311c2.006-1.543,4.885-2.828,7.404-2.828c3.291,0,4.268,1.541,4.268,4.113
		c0,1.234-0.41,3.445-0.873,6.119L260.809,228.849z"/>
	<path class="st0" d="M277.98,205.556l-2.16,11.826c-0.565,3.086-0.926,5.039-0.926,6.324c0,3.6,2.006,5.658,6.994,5.658
		c2.057,0,4.113-0.309,5.604-0.771c0.206-0.617,0.309-1.596,0.36-2.469c0-0.463,0-0.875-0.052-1.234
		c-1.44,0.412-3.188,0.617-4.731,0.617c-2.416,0-3.239-0.926-3.239-2.674c0-1.08,0.257-2.52,0.669-4.68l2.314-12.598h7.713
		c0.359-0.875,0.617-1.904,0.617-2.881c0-0.205,0-0.41-0.052-0.617h-7.662l1.132-6.891c-0.771-0.154-1.543-0.205-2.365-0.205
		c-0.823,0-1.697,0.051-2.418,0.205l-1.182,6.943l-4.731,0.256c-0.411,0.67-0.617,1.389-0.617,2.16c0,0.309,0.052,0.771,0.103,1.029
		H277.98z"/>
	<path d="M108.071,180.333v-5.131l3.474-6.699c0.5-0.977,0.954-2.361,0.954-3.52c-0.363-0.068-0.84-0.113-1.476-0.113
		c-0.545,0-1.227,0.045-1.658,0.113c0,1.045-0.205,1.863-0.545,2.566l-1.567,3.293c-0.272,0.59-0.636,1.43-0.749,1.906h-0.022
		c-0.091-0.477-0.386-1.295-0.727-1.975l-1.521-3.135c-0.522-1.09-0.658-1.725-0.658-2.678c-0.432-0.068-1.045-0.092-1.59-0.092
		c-0.567,0-1.226,0.045-1.589,0.092c0,1.158,0.386,2.314,1.112,3.723l3.315,6.471v5.178c0.431,0.068,1.022,0.113,1.635,0.113
		C107.141,180.447,107.64,180.402,108.071,180.333z"/>
	<path d="M114.63,164.984v15.35h9.604c0.113-0.477,0.159-0.908,0.159-1.408c0-0.635-0.068-1.113-0.159-1.361h-6.357v-3.77h5.199
		c0.114-0.477,0.159-0.887,0.159-1.385c0-0.637-0.068-1.09-0.159-1.34h-5.199v-3.314h6.153c0.113-0.479,0.159-0.908,0.159-1.408
		c0-0.637-0.068-1.113-0.159-1.363H114.63z"/>
	<g>
		<path d="M132.95,168.447h-0.045c-0.114,1-0.295,1.252-0.454,1.75l-1.271,4.25h3.565l-1.34-4.25
			C133.245,169.699,133.086,169.447,132.95,168.447z"/>
		<g>
			<path d="M134.426,164.984c-0.25-0.068-0.976-0.113-1.589-0.113c-0.5,0-1.249,0.045-1.567,0.113l-5.358,15.35
				c0.34,0.068,1.022,0.113,1.612,0.113c0.591,0,1.181,0.067,1.681-0.001l1.067-2.999h5.449l1.135,2.999
				c0.295,0.045,0.977,0.058,1.566,0.058c0.75,0,1.453-0.073,1.749-0.142L134.426,164.984z M131.179,174.447l1.271-4.25
				c0.159-0.498,0.34-0.75,0.454-1.75h0.045c0.136,1,0.295,1.252,0.454,1.75l1.34,4.25H131.179z"/>
			<path class="st10" d="M132.95,168.447h-0.045c-0.114,1-0.295,1.252-0.454,1.75l-1.271,4.25h3.565l-1.34-4.25
				C133.245,169.699,133.086,169.447,132.95,168.447z"/>
		</g>
	</g>
	<path d="M145.435,174.816h1.34l3.11,5.518c0.432,0.09,1.067,0.113,1.703,0.113c0.703,0,1.316-0.045,1.907-0.137l-3.701-6.084
		c1.589-0.682,2.725-2.566,2.725-4.451c0-3.541-1.93-4.904-5.79-4.904c-1.316,0-3.496,0.045-4.541,0.113v15.35
		c0.568,0.09,1.045,0.113,1.59,0.113c0.613,0,1.09-0.023,1.657-0.113V174.816z M145.435,167.574
		c0.386-0.023,0.999-0.047,1.499-0.047c1.499,0,2.316,0.545,2.316,2.227c0,1.68-0.817,2.361-2.679,2.361h-1.135V167.574z"/>
	<path d="M155.081,178.562c0,0.363,0.046,0.771,0.113,1.09c1.294,0.59,3.11,0.908,4.769,0.908c3.133,0,5.472-1.793,5.472-4.768
		c0-2.725-1.816-3.883-4.269-4.654c-2.043-0.637-2.884-1.068-2.884-2.135c0-0.908,0.931-1.477,2.634-1.477
		c1.045,0,2.339,0.16,3.475,0.455c0.09-0.363,0.136-1.021,0.136-1.453c0-0.59-0.046-1-0.113-1.25
		c-0.886-0.295-2.202-0.521-3.679-0.521c-3.201,0-5.631,1.566-5.631,4.383c0,2.633,1.794,3.814,4.246,4.562
		c2.202,0.682,2.929,1.158,2.929,2.293c0,1.023-0.862,1.771-2.475,1.771c-1.385,0-3.156-0.34-4.495-0.885
		C155.149,177.496,155.081,178.017,155.081,178.562z"/>
	<path d="M178.872,180.56c4.2,0,6.425-2.906,6.425-7.9c0-4.996-2.225-7.902-6.425-7.902s-6.426,2.906-6.426,7.902
		C172.446,177.654,174.672,180.56,178.872,180.56z M175.807,172.66c0-3.611,1.112-5.109,3.065-5.109
		c1.952,0,3.065,1.498,3.065,5.109c0,3.609-1.113,5.107-3.065,5.107C176.919,177.767,175.807,176.269,175.807,172.66z"/>
	<path d="M187.996,164.984v15.35c0.432,0.068,1.021,0.113,1.635,0.113c0.681,0,1.181-0.045,1.611-0.113v-6.539h5.086
		c0.114-0.477,0.159-0.887,0.159-1.385c0-0.637-0.067-1.09-0.159-1.34h-5.086v-3.314h6.04c0.113-0.479,0.159-0.908,0.159-1.408
		c0-0.637-0.068-1.113-0.159-1.363H187.996z"/>
	<polygon class="st0" points="91.692,23.958 146.064,23.958 149.933,8.422 74.867,8.422 61.339,79.283 85.028,61.792 	"/>
	
		<radialGradient id="SVGID_27_" cx="-445.2217" cy="534.5562" r="1" gradientTransform="matrix(-64.5401 -112.4842 -112.4842 64.5401 31533.918 -84400.1172)" gradientUnits="userSpaceOnUse">
		<stop  offset="0" style="stop-color:#DFD4B7"/>
		<stop  offset="0.3987" style="stop-color:#BBA461"/>
		<stop  offset="0.8144" style="stop-color:#998750"/>
		<stop  offset="1" style="stop-color:#998750"/>
	</radialGradient>
	<path class="st30" d="M82.888,156.917c38.081,0,57.012-25.975,56.791-57.455c-0.217-24.213-15.63-36.762-43.806-36.762H84.868
		l0.161-0.909l0,0l0,0L61.339,79.283l0,0l-0.001,0.001l-0.025,0.147h28.396c20.253,0,27.517,7.484,27.517,22.674
		c0,22.894-11.886,38.082-35.001,38.082c-12.987,0-25.535-1.979-35.662-5.062c-1.538,3.521-2.42,7.926-2.641,12.107
		c0,1.102,0,2.201,0.221,3.523C53.168,154.716,67.039,156.917,82.888,156.917z"/>
	<rect x="73.184" y="55.815" class="st0" width="0" height="29.446"/>
	
		<radialGradient id="SVGID_28_" cx="-445.2217" cy="534.5562" r="1" gradientTransform="matrix(-64.5401 -112.4842 -112.4842 64.5401 31533.918 -84400.1172)" gradientUnits="userSpaceOnUse">
		<stop  offset="0" style="stop-color:#DFD4B7"/>
		<stop  offset="0.3987" style="stop-color:#BBA461"/>
		<stop  offset="0.8144" style="stop-color:#998750"/>
		<stop  offset="1" style="stop-color:#998750"/>
	</radialGradient>
	<rect x="73.184" y="55.815" class="st31" width="0" height="29.446"/>
	
		<radialGradient id="SVGID_29_" cx="-443.7524" cy="539.8999" r="0.9997" gradientTransform="matrix(36.2654 161.0429 161.0429 -36.2654 -70657.4922 91054.6875)" gradientUnits="userSpaceOnUse">
		<stop  offset="0" style="stop-color:#DFD4B7"/>
		<stop  offset="0.4585" style="stop-color:#BBA461"/>
		<stop  offset="0.8307" style="stop-color:#998750"/>
		<stop  offset="1" style="stop-color:#998750"/>
	</radialGradient>
	<path class="st32" d="M242.189,103.547l-0.081-0.041c0.004,0.03,0.009,0.062,0.013,0.091h-22.76
		c-0.014-0.092-0.038-0.18-0.053-0.271c-6.507,19.872-17.16,36.422-32.127,36.422c-13.648,0-19.812-10.566-19.812-35.443
		c0-37.422,15.41-83.43,39.623-83.43c17.391,0,20.033,18.053,20.033,35.442c0,4.074-0.246,8.578-0.723,13.307
		c2.772,1.853,5.119,3.773,7.105,5.717c0.383-0.447,0.852-0.932,1.42-1.423c2.462-2.13,6.789-4.406,14.093-4.51h0.001
		c0.365-4.376,0.557-8.754,0.557-13.091c0-32.799-12.549-52.611-42.486-52.611c-38.521,0-62.076,49.971-62.076,100.599
		c0,29.06,10.126,52.613,42.266,52.613C213.766,156.917,232.593,133.39,242.189,103.547z"/>
	
		<radialGradient id="SVGID_30_" cx="-443.7529" cy="539.9019" r="0.9979" gradientTransform="matrix(36.2654 161.0429 161.0429 -36.2654 -70657.4922 91054.6875)" gradientUnits="userSpaceOnUse">
		<stop  offset="0" style="stop-color:#DFD4B7"/>
		<stop  offset="0.4585" style="stop-color:#BBA461"/>
		<stop  offset="0.8307" style="stop-color:#998750"/>
		<stop  offset="1" style="stop-color:#998750"/>
	</radialGradient>
	<path class="st33" d="M234.828,73.918c2.462-2.13,6.789-4.406,14.094-4.51h-0.001C241.617,69.512,237.29,71.788,234.828,73.918z"/>
	
		<radialGradient id="SVGID_31_" cx="-443.7529" cy="539.9019" r="0.9979" gradientTransform="matrix(36.2654 161.0429 161.0429 -36.2654 -70657.4922 91054.6875)" gradientUnits="userSpaceOnUse">
		<stop  offset="0" style="stop-color:#DFD4B7"/>
		<stop  offset="0.4585" style="stop-color:#BAA35F"/>
		<stop  offset="0.7234" style="stop-color:#897A47"/>
		<stop  offset="0.8307" style="stop-color:#74683C"/>
		<stop  offset="1" style="stop-color:#74683C"/>
	</radialGradient>
	<path class="st34" d="M234.828,73.918c2.462-2.13,6.789-4.406,14.094-4.51h-0.001C241.617,69.512,237.29,71.788,234.828,73.918z"/>
	
		<radialGradient id="SVGID_32_" cx="-443.4863" cy="538.6294" r="1" gradientTransform="matrix(159.728 272.1292 272.1292 -159.728 -75691.9375 206695.0625)" gradientUnits="userSpaceOnUse">
		<stop  offset="0" style="stop-color:#DFD4B7"/>
		<stop  offset="0.3987" style="stop-color:#BBA461"/>
		<stop  offset="0.7617" style="stop-color:#8B7C49"/>
		<stop  offset="0.8121" style="stop-color:#847645"/>
		<stop  offset="1" style="stop-color:#847645"/>
	</radialGradient>
	<path class="st35" d="M244.043,97.317c0.174,3.161-0.251,5.142-0.251,5.142c5.517-12.97,9.89-28.616,32.024-33.147l-26.105-0.015
		c-0.216,0.035-0.413,0.104-0.629,0.142c0.003-0.011,0.003-0.021,0.005-0.036c-0.058,0-0.108,0.006-0.165,0.006
		C248.129,78.866,246.486,88.31,244.043,97.317z"/>
	
		<radialGradient id="SVGID_33_" cx="-443.7515" cy="539.8989" r="0.9978" gradientTransform="matrix(36.2654 161.0429 161.0429 -36.2654 -70657.4922 91054.6875)" gradientUnits="userSpaceOnUse">
		<stop  offset="0" style="stop-color:#DFD4B7"/>
		<stop  offset="0.4585" style="stop-color:#BAA35F"/>
		<stop  offset="0.7234" style="stop-color:#897A47"/>
		<stop  offset="0.8307" style="stop-color:#74683C"/>
		<stop  offset="1" style="stop-color:#74683C"/>
	</radialGradient>
	<path class="st36" d="M234.828,73.918c-0.568,0.491-1.037,0.976-1.42,1.423c8.367,8.182,10.341,16.716,10.635,21.977
		c2.443-9.008,4.086-18.451,4.879-27.909C241.617,69.512,237.29,71.788,234.828,73.918z"/>
	
		<radialGradient id="SVGID_34_" cx="-443.4824" cy="538.6235" r="1.0004" gradientTransform="matrix(159.728 272.1292 272.1292 -159.728 -75691.9375 206695.0625)" gradientUnits="userSpaceOnUse">
		<stop  offset="0" style="stop-color:#DFD4B7"/>
		<stop  offset="0.3987" style="stop-color:#BBA461"/>
		<stop  offset="0.7617" style="stop-color:#8B7C49"/>
		<stop  offset="0.8121" style="stop-color:#847645"/>
		<stop  offset="1" style="stop-color:#847645"/>
	</radialGradient>
	<path class="st37" d="M234.828,73.918c-0.568,0.491-1.037,0.976-1.42,1.423c8.367,8.182,10.341,16.716,10.635,21.977
		c2.443-9.008,4.086-18.451,4.879-27.909C241.617,69.512,237.29,71.788,234.828,73.918z"/>
	
		<radialGradient id="SVGID_35_" cx="-443.0098" cy="539.7261" r="0.9999" gradientTransform="matrix(82.8878 141.2163 141.2163 -82.8878 -39332.6133 107287.3516)" gradientUnits="userSpaceOnUse">
		<stop  offset="0" style="stop-color:#DFD4B7"/>
		<stop  offset="0.3987" style="stop-color:#BAA35F"/>
		<stop  offset="0.7062" style="stop-color:#897A47"/>
		<stop  offset="0.8307" style="stop-color:#74683C"/>
		<stop  offset="1" style="stop-color:#74683C"/>
	</radialGradient>
	<polygon class="st38" points="203.514,69.269 184.423,69.26 184.423,69.26 203.514,69.27 	"/>
	
		<radialGradient id="SVGID_36_" cx="-443.04" cy="539.7261" r="1.0409" gradientTransform="matrix(82.8878 141.2163 141.2163 -82.8878 -39332.6133 107287.3516)" gradientUnits="userSpaceOnUse">
		<stop  offset="0" style="stop-color:#DFD4B7"/>
		<stop  offset="0.3987" style="stop-color:#BAA35F"/>
		<stop  offset="0.7062" style="stop-color:#897A47"/>
		<stop  offset="0.8307" style="stop-color:#74683C"/>
		<stop  offset="1" style="stop-color:#74683C"/>
	</radialGradient>
	<path class="st39" d="M218.294,99.233c0.209,0.634,0.394,1.278,0.559,1.931C218.688,100.512,218.503,99.867,218.294,99.233z"/>
	
		<radialGradient id="SVGID_37_" cx="-443.0098" cy="539.7251" r="0.9999" gradientTransform="matrix(82.8878 141.2163 141.2163 -82.8878 -39332.6133 107287.3516)" gradientUnits="userSpaceOnUse">
		<stop  offset="0" style="stop-color:#DFD4B7"/>
		<stop  offset="0.3987" style="stop-color:#BAA35F"/>
		<stop  offset="0.7062" style="stop-color:#897A47"/>
		<stop  offset="0.8307" style="stop-color:#74683C"/>
		<stop  offset="1" style="stop-color:#74683C"/>
	</radialGradient>
	<path class="st40" d="M184.422,69.26L184.422,69.26c0.012,0.004,27.329,10.167,33.869,29.965
		C211.75,79.429,184.434,69.264,184.422,69.26z"/>
	
		<radialGradient id="SVGID_38_" cx="-443.0098" cy="539.7261" r="1" gradientTransform="matrix(82.8878 141.2163 141.2163 -82.8878 -39332.6133 107287.3516)" gradientUnits="userSpaceOnUse">
		<stop  offset="0" style="stop-color:#DFD4B7"/>
		<stop  offset="0.3987" style="stop-color:#BAA35F"/>
		<stop  offset="0.7062" style="stop-color:#897A47"/>
		<stop  offset="0.8307" style="stop-color:#74683C"/>
		<stop  offset="1" style="stop-color:#74683C"/>
	</radialGradient>
	<path class="st41" d="M219.277,103.168c-0.113-0.646-0.243-1.284-0.398-1.911C219.034,101.884,219.164,102.522,219.277,103.168z"/>
	
		<radialGradient id="SVGID_39_" cx="-443.0098" cy="539.6606" r="0.9963" gradientTransform="matrix(82.8878 141.2163 141.2163 -82.8878 -39332.6133 107287.3516)" gradientUnits="userSpaceOnUse">
		<stop  offset="0" style="stop-color:#DFD4B7"/>
		<stop  offset="0.3987" style="stop-color:#BBA461"/>
		<stop  offset="0.7617" style="stop-color:#8B7C49"/>
		<stop  offset="0.8121" style="stop-color:#847645"/>
		<stop  offset="1" style="stop-color:#847645"/>
	</radialGradient>
	<path class="st42" d="M219.277,103.168c0.009,0.053,0.021,0.104,0.031,0.157c0-0.001,0-0.002,0-0.003
		C219.301,103.27,219.286,103.22,219.277,103.168z"/>
	
		<radialGradient id="SVGID_40_" cx="-442.6353" cy="539.6646" r="0.4986" gradientTransform="matrix(82.8878 141.2163 141.2163 -82.8878 -39332.6133 107287.3516)" gradientUnits="userSpaceOnUse">
		<stop  offset="0" style="stop-color:#DFD4B7"/>
		<stop  offset="0.3987" style="stop-color:#BBA461"/>
		<stop  offset="0.7617" style="stop-color:#8B7C49"/>
		<stop  offset="0.8121" style="stop-color:#847645"/>
		<stop  offset="1" style="stop-color:#847645"/>
	</radialGradient>
	<path class="st43" d="M218.879,101.257c-0.008-0.031-0.019-0.062-0.026-0.093C218.86,101.195,218.871,101.226,218.879,101.257z"/>
	
		<radialGradient id="SVGID_41_" cx="-442.2729" cy="539.6675" r="0" gradientTransform="matrix(82.8878 141.2163 141.2163 -82.8878 -39332.6133 107287.3516)" gradientUnits="userSpaceOnUse">
		<stop  offset="0" style="stop-color:#DFD4B7"/>
		<stop  offset="0.3987" style="stop-color:#BBA461"/>
		<stop  offset="0.7617" style="stop-color:#8B7C49"/>
		<stop  offset="0.8121" style="stop-color:#847645"/>
		<stop  offset="1" style="stop-color:#847645"/>
	</radialGradient>
	<path class="st44" d="M218.294,99.233c-0.001-0.003-0.003-0.006-0.003-0.009C218.291,99.228,218.293,99.23,218.294,99.233z"/>
	
		<radialGradient id="SVGID_42_" cx="-442.5356" cy="539.5825" r="0" gradientTransform="matrix(82.8878 141.2163 141.2163 -82.8878 -39332.6133 107287.3516)" gradientUnits="userSpaceOnUse">
		<stop  offset="0" style="stop-color:#DFD4B7"/>
		<stop  offset="0.3987" style="stop-color:#BBA461"/>
		<stop  offset="0.7617" style="stop-color:#8B7C49"/>
		<stop  offset="0.8121" style="stop-color:#847645"/>
		<stop  offset="1" style="stop-color:#847645"/>
	</radialGradient>
	<rect x="184.422" y="69.26" class="st45" width="0.001" height="0"/>
	
		<radialGradient id="SVGID_43_" cx="-443.0098" cy="539.7261" r="0.9999" gradientTransform="matrix(82.8878 141.2163 141.2163 -82.8878 -39332.6133 107287.3516)" gradientUnits="userSpaceOnUse">
		<stop  offset="0" style="stop-color:#DFD4B7"/>
		<stop  offset="0.3987" style="stop-color:#BBA461"/>
		<stop  offset="0.7617" style="stop-color:#8B7C49"/>
		<stop  offset="0.8121" style="stop-color:#847645"/>
		<stop  offset="1" style="stop-color:#847645"/>
	</radialGradient>
	<path class="st46" d="M221.376,87.901c0.125,0.17,0.772,0.93,1.632,1.93c2.262,2.632,6.051,6.983,6.051,6.983l13.047,6.69
		l0.003,0.001c-0.231-1.807-0.711-4.053-2.202-6.91c-0.098-0.188-0.202-0.356-0.303-0.541c-2.562-5.493-6.104-9.937-9.924-13.52
		c-1.125-1.125-2.133-2.018-2.91-2.607c-0.004,0.024-0.01,0.046-0.012,0.07c-10.027-8.071-20.789-10.728-20.789-10.728l-2.455-0.001
		l1.42,5.417C204.934,74.687,220.914,87.287,221.376,87.901z"/>
	
		<radialGradient id="SVGID_44_" cx="-443.752" cy="540.0464" r="0.9709" gradientTransform="matrix(36.2654 161.0429 161.0429 -36.2654 -70657.4922 91054.6875)" gradientUnits="userSpaceOnUse">
		<stop  offset="0" style="stop-color:#DFD4B7"/>
		<stop  offset="0.4585" style="stop-color:#BBA461"/>
		<stop  offset="0.8307" style="stop-color:#998750"/>
		<stop  offset="1" style="stop-color:#998750"/>
	</radialGradient>
	<path class="st47" d="M242.121,103.597c-0.004-0.029-0.009-0.061-0.013-0.091l-0.003-0.001
		C242.109,103.533,242.115,103.568,242.121,103.597z"/>
	
		<radialGradient id="SVGID_45_" cx="-443.0098" cy="539.7798" r="0.9979" gradientTransform="matrix(82.8878 141.2163 141.2163 -82.8878 -39332.6133 107287.3516)" gradientUnits="userSpaceOnUse">
		<stop  offset="0" style="stop-color:#DFD4B7"/>
		<stop  offset="0.3987" style="stop-color:#BBA461"/>
		<stop  offset="0.7617" style="stop-color:#8B7C49"/>
		<stop  offset="0.8121" style="stop-color:#847645"/>
		<stop  offset="1" style="stop-color:#847645"/>
	</radialGradient>
	<path class="st48" d="M242.121,103.597c-0.004-0.029-0.009-0.061-0.013-0.091l-0.003-0.001
		C242.109,103.533,242.115,103.568,242.121,103.597z"/>
	
		<radialGradient id="SVGID_46_" cx="-443.7529" cy="539.9116" r="1.0006" gradientTransform="matrix(36.2654 161.0429 161.0429 -36.2654 -70657.4922 91054.6875)" gradientUnits="userSpaceOnUse">
		<stop  offset="0" style="stop-color:#DFD4B7"/>
		<stop  offset="0.4585" style="stop-color:#BBA461"/>
		<stop  offset="0.8307" style="stop-color:#998750"/>
		<stop  offset="1" style="stop-color:#998750"/>
	</radialGradient>
	<path class="st49" d="M219.309,103.322c0,0.001,0,0.002,0,0.003c0.015,0.092,0.039,0.18,0.053,0.271
		C219.348,103.505,219.323,103.414,219.309,103.322z"/>
	
		<radialGradient id="SVGID_47_" cx="-443.0098" cy="539.7261" r="1" gradientTransform="matrix(82.8878 141.2163 141.2163 -82.8878 -39332.6133 107287.3516)" gradientUnits="userSpaceOnUse">
		<stop  offset="0" style="stop-color:#DFD4B7"/>
		<stop  offset="0.3987" style="stop-color:#BBA461"/>
		<stop  offset="0.7617" style="stop-color:#8B7C49"/>
		<stop  offset="0.8121" style="stop-color:#847645"/>
		<stop  offset="1" style="stop-color:#847645"/>
	</radialGradient>
	<path class="st50" d="M219.309,103.322c0,0.001,0,0.002,0,0.003c0.015,0.092,0.039,0.18,0.053,0.271
		C219.348,103.505,219.323,103.414,219.309,103.322z"/>
	
		<radialGradient id="SVGID_48_" cx="-443.0098" cy="539.7261" r="1" gradientTransform="matrix(82.8878 141.2163 141.2163 -82.8878 -39332.6133 107287.3516)" gradientUnits="userSpaceOnUse">
		<stop  offset="0" style="stop-color:#DFD4B7"/>
		<stop  offset="0.3987" style="stop-color:#BAA35F"/>
		<stop  offset="0.7062" style="stop-color:#897A47"/>
		<stop  offset="0.8307" style="stop-color:#74683C"/>
		<stop  offset="1" style="stop-color:#74683C"/>
	</radialGradient>
	<path class="st51" d="M223.008,89.831c-0.859-1-1.507-1.76-1.632-1.93c-0.462-0.614-16.442-13.215-16.442-13.215l-1.42-5.417
		l-19.091-0.01h-0.001c0.012,0.004,27.328,10.169,33.869,29.965c0,0.003,0.002,0.006,0.003,0.009
		c0.209,0.634,0.394,1.278,0.559,1.931c0.008,0.031,0.019,0.062,0.026,0.093c0.155,0.627,0.285,1.266,0.398,1.911
		c0.009,0.052,0.023,0.102,0.031,0.154C220.743,98.938,221.977,94.396,223.008,89.831z"/>
	
		<radialGradient id="SVGID_49_" cx="-443.0098" cy="539.7261" r="1" gradientTransform="matrix(82.8878 141.2163 141.2163 -82.8878 -39332.6133 107287.3516)" gradientUnits="userSpaceOnUse">
		<stop  offset="0" style="stop-color:#DFD4B7"/>
		<stop  offset="0.3987" style="stop-color:#BBA461"/>
		<stop  offset="0.7617" style="stop-color:#8B7C49"/>
		<stop  offset="0.8121" style="stop-color:#847645"/>
		<stop  offset="1" style="stop-color:#847645"/>
	</radialGradient>
	<path class="st52" d="M223.008,89.831c-0.859-1-1.507-1.76-1.632-1.93c-0.462-0.614-16.442-13.215-16.442-13.215l-1.42-5.417
		l-19.091-0.01h-0.001c0.012,0.004,27.328,10.169,33.869,29.965c0,0.003,0.002,0.006,0.003,0.009
		c0.209,0.634,0.394,1.278,0.559,1.931c0.008,0.031,0.019,0.062,0.026,0.093c0.155,0.627,0.285,1.266,0.398,1.911
		c0.009,0.052,0.023,0.102,0.031,0.154C220.743,98.938,221.977,94.396,223.008,89.831z"/>
	
		<radialGradient id="SVGID_50_" cx="-443.7554" cy="539.8999" r="1.0046" gradientTransform="matrix(36.2654 161.0429 161.0429 -36.2654 -70657.4922 91054.6875)" gradientUnits="userSpaceOnUse">
		<stop  offset="0" style="stop-color:#DFD4B7"/>
		<stop  offset="0.4585" style="stop-color:#BAA35F"/>
		<stop  offset="0.7234" style="stop-color:#897A47"/>
		<stop  offset="0.8307" style="stop-color:#74683C"/>
		<stop  offset="1" style="stop-color:#74683C"/>
	</radialGradient>
	<path class="st53" d="M229.059,96.814c0,0-3.789-4.352-6.051-6.983c-1.031,4.564-2.265,9.107-3.699,13.491
		c0.015,0.092,0.039,0.183,0.053,0.274h22.76c-0.006-0.028-0.012-0.063-0.016-0.092L229.059,96.814z"/>
	
		<radialGradient id="SVGID_51_" cx="-443.0098" cy="539.7261" r="1" gradientTransform="matrix(82.8878 141.2163 141.2163 -82.8878 -39332.6133 107287.3516)" gradientUnits="userSpaceOnUse">
		<stop  offset="0" style="stop-color:#DFD4B7"/>
		<stop  offset="0.3987" style="stop-color:#BAA35F"/>
		<stop  offset="0.7062" style="stop-color:#897A47"/>
		<stop  offset="0.8307" style="stop-color:#74683C"/>
		<stop  offset="1" style="stop-color:#74683C"/>
	</radialGradient>
	<path class="st54" d="M229.059,96.814c0,0-3.789-4.352-6.051-6.983c-1.031,4.564-2.265,9.107-3.699,13.491
		c0.015,0.092,0.039,0.183,0.053,0.274h22.76c-0.006-0.028-0.012-0.063-0.016-0.092L229.059,96.814z"/>
	
		<radialGradient id="SVGID_52_" cx="-443.0098" cy="539.7261" r="1" gradientTransform="matrix(82.8878 141.2163 141.2163 -82.8878 -39332.6133 107287.3516)" gradientUnits="userSpaceOnUse">
		<stop  offset="0" style="stop-color:#DFD4B7"/>
		<stop  offset="0.3987" style="stop-color:#BBA461"/>
		<stop  offset="0.7617" style="stop-color:#8B7C49"/>
		<stop  offset="0.8121" style="stop-color:#847645"/>
		<stop  offset="1" style="stop-color:#847645"/>
	</radialGradient>
	<path class="st55" d="M229.059,96.814c0,0-3.789-4.352-6.051-6.983c-1.031,4.564-2.265,9.107-3.699,13.491
		c0.015,0.092,0.039,0.183,0.053,0.274h22.76c-0.006-0.028-0.012-0.063-0.016-0.092L229.059,96.814z"/>
</g>
</svg>
