<svg id="_x31_" xmlns="http://www.w3.org/2000/svg" width="300" height="192.447" viewBox="0 0 300 192.447"><style>.st0{fill:#baa35f}.st1{fill:url(#SVGID_1_)}.st2{fill:url(#SVGID_2_)}.st3{fill:url(#SVGID_3_)}.st4{fill:url(#SVGID_4_)}.st5{fill:url(#SVGID_5_)}.st6{fill:url(#SVGID_6_)}.st7{fill:url(#SVGID_7_)}.st8{fill:url(#SVGID_8_)}.st9{fill:url(#SVGID_9_)}.st10{fill:#fff}.st11{fill:none}.st12{fill:url(#SVGID_10_)}.st13{fill:url(#SVGID_11_)}.st14{fill:url(#SVGID_12_)}.st15{fill:url(#SVGID_13_)}.st16{fill:url(#SVGID_14_)}.st17{fill:url(#SVGID_15_)}.st18{fill:url(#SVGID_16_)}.st19{fill:url(#SVGID_17_)}.st20{fill:url(#SVGID_18_)}.st21{fill:url(#SVGID_19_)}.st22{fill:url(#SVGID_20_)}.st23{fill:url(#SVGID_21_)}.st24{fill:url(#SVGID_22_)}.st25{fill:url(#SVGID_23_)}.st26{fill:url(#SVGID_24_)}.st27{fill:url(#SVGID_25_)}.st28{fill:url(#SVGID_26_)}</style><path class="st11" d="M158.57 172.115c1.861 0 2.679-.682 2.679-2.361 0-1.682-.817-2.227-2.315-2.227-.5 0-1.113.023-1.499.047v4.541h1.135zM145.404 170.183a16.628 16.628 0 0 1-.454-1.838h-.045c-.114.703-.295 1.34-.454 1.838l-1.271 4.338h3.565l-1.341-4.338z"/><path class="st10" d="M120.071 180.333v-5.131l3.474-6.699c.5-.977.954-2.361.954-3.52a8.107 8.107 0 0 0-1.476-.113c-.545 0-1.227.045-1.658.113 0 1.045-.205 1.863-.545 2.566l-1.567 3.293c-.272.59-.636 1.43-.749 1.906h-.022c-.091-.477-.386-1.295-.727-1.975l-1.521-3.135c-.522-1.09-.658-1.725-.658-2.678-.432-.068-1.045-.092-1.59-.092-.567 0-1.226.045-1.589.092 0 1.158.386 2.314 1.112 3.723l3.315 6.471v5.178a11.08 11.08 0 0 0 1.635.113 9.754 9.754 0 0 0 1.612-.112zM126.63 164.984v15.35h9.604c.113-.477.159-.908.159-1.408 0-.635-.068-1.113-.159-1.361h-6.357v-3.77h5.199c.114-.477.159-.887.159-1.385 0-.637-.068-1.09-.159-1.34h-5.199v-3.314h6.153a5.86 5.86 0 0 0 .159-1.408c0-.637-.068-1.113-.159-1.363h-9.4zM141.204 180.333l1.067-3.111h5.449l1.135 3.111c.295.045.977.113 1.566.113.75 0 1.453-.045 1.748-.113l-5.744-15.35c-.25-.068-.976-.113-1.589-.113-.5 0-1.249.045-1.567.113l-5.358 15.35c.34.068 1.022.113 1.612.113.591.001 1.181-.044 1.681-.113zm3.247-10.15c.159-.498.34-1.135.454-1.838h.045c.136.703.295 1.34.454 1.838l1.34 4.338h-3.565l1.272-4.338zM157.435 174.816h1.34l3.11 5.518c.432.09 1.067.113 1.703.113.703 0 1.316-.045 1.907-.137l-3.701-6.084c1.589-.682 2.725-2.566 2.725-4.451 0-3.541-1.93-4.904-5.79-4.904-1.316 0-3.496.045-4.541.113v15.35c.568.09 1.045.113 1.59.113a9.91 9.91 0 0 0 1.657-.113v-5.518zm0-7.242c.386-.023.999-.047 1.499-.047 1.498 0 2.315.545 2.315 2.227 0 1.68-.817 2.361-2.679 2.361h-1.136v-4.541zM167.081 178.562c0 .363.046.771.113 1.09 1.294.59 3.11.908 4.769.908 3.133 0 5.472-1.793 5.472-4.768 0-2.725-1.816-3.883-4.269-4.654-2.043-.637-2.884-1.068-2.884-2.135 0-.908.931-1.477 2.634-1.477 1.045 0 2.339.16 3.475.455.09-.363.136-1.021.136-1.453 0-.59-.046-1-.113-1.25-.886-.295-2.202-.521-3.679-.521-3.201 0-5.631 1.566-5.631 4.383 0 2.633 1.794 3.814 4.246 4.562 2.202.682 2.929 1.158 2.929 2.293 0 1.023-.862 1.771-2.475 1.771-1.385 0-3.156-.34-4.495-.885a6.45 6.45 0 0 0-.228 1.681z"/><path class="st0" d="M91.692 23.958h54.372l3.869-15.536H74.867L61.339 79.283l23.689-17.491z"/><radialGradient id="SVGID_1_" cx="-445.222" cy="534.556" r="1" gradientTransform="scale(-129.6847 129.6847) rotate(-60.154 -683.451 -115.476)" gradientUnits="userSpaceOnUse"><stop offset="0" stop-color="#dfd4b7"/><stop offset=".399" stop-color="#bba461"/><stop offset=".814" stop-color="#998750"/><stop offset="1" stop-color="#998750"/></radialGradient><path class="st1" d="M82.888 156.917c38.081 0 57.012-25.975 56.791-57.455-.217-24.213-15.63-36.762-43.806-36.762H84.868l.161-.909-23.69 17.492-.001.001-.025.147h28.396c20.253 0 27.517 7.484 27.517 22.674 0 22.894-11.886 38.082-35.001 38.082-12.987 0-25.535-1.979-35.662-5.062-1.538 3.521-2.42 7.926-2.641 12.107 0 1.102 0 2.201.221 3.523 9.025 3.961 22.896 6.162 38.745 6.162z"/><radialGradient id="SVGID_2_" cx="-445.222" cy="534.556" r="1" gradientTransform="scale(-129.6847 129.6847) rotate(-60.154 -683.451 -115.476)" gradientUnits="userSpaceOnUse"><stop offset="0" stop-color="#dfd4b7"/><stop offset=".399" stop-color="#bba461"/><stop offset=".814" stop-color="#998750"/><stop offset="1" stop-color="#998750"/></radialGradient><radialGradient id="SVGID_3_" cx="-443.752" cy="539.9" r="1" gradientTransform="scale(165.0757 -165.0757) rotate(-77.309 -558.826 -8.228)" gradientUnits="userSpaceOnUse"><stop offset="0" stop-color="#dfd4b7"/><stop offset=".459" stop-color="#bba461"/><stop offset=".831" stop-color="#998750"/><stop offset="1" stop-color="#998750"/></radialGradient><path class="st3" d="M242.189 103.547l-.081-.041.013.091h-22.76c-.014-.092-.038-.18-.053-.271-6.507 19.872-17.16 36.422-32.127 36.422-13.648 0-19.812-10.566-19.812-35.443 0-37.422 15.41-83.43 39.623-83.43 17.391 0 20.033 18.053 20.033 35.442 0 4.074-.246 8.578-.723 13.307 2.772 1.853 5.119 3.773 7.105 5.717.383-.447.852-.932 1.42-1.423 2.462-2.13 6.789-4.406 14.093-4.51h.001c.365-4.376.557-8.754.557-13.091 0-32.799-12.549-52.611-42.486-52.611-38.521 0-62.076 49.971-62.076 100.599 0 29.06 10.126 52.613 42.266 52.613 26.584-.001 45.411-23.528 55.007-53.371z"/><radialGradient id="SVGID_4_" cx="-443.753" cy="539.902" r=".998" gradientTransform="scale(165.0757 -165.0757) rotate(-77.309 -558.826 -8.228)" gradientUnits="userSpaceOnUse"><stop offset="0" stop-color="#dfd4b7"/><stop offset=".459" stop-color="#bba461"/><stop offset=".831" stop-color="#998750"/><stop offset="1" stop-color="#998750"/></radialGradient><path class="st4" d="M234.828 73.918c2.462-2.13 6.789-4.406 14.094-4.51h-.001c-7.304.104-11.631 2.38-14.093 4.51z"/><radialGradient id="SVGID_5_" cx="-443.753" cy="539.902" r=".998" gradientTransform="scale(165.0757 -165.0757) rotate(-77.309 -558.826 -8.228)" gradientUnits="userSpaceOnUse"><stop offset="0" stop-color="#dfd4b7"/><stop offset=".459" stop-color="#baa35f"/><stop offset=".723" stop-color="#897a47"/><stop offset=".831" stop-color="#74683c"/><stop offset="1" stop-color="#74683c"/></radialGradient><path class="st5" d="M234.828 73.918c2.462-2.13 6.789-4.406 14.094-4.51h-.001c-7.304.104-11.631 2.38-14.093 4.51z"/><radialGradient id="SVGID_6_" cx="-443.486" cy="538.629" r="1" gradientTransform="scale(315.543 -315.543) rotate(-59.589 -691.955 -118.05)" gradientUnits="userSpaceOnUse"><stop offset="0" stop-color="#dfd4b7"/><stop offset=".399" stop-color="#bba461"/><stop offset=".762" stop-color="#8b7c49"/><stop offset=".812" stop-color="#847645"/><stop offset="1" stop-color="#847645"/></radialGradient><path class="st6" d="M244.043 97.317c.174 3.161-.251 5.142-.251 5.142 5.517-12.97 9.89-28.616 32.024-33.147l-26.105-.015c-.216.035-.413.104-.629.142.003-.011.003-.021.005-.036-.058 0-.108.006-.165.006-.793 9.457-2.436 18.901-4.879 27.908z"/><radialGradient id="SVGID_7_" cx="-443.752" cy="539.899" r=".998" gradientTransform="scale(165.0757 -165.0757) rotate(-77.309 -558.826 -8.228)" gradientUnits="userSpaceOnUse"><stop offset="0" stop-color="#dfd4b7"/><stop offset=".459" stop-color="#baa35f"/><stop offset=".723" stop-color="#897a47"/><stop offset=".831" stop-color="#74683c"/><stop offset="1" stop-color="#74683c"/></radialGradient><path class="st7" d="M234.828 73.918c-.568.491-1.037.976-1.42 1.423 8.367 8.182 10.341 16.716 10.635 21.977 2.443-9.008 4.086-18.451 4.879-27.909-7.305.103-11.632 2.379-14.094 4.509z"/><radialGradient id="SVGID_8_" cx="-443.482" cy="538.624" r="1" gradientTransform="scale(315.543 -315.543) rotate(-59.589 -691.955 -118.05)" gradientUnits="userSpaceOnUse"><stop offset="0" stop-color="#dfd4b7"/><stop offset=".399" stop-color="#bba461"/><stop offset=".762" stop-color="#8b7c49"/><stop offset=".812" stop-color="#847645"/><stop offset="1" stop-color="#847645"/></radialGradient><path class="st8" d="M234.828 73.918c-.568.491-1.037.976-1.42 1.423 8.367 8.182 10.341 16.716 10.635 21.977 2.443-9.008 4.086-18.451 4.879-27.909-7.305.103-11.632 2.379-14.094 4.509z"/><radialGradient id="SVGID_9_" cx="-443.01" cy="539.726" r="1" gradientTransform="scale(163.745 -163.745) rotate(-59.589 -692.262 -117.846)" gradientUnits="userSpaceOnUse"><stop offset="0" stop-color="#dfd4b7"/><stop offset=".399" stop-color="#baa35f"/><stop offset=".706" stop-color="#897a47"/><stop offset=".831" stop-color="#74683c"/><stop offset="1" stop-color="#74683c"/></radialGradient><path class="st9" d="M203.514 69.269l-19.091-.009 19.091.01z"/><radialGradient id="SVGID_10_" cx="-443.04" cy="539.726" r="1.041" gradientTransform="scale(163.745 -163.745) rotate(-59.589 -692.262 -117.846)" gradientUnits="userSpaceOnUse"><stop offset="0" stop-color="#dfd4b7"/><stop offset=".399" stop-color="#baa35f"/><stop offset=".706" stop-color="#897a47"/><stop offset=".831" stop-color="#74683c"/><stop offset="1" stop-color="#74683c"/></radialGradient><path class="st12" d="M218.294 99.233z"/><radialGradient id="SVGID_11_" cx="-443.01" cy="539.725" r="1" gradientTransform="scale(163.745 -163.745) rotate(-59.589 -692.262 -117.846)" gradientUnits="userSpaceOnUse"><stop offset="0" stop-color="#dfd4b7"/><stop offset=".399" stop-color="#baa35f"/><stop offset=".706" stop-color="#897a47"/><stop offset=".831" stop-color="#74683c"/><stop offset="1" stop-color="#74683c"/></radialGradient><path class="st13" d="M184.422 69.26c.012.004 27.329 10.167 33.869 29.965-6.541-19.796-33.857-29.961-33.869-29.965z"/><radialGradient id="SVGID_12_" cx="-443.01" cy="539.726" r="1" gradientTransform="scale(163.745 -163.745) rotate(-59.589 -692.262 -117.846)" gradientUnits="userSpaceOnUse"><stop offset="0" stop-color="#dfd4b7"/><stop offset=".399" stop-color="#baa35f"/><stop offset=".706" stop-color="#897a47"/><stop offset=".831" stop-color="#74683c"/><stop offset="1" stop-color="#74683c"/></radialGradient><path class="st14" d="M219.277 103.168z"/><radialGradient id="SVGID_13_" cx="-443.01" cy="539.661" r=".996" gradientTransform="scale(163.745 -163.745) rotate(-59.589 -692.262 -117.846)" gradientUnits="userSpaceOnUse"><stop offset="0" stop-color="#dfd4b7"/><stop offset=".399" stop-color="#bba461"/><stop offset=".762" stop-color="#8b7c49"/><stop offset=".812" stop-color="#847645"/><stop offset="1" stop-color="#847645"/></radialGradient><path class="st15" d="M219.277 103.168c.009.053.021.104.031.157v-.003c-.007-.052-.022-.102-.031-.154z"/><radialGradient id="SVGID_14_" cx="-442.635" cy="539.665" r=".499" gradientTransform="scale(163.745 -163.745) rotate(-59.589 -692.262 -117.846)" gradientUnits="userSpaceOnUse"><stop offset="0" stop-color="#dfd4b7"/><stop offset=".399" stop-color="#bba461"/><stop offset=".762" stop-color="#8b7c49"/><stop offset=".812" stop-color="#847645"/><stop offset="1" stop-color="#847645"/></radialGradient><path class="st16" d="M218.879 101.257c-.008-.031-.019-.062-.026-.093.007.031.018.062.026.093z"/><radialGradient id="SVGID_15_" cx="-442.273" cy="539.668" r="0" gradientTransform="scale(163.745 -163.745) rotate(-59.589 -692.262 -117.846)" gradientUnits="userSpaceOnUse"><stop offset="0" stop-color="#dfd4b7"/><stop offset=".399" stop-color="#bba461"/><stop offset=".762" stop-color="#8b7c49"/><stop offset=".812" stop-color="#847645"/><stop offset="1" stop-color="#847645"/></radialGradient><path class="st17" d="M218.294 99.233l-.003-.009c0 .004.002.006.003.009z"/><radialGradient id="SVGID_16_" cx="-442.536" cy="539.582" r="0" gradientTransform="scale(163.745 -163.745) rotate(-59.589 -692.262 -117.846)" gradientUnits="userSpaceOnUse"><stop offset="0" stop-color="#dfd4b7"/><stop offset=".399" stop-color="#bba461"/><stop offset=".762" stop-color="#8b7c49"/><stop offset=".812" stop-color="#847645"/><stop offset="1" stop-color="#847645"/></radialGradient><radialGradient id="SVGID_17_" cx="-443.01" cy="539.726" r="1" gradientTransform="scale(163.745 -163.745) rotate(-59.589 -692.262 -117.846)" gradientUnits="userSpaceOnUse"><stop offset="0" stop-color="#dfd4b7"/><stop offset=".399" stop-color="#bba461"/><stop offset=".762" stop-color="#8b7c49"/><stop offset=".812" stop-color="#847645"/><stop offset="1" stop-color="#847645"/></radialGradient><path class="st19" d="M221.376 87.901c.125.17.772.93 1.632 1.93 2.262 2.632 6.051 6.983 6.051 6.983l13.047 6.69.003.001c-.231-1.807-.711-4.053-2.202-6.91-.098-.188-.202-.356-.303-.541-2.562-5.493-6.104-9.937-9.924-13.52-1.125-1.125-2.133-2.018-2.91-2.607-.004.024-.01.046-.012.07-10.027-8.071-20.789-10.728-20.789-10.728l-2.455-.001 1.42 5.417c0 .002 15.98 12.602 16.442 13.216z"/><radialGradient id="SVGID_18_" cx="-443.752" cy="540.046" r=".971" gradientTransform="scale(165.0757 -165.0757) rotate(-77.309 -558.826 -8.228)" gradientUnits="userSpaceOnUse"><stop offset="0" stop-color="#dfd4b7"/><stop offset=".459" stop-color="#bba461"/><stop offset=".831" stop-color="#998750"/><stop offset="1" stop-color="#998750"/></radialGradient><path class="st20" d="M242.121 103.597l-.013-.091-.003-.001.016.092z"/><radialGradient id="SVGID_19_" cx="-443.01" cy="539.78" r=".998" gradientTransform="scale(163.745 -163.745) rotate(-59.589 -692.262 -117.846)" gradientUnits="userSpaceOnUse"><stop offset="0" stop-color="#dfd4b7"/><stop offset=".399" stop-color="#bba461"/><stop offset=".762" stop-color="#8b7c49"/><stop offset=".812" stop-color="#847645"/><stop offset="1" stop-color="#847645"/></radialGradient><path class="st21" d="M242.121 103.597l-.013-.091-.003-.001.016.092z"/><radialGradient id="SVGID_20_" cx="-443.753" cy="539.912" r="1.001" gradientTransform="scale(165.0757 -165.0757) rotate(-77.309 -558.826 -8.228)" gradientUnits="userSpaceOnUse"><stop offset="0" stop-color="#dfd4b7"/><stop offset=".459" stop-color="#bba461"/><stop offset=".831" stop-color="#998750"/><stop offset="1" stop-color="#998750"/></radialGradient><path class="st22" d="M219.309 103.322v.003c.015.092.039.18.053.271-.014-.091-.039-.182-.053-.274z"/><radialGradient id="SVGID_21_" cx="-443.01" cy="539.726" r="1" gradientTransform="scale(163.745 -163.745) rotate(-59.589 -692.262 -117.846)" gradientUnits="userSpaceOnUse"><stop offset="0" stop-color="#dfd4b7"/><stop offset=".399" stop-color="#bba461"/><stop offset=".762" stop-color="#8b7c49"/><stop offset=".812" stop-color="#847645"/><stop offset="1" stop-color="#847645"/></radialGradient><path class="st23" d="M219.309 103.322v.003c.015.092.039.18.053.271-.014-.091-.039-.182-.053-.274z"/><radialGradient id="SVGID_22_" cx="-443.01" cy="539.726" r="1" gradientTransform="scale(163.745 -163.745) rotate(-59.589 -692.262 -117.846)" gradientUnits="userSpaceOnUse"><stop offset="0" stop-color="#dfd4b7"/><stop offset=".399" stop-color="#baa35f"/><stop offset=".706" stop-color="#897a47"/><stop offset=".831" stop-color="#74683c"/><stop offset="1" stop-color="#74683c"/></radialGradient><path class="st24" d="M223.008 89.831c-.859-1-1.507-1.76-1.632-1.93-.462-.614-16.442-13.215-16.442-13.215l-1.42-5.417-19.091-.01h-.001c.012.004 27.328 10.169 33.869 29.965l.003.009c.209.634.394 1.278.559 1.931.008.031.019.062.026.093.155.627.285 1.266.398 1.911.009.052.023.102.031.154a149.188 149.188 0 0 0 3.7-13.491z"/><radialGradient id="SVGID_23_" cx="-443.01" cy="539.726" r="1" gradientTransform="scale(163.745 -163.745) rotate(-59.589 -692.262 -117.846)" gradientUnits="userSpaceOnUse"><stop offset="0" stop-color="#dfd4b7"/><stop offset=".399" stop-color="#bba461"/><stop offset=".762" stop-color="#8b7c49"/><stop offset=".812" stop-color="#847645"/><stop offset="1" stop-color="#847645"/></radialGradient><path class="st25" d="M223.008 89.831c-.859-1-1.507-1.76-1.632-1.93-.462-.614-16.442-13.215-16.442-13.215l-1.42-5.417-19.091-.01h-.001c.012.004 27.328 10.169 33.869 29.965l.003.009c.209.634.394 1.278.559 1.931.008.031.019.062.026.093.155.627.285 1.266.398 1.911.009.052.023.102.031.154a149.188 149.188 0 0 0 3.7-13.491z"/><radialGradient id="SVGID_24_" cx="-443.755" cy="539.9" r="1.005" gradientTransform="scale(165.0757 -165.0757) rotate(-77.309 -558.826 -8.228)" gradientUnits="userSpaceOnUse"><stop offset="0" stop-color="#dfd4b7"/><stop offset=".459" stop-color="#baa35f"/><stop offset=".723" stop-color="#897a47"/><stop offset=".831" stop-color="#74683c"/><stop offset="1" stop-color="#74683c"/></radialGradient><path class="st26" d="M229.059 96.814s-3.789-4.352-6.051-6.983a149.603 149.603 0 0 1-3.699 13.491c.015.092.039.183.053.274h22.76a1.358 1.358 0 0 1-.016-.092l-13.047-6.69z"/><radialGradient id="SVGID_25_" cx="-443.01" cy="539.726" r="1" gradientTransform="scale(163.745 -163.745) rotate(-59.589 -692.262 -117.846)" gradientUnits="userSpaceOnUse"><stop offset="0" stop-color="#dfd4b7"/><stop offset=".399" stop-color="#baa35f"/><stop offset=".706" stop-color="#897a47"/><stop offset=".831" stop-color="#74683c"/><stop offset="1" stop-color="#74683c"/></radialGradient><path class="st27" d="M229.059 96.814s-3.789-4.352-6.051-6.983a149.603 149.603 0 0 1-3.699 13.491c.015.092.039.183.053.274h22.76a1.358 1.358 0 0 1-.016-.092l-13.047-6.69z"/><radialGradient id="SVGID_26_" cx="-443.01" cy="539.726" r="1" gradientTransform="scale(163.745 -163.745) rotate(-59.589 -692.262 -117.846)" gradientUnits="userSpaceOnUse"><stop offset="0" stop-color="#dfd4b7"/><stop offset=".399" stop-color="#bba461"/><stop offset=".762" stop-color="#8b7c49"/><stop offset=".812" stop-color="#847645"/><stop offset="1" stop-color="#847645"/></radialGradient><path class="st28" d="M229.059 96.814s-3.789-4.352-6.051-6.983a149.603 149.603 0 0 1-3.699 13.491c.015.092.039.183.053.274h22.76a1.358 1.358 0 0 1-.016-.092l-13.047-6.69z"/></svg>