<svg height="395" width="736" xmlns="http://www.w3.org/2000/svg" style="position:relative;left:-.5px;top:-.9375px;width:736px;height:394.904px" viewBox="0 0 1835.9 1066.4" preserveAspectRatio="none" overflow="hidden"><path fill="#d9e021" stroke="#006837" d="M1100.87 531h-14.75l8.88 8.88v11.25l13.87 13.87h16.33l6.75-6.83 11.92 11.83h8.13v11.13L1132.87 603h-14.42l-15.58 16h-21.67l-7.93 6.36-7.27-7.47V603.8l-14.37-14.33-7.62-7.58V569.8l-6.37-6.33-19.64-19.59V538h-12v-14.78l16.64-17.6-6.88-6.27 41.23-.21v-35.76l23.58.08 6.42 6.67V483l11.87 12H1115v-5h33.95l7.05 6.88v28.25l9 9.7V556h-19.05l-6.08-6h-20.25zM1006 550.22V525h-13.13l-6.92 6h-19.08l-15.58-16H933v20h-15.13l-15.08-15h-18.92l-7.87-8.2V497h-43.13l-12.75 13h-25.25L777 525.3v7.58L766.62 546h-9.75L741 558.63v8.25l-10 9.75V586h24v-16h4v-13h19v-9.12L841.87 590h19l29.67-20 15.33 2.26 7.33-3.14L957.87 590H963v-15.12l66.74 1z" stroke-width="2" style="-webkit-tap-highlight-color:rgba(0,0,0,0)"><title style="-webkit-tap-highlight-color:rgba(0,0,0,0)">Middle East and North Africa</title></path><path fill="#d9e021" stroke="#006837" d="M1497.87 390H1523v23h-9v33.88l-4.5 4.58 11.5 11.42V490h-12v-17h-12v-18h-8.47l-8 7.11-4.75-4.43 9.08-8.68h-8l-19.33 18.61 11.92 12.4 5.42-5h8.25L1469 485.88V499h7.95l14.05 13.88v20.42l-7 6.58v10.42l-15.13 17.7h-14.75l-11.25 11h-16l-13.13-10.81-21.58-.53-8.54 8.42-18.75-18.85 4.25-8.8-7.42-10.69-10.58-7.1-33.44 11.7-62.68-19.71v-13.37L1237.12 491H1224v-22.12l26-13.5V436h4v-15h14.87l4.88-18h11.13l11-11h32l11.12-11.12 10.12 10.12h79.5l8.38-12.12V357h27.37zm75.13 18.88V428h14.87l6.82-8.31S1574 408.13 1573 408.88zm-.13 30.12c-.5 0 2.13 4.88 2.13 4.88v21.75L1562.87 481H1538v7h39.62l8.38-11.12v-32.75l-5.13-5.13zM1534 510h8v-12h-8c-1 0 0 12 0 12z" stroke-width="2" style="-webkit-tap-highlight-color:rgba(0,0,0,0)"><title style="-webkit-tap-highlight-color:rgba(0,0,0,0)">East Asia</title></path><path fill="#8cc63f" stroke="#006837" d="M1361.7 537.92l-12.5 11.7-8 29.82-5.37-4.44h-22.75L1275 609.88v24.33l-12.33 12.25-17.67-17.58V614.8l-17-16.92V583h-8.22l-11.67-11.71-15.24-15.29H1165v-20h20v-10h9.74l17.62-18.11-.25-16.89h25l17.89 18.26v13.63l62.67 19.51 33.53-11.74zM1272 661h7v-20.37l-7 7z" stroke-width="2" style="-webkit-tap-highlight-color:rgba(0,0,0,0)"><title style="-webkit-tap-highlight-color:rgba(0,0,0,0)">South Asia</title></path><path fill="#22b573" stroke="#006837" d="M526 357.8l21 21.08V396h-13.72l-7.42 7h-32.74l-8.25 8H495v24h-8.55l-7.58 8h-11.75l-9.12 5.88V463h-16.05l-15.08 15H413v13.8l-24 24.08V544h-6.72l-17.42-17h-27.58l6.58 7h-40.58l-15.59 13.55-9.82-19.55h-5.31l-4.67 4.84-18-17.84H201v8.13l7 6.75v10.25l8 7.75v8.25l-13-13.25V532l-12-12.08V504.3l-12.79-13-8.21-8.42v-12.75l-5-5.25V425.3l11.26-11 7.22-7.33L195 394.88v-12.41l-13-12.58v-10.34s-8.45-11-10.45-11-7.24-7.42-7.24-7.42l9.69-10.25V309.8l-10-10.39-18.48-18.47L116.87 253h-11.71s-17.33 16.7-20 19.32-14.08-.26-14.08-.26L42.87 301h-7.75l12.33-12.46L60.87 275h-7.63s-7.67-6.22-6.62-7.26 0-18.18 0-18.18L39.87 257H31v-8.12l6.93-5.72-5.44-5.72L46.87 224h24.91l5.22-8.12v-8.33l7.27-6.39-4.27-4.22-5.13 6.06H53c-1 0 0-8 0-8h13.2l-6.25-6.17 4.92-4.83h10.75l5.25 5h20.92L86 172.88V152h25.78l11.08-11h10.75l5.25-5h14.67l4.4-6L170 141.88V152h11.12l12.75 13h8l33.58 33.5 13.42-13.5H271v13h13.95l4.92-5H298v4.8l14.87 15.2H317v6h-3.8l-4.25 4.17 4.92 4.83H336v14.47l6-5.58V231h8v-6h12v4.47l9.87 10.53H389v-6h5v7.3l5 4.58V242h8.45l5.55-8.12V226h11v12.22l8.38-7.67 5.92 5.33-8 8 6.48 6.92L453 233.88v-5.67l4.17-4.25 7.83 7.92V242c0 3-6 0-6 0v8.88L445.6 265l-6.94-7.35-5.94 6.14-8.3 8.86-7.55 8.35H405v5h-6v6h-7.55l-6.68 5.4L367 313.88v17.92l6-5.92V341h10.45l22.42 22H413v19.47l7.87 8.53h7.58l5.55-8.12V370.8l16-15.92v-16.33l-4.33-4.55 7.33-7.08v-13.45l5-4.58V305h25v6.13l8 7.75v17.33l9.33 9.08L520 325.88v25.92zm-97-84.25v8.33l-4.23 4.92 5.76 5.42 9.84-8.94 6.17 6.73h9.33s-20.35-22.73-19.18-22.73zM624.87 65H615v-7h-21.05L585 48.88V57h-4.05L573 48.88V57h-6.13l-8.6 7.19-9.27-9.31V63h-25v11h17.62l3.25 3h-16.34l-3.42 3.33 7.76 7.67h22.33l11.67-12.39 3.33 3-8.25 8.86 4.92 5.53H553v5h-10.22L537 91.88V103h-5v-7.78l-7.17-7.42-3.83 4.08v14.33l7.93 7-3 4.39-7.06-6.6h-5.17l-15.08 12.19 7.58-.57 6.67-6.87 3.73 4.32-7.6 6.82v7.75l10-9.75v8.67l7.67 7.42 3.33-3.08V132h14.87l10.42-10.5-4.42-4.5H541v-8h12.45l3.42 3h5.92l-5.92-6h6.33l7.08 6 7-6.85 6.59-6.15h12.58L606 86.88V80h16.53l5.63-6.71zM383.53 215.52l6-6-15.67-13.06c0-.79 4.15-5.54 4.15-5.54v-10.45l5-4.58v-8.59l-12 11.58V189h-6v-10h-4v-8h-9v-6H336v6h-8.55l11.42 11H316v7h20.62l8.25 8H315v12h12.95l-5.95 2.88V219h27.87l5.42-5.5 6.58 6.5h15l-6.5-7.07 5.17-6.07zM321.95 167h4.92s6.25-8 6-7H347v-11.12l-5.73-5.65-6.32-6.23H319v3.88l-12 11.75v6.25l-9 9.42v7.7h14.87zm57.68-71.06l.16-.17c-.14 0-.18.07-.16.17zM371.87 116l13.92-14.32s-6-4.81-6.16-5.74L370.2 106H350v10h21.87zM411 102.88l5.92-5.88S400 96.47 399 96.88V109h12zM382 127v-8h-5.13c-.25 0-1 9-1 9H362v6h15v7h-14.88l4.75 5h15.67l5.75-5.67 4.58 4.67h11.58l6.55-9.12V133h-8v-9.45l5.26-4.67-4-4.58-9.26 8.58V133h-8v-6zm73.45-15.23l8.75-9.15-4.33-4.54 5.33-4.71-5-5.38H450v6.88l-2.88 6.13H438v6h11.87zm14.74 3l6.32-6.32s-5.45-5.95-5.82-6.32l-6.57 6.57zm-20.5 33.37l-6.57 6.57 6.07 6.07 6.32-6.32s-5.46-5.94-5.83-6.32zm45.81 103.32s-5.45-5.95-5.82-6.32l-6.57 6.57 6.07 6.07zM497 198h10v-8.77l-1.13-1.23H497zm-110-34v6.88c0 .61 9.87-6.88 9.87-6.88zm151 84v-10.12L504.87 205h-20.5l5.63-9.12V187h-6.63l-9.5 9h-8.75l10.75-11h-11L440 206.88V218h18.87l7 7h13.75l7.82 7.57L501 245.88v9.5l-14 14.5V279h-21v9h20.62l26.5 25.84 19.5-20.16-19-18.95 8.5-8.4 14.75 15 11.75-11.35L525.87 248zm-107.13-72.12l12.5 12.5 11.5-11.5-12.5-12.5zm-10 10l-12.5-12.5-11.5 11.5 12.5 12.5zm.9-6.5l9.1-9.1-9.9-9.9-9.1 9.1zm1.23 27.25l7-6.37-5.22-5.12c-.56.56-17.81 15.75-17.81 15.75V221h16zm39.12-46.79l9.75 10.16h18l7.5 6.85 10.25-10.9-6.75-5.95h-19.25l-10-10.31c-1.13 1.13-9.5 10.16-9.5 10.16zm-30.25-7.71l17.38-17.37-8.12-8.12-8.87 8.63 3.13 3.13-8.65 8.6zm62.69-32.82L507.62 107H514V75h-11.13L488 86.63v8.25l6.31 6.63s-8.5 8.69-8.32 8.88z" stroke-width="2" style="-webkit-tap-highlight-color:rgba(0,0,0,0)"><title style="-webkit-tap-highlight-color:rgba(0,0,0,0)">North America</title></path><path fill="#39b54a" stroke="#006837" d="M751 129v5h12.45L753 141.88v16.25L743.87 170H753v5h-11.05l-6.95 3.88V213h-17.13l-9.08 9 22.08 22h-12l-8.42-8.5-15.58 15.5h30.75l-14.75 15h-27.59l-23.42 23h-18.74l-6.12 2.88v5.67l-15 15.08v21.25s-9.88-7.88-9.13-6.88h-9.08L591 315.88V298.3l-6-6.42V269h15.53l3.33-4.23-6.43-6.24 6.57-7.65V224h-15.88l9.88-13.12V189.3l-4-4.42v-9.42L580.87 163h-6.33s-13.42 1.46-15.08-.21-5.58-5.79-5.58-5.79h5.42l-6.42-6h17.42l5.58-6h-9.68l-9.92-10.17 7.58-7.83h22.08l14.92-15h-11.58l13.58-14h10.08l4.06-7.12V88h11.12l5.75-6h17.08l-12.08 12h20.25l-8.25-8h7.58l12.42 12h13.08L673 86.88V77h10.95l4.92-5h14.92l7.08-7h22.42l4.71 4.88V83h17.2l4.67 4.58-5 6.42h-36.25l-12.75 13h8.92l7.08-7h17.92l-6.92 7h8.75l5.25-5h7.75l-27.75 28h8.42l15.58-16h10.42l5.58-6h11.67l4.92 4.67L766.87 129zm2.87 162h-15l-9.42 9h-10.58l6.92 7.13 5.67 5.88h20.42l7.12-10.38v-7.75s-6.05-4.88-5.13-3.88zM802 380h4v5h4v7h-6v3.88l-2.38 5.12h11.25l-5.75 6h-5.25l-3.5 4h10.5l4.25-4h15.75l4.5-4h-5.5l4.13-7.37V393h-7v-11.12l-7.12-7-6.88-6.75V361h-7.13l7-7h-9l-6.87 4.13v6.75l7 6.75zm-20.8 21.69l4.67-3.69H790v-11.62l4-3.5V378h-11v7h-6v1.63l4.56 4-5.28 5.5zM1650 158h32.87L1670 145.13V129h-102.13l14.25 14H1530v14h-14v-14.12l-10.38-9.88H1409v25h-24v15.88L1358.12 147H1329v9h-43.13L1265 174.13V128h-28v-13h-27v13.88l11.93 12.06-8.56 10.06h-25.5l-15.25 14.64 12.25 11.64-20.5 20.9 34 34.81h-12.5l-28.59-29.06-15.59 14.44 14.32 15V274h-11v-33.12l-20-19.75V202h-14v26.88l19 18.75v10.25L1117.62 246h-29.75l8.75 9-7.75 8h-44l-49.75 49.75L971.37 289H1002v-25h-42.13l-14.75-15h-33.25L883 274.63v24.25l-34 33.75V359h13.87L875 343.63v15.25l14.25 14.25L903 359.38v-34.5l16-15.75V293h16v13.88l-12 11.75v13.25L933.12 342H959v10h-20v12h-11v12.88l8.12 8.12h-61.25l-30.75 31H828v8h-22.13L820 437.88V454h-42v30.88L789.62 497h21.25l11.44-13.06L839 465.63V455h17.87l8.25-8h10.75L906 477.13V489h7v-18.12L886.62 445h14.25L945 489.13V473h19v9.88L982.12 501H1057v-37.62l23.58.08 6.42 6.67v12.75l11.87 12.12h17l.5-5h32.5l7.13 6.88v28.2l9.75 10.91H1185V526h9.74l17.62-18.11-.25-16.89H1224v-22.12l26-13.5v-20.5l4-.5v-14.5l14.25.31 5.62-17.19h11l11.25-11h31.75l11.13-11.12 10.12 10.12h79.5l8.38-11.87V357h27.87l20.75 20.13 12.5 12.88H1523v23h-9v18h18.87l16.13-19.38v-59.75L1535.12 338H1503v-54h40.87l11.25-11H1570v-27h26v-21h13v54h-11v29.88l35 35.25v-59.25l-12-12.25v-20.75l14.12-10.88H1649v-16.12l20.5-20.75-19.5-19.25zm-735-31h-10.13c-1.5 0-8.87 5.88-8.87 5.88V143h19zm-38 41.63l13 13.25v-27.75l5.81-5-12.94-13.75c0 .5-5.09-3.75-5.09-3.75l-11.84 11.5L877 154.88zm282.37-89.75l-11-11-10 11 10.5 10.5zm-4.95 15.21l13.35 12.79 6.23-7.08v-8.07l-4.2-3.73h-8.66c.59-1-6.72 6.1-6.72 6.1zm34.58-9.21v27l18.75-18.75zM1357.87 90h.09-.09zm19.5 23.1l13-13.4-10.5-9.7H1358c1.29.76 19.37 23.1 19.37 23.1zM1421 99V89h-20.07c0 .82-2.06 10-2.06 10zm-20.13-10h.06c0-.08-.02-.09-.06 0zm9.13 37v-11h-18.13c-1.25-2 0 11 0 11zm-338.15 109.22L1056 219.88v-22l32-34.67V156h-6.13l-9.42 9h-9.58L1043 186.55v33.33l16.26 14.92z" stroke-width="2" style="-webkit-tap-highlight-color:rgba(0,0,0,0)"><title style="-webkit-tap-highlight-color:rgba(0,0,0,0)">Europe and Central Asia</title></path><path fill="#00a99d" stroke="#006837" d="M631.68 731.94L609 752.38v42.5L596.37 812h-14.5L563 826.38v11.5L555.87 849H542v18.88L536.37 878h-21.5l13.5 13.5-11.5 11.5H498v16h-13.13l8.9 8.61-9.77 7.94v5.33l-8.83 8.83 9.83 9.83v5.33l-12 12.33v11.67l25.53 26.13h-20.66L443 979.72v-52.84l-11-10.75 9-9.25v-122l-59-59.42v-39.58L400 668v-21.12L412.87 636h69l16.5 16.75 14 14.25h18.5L547 683.38V693h13.87s12 17 16.5 17h32.5zM417.2 582.55l-30-15.67-14 4.67 29.47 17.78zM440.58 599L426 584.88v6l-11.48 4.33zm-44.63 54.31l-2.5-12.31h-22.58l-7.87-8.53V613h-26v-17.12L351.87 581h-19l-14.42 14h-13.58L284 574.13v-24.25l3.44-2.58-9.57-19.3h-5.31l-4.67 4.84-18-17.84H211v12.88L227 544l7 7v7.92L245 570v22h11.87s8.17 9.57 10.25 9.57 9.13-2.91 12.08.05 7 7.38 7 7.38h12.71l4.25-4h6.75l7.86 8.3.22-.28 10.92 9h10l12.58 12.46L364.12 647h23.75z" stroke-width="2" style="-webkit-tap-highlight-color:rgba(0,0,0,0)"><title style="-webkit-tap-highlight-color:rgba(0,0,0,0)">Latin America</title></path><path fill="#8cc63f" stroke="#006837" d="M1116 631v7.47l-17.45 18-41.12 41.67-15.43 14.74v16.42l11 10.58v23.42l-26.13 28.7H1015v18.13l-15 14.75v9.58L970.87 867h-33.34l-7.43 6-12.1-12.12v-25.41l-11-10.58v-25.26l-15-14.75v-25.66l11.67-11.75-4.67-4.59V726.8l-8-8-20-19.92v-13.33l11-9.28-8.13-8.27h-9.58l-13.42-13h-28.92l-14.08 14h-23l-54.5-54.81 7.5-8.31L738 586h17v-16h4v-13h19v-9.12L841.87 590h19l29.67-19.77 15.33 2.06 7.33-3.35L957.87 590H963v-15.12l67.42 1 .26 9.38 14.32 14.62v14.42l14.89 14.81 10 9.89h24.92l8.08-8zm-43 160.13l-11 10.75V819h21.87l15.13-46.12v-21l-26 20z" stroke-width="2" style="-webkit-tap-highlight-color:rgba(0,0,0,0)"><title style="-webkit-tap-highlight-color:rgba(0,0,0,0)">Sub-Saharan Africa</title></path><path fill="#00a99d" stroke="#006837" d="M1352 607v-16.37l-11.44-12 8.3-29.42 12.67-11.5 7.59 10.83-4 8.67 18.35 18.58 8.64-8.54 21.59.13 12.79 10-.66-.17-10.93 11 20.1 20.67V631l-9.13 12h-10.58l-22.42-22H1381v25h-4v-20.87l-8-8.25V607zm283 162h-9v-8h-10v17.88l-11.5 11.58-19.5-19.58V756h-24.38l-12.75 13h-14.75l-32.25 32h-28.33l-15.68 13.73.15 40.15v14.58l-9 9.42V892h19.45l8.42-8h17.42l7.58-8h20.58l7.42-7h26.58l7.55 6.88v19.42l19-19.42v32l17.68 17.89 7.18-5.77h3.13v8l10.87-8h10.92l7.22-10.12v-9.75l19-19.25v-12.41l10-9.58v-32.76l-33-33.25zm-36-48v4.88l15 12.85V740h9.87l6.75-7h9.25l12.75 13h9.25L1643 727.38v-6.5L1629 706h-38.13l-5.75 7.06 7.75 7.94zm-236.13-56c.5 0 26.13 26.88 26.13 26.88v12.25l19.87 17.87H1419v-10.37L1371.87 665zm91 48h14.5l18.63-22.12V662h-8.63l-16.5 16h-7.25l-5.75 6H1439c.65.87.87 15 .87 15zm-15-29h.13c0-.06-.09-.06-.13 0zM1493 552.88V570h8.87zm2 60.5l11-11.5V594h-11c-1 0 0 19.38 0 19.38zm43.62 34.25l-9.25-9.25-12.25 12.25 9.25 9.25zm-38.75 67.25c.5 0 13.25-13.25 13.25-13.25s-9.75-8.25-9.25-7.75l-12.5 12.5s8 8.5 8.5 8.5zM1473 734h-34.63l-10.25-10.81c-.37-.37-6 5.65-6 5.65l11.75 12.16H1473zm266 200.63l-10 10.25v8.5l-9.13 12.62h11.75l16.38-19.12V920h-9zm30.87-39.25l-9.25-9.25-7 7 4.5 5.5s-5.25 5.75-5.75 5.25l9.5 9.5 7.75-7.75-5-5zM1598 940.63V961h11.87l8-15h-11z" stroke-width="2" style="-webkit-tap-highlight-color:rgba(0,0,0,0)"><title style="-webkit-tap-highlight-color:rgba(0,0,0,0)">South East Asia and Australasia</title></path></svg>