<?xml version="1.0" encoding="utf-8"?>
<!-- Generator: Adobe Illustrator 16.0.4, SVG Export Plug-In . SVG Version: 6.00 Build 0)  -->
<!DOCTYPE svg PUBLIC "-//W3C//DTD SVG 1.1//EN" "http://www.w3.org/Graphics/SVG/1.1/DTD/svg11.dtd">
<svg version="1.1"
	 id="svg6502" xmlns:dc="http://purl.org/dc/elements/1.1/" xmlns:cc="http://creativecommons.org/ns#" xmlns:rdf="http://www.w3.org/1999/02/22-rdf-syntax-ns#" xmlns:svg="http://www.w3.org/2000/svg" xmlns:sodipodi="http://sodipodi.sourceforge.net/DTD/sodipodi-0.dtd" xmlns:inkscape="http://www.inkscape.org/namespaces/inkscape" sodipodi:docname="meeting2_icon.svg" inkscape:version="0.91 r13725"
	 xmlns="http://www.w3.org/2000/svg" xmlns:xlink="http://www.w3.org/1999/xlink" x="0px" y="0px" width="310.375px"
	 height="233.43px" viewBox="0 0 310.375 233.43" enable-background="new 0 0 310.375 233.43" xml:space="preserve">
<sodipodi:namedview  fit-margin-left="20" fit-margin-top="20" showgrid="false" inkscape:cy="160.43267" inkscape:cx="-351.81859" inkscape:zoom="0.35" borderopacity="1.0" bordercolor="#666666" pagecolor="#ffffff" id="base" units="px" inkscape:window-maximized="1" inkscape:window-y="-8" inkscape:window-x="-8" inkscape:window-height="705" inkscape:window-width="1366" fit-margin-bottom="20" inkscape:current-layer="layer1" inkscape:document-units="px" inkscape:pageopacity="0.0" fit-margin-right="20" inkscape:pageshadow="2">
	</sodipodi:namedview>
<g id="layer1" transform="translate(-338.24716,-459.36509)" inkscape:label="Layer 1" inkscape:groupmode="layer">
	<path id="path5231" inkscape:connector-curvature="0" d="M392.976,662.521c0-12.06-0.064-11.631,2.075-13.795
		c0.669-0.678,1.327-1.267,1.461-1.307c0.134-0.041,0.469-0.973,0.743-2.07c2.481-9.928,11.707-15.055,27.104-15.062
		c4.726,0,9.611,0.678,13.111,1.825c7.173,2.353,11.929,7.186,13.286,13.503c0.314,1.465,0.422,1.684,0.996,2.039
		c0.968,0.598,2.062,1.901,2.651,3.158l0.525,1.121l0.057,10.431l0.056,10.431l-3.449-0.056l-3.448-0.056l-0.052-9.404
		c-0.046-8.402-0.086-9.434-0.377-9.674c-0.269-0.223-4.353-0.271-23.576-0.274c-15.673,0-23.387,0.063-23.667,0.202
		c-0.409,0.205-0.416,0.331-0.515,9.68l-0.099,9.471l-3.442,0.056l-3.441,0.055V662.521L392.976,662.521z M462.347,672.652
		c-0.231-0.231-0.152-18.841,0.084-20.125c0.371-2.005,1.354-3.545,3.13-4.9c0.552-0.422,0.713-0.747,1.034-2.092
		c1.552-6.498,6.157-11.111,13.401-13.422c4.463-1.425,8.717-1.93,14.93-1.773c5.881,0.146,9.41,0.766,13.512,2.364
		c6.26,2.439,10.437,7.06,11.736,12.979c0.307,1.398,0.401,1.573,1.093,2.031c0.972,0.643,2.055,1.967,2.641,3.229l0.46,0.99v10.376
		v10.376l-3.441,0.055l-3.442,0.055v-9.478v-9.478l-0.449-0.271c-0.373-0.227-4.377-0.266-23.694-0.229
		c-12.784,0.023-23.343,0.055-23.462,0.066c-0.613,0.068-0.681,1.088-0.681,10.21v9.169h-3.359
		C463.991,672.785,462.42,672.726,462.347,672.652L462.347,672.652z M531.783,672.652c-0.074-0.074-0.134-4.5-0.134-9.836
		c0-10.799,0.041-11.211,1.298-13.113c0.375-0.567,1.013-1.285,1.416-1.596c1.239-0.951,1.477-1.241,1.479-1.811
		c0-0.302,0.302-1.418,0.668-2.48c3.11-9.023,12.009-13.531,26.706-13.531c9.885,0,17.671,2.573,22.085,7.299
		c2.212,2.369,3.651,5.112,4.296,8.187c0.227,1.081,0.398,1.439,0.847,1.765c1.34,0.972,1.906,1.636,2.61,3.061l0.75,1.516v10.287
		v10.287l-3.442,0.055l-3.441,0.055v-9.345c0-7.737-0.048-9.411-0.282-9.729c-0.276-0.378-0.785-0.387-23.791-0.391
		c-22.207,0-23.528,0.018-23.861,0.348c-0.326,0.326-0.353,1.033-0.353,9.729v9.378h-3.358
		C533.427,672.785,531.855,672.726,531.783,672.652L531.783,672.652z M358.302,645.399l0.056-10.426l0.528-1.097
		c0.574-1.194,1.456-2.239,2.593-3.073c0.586-0.431,0.753-0.706,0.86-1.426c0.074-0.491,0.347-1.518,0.606-2.282
		c2.54-7.467,9.204-11.928,19.836-13.277c2.162-0.275,3.655-0.319,7.782-0.23c5.065,0.109,7.031,0.321,9.711,1.046l1.214,0.328
		l0.438,1.492c0.889,3.019,2.804,6.499,4.784,8.69c0.608,0.674,0.638,0.76,0.304,0.877c-4.723,1.662-9.034,4.672-11.892,8.3
		l-1.216,1.543l-14.141,0.053c-12.312,0.046-14.165,0.093-14.33,0.353c-0.111,0.178-0.19,4.211-0.192,9.928v9.627h-3.498h-3.499
		l0.057-10.426L358.302,645.399z M621.639,646.247c0-9.312-0.018-9.589-0.399-9.976c-0.392-0.393-0.665-0.4-14.421-0.4h-14.021
		l-0.872-1.196c-1.234-1.695-3.813-4.105-5.822-5.44c-1.459-0.971-3.83-2.192-6.019-3.104l-0.55-0.229l1.01-1.25
		c1.86-2.302,3.728-5.988,4.394-8.676l0.258-1.039l1.792-0.42c2.906-0.683,6.144-0.994,10.407-1.002
		c5.832-0.018,9.628,0.514,13.803,1.904c3.461,1.154,5.805,2.502,8.077,4.646c2.57,2.425,3.993,4.88,4.883,8.421
		c0.358,1.428,0.588,1.971,0.925,2.188c0.852,0.55,2.245,2.117,2.691,3.029c0.247,0.503,0.539,1.389,0.649,1.968
		c0.116,0.611,0.199,5.063,0.199,10.604v9.55h-3.492h-3.491V646.247L621.639,646.247z M456.865,641.815
		c-0.624-1.974-2.234-5.186-3.329-6.642c-2.923-3.889-7.1-6.977-12.126-8.964l-0.752-0.297l1.277-1.583
		c0.703-0.869,1.616-2.188,2.03-2.927c0.828-1.481,1.973-4.376,2.191-5.546c0.165-0.876,0.336-0.985,2.189-1.402
		c3.95-0.888,11.567-1.236,16.062-0.735c2.031,0.226,6.015,0.966,6.327,1.175c0.104,0.07,0.438,0.935,0.742,1.922
		c0.886,2.875,2.216,5.369,4.146,7.779c0.526,0.656,0.957,1.24,0.957,1.298c0,0.056-0.562,0.317-1.247,0.578
		c-1.607,0.612-4.729,2.35-6.356,3.538c-3.846,2.809-7.011,7.197-8.471,11.748l-0.448,1.396l-1.366,0.059l-1.366,0.058
		L456.865,641.815L456.865,641.815z M526.278,641.815c-2.15-6.731-7.718-12.508-14.681-15.231c-0.769-0.3-1.431-0.572-1.472-0.605
		s0.28-0.49,0.715-1.016c2.009-2.43,3.501-5.15,4.356-7.942c0.302-0.985,0.617-1.87,0.702-1.966
		c0.086-0.096,0.844-0.338,1.687-0.538c5.729-1.365,15.629-1.351,21.129,0.033l1.615,0.405l0.456,1.625
		c0.679,2.422,2.041,5.114,3.712,7.338l1.488,1.982l-0.732,0.331c-4.593,2.079-6.624,3.323-8.881,5.444
		c-3.302,3.102-5.313,6.35-6.715,10.84l-0.233,0.748h-1.342h-1.343L526.278,641.815L526.278,641.815z M420.712,625.812
		c-1.57-0.355-4.123-1.389-5.362-2.17c-1.602-1.01-4.01-3.517-5.082-5.291c-4.324-7.151-2.416-16.467,4.358-21.28
		c1.639-1.165,2.956-1.798,5.026-2.416c2.353-0.702,5.91-0.743,8.342-0.096c8.663,2.307,13.704,10.95,11.473,19.674
		c-1.443,5.645-6.334,10.3-12.071,11.491C425.341,626.151,422.377,626.19,420.712,625.812L420.712,625.812z M490.362,625.885
		c-4.374-0.857-8.532-3.775-10.75-7.543c-1.385-2.352-2.071-4.68-2.188-7.416c-0.203-4.757,1.228-8.624,4.412-11.931
		c7.737-8.034,21.111-5.935,25.953,4.075c1.807,3.734,2.112,7.827,0.884,11.813c-1.69,5.479-6.38,9.747-11.982,10.901
		C495.052,626.123,491.834,626.174,490.362,625.885L490.362,625.885z M559.484,625.806c-5.982-1.319-10.797-5.942-12.263-11.775
		c-0.551-2.192-0.555-5.634-0.017-7.8c0.493-1.961,1.9-4.836,3.035-6.203c2.364-2.847,5.746-4.922,9.237-5.668
		c1.827-0.392,5.487-0.299,7.309,0.184c4.547,1.205,8.59,4.564,10.499,8.727c1.018,2.217,1.464,4.254,1.468,6.701
		c0,4.63-1.538,8.359-4.771,11.507c-2.378,2.315-4.052,3.262-7.321,4.141c-2.069,0.556-5.148,0.637-7.184,0.188L559.484,625.806z
		 M386.095,608.212c-7.343-1.573-12.49-8.358-12.005-15.822c0.139-2.118,0.411-3.277,1.224-5.196
		c2.719-6.418,9.846-10.215,16.698-8.896c5.254,1.011,9.494,4.492,11.437,9.391c2.656,6.701,0.185,14.45-5.854,18.357
		C394.229,608.221,389.925,609.032,386.095,608.212z M456.527,608.414c-5.035-0.806-9.283-3.896-11.481-8.352
		c-1.205-2.441-1.488-3.752-1.488-6.883c0-2.266,0.074-2.932,0.468-4.19c2.138-6.847,8.43-11.304,15.395-10.907
		c2.444,0.139,3.849,0.517,6.186,1.662c1.625,0.797,2.169,1.203,3.803,2.842c1.635,1.641,2.038,2.185,2.827,3.809
		c1.572,3.238,2.028,6.143,1.47,9.352c-1.045,6.002-5.343,10.727-11.192,12.304C461.317,608.372,457.659,608.595,456.527,608.414
		L456.527,608.414z M524.966,608.224c-4.494-1.002-8.319-3.91-10.377-7.889c-3.93-7.598-0.835-17.049,6.786-20.726
		c2.074-1.001,3.555-1.386,5.894-1.53c4.353-0.271,8.258,1.234,11.482,4.424c3.394,3.358,4.983,7.775,4.459,12.389
		c-0.42,3.695-1.828,6.559-4.567,9.283c-1.427,1.419-2.054,1.879-3.611,2.643c-1.036,0.508-2.423,1.066-3.082,1.24
		C530.193,608.522,526.676,608.606,524.966,608.224L524.966,608.224z M594.502,608.254c-3.215-0.691-5.356-1.861-7.682-4.195
		c-2.036-2.045-2.892-3.37-3.704-5.74c-1.48-4.314-1.032-8.912,1.25-12.822c1.163-1.991,3.837-4.559,5.857-5.623
		c2.515-1.325,4.312-1.756,7.271-1.744c2.895,0.017,4.273,0.316,6.685,1.48c5.151,2.486,8.48,7.83,8.48,13.611
		c0,2.608-0.424,4.421-1.6,6.842c-1.91,3.936-5.396,6.806-9.682,7.971C599.711,608.486,596.122,608.601,594.502,608.254
		L594.502,608.254z M422.806,586.883c-0.22-0.053-0.893-0.189-1.496-0.307c-1.457-0.283-4.411-1.734-5.835-2.865
		c-2.168-1.723-4.118-4.797-4.881-7.692c-0.409-1.557-0.453-5.435-0.074-6.784c2.021-7.224,7.95-11.577,15.129-11.106
		c7.86,0.516,13.809,7.311,13.369,15.273c-0.342,6.2-4.649,11.425-10.823,13.126C427.176,586.808,423.527,587.049,422.806,586.883
		L422.806,586.883z M490.971,586.783c-1.547-0.277-3.675-1.055-4.978-1.82c-1.719-1.01-4.396-3.783-5.26-5.451
		c-1.207-2.328-1.585-3.728-1.697-6.285c-0.128-2.947,0.219-4.659,1.46-7.183c1.688-3.435,4.991-6.199,8.859-7.413
		c1.943-0.61,5.754-0.646,7.776-0.074c4.079,1.155,7.325,3.841,9.173,7.586c1.01,2.046,1.439,3.91,1.448,6.285
		c0.019,4.078-1.359,7.455-4.19,10.286c-1.825,1.825-3.589,2.882-6.132,3.67C495.819,586.884,492.636,587.08,490.971,586.783
		L490.971,586.783z M560.083,586.866c-1.109-0.179-3.385-0.911-4.39-1.415c-3.725-1.867-6.507-5.318-7.602-9.431
		c-0.517-1.943-0.475-5.252,0.095-7.274c2.337-8.318,11.138-12.772,19.139-9.685c4.409,1.7,7.668,5.445,8.848,10.163
		c0.575,2.302,0.457,5.389-0.294,7.694c-1.523,4.676-5.337,8.3-10.085,9.583c-1.153,0.312-4.647,0.535-5.709,0.365H560.083z
		 M465.207,571.996c-0.494-0.222-1.822-0.642-2.951-0.933l-2.052-0.53l-0.044-8.38l-0.043-8.38l-2.992-0.056
		c-2.962-0.056-2.999-0.062-3.52-0.599c-0.453-0.467-0.763-1.515-2.244-7.584c-0.945-3.873-1.719-7.359-1.719-7.747
		c0-0.513,0.159-0.863,0.583-1.288l0.583-0.583h3.757c2.066,0,21.17,0,42.453,0c42.735,0,39.29-0.102,39.939,1.26
		c0.293,0.614,0.234,0.923-1.497,7.971c-0.991,4.033-1.897,7.51-2.013,7.727c-0.396,0.739-0.953,0.856-3.929,0.82l-2.858-0.034
		v8.674v8.674l-1.147,0.116c-0.631,0.064-2,0.251-3.043,0.417c-1.042,0.166-1.963,0.299-2.045,0.297
		c-0.083,0-0.149-5.287-0.149-11.744v-11.74l-26.887,0.019l-26.887,0.019l-0.052,12.022c-0.029,6.612-0.118,12.016-0.199,12.007
		c-0.083,0-0.553-0.196-1.046-0.417L465.207,571.996z M467.601,528.246c0-3.658,1.881-7.833,4.866-10.802
		c2.743-2.729,6.834-4.924,11.165-5.992l1.365-0.336l4.172,4.167l4.171,4.167l4.168-4.165l4.168-4.165l0.723,0.135
		c1.15,0.216,4.129,1.241,5.731,1.974c2.401,1.097,4.354,2.47,6.26,4.403c2.828,2.867,4.321,5.982,4.647,9.691
		c0.087,1.002,0.118,1.863,0.067,1.914c-0.052,0.052-11.66,0.093-25.798,0.093h-25.706V528.246L467.601,528.246z M490.847,506.702
		c-4.265-0.832-7.866-3.539-9.746-7.328c-1.088-2.191-1.52-3.998-1.524-6.375c-0.017-5.046,2.883-9.815,7.352-12.12
		c2.433-1.254,3.539-1.512,6.513-1.513c2.323,0,2.761,0.056,4.19,0.555c2.35,0.817,3.602,1.606,5.406,3.404
		c1.896,1.89,3.044,3.818,3.684,6.188c0.366,1.357,0.419,1.979,0.345,4.099c-0.141,4.001-1.188,6.405-4.048,9.287
		c-2.477,2.496-5.424,3.789-9.078,3.985C492.932,506.937,491.676,506.863,490.847,506.702L490.847,506.702z"/>
</g>
</svg>
