<svg xmlns="http://www.w3.org/2000/svg" width="310.375" height="233.43" viewBox="0 0 310.375 233.43"><path d="M54.729 203.156c0-12.06-.064-11.631 2.075-13.795.669-.678 1.327-1.267 1.46-1.307.135-.041.47-.973.744-2.07 2.48-9.928 11.707-15.055 27.104-15.062 4.726 0 9.61.678 13.11 1.825 7.174 2.353 11.93 7.186 13.287 13.503.314 1.465.422 1.684.996 2.039.968.598 2.062 1.9 2.65 3.158l.526 1.12.057 10.432.056 10.43-3.45-.055-3.447-.056-.052-9.404c-.046-8.402-.086-9.434-.377-9.674-.27-.223-4.353-.271-23.576-.274-15.673 0-23.387.063-23.667.202-.41.205-.416.33-.515 9.68l-.1 9.47-3.441.057-3.441.055v-10.274zm69.37 10.13c-.23-.23-.151-18.84.085-20.124.37-2.005 1.354-3.545 3.13-4.9.552-.422.713-.747 1.034-2.092 1.552-6.498 6.157-11.111 13.4-13.422 4.464-1.425 8.718-1.93 14.93-1.773 5.882.146 9.41.766 13.513 2.364 6.26 2.439 10.437 7.06 11.736 12.979.307 1.398.4 1.573 1.093 2.03.972.644 2.055 1.968 2.64 3.23l.46.99v20.752l-3.44.055-3.442.055v-18.956l-.45-.271c-.372-.227-4.376-.266-23.693-.23-12.784.024-23.343.056-23.462.067-.613.068-.681 1.088-.681 10.21v9.169h-3.36c-1.848 0-3.42-.058-3.492-.132zm69.437 0c-.074-.073-.134-4.5-.134-9.835 0-10.8.04-11.211 1.298-13.113.375-.567 1.013-1.285 1.416-1.596 1.239-.951 1.477-1.241 1.479-1.811 0-.302.302-1.418.668-2.48 3.11-9.023 12.009-13.531 26.706-13.531 9.885 0 17.67 2.573 22.085 7.299 2.212 2.369 3.65 5.112 4.296 8.187.227 1.08.398 1.439.847 1.765 1.34.972 1.906 1.636 2.61 3.06l.75 1.517v20.574l-3.442.055-3.441.055v-9.345c0-7.737-.048-9.411-.282-9.73-.276-.377-.785-.386-23.791-.39-22.207 0-23.528.018-23.861.348-.326.326-.353 1.033-.353 9.729v9.378h-3.358c-1.85-.002-3.421-.061-3.493-.135zM20.055 186.035l.056-10.426.528-1.097c.574-1.194 1.456-2.24 2.593-3.073.586-.431.753-.706.86-1.426.074-.491.347-1.518.606-2.282 2.54-7.467 9.204-11.928 19.836-13.277 2.162-.275 3.655-.32 7.782-.23 5.065.109 7.03.32 9.71 1.046l1.215.328.438 1.492c.889 3.019 2.804 6.499 4.784 8.69.608.674.638.76.304.877-4.723 1.662-9.034 4.672-11.892 8.3l-1.216 1.543-14.141.053c-12.312.046-14.165.093-14.33.353-.111.178-.19 4.21-.192 9.928v9.627h-6.998l.058-10.426h-.001zm263.337.848c0-9.312-.018-9.59-.4-9.976-.391-.393-.664-.4-14.42-.4H254.55l-.872-1.196c-1.234-1.695-3.813-4.105-5.822-5.44-1.46-.971-3.83-2.192-6.02-3.104l-.55-.23 1.01-1.25c1.86-2.301 3.729-5.987 4.395-8.675l.258-1.04 1.792-.42c2.906-.682 6.144-.993 10.407-1.001 5.832-.018 9.628.514 13.803 1.904 3.46 1.154 5.805 2.502 8.077 4.646 2.57 2.425 3.993 4.88 4.883 8.42.358 1.429.588 1.972.925 2.189.852.55 2.245 2.117 2.69 3.029.248.503.54 1.389.65 1.968.116.61.199 5.063.199 10.604v9.55H283.393v-9.578h-.001zm-164.774-4.432c-.624-1.974-2.234-5.186-3.33-6.642-2.922-3.89-7.1-6.977-12.125-8.964l-.752-.297 1.277-1.583c.703-.87 1.616-2.188 2.03-2.927.828-1.481 1.973-4.376 2.19-5.546.166-.876.337-.985 2.19-1.402 3.95-.888 11.567-1.236 16.062-.735 2.03.226 6.015.966 6.327 1.175.104.07.438.935.742 1.922.886 2.875 2.216 5.369 4.146 7.779.526.656.957 1.24.957 1.298 0 .056-.562.317-1.247.578-1.607.612-4.73 2.35-6.356 3.538-3.846 2.809-7.011 7.197-8.471 11.748l-.448 1.396-1.366.059-1.366.058-.46-1.455zm69.413 0c-2.15-6.731-7.718-12.508-14.681-15.231-.77-.3-1.431-.572-1.472-.605s.28-.49.715-1.016c2.009-2.43 3.5-5.15 4.356-7.942.302-.985.617-1.87.702-1.966.086-.096.844-.338 1.687-.538 5.729-1.365 15.629-1.351 21.129.033l1.615.405.456 1.625c.679 2.422 2.04 5.114 3.712 7.338l1.488 1.982-.732.33c-4.593 2.08-6.624 3.324-8.881 5.445-3.302 3.102-5.313 6.35-6.715 10.84l-.233.748h-2.685l-.461-1.448zM82.465 166.447c-1.57-.355-4.123-1.39-5.362-2.17-1.602-1.01-4.01-3.517-5.082-5.291-4.324-7.151-2.416-16.467 4.358-21.28 1.639-1.165 2.956-1.798 5.026-2.416 2.353-.702 5.91-.743 8.342-.096 8.663 2.307 13.704 10.95 11.473 19.674-1.443 5.645-6.334 10.3-12.071 11.49-2.055.428-5.02.467-6.684.089zm69.65.073c-4.374-.857-8.532-3.775-10.75-7.543-1.385-2.352-2.071-4.68-2.188-7.416-.203-4.757 1.228-8.624 4.412-11.931 7.737-8.034 21.11-5.935 25.953 4.075 1.807 3.734 2.112 7.827.884 11.813-1.69 5.479-6.38 9.747-11.982 10.9-1.64.34-4.857.39-6.33.102zm69.122-.08c-5.982-1.318-10.797-5.941-12.263-11.774-.551-2.192-.555-5.634-.017-7.8.493-1.961 1.9-4.836 3.035-6.203 2.364-2.847 5.746-4.922 9.237-5.668 1.827-.392 5.487-.3 7.309.184 4.547 1.205 8.59 4.564 10.499 8.727 1.018 2.217 1.464 4.254 1.468 6.7 0 4.63-1.538 8.36-4.771 11.508-2.378 2.315-4.052 3.262-7.321 4.14-2.07.557-5.148.638-7.184.189l.008-.002zm-173.39-17.593c-7.342-1.573-12.49-8.358-12.004-15.822.139-2.118.41-3.277 1.224-5.196 2.719-6.418 9.846-10.215 16.698-8.896 5.254 1.01 9.494 4.492 11.437 9.39 2.656 6.702.185 14.45-5.854 18.358-3.366 2.175-7.67 2.986-11.5 2.166zm70.433.202c-5.035-.806-9.283-3.896-11.481-8.352-1.205-2.441-1.488-3.752-1.488-6.883 0-2.266.074-2.932.468-4.19 2.138-6.847 8.43-11.304 15.395-10.907 2.444.139 3.849.517 6.186 1.662 1.625.797 2.169 1.203 3.803 2.842 1.635 1.64 2.038 2.185 2.827 3.809 1.572 3.238 2.028 6.143 1.47 9.352-1.045 6.002-5.343 10.727-11.192 12.304-1.198.32-4.856.544-5.988.363zm68.439-.19c-4.494-1.002-8.32-3.91-10.377-7.89-3.93-7.597-.835-17.048 6.786-20.725 2.074-1.001 3.555-1.386 5.894-1.53 4.353-.271 8.258 1.234 11.482 4.424 3.394 3.358 4.983 7.775 4.459 12.389-.42 3.695-1.828 6.559-4.567 9.283-1.427 1.419-2.054 1.879-3.611 2.643-1.036.508-2.423 1.066-3.082 1.24-1.757.464-5.274.548-6.984.166zm69.536.03c-3.215-.691-5.356-1.861-7.682-4.195-2.036-2.045-2.892-3.37-3.704-5.74-1.48-4.314-1.032-8.912 1.25-12.822 1.163-1.991 3.837-4.56 5.857-5.623 2.515-1.325 4.312-1.756 7.27-1.744 2.896.017 4.274.316 6.686 1.48 5.15 2.486 8.48 7.83 8.48 13.61 0 2.609-.424 4.422-1.6 6.843-1.91 3.936-5.396 6.806-9.682 7.97-1.666.453-5.255.568-6.875.22zM84.559 127.518c-.22-.053-.893-.19-1.496-.307-1.457-.283-4.411-1.734-5.835-2.865-2.168-1.723-4.118-4.797-4.881-7.692-.41-1.557-.453-5.435-.074-6.784 2.02-7.224 7.95-11.577 15.129-11.106 7.86.516 13.809 7.31 13.369 15.273-.342 6.2-4.65 11.425-10.823 13.126-1.02.28-4.668.52-5.39.355zm68.165-.1c-1.547-.277-3.675-1.055-4.978-1.82-1.72-1.01-4.396-3.783-5.26-5.451-1.207-2.328-1.585-3.728-1.697-6.285-.128-2.947.219-4.66 1.46-7.183 1.688-3.435 4.99-6.2 8.859-7.413 1.943-.61 5.754-.646 7.776-.074 4.079 1.155 7.325 3.84 9.173 7.586 1.01 2.046 1.439 3.91 1.448 6.285.019 4.078-1.36 7.455-4.19 10.286-1.825 1.825-3.59 2.882-6.132 3.67-1.611.5-4.794.696-6.46.399zm69.112.083c-1.11-.18-3.385-.911-4.39-1.415-3.725-1.867-6.507-5.318-7.602-9.431-.517-1.943-.475-5.252.095-7.274 2.337-8.318 11.138-12.772 19.139-9.685 4.409 1.7 7.668 5.445 8.848 10.163.575 2.302.457 5.389-.294 7.694a14.66 14.66 0 0 1-10.085 9.583c-1.153.312-4.647.535-5.71.365h-.001zm-94.876-14.87c-.494-.222-1.822-.642-2.951-.933l-2.052-.53-.044-8.38-.043-8.38-2.992-.056c-2.962-.056-3-.062-3.52-.6-.453-.466-.763-1.514-2.244-7.583-.945-3.873-1.72-7.36-1.72-7.747 0-.513.16-.863.584-1.288l.583-.583h46.21c42.735 0 39.29-.102 39.939 1.26.293.614.234.923-1.497 7.97-.991 4.034-1.897 7.51-2.013 7.728-.396.739-.953.856-3.93.82l-2.857-.034v17.348l-1.147.116c-.631.064-2 .25-3.043.417-1.042.166-1.963.299-2.045.297-.083 0-.15-5.287-.15-11.744v-11.74l-26.886.019-26.887.019-.052 12.022c-.03 6.612-.118 12.016-.2 12.007-.082 0-.552-.196-1.045-.417l.002-.008zm2.394-43.75c0-3.658 1.88-7.833 4.866-10.802 2.743-2.73 6.834-4.924 11.165-5.992l1.365-.336 4.172 4.167 4.17 4.167 4.169-4.165 4.168-4.165.723.135c1.15.216 4.129 1.24 5.73 1.974 2.402 1.097 4.355 2.47 6.26 4.403 2.829 2.867 4.322 5.982 4.648 9.69.087 1.003.118 1.864.067 1.915-.052.052-11.66.093-25.798.093h-25.706V68.88zM152.6 47.337c-4.265-.832-7.866-3.54-9.746-7.328-1.088-2.191-1.52-3.998-1.524-6.375-.017-5.046 2.883-9.815 7.352-12.12 2.433-1.254 3.539-1.512 6.513-1.513 2.323 0 2.76.056 4.19.555 2.35.817 3.602 1.606 5.406 3.404 1.896 1.89 3.044 3.818 3.684 6.188.366 1.357.419 1.979.345 4.099-.141 4-1.188 6.405-4.048 9.287-2.477 2.496-5.424 3.789-9.078 3.985-1.01.053-2.265-.021-3.094-.182z"/></svg>