<?xml version="1.0" encoding="utf-8"?>
<!-- Generator: Adobe Illustrator 16.0.4, SVG Export Plug-In . SVG Version: 6.00 Build 0)  -->
<!DOCTYPE svg PUBLIC "-//W3C//DTD SVG 1.1//EN" "http://www.w3.org/Graphics/SVG/1.1/DTD/svg11.dtd">
<svg version="1.1" xmlns="http://www.w3.org/2000/svg" xmlns:xlink="http://www.w3.org/1999/xlink" x="0px" y="0px"
	 width="466.667px" height="156.667px" viewBox="0 0 466.667 156.667" style="enable-background:new 0 0 466.667 156.667;"
	 xml:space="preserve">
<style type="text/css">
<![CDATA[
	.st0{clip-path:url(#SVGID_29_);fill:url(#SVGID_30_);}
	.st1{clip-path:url(#SVGID_44_);fill:url(#SVGID_45_);}
	.st2{clip-path:url(#SVGID_47_);fill:url(#SVGID_48_);}
	.st3{clip-path:url(#SVGID_2_);fill:url(#SVGID_3_);}
	.st4{fill:#1D1D1B;}
	.st5{fill:#B9A25F;}
	.st6{clip-path:url(#SVGID_11_);fill:url(#SVGID_12_);}
	.st7{clip-path:url(#SVGID_14_);fill:url(#SVGID_15_);}
	.st8{clip-path:url(#SVGID_5_);fill:url(#SVGID_6_);}
	.st9{clip-path:url(#SVGID_17_);fill:url(#SVGID_18_);}
	.st10{clip-path:url(#SVGID_32_);fill:url(#SVGID_33_);}
	.st11{clip-path:url(#SVGID_35_);fill:url(#SVGID_36_);}
	.st12{clip-path:url(#SVGID_38_);fill:url(#SVGID_39_);}
	.st13{fill:#FFFFFF;}
	.st14{display:inline;}
	.st15{display:none;}
	.st16{clip-path:url(#SVGID_8_);fill:url(#SVGID_9_);}
	.st17{clip-path:url(#SVGID_20_);fill:url(#SVGID_21_);}
	.st18{clip-path:url(#SVGID_23_);fill:url(#SVGID_24_);}
	.st19{clip-path:url(#SVGID_26_);fill:url(#SVGID_27_);}
	.st20{clip-path:url(#SVGID_41_);fill:url(#SVGID_42_);}
]]>
</style>
<g id="full_colour" class="st15">
	<g class="st14">
		<g>
			<defs>
				<path id="SVGID_1_" d="M232.681,69.886l0.001,0.003c0,0-0.011-0.003-0.013-0.003h-2.972c-10.803,0-24.591,5.403-32.268,34.864
					c39.068,0.102,182.335,0.443,204.833,0.443c45.975,0,58.127-35.307,58.127-35.307H232.681z"/>
			</defs>
			<clipPath id="SVGID_2_">
				<use xlink:href="#SVGID_1_"  style="overflow:visible;"/>
			</clipPath>
			
				<radialGradient id="SVGID_3_" cx="-195.3091" cy="385.0225" r="1" gradientTransform="matrix(173.0303 169.8915 169.8915 -173.0303 -31370.9629 99765.7188)" gradientUnits="userSpaceOnUse">
				<stop  offset="0" style="stop-color:#DFD3B6"/>
				<stop  offset="0.3987" style="stop-color:#BAA361"/>
				<stop  offset="0.8144" style="stop-color:#988650"/>
				<stop  offset="1" style="stop-color:#988650"/>
			</radialGradient>
			<polygon class="st3" points="326.502,-61.572 478.04,87.217 331.316,236.651 179.779,87.863 			"/>
		</g>
		<g>
			<polygon class="st5" points="100.337,21.97 103.916,7.6 34.481,7.6 21.967,73.146 43.879,56.966 50.044,21.97 			"/>
		</g>
		<g>
			<defs>
				<path id="SVGID_4_" d="M21.967,73.146l-0.023,0.136H48.21c18.733,0,25.453,6.923,25.453,20.973
					c0,21.177-10.996,35.227-32.375,35.227c-12.015,0-23.62-1.831-32.987-4.684c-1.425,3.259-2.24,7.33-2.443,11.199
					c0,1.019,0,2.036,0.203,3.259c8.349,3.664,21.177,5.7,35.837,5.7c35.227,0,52.738-24.027,52.534-53.144
					c-0.204-22.399-14.457-34.005-40.52-34.005H43.731l0.149-0.842L21.967,73.146z"/>
			</defs>
			<clipPath id="SVGID_5_">
				<use xlink:href="#SVGID_4_"  style="overflow:visible;"/>
			</clipPath>
			
				<radialGradient id="SVGID_6_" cx="-195.3687" cy="384.9434" r="1" gradientTransform="matrix(-59.6986 -104.0461 -104.0461 59.6986 28482.7969 -43141.1523)" gradientUnits="userSpaceOnUse">
				<stop  offset="0" style="stop-color:#DFD3B6"/>
				<stop  offset="0.3987" style="stop-color:#BAA361"/>
				<stop  offset="0.8144" style="stop-color:#988650"/>
				<stop  offset="1" style="stop-color:#988650"/>
			</radialGradient>
			<polygon class="st8" points="27.847,183.278 -32.124,78.758 72.648,18.643 132.619,123.163 			"/>
		</g>
		<g>
			<path class="st4" d="M266.833,16.117l-18.451,26.757l-3.411,19.852c-1.573,0.264-3.322,0.437-5.334,0.437
				c-1.924,0-3.761-0.173-5.247-0.437l3.672-20.987l-7.87-24.486c-1.224-3.673-1.748-7.171-1.748-9.969
				c0-1.312,0.175-2.537,0.35-3.673c1.398-0.175,3.061-0.35,4.81-0.35c1.662,0,3.411,0.086,4.81,0.35
				c-0.175,1.049-0.262,2.185-0.262,3.323c0,2.449,0.437,4.897,1.398,8.045l3.236,10.582c0.874,2.799,1.661,5.509,2.011,7.783h0.175
				c1.051-2.186,2.624-4.635,4.198-6.91l8.657-12.679c1.924-2.799,3.41-6.733,4.022-10.144c1.486-0.264,3.411-0.437,5.072-0.437
				c1.836,0,3.322,0.173,4.722,0.437C271.032,8.333,269.544,12.181,266.833,16.117"/>
			<path class="st4" d="M305.663,62.726H269.72L280.127,3.61h34.63c0.087,0.35,0.087,0.875,0.087,1.4
				c0,2.448-0.699,4.983-1.66,7.432h-24.048l-2.712,15.391h20.55c0.088,0.438,0.088,0.963,0.088,1.576
				c0,2.272-0.613,4.897-1.662,7.257h-20.55l-2.974,17.228h25.098c0.088,0.612,0.088,1.311,0.088,1.661
				C307.062,58.179,306.538,60.714,305.663,62.726"/>
			<path class="st4" d="M363.818,62.726c-1.05,0.263-3.148,0.437-5.422,0.437c-1.749,0-4.548-0.174-5.684-0.437l-1.926-13.555
				h-20.461l-6.646,13.555c-1.576,0.263-3.762,0.437-5.773,0.437c-1.749,0-4.721-0.174-5.858-0.437L341.955,3.61
				c1.399-0.264,4.023-0.437,5.511-0.437c1.572,0,4.109,0.173,5.509,0.437L363.818,62.726z M349.476,40.426l-2.537-16.264
				c-0.35-2.187-0.699-4.811-0.961-7.872h-0.35c-1.225,3.061-2.188,5.247-3.587,8.222l-7.519,15.914H349.476z"/>
			<path class="st4" d="M412.79,62.726c-1.484,0.263-3.41,0.437-5.596,0.437c-2.012,0-4.112-0.174-5.684-0.437l-8.745-22.473h-6.734
				l-3.936,22.473c-1.922,0.263-3.585,0.437-5.509,0.437c-1.749,0-3.409-0.174-5.072-0.437L381.921,3.61
				c3.672-0.174,11.194-0.436,15.564-0.436c11.806,0,19.416,3.848,19.416,15.478c0,8.22-4.636,17.753-14.431,20.113L412.79,62.726z
				 M406.144,19.088c0-5.597-3.322-7.519-9.008-7.519c-2.012,0-5.07,0.087-6.384,0.173l-3.233,19.939h5.856
				C401.333,31.681,406.144,26.959,406.144,19.088"/>
			<path class="st4" d="M437.191,63.601c-6.907,0-13.467-1.399-18.189-3.498c0-1.311,0-2.624,0.262-3.936
				c0.264-1.749,0.788-3.498,1.487-5.159c4.46,2.099,11.369,3.587,16.18,3.587c8.132,0,12.329-2.799,12.329-8.572
				c0-5.159-2.712-6.733-9.357-9.706c-9.007-4.023-13.729-9.27-13.729-17.052c0-10.144,8.133-16.529,21.862-16.529
				c5.686,0,10.583,1.05,14.431,2.361c0.086,0.876,0,2.712-0.264,4.024c-0.263,1.572-0.699,3.148-1.312,4.634
				c-3.498-1.313-8.396-2.362-12.416-2.362c-6.734,0-11.282,2.187-11.282,7.172c0,3.76,2.188,6.47,9.445,9.795
				c7.783,3.584,13.467,6.996,13.467,16.702C460.103,55.644,452.669,63.601,437.191,63.601"/>
		</g>
		<g>
			<path class="st13" d="M258.188,78.906c0,0.704-0.182,1.317-0.432,1.839c-0.84-0.34-2.021-0.636-3.178-0.636
				c-2.725,0-5.858,2.112-5.858,7.266c0,2.748,1.453,3.815,4.019,3.815c0.954,0,2.248-0.205,3.179-0.455
				c0.068,0.387,0.114,0.841,0.114,1.295c0,0.363-0.023,0.727-0.092,1.021c-0.953,0.295-2.406,0.5-3.678,0.5
				c-4.382,0-6.402-2.316-6.402-5.995c0-6.199,3.973-9.809,8.65-9.809c1.453,0,2.701,0.34,3.655,0.794
				C258.188,78.68,258.188,78.815,258.188,78.906z"/>
			<path class="st13" d="M267.792,88.284h-7.288v0.431c0.022,1.839,0.886,2.793,2.838,2.793c1.204,0,2.18-0.159,3.021-0.386
				c0.113,0.658,0.136,1.385,0.067,1.952c-0.908,0.318-2.065,0.478-3.587,0.478c-3.383,0-5.041-1.885-5.041-4.95
				c0-3.724,1.976-7.334,6.289-7.334c2.702,0,4.11,1.635,4.11,4.201C268.201,86.286,268.042,87.353,267.792,88.284z M265.543,86.286
				c0.046-0.227,0.092-0.613,0.092-0.908c0-1.135-0.363-2.089-1.794-2.089c-1.771,0-2.747,1.453-3.021,2.997H265.543z"/>
			<path class="st13" d="M271.81,93.324c-0.386,0.068-0.976,0.113-1.362,0.113c-0.432,0-0.908-0.045-1.271-0.113l2.93-16.575
				c0.453-0.068,0.931-0.091,1.316-0.091c0.454,0,0.953,0.023,1.316,0.091L271.81,93.324z"/>
			<path class="st13" d="M284.933,88.284h-7.288v0.431c0.022,1.839,0.886,2.793,2.838,2.793c1.203,0,2.18-0.159,3.02-0.386
				c0.114,0.658,0.137,1.385,0.068,1.952c-0.908,0.318-2.066,0.478-3.587,0.478c-3.384,0-5.041-1.885-5.041-4.95
				c0-3.724,1.976-7.334,6.29-7.334c2.701,0,4.109,1.635,4.109,4.201C285.342,86.286,285.183,87.353,284.933,88.284z
				 M282.686,86.286c0.045-0.227,0.09-0.613,0.09-0.908c0-1.135-0.363-2.089-1.793-2.089c-1.771,0-2.748,1.453-3.02,2.997H282.686z"
				/>
			<path class="st13" d="M291.04,93.552c-1.726,0-3.542-0.273-4.677-0.727l2.838-16.076c0.363-0.068,0.84-0.091,1.294-0.091
				c0.522,0,1.045,0.023,1.34,0.091l-0.977,5.654c0.795-0.636,2.021-1.136,3.088-1.136c2.793,0,3.86,2.021,3.86,4.405
				C297.806,89.714,295.808,93.552,291.04,93.552z M295.082,85.945c0-1.34-0.432-2.475-1.953-2.475c-0.84,0-1.952,0.431-2.679,1.09
				l-1.181,6.766c0.454,0.136,1.249,0.204,1.861,0.204C293.764,91.53,295.082,88.852,295.082,85.945z"/>
			<path class="st13" d="M307.046,83.743c-1.226,0.114-2.906,0.659-4.019,1.453l-1.408,8.128c-0.34,0.091-0.885,0.113-1.34,0.113
				c-0.453,0-0.998-0.045-1.294-0.113l2.089-11.829c0.318-0.068,0.727-0.114,1.09-0.114c0.341,0,0.795,0.045,1.067,0.114
				l-0.136,1.771h0.022c0.976-0.999,2.906-1.975,4.359-1.998C307.456,81.994,307.274,83.13,307.046,83.743z"/>
			<path class="st13" d="M318.739,82.153l-1.294,6.902c-0.25,1.294-0.363,2.838-0.409,4.269c-0.34,0.091-0.816,0.113-1.157,0.113
				c-0.363,0-0.817-0.045-1.09-0.113c-0.046-0.499-0.046-1.136-0.046-1.657h-0.022c-0.772,1.066-1.998,1.885-3.587,1.885
				c-2.18,0-3.633-1.612-3.633-4.405c0-4.586,3.133-7.879,7.038-7.879C316.264,81.268,317.786,81.654,318.739,82.153z
				 M315.833,83.516c-0.363-0.113-0.84-0.204-1.385-0.204c-2.384,0-4.223,2.429-4.223,5.631c0,1.68,0.612,2.384,1.611,2.384
				c1.113,0,2.135-0.727,2.906-1.93L315.833,83.516z"/>
			<path class="st13" d="M326.572,93.233c-0.658,0.182-1.431,0.341-2.565,0.341c-2.361,0-3.293-1.022-3.293-2.565
				c0-0.363,0.114-1.249,0.341-2.521l0.908-5.063h-1.93c-0.046-0.272-0.022-0.681,0.022-0.954c0.046-0.25,0.159-0.613,0.272-0.84
				l1.976-0.113l0.522-3.065c0.317-0.068,0.908-0.091,1.339-0.091c0.455,0,1,0.023,1.295,0.091l-0.522,3.043h3.36
				c0.045,0.272,0,0.636-0.045,0.885c-0.046,0.272-0.182,0.772-0.296,1.044h-3.36l-0.977,5.381
				c-0.113,0.568-0.204,1.295-0.204,1.658c0,0.612,0.363,1.021,1.227,1.021c0.727,0,1.453-0.113,2.043-0.272
				C326.753,91.825,326.685,92.711,326.572,93.233z"/>
			<path class="st13" d="M338.241,88.284h-7.288v0.431c0.022,1.839,0.886,2.793,2.838,2.793c1.204,0,2.18-0.159,3.021-0.386
				c0.113,0.658,0.136,1.385,0.067,1.952c-0.908,0.318-2.065,0.478-3.587,0.478c-3.383,0-5.041-1.885-5.041-4.95
				c0-3.724,1.976-7.334,6.289-7.334c2.702,0,4.11,1.635,4.11,4.201C338.65,86.286,338.491,87.353,338.241,88.284z M335.993,86.286
				c0.046-0.227,0.092-0.613,0.092-0.908c0-1.135-0.363-2.089-1.794-2.089c-1.771,0-2.747,1.453-3.021,2.997H335.993z"/>
			<path class="st13" d="M360.127,84.878l-3.904,8.446c-0.318,0.091-0.977,0.113-1.363,0.113c-0.431,0-1.09-0.045-1.385-0.113
				l-0.749-7.924h-0.022l-3.656,7.924c-0.317,0.068-0.908,0.113-1.294,0.113c-0.431,0-1.067-0.045-1.316-0.113l-1.112-9.082
				c-0.092-0.795-0.114-1.703,0.067-2.747c0.363-0.068,0.817-0.114,1.249-0.114s1.021,0.045,1.316,0.114
				c-0.136,0.862-0.182,1.839-0.113,2.747l0.409,6.04h0.045l3.814-8.765c0.296-0.045,0.772-0.113,1.204-0.113
				c0.386,0,0.771,0.045,1.044,0.113l0.908,8.854h0.046l2.52-6.198c0.363-0.862,0.727-1.793,0.863-2.679
				c0.317-0.068,0.885-0.114,1.271-0.114c0.454,0,0.977,0.045,1.226,0.114C361.082,82.676,360.65,83.743,360.127,84.878z"/>
			<path class="st13" d="M363.874,93.324c-0.408,0.091-0.999,0.113-1.362,0.113c-0.432,0-0.908-0.045-1.249-0.113l2.066-11.829
				c0.432-0.068,0.908-0.114,1.294-0.114c0.454,0,0.931,0.045,1.317,0.114L363.874,93.324z M364.986,79.747
				c-0.817,0-1.339-0.613-1.339-1.317c0-1.067,0.727-1.68,1.68-1.68c0.749,0,1.408,0.568,1.385,1.294
				C366.711,79.043,366.098,79.747,364.986,79.747z"/>
			<path class="st13" d="M373.863,93.233c-0.658,0.182-1.431,0.341-2.565,0.341c-2.361,0-3.293-1.022-3.293-2.565
				c0-0.363,0.114-1.249,0.341-2.521l0.908-5.063h-1.93c-0.046-0.272-0.022-0.681,0.022-0.954c0.046-0.25,0.159-0.613,0.272-0.84
				l1.976-0.113l0.522-3.065c0.317-0.068,0.908-0.091,1.339-0.091c0.455,0,1,0.023,1.295,0.091l-0.522,3.043h3.36
				c0.045,0.272,0,0.636-0.045,0.885c-0.046,0.272-0.182,0.772-0.296,1.044h-3.36l-0.977,5.381
				c-0.113,0.568-0.204,1.295-0.204,1.658c0,0.612,0.363,1.021,1.227,1.021c0.727,0,1.453-0.113,2.043-0.272
				C374.044,91.825,373.976,92.711,373.863,93.233z"/>
			<path class="st13" d="M380.243,82.494c1.045-0.704,2.248-1.227,3.701-1.227c1.861,0,3.338,0.977,3.338,2.929
				c0,0.59-0.137,1.567-0.363,2.77l-1.136,6.357c-0.341,0.091-0.908,0.113-1.271,0.113c-0.386,0-0.977-0.045-1.34-0.113l1.136-6.267
				c0.158-0.84,0.227-1.589,0.227-1.953c0-1.067-0.636-1.567-1.703-1.567c-1.112,0-2.18,0.5-2.974,1.09l-1.544,8.696
				c-0.454,0.068-1.021,0.113-1.408,0.113c-0.363,0-0.84-0.022-1.226-0.113l2.929-16.575c0.341-0.068,0.863-0.091,1.316-0.091
				c0.455,0,1,0.023,1.317,0.091L380.243,82.494z"/>
			<path class="st13" d="M403.832,88.533c-0.613,3.61-1.885,5.041-5.563,5.041c-2.929,0-4.359-0.999-4.359-3.134
				c0-0.521,0.137-1.521,0.296-2.361l1.181-6.584c0.317-0.068,0.84-0.114,1.316-0.114c0.454,0,0.977,0.023,1.317,0.114l-1.158,6.562
				c-0.136,0.749-0.25,1.544-0.25,1.907c0,1.067,0.454,1.612,1.839,1.612c1.84,0,2.453-1.045,2.839-3.338l1.135-6.743
				c0.318-0.091,0.886-0.114,1.34-0.114s0.999,0.045,1.271,0.114L403.832,88.533z"/>
			<path class="st13" d="M409.076,93.574c-1.249,0-2.634-0.204-3.587-0.591c0-0.59,0.136-1.362,0.363-1.975
				c0.84,0.363,2.043,0.612,3.155,0.612c1.249,0,2.565-0.317,2.565-1.566c0-0.908-1.021-1.271-2.27-1.907
				c-1.635-0.84-2.476-1.771-2.476-3.292c0-2.521,2.226-3.588,4.769-3.588c0.953,0,2.134,0.205,2.793,0.432
				c0.022,0.113,0.022,0.227,0.022,0.341c0,0.545-0.159,1.135-0.386,1.612c-0.772-0.25-1.703-0.409-2.589-0.409
				c-0.954,0-2.044,0.295-2.044,1.385c0,0.772,0.659,1.227,1.84,1.839c1.68,0.885,2.883,1.567,2.883,3.383
				C414.116,92.394,412.028,93.574,409.076,93.574z"/>
		</g>
		<g>
			<path class="st4" d="M200.127,131.593l-1.548,8.257c-0.298,1.549-0.435,3.396-0.489,5.106c-0.407,0.108-0.978,0.136-1.385,0.136
				c-0.435,0-0.978-0.055-1.304-0.136c-0.054-0.598-0.054-1.358-0.054-1.982h-0.027c-0.924,1.276-2.391,2.254-4.292,2.254
				c-2.607,0-4.346-1.929-4.346-5.27c0-5.486,3.748-9.424,8.419-9.424C197.167,130.534,198.986,130.995,200.127,131.593z
				 M196.65,133.223c-0.435-0.136-1.005-0.244-1.657-0.244c-2.852,0-5.052,2.906-5.052,6.735c0,2.01,0.733,2.852,1.928,2.852
				c1.331,0,2.553-0.869,3.477-2.309L196.65,133.223z"/>
			<path class="st4" d="M209.467,144.848c-0.788,0.217-1.711,0.407-3.069,0.407c-2.825,0-3.938-1.223-3.938-3.069
				c0-0.435,0.136-1.494,0.407-3.015l1.086-6.057h-2.309c-0.054-0.326-0.027-0.815,0.027-1.141c0.054-0.299,0.19-0.733,0.326-1.005
				l2.363-0.136l0.625-3.667c0.38-0.082,1.086-0.108,1.603-0.108c0.543,0,1.195,0.026,1.548,0.108l-0.625,3.64h4.02
				c0.054,0.325,0,0.76-0.055,1.059c-0.054,0.326-0.217,0.924-0.353,1.25h-4.02l-1.168,6.437c-0.136,0.68-0.245,1.549-0.245,1.983
				c0,0.733,0.435,1.222,1.467,1.222c0.869,0,1.738-0.136,2.444-0.326C209.685,143.163,209.603,144.223,209.467,144.848z"/>
		</g>
		<g>
			<path class="st4" d="M242.789,116.77c0,1.376-0.354,2.575-0.843,3.596c-1.643-0.666-3.95-1.243-6.215-1.243
				c-5.326,0-11.452,4.128-11.452,14.204c0,5.371,2.84,7.457,7.856,7.457c1.865,0,4.396-0.399,6.215-0.888
				c0.133,0.755,0.222,1.643,0.222,2.53c0,0.71-0.044,1.421-0.177,1.998c-1.864,0.576-4.705,0.977-7.191,0.977
				c-8.567,0-12.517-4.528-12.517-11.719c0-12.118,7.767-19.176,16.912-19.176c2.841,0,5.282,0.666,7.146,1.554
				C242.789,116.326,242.789,116.592,242.789,116.77z"/>
			<path class="st4" d="M243.545,134.037c0-11.098,6.304-19.531,14.826-19.531c6.436,0,10.608,4.217,10.608,11.363
				c0,11.097-6.303,19.531-14.825,19.531C247.718,145.4,243.545,141.183,243.545,134.037z M263.387,126.18
				c0-4.749-1.643-7.146-5.326-7.146c-5.46,0-8.922,7.635-8.922,14.692c0,4.75,1.642,7.146,5.326,7.146
				C259.925,140.872,263.387,133.237,263.387,126.18z"/>
			<path class="st4" d="M276.352,114.95c0.799-0.134,1.731-0.223,2.663-0.223c0.977,0,1.953,0.089,2.708,0.223l-4.527,25.522h13.095
				c0.044,0.311,0.044,0.666,0.044,0.844c0,1.331-0.267,2.619-0.71,3.64H271.07L276.352,114.95z"/>
			<path class="st4" d="M312.176,144.956h-18.244l5.282-30.006h17.578c0.044,0.178,0.044,0.443,0.044,0.71
				c0,1.243-0.354,2.53-0.843,3.772h-12.207l-1.376,7.812h10.431c0.045,0.222,0.045,0.488,0.045,0.799
				c0,1.154-0.311,2.486-0.844,3.685h-10.431l-1.51,8.744h12.739c0.045,0.311,0.045,0.666,0.045,0.844
				C312.886,142.647,312.62,143.936,312.176,144.956z"/>
			<path class="st4" d="M338.412,144.956c-0.754,0.133-1.73,0.222-2.841,0.222c-1.021,0-2.086-0.089-2.885-0.222l-4.439-11.407
				h-3.417l-1.998,11.407c-0.977,0.133-1.819,0.222-2.796,0.222c-0.888,0-1.731-0.089-2.575-0.222l5.282-30.006
				c1.864-0.089,5.682-0.223,7.901-0.223c5.992,0,9.854,1.953,9.854,7.857c0,4.172-2.354,9.011-7.324,10.209L338.412,144.956z
				 M335.039,122.807c0-2.841-1.687-3.817-4.572-3.817c-1.021,0-2.574,0.044-3.24,0.089l-1.643,10.12h2.975
				C332.597,129.198,335.039,126.802,335.039,122.807z"/>
			<path class="st4" d="M367.132,144.956c-0.532,0.133-1.598,0.222-2.752,0.222c-0.888,0-2.308-0.089-2.885-0.222l-0.977-6.88
				h-10.387l-3.374,6.88c-0.799,0.133-1.908,0.222-2.93,0.222c-0.888,0-2.396-0.089-2.974-0.222l15.181-30.006
				c0.71-0.134,2.042-0.223,2.796-0.223c0.8,0,2.087,0.089,2.797,0.223L367.132,144.956z M359.853,133.637l-1.287-8.256
				c-0.178-1.109-0.355-2.441-0.488-3.995H357.9c-0.621,1.554-1.109,2.664-1.82,4.173l-3.817,8.078H359.853z"/>
			<path class="st4" d="M376.501,144.956c-0.799,0.133-1.687,0.222-2.708,0.222c-0.977,0-1.908-0.089-2.663-0.222l5.282-30.006
				c0.799-0.134,1.82-0.223,2.752-0.223c0.977,0,1.864,0.089,2.619,0.223L376.501,144.956z"/>
			<path class="st4" d="M406.109,144.956c-0.443,0.133-1.287,0.178-1.953,0.178c-0.621,0-1.376-0.045-1.908-0.178l-10.476-21.483
				l-3.729,21.483c-0.444,0.133-1.731,0.222-2.575,0.222c-0.754,0-1.775-0.089-2.353-0.222l5.282-30.006
				c0.533-0.089,1.465-0.178,2.087-0.178c0.71,0,1.598,0.044,2.13,0.178l10.21,20.729l3.64-20.729
				c0.665-0.134,1.775-0.223,2.485-0.223s1.82,0.089,2.441,0.223L406.109,144.956z"/>
			<path class="st4" d="M430.881,144.956h-18.244l5.282-30.006h17.578c0.044,0.178,0.044,0.443,0.044,0.71
				c0,1.243-0.354,2.53-0.843,3.772h-12.207l-1.376,7.812h10.431c0.045,0.222,0.045,0.488,0.045,0.799
				c0,1.154-0.311,2.486-0.844,3.685h-10.431l-1.51,8.744h12.739c0.045,0.311,0.045,0.666,0.045,0.844
				C431.591,142.647,431.325,143.936,430.881,144.956z"/>
		</g>
		<g>
			<defs>
				<path id="SVGID_7_" d="M99.274,96.291c0,26.879,9.366,48.665,39.095,48.665c24.59,0,42.006-21.763,50.883-49.367l-0.079-0.041
					c0.003,0.028,0.011,0.061,0.014,0.088h-21.05c-0.013-0.088-0.036-0.168-0.05-0.254c-6.017,18.382-15.873,33.691-29.718,33.691
					c-12.624,0-18.326-9.771-18.326-32.782c0-34.615,14.254-77.171,36.652-77.171c16.085,0,18.529,16.696,18.529,32.782
					c0,3.768-0.227,7.934-0.667,12.308c2.564,1.714,4.735,3.491,6.572,5.288c1.89-2.207,6.033-5.368,14.349-5.487
					c0.339-4.048,0.515-8.098,0.515-12.109c0-30.339-11.606-48.665-39.298-48.665C121.062,3.237,99.274,49.458,99.274,96.291"/>
			</defs>
			<clipPath id="SVGID_8_">
				<use xlink:href="#SVGID_7_"  style="overflow:visible;"/>
			</clipPath>
			
				<radialGradient id="SVGID_9_" cx="-195.3198" cy="385.0508" r="0.9995" gradientTransform="matrix(33.5449 148.9622 148.9622 -33.5449 -50658.8516 42022.6484)" gradientUnits="userSpaceOnUse">
				<stop  offset="0" style="stop-color:#DFD3B6"/>
				<stop  offset="0.4585" style="stop-color:#BAA361"/>
				<stop  offset="0.8307" style="stop-color:#988650"/>
				<stop  offset="1" style="stop-color:#988650"/>
			</radialGradient>
			<polygon class="st16" points="191.326,-17.492 226.368,138.116 103.942,165.686 68.901,10.077 			"/>
		</g>
		<g>
			<defs>
				<path id="SVGID_10_" d="M181.129,69.498c7.74,7.567,9.565,15.463,9.836,20.328c2.262-8.33,3.781-17.066,4.513-25.815
					C187.163,64.13,183.02,67.291,181.129,69.498"/>
			</defs>
			<clipPath id="SVGID_11_">
				<use xlink:href="#SVGID_10_"  style="overflow:visible;"/>
			</clipPath>
			
				<radialGradient id="SVGID_12_" cx="-195.3203" cy="385.0508" r="1" gradientTransform="matrix(33.5449 148.9622 148.9622 -33.5449 -50658.8516 42022.6484)" gradientUnits="userSpaceOnUse">
				<stop  offset="0" style="stop-color:#DFD3B6"/>
				<stop  offset="0.4585" style="stop-color:#B8A25F"/>
				<stop  offset="0.8307" style="stop-color:#74673C"/>
				<stop  offset="1" style="stop-color:#74673C"/>
			</radialGradient>
			<polygon class="st6" points="194.786,60.936 201.011,88.58 181.822,92.901 175.597,65.257 			"/>
		</g>
		<g>
			<defs>
				<path id="SVGID_13_" d="M195.629,64.039c0.001-0.009,0.001-0.022,0.003-0.034c-0.053,0.001-0.101,0.005-0.154,0.006
					c-8.316,0.119-12.459,3.28-14.349,5.487c7.74,7.567,9.565,15.463,9.836,20.328c0.162,2.925-0.231,4.756-0.231,4.756
					c5.102-11.997,9.146-26.47,29.62-30.661l-24.145-0.013C196.009,63.94,195.828,64.004,195.629,64.039"/>
			</defs>
			<clipPath id="SVGID_14_">
				<use xlink:href="#SVGID_13_"  style="overflow:visible;"/>
			</clipPath>
			
				<radialGradient id="SVGID_15_" cx="-195.3169" cy="385.0205" r="1" gradientTransform="matrix(147.7459 251.7153 251.7153 -147.7459 -68049.4453 106027.2109)" gradientUnits="userSpaceOnUse">
				<stop  offset="0" style="stop-color:#DFD3B6"/>
				<stop  offset="0.3987" style="stop-color:#BAA361"/>
				<stop  offset="0.8121" style="stop-color:#837646"/>
				<stop  offset="1" style="stop-color:#837646"/>
			</radialGradient>
			<polygon class="st7" points="210.304,46.784 233.746,86.723 191.181,111.706 167.739,71.768 			"/>
		</g>
		<g>
			<defs>
				<path id="SVGID_16_" d="M168.087,95.382c1.327-4.055,2.466-8.258,3.422-12.48c-0.796-0.925-1.394-1.628-1.511-1.784
					c-0.426-0.569-15.209-12.224-15.209-12.224l-1.313-5.009l-17.66-0.009C135.816,63.875,164.586,74.572,168.087,95.382"/>
			</defs>
			<clipPath id="SVGID_17_">
				<use xlink:href="#SVGID_16_"  style="overflow:visible;"/>
			</clipPath>
			
				<radialGradient id="SVGID_18_" cx="-195.3052" cy="385.0439" r="1" gradientTransform="matrix(76.67 130.6229 130.6229 -76.67 -35203.3477 55023.6641)" gradientUnits="userSpaceOnUse">
				<stop  offset="0" style="stop-color:#DFD3B6"/>
				<stop  offset="0.3987" style="stop-color:#B8A25F"/>
				<stop  offset="0.8307" style="stop-color:#74673C"/>
				<stop  offset="1" style="stop-color:#74673C"/>
			</radialGradient>
			<polygon class="st9" points="162.364,48.293 185.264,87.309 144.962,110.964 122.062,71.949 			"/>
		</g>
		<g>
			<defs>
				<path id="SVGID_19_" d="M168.087,95.382c0.014,0.086,0.037,0.166,0.05,0.254h21.05c-0.003-0.027-0.011-0.06-0.014-0.088
					l-12.068-6.187c0,0-3.503-4.025-5.596-6.46C170.554,87.124,169.415,91.327,168.087,95.382"/>
			</defs>
			<clipPath id="SVGID_20_">
				<use xlink:href="#SVGID_19_"  style="overflow:visible;"/>
			</clipPath>
			
				<radialGradient id="SVGID_21_" cx="-195.3198" cy="385.0508" r="1" gradientTransform="matrix(33.5449 148.9622 148.9622 -33.5449 -50658.8516 42022.6484)" gradientUnits="userSpaceOnUse">
				<stop  offset="0" style="stop-color:#DFD3B6"/>
				<stop  offset="0.4585" style="stop-color:#B8A25F"/>
				<stop  offset="0.8307" style="stop-color:#74673C"/>
				<stop  offset="1" style="stop-color:#74673C"/>
			</radialGradient>
			<polygon class="st17" points="188.169,78.379 191.917,95.021 169.106,100.157 165.358,83.516 			"/>
		</g>
		<g>
			<defs>
				<path id="SVGID_22_" d="M168.087,95.382c0.014,0.086,0.037,0.166,0.05,0.254h21.05c-0.003-0.027-0.011-0.06-0.014-0.088
					l-12.068-6.187c0,0-3.503-4.025-5.596-6.46C170.554,87.124,169.415,91.327,168.087,95.382"/>
			</defs>
			<clipPath id="SVGID_23_">
				<use xlink:href="#SVGID_22_"  style="overflow:visible;"/>
			</clipPath>
			
				<radialGradient id="SVGID_24_" cx="-195.3052" cy="385.0439" r="1" gradientTransform="matrix(76.67 130.6229 130.6229 -76.67 -35203.3477 55023.6641)" gradientUnits="userSpaceOnUse">
				<stop  offset="0" style="stop-color:#DFD3B6"/>
				<stop  offset="0.3987" style="stop-color:#B8A25F"/>
				<stop  offset="0.8307" style="stop-color:#74673C"/>
				<stop  offset="1" style="stop-color:#74673C"/>
			</radialGradient>
			<polygon class="st18" points="183.781,73.69 194.747,92.372 173.494,104.847 162.528,86.164 			"/>
		</g>
		<g>
			<defs>
				<path id="SVGID_25_" d="M168.137,95.636h21.051c-0.209-1.686-0.646-3.79-2.047-6.478c-0.091-0.172-0.189-0.328-0.28-0.499
					c-2.372-5.081-5.645-9.191-9.18-12.506c-1.041-1.04-1.971-1.866-2.692-2.412c-0.004,0.022-0.006,0.043-0.011,0.063
					c-9.276-7.462-19.228-9.919-19.228-9.919l-19.933-0.01C135.816,63.875,164.832,74.658,168.137,95.636"/>
			</defs>
			<clipPath id="SVGID_26_">
				<use xlink:href="#SVGID_25_"  style="overflow:visible;"/>
			</clipPath>
			
				<radialGradient id="SVGID_27_" cx="-195.3052" cy="385.0449" r="0.9998" gradientTransform="matrix(76.67 130.6229 130.6229 -76.67 -35203.3477 55023.6641)" gradientUnits="userSpaceOnUse">
				<stop  offset="0" style="stop-color:#DFD3B6"/>
				<stop  offset="0.3987" style="stop-color:#BAA361"/>
				<stop  offset="0.8121" style="stop-color:#837646"/>
				<stop  offset="1" style="stop-color:#837646"/>
			</radialGradient>
			<polygon class="st19" points="175.512,40.576 203.052,87.497 149.492,118.935 121.952,72.014 			"/>
		</g>
	</g>
</g>
<g id="white" class="st15">
	<g class="st14">
		<g>
			<defs>
				<path id="SVGID_28_" d="M232.87,71.267l0.004,0.005c0,0-0.013-0.002-0.013-0.005h-2.969c-10.789,0-24.556,5.4-32.219,34.817
					c39.013,0.1,198.792,0.439,221.253,0.439c36.362,0,41.337-35.256,41.337-35.256H232.87z"/>
			</defs>
			<clipPath id="SVGID_29_">
				<use xlink:href="#SVGID_28_"  style="overflow:visible;"/>
			</clipPath>
			
				<radialGradient id="SVGID_30_" cx="-72.4185" cy="373.3643" r="1.733" gradientTransform="matrix(99.69 97.8816 97.8816 -99.69 -29079.1074 44274.8906)" gradientUnits="userSpaceOnUse">
				<stop  offset="0" style="stop-color:#DFD3B6"/>
				<stop  offset="0.3987" style="stop-color:#BAA361"/>
				<stop  offset="0.8144" style="stop-color:#988650"/>
				<stop  offset="1" style="stop-color:#988650"/>
			</radialGradient>
			<polygon class="st0" points="326.563,-60.004 477.888,88.579 331.37,237.799 180.046,89.219 			"/>
		</g>
		<g>
			<polygon class="st13" points="100.715,23.421 104.289,9.069 34.954,9.069 22.458,74.524 44.334,58.368 50.494,23.421 			"/>
		</g>
		<g>
			<defs>
				<path id="SVGID_31_" d="M22.457,74.524l-0.023,0.139h26.227c18.707,0,25.419,6.914,25.419,20.942
					c0,21.144-10.979,35.178-32.332,35.178c-11.996,0-23.586-1.831-32.941-4.682c-1.421,3.255-2.234,7.323-2.439,11.185
					c0,1.018,0,2.037,0.205,3.257c8.337,3.663,21.148,5.689,35.788,5.689c35.175,0,52.663-23.995,52.458-53.071
					c-0.201-22.364-14.436-33.954-40.466-33.954H44.189l0.146-0.84L22.457,74.524z"/>
			</defs>
			<clipPath id="SVGID_32_">
				<use xlink:href="#SVGID_31_"  style="overflow:visible;"/>
			</clipPath>
			
				<radialGradient id="SVGID_33_" cx="-72.5767" cy="373.7637" r="1.7328" gradientTransform="matrix(-34.3948 -59.9453 -59.9453 34.3948 20003.5469 -17038.0391)" gradientUnits="userSpaceOnUse">
				<stop  offset="0" style="stop-color:#FFFFFF"/>
				<stop  offset="0.6745" style="stop-color:#ECECEC"/>
				<stop  offset="1" style="stop-color:#BCBCBB"/>
			</radialGradient>
			<polygon class="st10" points="28.326,184.499 -31.561,80.13 73.063,20.101 132.948,124.469 			"/>
		</g>
		<g>
			<path class="st13" d="M266.981,17.574L248.55,44.295l-3.401,19.823c-1.578,0.263-3.323,0.436-5.329,0.436
				c-1.921,0-3.753-0.173-5.245-0.436l3.67-20.959l-7.855-24.45c-1.221-3.665-1.745-7.161-1.745-9.954
				c0-1.308,0.169-2.534,0.349-3.668c1.396-0.175,3.053-0.348,4.8-0.348c1.659,0,3.411,0.086,4.8,0.348
				c-0.168,1.05-0.258,2.184-0.258,3.317c0,2.446,0.437,4.89,1.398,8.034l3.232,10.569c0.876,2.794,1.657,5.5,2.006,7.771h0.178
				c1.041-2.183,2.619-4.626,4.188-6.9l8.646-12.662c1.925-2.796,3.403-6.723,4.017-10.13c1.486-0.262,3.404-0.437,5.062-0.437
				c1.833,0,3.32,0.175,4.715,0.437C271.167,9.802,269.688,13.645,266.981,17.574"/>
			<path class="st13" d="M305.755,64.118h-35.895l10.392-59.031h34.581c0.089,0.351,0.089,0.871,0.089,1.397
				c0,2.447-0.695,4.978-1.658,7.423h-24.012l-2.709,15.369h20.522c0.079,0.438,0.079,0.958,0.079,1.575
				c0,2.265-0.605,4.89-1.655,7.245h-20.522l-2.966,17.205h25.064c0.079,0.61,0.079,1.309,0.079,1.657
				C307.145,59.58,306.628,62.11,305.755,64.118"/>
			<path class="st13" d="M363.824,64.118c-1.044,0.265-3.144,0.436-5.42,0.436c-1.741,0-4.532-0.171-5.67-0.436l-1.926-13.535
				h-20.434l-6.632,13.535c-1.57,0.265-3.751,0.436-5.767,0.436c-1.743,0-4.708-0.171-5.853-0.436l29.869-59.032
				c1.399-0.261,4.017-0.436,5.503-0.436c1.568,0,4.106,0.175,5.501,0.436L363.824,64.118z M349.499,41.85l-2.527-16.24
				c-0.346-2.184-0.695-4.802-0.962-7.862h-0.348c-1.224,3.06-2.183,5.241-3.579,8.214l-7.512,15.888H349.499z"/>
			<path class="st13" d="M412.723,64.119c-1.477,0.263-3.402,0.436-5.584,0.436c-2.012,0-4.102-0.173-5.673-0.436l-8.74-22.441
				h-6.724l-3.929,22.441c-1.919,0.263-3.577,0.436-5.495,0.436c-1.752,0-3.407-0.173-5.068-0.436l10.397-59.032
				c3.656-0.175,11.169-0.436,15.543-0.436c11.785,0,19.386,3.843,19.386,15.456c0,8.208-4.631,17.727-14.412,20.086L412.723,64.119
				z M406.09,20.543c0-5.588-3.314-7.506-8.996-7.506c-2.004,0-5.058,0.084-6.367,0.171l-3.232,19.909h5.849
				C401.29,33.117,406.09,28.405,406.09,20.543"/>
			<path class="st13" d="M437.098,64.992c-6.899,0-13.45-1.394-18.172-3.492c0-1.309,0-2.619,0.267-3.929
				c0.261-1.75,0.786-3.495,1.485-5.153c4.453,2.095,11.351,3.583,16.154,3.583c8.122,0,12.318-2.799,12.318-8.563
				c0-5.151-2.712-6.724-9.346-9.69c-8.993-4.017-13.716-9.259-13.716-17.029c0-10.127,8.125-16.508,21.83-16.508
				c5.684,0,10.578,1.052,14.415,2.36c0.09,0.875,0,2.707-0.262,4.021c-0.262,1.569-0.699,3.14-1.314,4.625
				c-3.495-1.31-8.385-2.359-12.403-2.359c-6.722,0-11.257,2.187-11.257,7.162c0,3.754,2.182,6.46,9.424,9.781
				c7.779,3.578,13.451,6.984,13.451,16.677C459.973,57.047,452.556,64.992,437.098,64.992"/>
		</g>
		<g>
			<path class="st13" d="M258.773,81.532c0,0.703-0.182,1.315-0.431,1.837c-0.839-0.34-2.018-0.635-3.175-0.635
				c-2.721,0-5.85,2.109-5.85,7.256c0,2.743,1.451,3.809,4.014,3.809c0.952,0,2.244-0.204,3.174-0.453
				c0.068,0.386,0.113,0.839,0.113,1.293c0,0.362-0.022,0.726-0.09,1.02c-0.953,0.295-2.404,0.499-3.674,0.499
				c-4.376,0-6.395-2.312-6.395-5.986c0-6.19,3.969-9.795,8.64-9.795c1.451,0,2.698,0.34,3.65,0.793
				C258.773,81.306,258.773,81.441,258.773,81.532z"/>
			<path class="st13" d="M268.363,90.896h-7.278v0.432c0.022,1.836,0.884,2.789,2.834,2.789c1.202,0,2.177-0.159,3.016-0.386
				c0.113,0.657,0.136,1.383,0.068,1.95c-0.907,0.317-2.063,0.476-3.583,0.476c-3.378,0-5.033-1.882-5.033-4.942
				c0-3.719,1.973-7.324,6.28-7.324c2.698,0,4.104,1.632,4.104,4.195C268.771,88.901,268.612,89.967,268.363,90.896z
				 M266.118,88.901c0.046-0.227,0.091-0.612,0.091-0.907c0-1.134-0.362-2.086-1.791-2.086c-1.769,0-2.744,1.451-3.016,2.993
				H266.118z"/>
			<path class="st13" d="M272.375,95.931c-0.385,0.068-0.975,0.113-1.36,0.113c-0.431,0-0.906-0.045-1.27-0.113l2.925-16.552
				c0.454-0.068,0.93-0.091,1.315-0.091c0.453,0,0.952,0.022,1.315,0.091L272.375,95.931z"/>
			<path class="st13" d="M285.48,90.896h-7.278v0.432c0.022,1.836,0.884,2.789,2.834,2.789c1.202,0,2.177-0.159,3.016-0.386
				c0.113,0.657,0.136,1.383,0.068,1.95c-0.907,0.317-2.063,0.476-3.583,0.476c-3.378,0-5.033-1.882-5.033-4.942
				c0-3.719,1.973-7.324,6.28-7.324c2.698,0,4.104,1.632,4.104,4.195C285.888,88.901,285.729,89.967,285.48,90.896z M283.235,88.901
				c0.046-0.227,0.091-0.612,0.091-0.907c0-1.134-0.362-2.086-1.791-2.086c-1.769,0-2.744,1.451-3.016,2.993H283.235z"/>
			<path class="st13" d="M291.579,96.157c-1.724,0-3.538-0.271-4.671-0.726l2.834-16.053c0.362-0.068,0.839-0.091,1.292-0.091
				c0.521,0,1.043,0.022,1.338,0.091l-0.975,5.646c0.793-0.635,2.018-1.134,3.084-1.134c2.789,0,3.854,2.018,3.854,4.398
				C298.335,92.325,296.34,96.157,291.579,96.157z M295.615,88.562c0-1.338-0.432-2.472-1.95-2.472c-0.839,0-1.95,0.431-2.676,1.088
				l-1.179,6.757c0.453,0.136,1.247,0.204,1.858,0.204C294.299,94.14,295.615,91.464,295.615,88.562z"/>
			<path class="st13" d="M307.562,86.362c-1.225,0.114-2.902,0.658-4.014,1.451l-1.406,8.118c-0.34,0.091-0.884,0.113-1.337,0.113
				c-0.454,0-0.998-0.045-1.293-0.113l2.086-11.813c0.317-0.068,0.726-0.113,1.089-0.113c0.34,0,0.793,0.045,1.065,0.113
				l-0.136,1.769h0.022c0.975-0.998,2.902-1.973,4.354-1.995C307.97,84.616,307.789,85.75,307.562,86.362z"/>
			<path class="st13" d="M319.239,84.775l-1.292,6.893c-0.25,1.292-0.363,2.834-0.408,4.263c-0.341,0.091-0.816,0.113-1.156,0.113
				c-0.363,0-0.816-0.045-1.089-0.113c-0.045-0.499-0.045-1.134-0.045-1.655h-0.023c-0.771,1.065-1.995,1.882-3.582,1.882
				c-2.177,0-3.628-1.609-3.628-4.398c0-4.581,3.129-7.868,7.029-7.868C316.767,83.891,318.287,84.276,319.239,84.775z
				 M316.336,86.135c-0.362-0.113-0.839-0.204-1.383-0.204c-2.381,0-4.218,2.426-4.218,5.624c0,1.678,0.612,2.381,1.61,2.381
				c1.11,0,2.131-0.726,2.902-1.928L316.336,86.135z"/>
			<path class="st13" d="M327.037,95.84c-0.657,0.182-1.429,0.34-2.562,0.34c-2.358,0-3.288-1.02-3.288-2.562
				c0-0.363,0.113-1.247,0.34-2.518l0.907-5.056h-1.928c-0.045-0.272-0.022-0.68,0.022-0.952c0.046-0.25,0.159-0.612,0.272-0.839
				l1.973-0.114l0.521-3.061c0.317-0.068,0.907-0.09,1.338-0.09c0.453,0,0.998,0.022,1.293,0.09l-0.521,3.039h3.355
				c0.045,0.272,0,0.635-0.046,0.884c-0.045,0.272-0.181,0.771-0.294,1.043h-3.356l-0.975,5.374
				c-0.113,0.567-0.204,1.293-0.204,1.655c0,0.612,0.362,1.021,1.225,1.021c0.726,0,1.451-0.113,2.04-0.271
				C327.218,94.435,327.15,95.318,327.037,95.84z"/>
			<path class="st13" d="M338.668,90.896h-7.278v0.432c0.022,1.836,0.884,2.789,2.834,2.789c1.202,0,2.177-0.159,3.016-0.386
				c0.113,0.657,0.136,1.383,0.068,1.95c-0.907,0.317-2.063,0.476-3.583,0.476c-3.378,0-5.033-1.882-5.033-4.942
				c0-3.719,1.973-7.324,6.28-7.324c2.698,0,4.104,1.632,4.104,4.195C339.077,88.901,338.917,89.967,338.668,90.896z
				 M336.423,88.901c0.046-0.227,0.091-0.612,0.091-0.907c0-1.134-0.362-2.086-1.791-2.086c-1.769,0-2.744,1.451-3.016,2.993
				H336.423z"/>
			<path class="st13" d="M360.524,87.496l-3.9,8.435c-0.317,0.091-0.975,0.113-1.36,0.113c-0.431,0-1.089-0.045-1.383-0.113
				l-0.749-7.913h-0.022l-3.65,7.913c-0.317,0.068-0.907,0.113-1.293,0.113c-0.431,0-1.065-0.045-1.314-0.113l-1.111-9.07
				c-0.091-0.793-0.113-1.701,0.068-2.744c0.362-0.068,0.816-0.113,1.247-0.113s1.021,0.045,1.314,0.113
				c-0.136,0.862-0.181,1.837-0.113,2.744l0.408,6.032h0.046l3.809-8.753c0.295-0.045,0.771-0.113,1.202-0.113
				c0.386,0,0.771,0.045,1.043,0.113l0.907,8.844h0.045l2.518-6.19c0.362-0.862,0.726-1.792,0.861-2.676
				c0.317-0.068,0.884-0.113,1.27-0.113c0.454,0,0.976,0.045,1.225,0.113C361.476,85.296,361.045,86.362,360.524,87.496z"/>
			<path class="st13" d="M364.263,95.931c-0.408,0.091-0.997,0.113-1.36,0.113c-0.431,0-0.907-0.045-1.247-0.113l2.063-11.813
				c0.431-0.068,0.907-0.113,1.292-0.113c0.454,0,0.93,0.045,1.315,0.113L364.263,95.931z M365.375,82.371
				c-0.816,0-1.338-0.612-1.338-1.315c0-1.066,0.726-1.678,1.678-1.678c0.748,0,1.406,0.567,1.384,1.292
				C367.098,81.668,366.486,82.371,365.375,82.371z"/>
			<path class="st13" d="M374.239,95.84c-0.657,0.182-1.429,0.34-2.562,0.34c-2.358,0-3.288-1.02-3.288-2.562
				c0-0.363,0.113-1.247,0.34-2.518l0.907-5.056h-1.928c-0.045-0.272-0.022-0.68,0.022-0.952c0.046-0.25,0.159-0.612,0.272-0.839
				l1.973-0.114l0.521-3.061c0.317-0.068,0.907-0.09,1.338-0.09c0.453,0,0.998,0.022,1.293,0.09l-0.522,3.039h3.356
				c0.045,0.272,0,0.635-0.046,0.884c-0.045,0.272-0.181,0.771-0.294,1.043h-3.356l-0.975,5.374
				c-0.113,0.567-0.204,1.293-0.204,1.655c0,0.612,0.362,1.021,1.225,1.021c0.726,0,1.451-0.113,2.04-0.271
				C374.42,94.435,374.352,95.318,374.239,95.84z"/>
			<path class="st13" d="M380.61,85.115c1.043-0.703,2.244-1.224,3.695-1.224c1.859,0,3.333,0.975,3.333,2.925
				c0,0.59-0.136,1.564-0.362,2.767l-1.134,6.349c-0.34,0.091-0.907,0.113-1.27,0.113c-0.386,0-0.976-0.045-1.338-0.113l1.134-6.258
				c0.158-0.839,0.227-1.587,0.227-1.95c0-1.066-0.635-1.565-1.7-1.565c-1.111,0-2.177,0.499-2.971,1.088l-1.542,8.685
				c-0.453,0.068-1.021,0.113-1.406,0.113c-0.362,0-0.839-0.022-1.224-0.113l2.925-16.552c0.34-0.068,0.861-0.091,1.315-0.091
				c0.453,0,0.997,0.022,1.314,0.091L380.61,85.115z"/>
			<path class="st13" d="M404.166,91.146c-0.612,3.605-1.882,5.033-5.555,5.033c-2.926,0-4.354-0.997-4.354-3.129
				c0-0.521,0.136-1.519,0.294-2.358l1.18-6.575c0.317-0.068,0.839-0.113,1.314-0.113c0.454,0,0.976,0.022,1.315,0.113l-1.156,6.553
				c-0.136,0.748-0.249,1.542-0.249,1.905c0,1.065,0.453,1.609,1.836,1.609c1.837,0,2.449-1.043,2.835-3.333l1.134-6.734
				c0.317-0.091,0.884-0.113,1.338-0.113c0.453,0,0.997,0.045,1.27,0.113L404.166,91.146z"/>
			<path class="st13" d="M409.402,96.18c-1.247,0-2.63-0.204-3.582-0.589c0-0.59,0.136-1.36,0.362-1.973
				c0.839,0.362,2.041,0.612,3.152,0.612c1.247,0,2.562-0.317,2.562-1.564c0-0.907-1.021-1.271-2.268-1.905
				c-1.632-0.839-2.471-1.769-2.471-3.288c0-2.517,2.222-3.583,4.762-3.583c0.952,0,2.131,0.204,2.788,0.431
				c0.023,0.113,0.023,0.227,0.023,0.34c0,0.544-0.159,1.133-0.386,1.61c-0.771-0.25-1.7-0.408-2.585-0.408
				c-0.952,0-2.041,0.294-2.041,1.383c0,0.771,0.658,1.225,1.837,1.837c1.678,0.884,2.88,1.564,2.88,3.379
				C414.436,95.001,412.35,96.18,409.402,96.18z"/>
		</g>
		<g>
			<path class="st13" d="M200.363,129.911l-1.546,8.243c-0.298,1.546-0.434,3.39-0.488,5.098c-0.407,0.108-0.976,0.136-1.383,0.136
				c-0.434,0-0.976-0.055-1.302-0.136c-0.054-0.597-0.054-1.355-0.054-1.979h-0.027c-0.922,1.274-2.386,2.251-4.284,2.251
				c-2.603,0-4.338-1.926-4.338-5.261c0-5.478,3.742-9.409,8.405-9.409C197.408,128.854,199.224,129.314,200.363,129.911z
				 M196.893,131.538c-0.434-0.136-1.003-0.244-1.654-0.244c-2.847,0-5.043,2.901-5.043,6.725c0,2.007,0.732,2.848,1.925,2.848
				c1.329,0,2.549-0.868,3.471-2.305L196.893,131.538z"/>
			<path class="st13" d="M209.692,143.144c-0.787,0.217-1.708,0.406-3.064,0.406c-2.82,0-3.932-1.22-3.932-3.063
				c0-0.434,0.135-1.491,0.407-3.01l1.084-6.047h-2.305c-0.054-0.325-0.027-0.813,0.027-1.139c0.054-0.298,0.19-0.732,0.326-1.003
				l2.359-0.136l0.624-3.66c0.38-0.082,1.084-0.109,1.6-0.109c0.542,0,1.193,0.027,1.546,0.109l-0.624,3.633h4.013
				c0.054,0.325,0,0.76-0.054,1.058c-0.054,0.325-0.217,0.922-0.353,1.247h-4.013l-1.166,6.427
				c-0.136,0.678-0.244,1.545-0.244,1.979c0,0.731,0.434,1.22,1.464,1.22c0.868,0,1.735-0.136,2.44-0.325
				C209.909,141.462,209.827,142.52,209.692,143.144z"/>
		</g>
		<g>
			<path class="st13" d="M242.968,115.104c0,1.374-0.354,2.571-0.842,3.591c-1.64-0.665-3.945-1.241-6.206-1.241
				c-5.319,0-11.436,4.122-11.436,14.185c0,5.363,2.836,7.446,7.846,7.446c1.861,0,4.388-0.398,6.205-0.887
				c0.133,0.754,0.222,1.641,0.222,2.527c0,0.709-0.044,1.418-0.177,1.994c-1.862,0.576-4.699,0.976-7.182,0.976
				c-8.555,0-12.5-4.521-12.5-11.702c0-12.102,7.757-19.149,16.888-19.149c2.837,0,5.275,0.665,7.137,1.552
				C242.968,114.661,242.968,114.927,242.968,115.104z"/>
			<path class="st13" d="M243.679,132.348c0-11.082,6.295-19.504,14.806-19.504c6.427,0,10.594,4.211,10.594,11.348
				c0,11.082-6.294,19.504-14.805,19.504C247.846,143.695,243.679,139.484,243.679,132.348z M263.494,124.502
				c0-4.743-1.641-7.137-5.319-7.137c-5.452,0-8.91,7.624-8.91,14.672c0,4.743,1.641,7.137,5.319,7.137
				C260.036,139.174,263.494,131.55,263.494,124.502z"/>
			<path class="st13" d="M276.44,113.287c0.798-0.133,1.729-0.222,2.659-0.222c0.976,0,1.951,0.089,2.704,0.222l-4.521,25.488
				h13.077c0.044,0.31,0.044,0.664,0.044,0.842c0,1.33-0.266,2.615-0.709,3.635h-18.529L276.44,113.287z"/>
			<path class="st13" d="M312.213,143.252h-18.219l5.275-29.965h17.554c0.044,0.178,0.044,0.443,0.044,0.709
				c0,1.241-0.354,2.526-0.842,3.768h-12.19l-1.374,7.802h10.417c0.044,0.222,0.044,0.487,0.044,0.798
				c0,1.152-0.31,2.482-0.842,3.68h-10.417l-1.507,8.732h12.722c0.044,0.31,0.044,0.664,0.044,0.842
				C312.922,140.947,312.657,142.232,312.213,143.252z"/>
			<path class="st13" d="M338.413,143.252c-0.754,0.133-1.729,0.222-2.837,0.222c-1.02,0-2.084-0.089-2.882-0.222l-4.433-11.392
				h-3.413l-1.994,11.392c-0.976,0.133-1.817,0.222-2.793,0.222c-0.887,0-1.729-0.089-2.571-0.222l5.275-29.965
				c1.861-0.089,5.674-0.222,7.89-0.222c5.984,0,9.841,1.95,9.841,7.846c0,4.167-2.349,8.998-7.313,10.195L338.413,143.252z
				 M335.043,121.133c0-2.837-1.685-3.812-4.565-3.812c-1.02,0-2.571,0.045-3.236,0.089l-1.64,10.106h2.97
				C332.606,127.516,335.043,125.122,335.043,121.133z"/>
			<path class="st13" d="M367.093,143.252c-0.532,0.133-1.596,0.222-2.748,0.222c-0.887,0-2.306-0.089-2.882-0.222l-0.975-6.871
				h-10.373l-3.368,6.871c-0.798,0.133-1.906,0.222-2.926,0.222c-0.887,0-2.394-0.089-2.97-0.222l15.159-29.965
				c0.709-0.133,2.039-0.222,2.793-0.222c0.798,0,2.083,0.089,2.792,0.222L367.093,143.252z M359.824,131.948l-1.286-8.244
				c-0.177-1.108-0.354-2.438-0.487-3.989h-0.177c-0.621,1.551-1.108,2.659-1.817,4.166l-3.812,8.067H359.824z"/>
			<path class="st13" d="M376.449,143.252c-0.799,0.133-1.685,0.222-2.704,0.222c-0.976,0-1.906-0.089-2.66-0.222l5.275-29.965
				c0.798-0.133,1.817-0.222,2.748-0.222c0.976,0,1.861,0.089,2.615,0.222L376.449,143.252z"/>
			<path class="st13" d="M406.014,143.252c-0.443,0.133-1.286,0.178-1.95,0.178c-0.621,0-1.374-0.045-1.906-0.178l-10.461-21.454
				l-3.724,21.454c-0.443,0.133-1.729,0.222-2.571,0.222c-0.753,0-1.772-0.089-2.35-0.222l5.275-29.965
				c0.532-0.089,1.463-0.178,2.083-0.178c0.71,0,1.596,0.045,2.128,0.178l10.195,20.7l3.635-20.7
				c0.665-0.133,1.773-0.222,2.482-0.222s1.817,0.089,2.438,0.222L406.014,143.252z"/>
			<path class="st13" d="M430.75,143.252h-18.219l5.275-29.965h17.554c0.044,0.178,0.044,0.443,0.044,0.709
				c0,1.241-0.354,2.526-0.842,3.768h-12.19l-1.374,7.802h10.417c0.044,0.222,0.044,0.487,0.044,0.798
				c0,1.152-0.31,2.482-0.842,3.68h-10.417l-1.507,8.732h12.722c0.044,0.31,0.044,0.664,0.044,0.842
				C431.459,140.947,431.194,142.232,430.75,143.252z"/>
		</g>
		<g>
			<defs>
				<path id="SVGID_34_" d="M168.419,96.986h21.022c-0.208-1.681-0.644-3.789-2.045-6.474c-0.092-0.168-0.187-0.327-0.281-0.501
					c-2.366-5.067-5.639-9.173-9.168-12.482c-1.037-1.038-1.967-1.865-2.688-2.41c-0.003,0.025-0.009,0.045-0.01,0.062
					c-9.26-7.45-19.2-9.904-19.2-9.904l-19.903-0.009C136.147,65.269,165.119,76.034,168.419,96.986"/>
			</defs>
			<clipPath id="SVGID_35_">
				<use xlink:href="#SVGID_34_"  style="overflow:visible;"/>
			</clipPath>
			
				<radialGradient id="SVGID_36_" cx="-72.8208" cy="372.9277" r="1.7323" gradientTransform="matrix(44.1727 75.2573 75.2573 -44.1728 -24730.1777 21945.957)" gradientUnits="userSpaceOnUse">
				<stop  offset="0" style="stop-color:#DFD3B6"/>
				<stop  offset="0.3987" style="stop-color:#B8A25F"/>
				<stop  offset="0.8307" style="stop-color:#74673C"/>
				<stop  offset="1" style="stop-color:#74673C"/>
			</radialGradient>
			<polygon class="st11" points="175.785,42.003 203.286,88.856 149.804,120.251 122.3,73.396 			"/>
		</g>
		<g>
			<defs>
				<path id="SVGID_37_" d="M99.655,97.636c0,26.842,9.353,48.597,39.041,48.597c24.553,0,41.944-21.731,50.808-49.296
					l-12.128-6.218c0,0-3.497-4.019-5.588-6.453c-5.274,23.332-16.216,46.112-33.092,46.112c-12.609,0-18.301-9.761-18.301-32.742
					c0-34.563,14.234-77.061,36.597-77.061c16.065,0,18.506,16.675,18.506,32.737c0,3.761-0.229,7.921-0.668,12.289
					c2.562,1.712,4.73,3.487,6.564,5.282c1.885-2.204,6.027-5.361,14.328-5.483c0.339-4.037,0.515-8.083,0.515-12.088
					c0-30.296-11.592-48.596-39.246-48.596C121.41,4.716,99.655,50.871,99.655,97.636"/>
			</defs>
			<clipPath id="SVGID_38_">
				<use xlink:href="#SVGID_37_"  style="overflow:visible;"/>
			</clipPath>
			
				<radialGradient id="SVGID_39_" cx="-72.6543" cy="372.8457" r="1.733" gradientTransform="matrix(27.7615 97.0426 97.0426 -27.7615 -34038.7461 17409.4844)" gradientUnits="userSpaceOnUse">
				<stop  offset="0" style="stop-color:#FFFFFF"/>
				<stop  offset="0.4957" style="stop-color:#ECECEC"/>
				<stop  offset="1" style="stop-color:#BCBCBB"/>
			</radialGradient>
			<polygon class="st12" points="188.932,-20.823 233.663,135.526 106.961,171.774 62.233,15.422 			"/>
		</g>
		<g>
			<defs>
				<path id="SVGID_40_" d="M181.394,70.883c7.729,7.558,9.552,15.438,9.823,20.3c2.259-8.32,3.775-17.047,4.505-25.784
					C187.421,65.522,183.279,68.68,181.394,70.883"/>
			</defs>
			<clipPath id="SVGID_41_">
				<use xlink:href="#SVGID_40_"  style="overflow:visible;"/>
			</clipPath>
			
				<radialGradient id="SVGID_42_" cx="-72.6504" cy="372.8994" r="1.7335" gradientTransform="matrix(19.3266 85.8233 85.8233 -19.3266 -30451.8789 13454.1191)" gradientUnits="userSpaceOnUse">
				<stop  offset="0" style="stop-color:#DFD3B6"/>
				<stop  offset="0.4585" style="stop-color:#B8A25F"/>
				<stop  offset="0.8307" style="stop-color:#74673C"/>
				<stop  offset="1" style="stop-color:#74673C"/>
			</radialGradient>
			<polygon class="st20" points="195.033,62.33 201.25,89.94 182.086,94.255 175.871,66.647 			"/>
		</g>
		<g>
			<defs>
				<path id="SVGID_43_" d="M195.873,65.432c0.004-0.011,0.004-0.025,0.005-0.038c-0.054,0.002-0.102,0.006-0.155,0.006
					c-8.301,0.123-12.443,3.28-14.328,5.483c7.729,7.558,9.552,15.438,9.823,20.3c0.161,2.917-0.231,4.747-0.231,4.747
					c5.097-11.981,9.134-26.431,29.581-30.614l-24.115-0.015C196.252,65.335,196.071,65.393,195.873,65.432"/>
			</defs>
			<clipPath id="SVGID_44_">
				<use xlink:href="#SVGID_43_"  style="overflow:visible;"/>
			</clipPath>
			
				<radialGradient id="SVGID_45_" cx="-71.7227" cy="373.0566" r="1.7323" gradientTransform="matrix(22.1731 49.9395 49.9395 -22.1731 -16818.625 11994.4258)" gradientUnits="userSpaceOnUse">
				<stop  offset="0" style="stop-color:#FFFFFF"/>
				<stop  offset="0.5287" style="stop-color:#ECECEC"/>
				<stop  offset="1" style="stop-color:#BCBCBB"/>
			</radialGradient>
			<polygon class="st1" points="214.115,50.772 231.921,90.884 187.845,110.459 170.034,70.345 			"/>
		</g>
		<g>
			<defs>
				<path id="SVGID_46_" d="M168.419,96.986h21.022c-0.208-1.681-0.644-3.789-2.045-6.474c-0.092-0.168-0.187-0.327-0.281-0.501
					c-2.366-5.067-5.639-9.173-9.168-12.482c-1.037-1.038-1.967-1.865-2.688-2.41c-0.003,0.025-0.009,0.045-0.01,0.062
					c-9.26-7.45-19.2-9.904-19.2-9.904l-19.903-0.009C136.147,65.269,165.119,76.034,168.419,96.986"/>
			</defs>
			<clipPath id="SVGID_47_">
				<use xlink:href="#SVGID_46_"  style="overflow:visible;"/>
			</clipPath>
			
				<radialGradient id="SVGID_48_" cx="-72.8936" cy="372.9346" r="1.7321" gradientTransform="matrix(44.1727 75.2573 75.2573 -44.1728 -24733.8652 21938.082)" gradientUnits="userSpaceOnUse">
				<stop  offset="0" style="stop-color:#FFFFFF"/>
				<stop  offset="0.5287" style="stop-color:#ECECEC"/>
				<stop  offset="1" style="stop-color:#BCBCBB"/>
			</radialGradient>
			<polygon class="st2" points="175.785,42.003 203.286,88.856 149.804,120.251 122.3,73.396 			"/>
		</g>
	</g>
</g>
<g id="all_white">
	<g>
		<g>
			<path class="st5" d="M232.12,70.356v0.003c0,0-0.01-0.003-0.012-0.003h-2.98c-10.836,0-24.663,5.42-32.362,34.965
				c39.184,0.104,199.664,0.444,222.23,0.444c36.516,0,41.512-35.41,41.512-35.41H232.12z"/>
			<polygon class="st13" points="99.382,22.298 102.972,7.884 33.331,7.884 20.781,73.625 42.756,57.398 48.94,22.298 			"/>
			<path class="st13" d="M20.756,73.763h26.345c18.789,0,25.529,6.945,25.529,21.036c0,21.237-11.03,35.329-32.472,35.329
				c-12.048,0-23.69-1.835-33.086-4.697c-1.427,3.269-2.247,7.354-2.449,11.232c0,1.021,0,2.045,0.203,3.271
				c8.375,3.676,21.241,5.714,35.945,5.714c35.333,0,52.896-24.098,52.692-53.303c-0.205-22.464-14.502-34.104-40.643-34.104H42.609
				l0.147-0.844L20.78,73.625L20.756,73.763z"/>
			<path class="st13" d="M266.376,16.426l-18.51,26.837l-3.417,19.911c-1.581,0.263-3.335,0.438-5.352,0.438
				c-1.931,0-3.771-0.175-5.264-0.438l3.685-21.052l-7.894-24.557c-1.228-3.683-1.753-7.192-1.753-10
				c0-1.313,0.174-2.543,0.35-3.683c1.403-0.177,3.067-0.35,4.824-0.35c1.667,0,3.422,0.086,4.822,0.35
				c-0.174,1.052-0.262,2.191-0.262,3.331c0,2.458,0.438,4.912,1.404,8.072l3.244,10.615c0.879,2.805,1.666,5.523,2.016,7.805h0.179
				c1.052-2.193,2.63-4.647,4.21-6.93l8.681-12.718c1.933-2.807,3.421-6.752,4.036-10.174c1.491-0.264,3.421-0.438,5.086-0.438
				c1.844,0,3.335,0.174,4.734,0.438C270.585,8.62,269.096,12.478,266.376,16.426"/>
			<path class="st13" d="M305.323,63.175h-36.05l10.435-59.292h34.735c0.087,0.352,0.087,0.875,0.087,1.404
				c0,2.456-0.7,4.999-1.666,7.455h-24.117l-2.721,15.438h20.613c0.082,0.439,0.082,0.962,0.082,1.58
				c0,2.277-0.61,4.912-1.663,7.279h-20.613l-2.98,17.278h25.175c0.082,0.614,0.082,1.316,0.082,1.667
				C306.721,58.615,306.199,61.155,305.323,63.175"/>
			<path class="st13" d="M363.648,63.175c-1.052,0.265-3.157,0.438-5.44,0.438c-1.75,0-4.56-0.173-5.699-0.438L350.58,49.58h-20.525
				l-6.663,13.595c-1.58,0.265-3.771,0.438-5.794,0.438c-1.75,0-4.73-0.173-5.875-0.438l29.999-59.292
				c1.404-0.264,4.034-0.438,5.524-0.438c1.58,0,4.123,0.174,5.526,0.438L363.648,63.175z M349.263,40.809l-2.542-16.312
				c-0.351-2.193-0.701-4.824-0.966-7.896h-0.352c-1.229,3.073-2.192,5.264-3.597,8.248l-7.543,15.961H349.263z"/>
			<path class="st13" d="M412.764,63.175c-1.488,0.263-3.42,0.438-5.612,0.438c-2.017,0-4.12-0.175-5.698-0.438l-8.773-22.542
				h-6.753l-3.95,22.542c-1.925,0.263-3.591,0.438-5.521,0.438c-1.757,0-3.42-0.175-5.091-0.438l10.442-59.292
				c3.678-0.177,11.222-0.438,15.611-0.438c11.841,0,19.472,3.86,19.472,15.525c0,8.243-4.649,17.803-14.475,20.173L412.764,63.175z
				 M406.102,19.408c0-5.613-3.334-7.542-9.035-7.542c-2.018,0-5.085,0.086-6.4,0.172l-3.244,19.999h5.873
				C401.279,32.037,406.102,27.301,406.102,19.408"/>
			<path class="st13" d="M437.242,64.052c-6.928,0-13.51-1.402-18.246-3.509c0-1.313,0-2.629,0.262-3.946
				c0.268-1.755,0.793-3.509,1.495-5.174c4.475,2.104,11.399,3.597,16.227,3.597c8.154,0,12.369-2.808,12.369-8.6
				c0-5.172-2.725-6.751-9.387-9.732c-9.035-4.035-13.771-9.3-13.771-17.104c0-10.173,8.157-16.58,21.926-16.58
				c5.702,0,10.617,1.055,14.473,2.37c0.09,0.878,0,2.719-0.261,4.036c-0.265,1.576-0.701,3.154-1.317,4.646
				c-3.509-1.315-8.421-2.369-12.457-2.369c-6.753,0-11.312,2.195-11.312,7.195c0,3.77,2.191,6.488,9.47,9.823
				c7.811,3.594,13.511,7.016,13.511,16.752C460.222,56.072,452.768,64.052,437.242,64.052"/>
		</g>
		<g>
			<path class="st13" d="M258.139,80.659c0,0.707-0.182,1.321-0.433,1.845c-0.843-0.341-2.027-0.638-3.189-0.638
				c-2.733,0-5.878,2.119-5.878,7.29c0,2.757,1.459,3.827,4.033,3.827c0.956,0,2.255-0.205,3.189-0.455
				c0.068,0.387,0.113,0.843,0.113,1.298c0,0.365-0.022,0.729-0.091,1.025c-0.957,0.296-2.415,0.501-3.69,0.501
				c-4.397,0-6.425-2.323-6.425-6.014c0-6.22,3.987-9.842,8.68-9.842c1.458,0,2.711,0.342,3.668,0.797
				C258.139,80.431,258.139,80.568,258.139,80.659z"/>
			<path class="st13" d="M267.772,90.067h-7.312V90.5c0.022,1.846,0.889,2.803,2.848,2.803c1.207,0,2.187-0.16,3.03-0.388
				c0.113,0.661,0.137,1.39,0.068,1.959c-0.912,0.319-2.073,0.479-3.6,0.479c-3.395,0-5.058-1.891-5.058-4.966
				c0-3.736,1.981-7.358,6.311-7.358c2.711,0,4.123,1.64,4.123,4.214C268.182,88.062,268.023,89.134,267.772,90.067z
				 M265.517,88.062c0.045-0.228,0.091-0.615,0.091-0.911c0-1.139-0.364-2.096-1.8-2.096c-1.776,0-2.757,1.458-3.029,3.007H265.517z
				"/>
			<path class="st13" d="M271.8,95.125c-0.388,0.068-0.979,0.114-1.367,0.114c-0.433,0-0.911-0.046-1.275-0.114l2.938-16.63
				c0.456-0.068,0.934-0.091,1.321-0.091c0.456,0,0.957,0.023,1.321,0.091L271.8,95.125z"/>
			<path class="st13" d="M284.965,90.067h-7.312V90.5c0.022,1.846,0.889,2.803,2.848,2.803c1.207,0,2.187-0.16,3.03-0.388
				c0.113,0.661,0.137,1.39,0.068,1.959c-0.912,0.319-2.073,0.479-3.6,0.479c-3.395,0-5.058-1.891-5.058-4.966
				c0-3.736,1.981-7.358,6.311-7.358c2.711,0,4.123,1.64,4.123,4.214C285.375,88.062,285.216,89.134,284.965,90.067z M282.71,88.062
				c0.045-0.228,0.091-0.615,0.091-0.911c0-1.139-0.364-2.096-1.8-2.096c-1.776,0-2.757,1.458-3.029,3.007H282.71z"/>
			<path class="st13" d="M291.09,95.353c-1.731,0-3.554-0.273-4.693-0.729l2.848-16.129c0.365-0.068,0.843-0.091,1.299-0.091
				c0.524,0,1.048,0.023,1.344,0.091l-0.979,5.672c0.798-0.638,2.027-1.139,3.099-1.139c2.802,0,3.873,2.027,3.873,4.419
				C297.879,91.503,295.875,95.353,291.09,95.353z M295.145,87.721c0-1.344-0.433-2.483-1.959-2.483
				c-0.843,0-1.959,0.433-2.688,1.094l-1.185,6.789c0.456,0.137,1.253,0.205,1.868,0.205
				C293.824,93.325,295.145,90.637,295.145,87.721z"/>
			<path class="st13" d="M307.146,85.511c-1.23,0.114-2.916,0.661-4.032,1.458l-1.412,8.156c-0.342,0.091-0.889,0.114-1.345,0.114
				c-0.455,0-1.002-0.046-1.298-0.114l2.096-11.869c0.318-0.068,0.729-0.114,1.094-0.114c0.342,0,0.797,0.045,1.07,0.114
				l-0.137,1.777h0.022c0.979-1.002,2.916-1.982,4.374-2.004C307.556,83.757,307.374,84.896,307.146,85.511z"/>
			<path class="st13" d="M318.876,83.917l-1.299,6.925c-0.251,1.299-0.364,2.848-0.41,4.283c-0.342,0.091-0.82,0.114-1.162,0.114
				c-0.364,0-0.82-0.046-1.093-0.114c-0.046-0.501-0.046-1.139-0.046-1.663h-0.022c-0.775,1.07-2.005,1.891-3.6,1.891
				c-2.188,0-3.646-1.617-3.646-4.419c0-4.602,3.144-7.905,7.062-7.905C316.393,83.028,317.919,83.416,318.876,83.917z
				 M315.96,85.283c-0.365-0.114-0.843-0.205-1.39-0.205c-2.393,0-4.237,2.437-4.237,5.65c0,1.686,0.614,2.392,1.617,2.392
				c1.116,0,2.142-0.729,2.916-1.937L315.96,85.283z"/>
			<path class="st13" d="M326.708,95.034c-0.66,0.182-1.435,0.342-2.574,0.342c-2.369,0-3.303-1.025-3.303-2.574
				c0-0.365,0.113-1.254,0.342-2.529l0.911-5.08h-1.937c-0.046-0.273-0.022-0.684,0.022-0.957c0.046-0.25,0.16-0.615,0.273-0.843
				l1.982-0.114l0.523-3.076c0.319-0.068,0.911-0.091,1.345-0.091c0.455,0,1.002,0.022,1.298,0.091l-0.523,3.053h3.371
				c0.046,0.273,0,0.638-0.045,0.889c-0.046,0.273-0.183,0.774-0.297,1.048h-3.371l-0.979,5.399
				c-0.114,0.569-0.205,1.298-0.205,1.663c0,0.615,0.364,1.024,1.229,1.024c0.729,0,1.458-0.113,2.051-0.273
				C326.891,93.621,326.823,94.51,326.708,95.034z"/>
			<path class="st13" d="M338.392,90.067h-7.312V90.5c0.022,1.846,0.889,2.803,2.848,2.803c1.207,0,2.187-0.16,3.03-0.388
				c0.113,0.661,0.137,1.39,0.068,1.959c-0.912,0.319-2.073,0.479-3.6,0.479c-3.395,0-5.058-1.891-5.058-4.966
				c0-3.736,1.981-7.358,6.311-7.358c2.711,0,4.123,1.64,4.123,4.214C338.802,88.062,338.643,89.134,338.392,90.067z
				 M336.137,88.062c0.045-0.228,0.091-0.615,0.091-0.911c0-1.139-0.364-2.096-1.8-2.096c-1.776,0-2.757,1.458-3.029,3.007H336.137z
				"/>
			<path class="st13" d="M360.348,86.65l-3.918,8.475c-0.319,0.091-0.98,0.114-1.367,0.114c-0.433,0-1.094-0.046-1.39-0.114
				l-0.752-7.951h-0.022l-3.668,7.951c-0.319,0.068-0.911,0.114-1.299,0.114c-0.433,0-1.07-0.046-1.321-0.114l-1.116-9.112
				c-0.091-0.797-0.114-1.709,0.068-2.757c0.364-0.068,0.82-0.114,1.253-0.114s1.025,0.045,1.321,0.114
				c-0.137,0.866-0.182,1.845-0.113,2.757l0.409,6.06h0.046l3.827-8.793c0.296-0.046,0.774-0.114,1.208-0.114
				c0.387,0,0.774,0.046,1.048,0.114l0.911,8.884h0.045l2.529-6.219c0.364-0.866,0.729-1.8,0.865-2.688
				c0.319-0.068,0.889-0.114,1.276-0.114c0.455,0,0.979,0.045,1.229,0.114C361.305,84.44,360.873,85.511,360.348,86.65z"/>
			<path class="st13" d="M364.1,95.125c-0.41,0.091-1.002,0.114-1.366,0.114c-0.434,0-0.911-0.046-1.253-0.114l2.072-11.869
				c0.434-0.068,0.912-0.114,1.299-0.114c0.456,0,0.935,0.045,1.321,0.114L364.1,95.125z M365.216,81.502
				c-0.819,0-1.344-0.615-1.344-1.321c0-1.071,0.729-1.686,1.686-1.686c0.752,0,1.413,0.569,1.39,1.298
				C366.948,80.795,366.333,81.502,365.216,81.502z"/>
			<path class="st13" d="M374.123,95.034c-0.66,0.182-1.435,0.342-2.574,0.342c-2.369,0-3.303-1.025-3.303-2.574
				c0-0.365,0.113-1.254,0.342-2.529l0.911-5.08h-1.937c-0.046-0.273-0.022-0.684,0.022-0.957c0.046-0.25,0.16-0.615,0.273-0.843
				l1.982-0.114l0.523-3.076c0.319-0.068,0.911-0.091,1.345-0.091c0.455,0,1.002,0.022,1.298,0.091l-0.523,3.053h3.371
				c0.046,0.273,0,0.638-0.045,0.889c-0.046,0.273-0.183,0.774-0.297,1.048h-3.371l-0.979,5.399
				c-0.114,0.569-0.205,1.298-0.205,1.663c0,0.615,0.364,1.024,1.229,1.024c0.729,0,1.458-0.113,2.051-0.273
				C374.305,93.621,374.237,94.51,374.123,95.034z"/>
			<path class="st13" d="M380.521,84.258c1.048-0.706,2.255-1.23,3.713-1.23c1.868,0,3.35,0.979,3.35,2.938
				c0,0.592-0.137,1.572-0.365,2.779l-1.139,6.379c-0.342,0.091-0.911,0.114-1.275,0.114c-0.388,0-0.979-0.046-1.345-0.114
				l1.14-6.288c0.159-0.843,0.228-1.595,0.228-1.959c0-1.07-0.638-1.572-1.709-1.572c-1.116,0-2.187,0.501-2.984,1.094l-1.549,8.725
				c-0.456,0.068-1.025,0.114-1.412,0.114c-0.365,0-0.843-0.023-1.23-0.114l2.938-16.63c0.342-0.068,0.866-0.091,1.321-0.091
				c0.456,0,1.003,0.023,1.321,0.091L380.521,84.258z"/>
			<path class="st13" d="M404.184,90.318c-0.615,3.622-1.891,5.058-5.581,5.058c-2.938,0-4.374-1.003-4.374-3.145
				c0-0.523,0.137-1.526,0.296-2.369l1.185-6.606c0.319-0.068,0.843-0.114,1.321-0.114c0.456,0,0.979,0.022,1.321,0.114
				l-1.162,6.584c-0.136,0.752-0.25,1.549-0.25,1.913c0,1.071,0.455,1.618,1.845,1.618c1.846,0,2.461-1.048,2.848-3.35l1.14-6.766
				c0.318-0.091,0.889-0.114,1.344-0.114c0.456,0,1.003,0.045,1.276,0.114L404.184,90.318z"/>
			<path class="st13" d="M409.443,95.376c-1.253,0-2.643-0.205-3.6-0.593c0-0.592,0.137-1.367,0.364-1.981
				c0.843,0.364,2.051,0.614,3.167,0.614c1.253,0,2.574-0.318,2.574-1.571c0-0.911-1.025-1.276-2.278-1.914
				c-1.64-0.843-2.483-1.776-2.483-3.303c0-2.529,2.233-3.599,4.784-3.599c0.957,0,2.142,0.205,2.803,0.433
				c0.022,0.114,0.022,0.228,0.022,0.342c0,0.547-0.159,1.139-0.388,1.617c-0.774-0.25-1.708-0.41-2.597-0.41
				c-0.957,0-2.051,0.296-2.051,1.39c0,0.774,0.661,1.23,1.846,1.845c1.686,0.889,2.894,1.572,2.894,3.395
				C414.5,94.191,412.405,95.376,409.443,95.376z"/>
		</g>
		<g>
			<path class="st13" d="M199.467,129.256l-1.553,8.28c-0.299,1.552-0.436,3.404-0.49,5.12c-0.408,0.109-0.98,0.136-1.389,0.136
				c-0.436,0-0.98-0.054-1.307-0.136c-0.055-0.6-0.055-1.362-0.055-1.988h-0.027c-0.926,1.28-2.397,2.261-4.304,2.261
				c-2.615,0-4.358-1.934-4.358-5.284c0-5.502,3.759-9.451,8.443-9.451C196.499,128.193,198.323,128.656,199.467,129.256z
				 M195.981,130.89c-0.436-0.136-1.008-0.245-1.662-0.245c-2.86,0-5.066,2.915-5.066,6.755c0,2.016,0.735,2.86,1.934,2.86
				c1.335,0,2.561-0.872,3.486-2.315L195.981,130.89z"/>
			<path class="st13" d="M208.838,142.547c-0.79,0.219-1.716,0.409-3.078,0.409c-2.833,0-3.949-1.226-3.949-3.078
				c0-0.436,0.136-1.498,0.409-3.023l1.089-6.073h-2.315c-0.055-0.327-0.027-0.817,0.027-1.145c0.054-0.3,0.19-0.735,0.327-1.008
				l2.37-0.136l0.626-3.677c0.381-0.082,1.089-0.109,1.607-0.109c0.545,0,1.198,0.027,1.552,0.109l-0.626,3.649h4.031
				c0.055,0.327,0,0.763-0.054,1.062c-0.055,0.326-0.218,0.926-0.354,1.253h-4.031l-1.171,6.455
				c-0.136,0.681-0.245,1.553-0.245,1.988c0,0.735,0.436,1.226,1.471,1.226c0.872,0,1.743-0.137,2.452-0.327
				C209.056,140.858,208.974,141.921,208.838,142.547z"/>
		</g>
		<g>
			<path class="st13" d="M242.261,114.383c0,1.38-0.356,2.582-0.846,3.606c-1.647-0.668-3.963-1.247-6.233-1.247
				c-5.344,0-11.488,4.142-11.488,14.248c0,5.388,2.849,7.48,7.881,7.48c1.87,0,4.407-0.4,6.233-0.891
				c0.133,0.757,0.223,1.647,0.223,2.538c0,0.713-0.045,1.425-0.179,2.004c-1.87,0.579-4.72,0.979-7.213,0.979
				c-8.593,0-12.556-4.542-12.556-11.755c0-12.155,7.792-19.234,16.964-19.234c2.85,0,5.299,0.668,7.169,1.558
				C242.261,113.938,242.261,114.205,242.261,114.383z"/>
			<path class="st13" d="M242.976,131.703c0-11.131,6.323-19.591,14.872-19.591c6.456,0,10.641,4.229,10.641,11.398
				c0,11.131-6.322,19.591-14.871,19.591C247.162,143.102,242.976,138.872,242.976,131.703z M262.879,123.822
				c0-4.765-1.647-7.169-5.344-7.169c-5.477,0-8.949,7.658-8.949,14.738c0,4.764,1.647,7.168,5.343,7.168
				C259.406,138.56,262.879,130.901,262.879,123.822z"/>
			<path class="st13" d="M275.882,112.558c0.802-0.134,1.736-0.223,2.672-0.223c0.979,0,1.959,0.089,2.716,0.223l-4.542,25.602
				h13.135c0.045,0.312,0.045,0.668,0.045,0.846c0,1.336-0.268,2.627-0.712,3.651h-18.612L275.882,112.558z"/>
			<path class="st13" d="M311.816,142.656h-18.3l5.299-30.099h17.632c0.045,0.178,0.045,0.445,0.045,0.712
				c0,1.247-0.356,2.538-0.847,3.785h-12.244l-1.38,7.836h10.463c0.045,0.223,0.045,0.49,0.045,0.802
				c0,1.157-0.312,2.493-0.846,3.695h-10.464l-1.514,8.771h12.778c0.045,0.312,0.045,0.668,0.045,0.846
				C312.529,140.341,312.261,141.632,311.816,142.656z"/>
			<path class="st13" d="M338.133,142.656c-0.758,0.134-1.737,0.223-2.85,0.223c-1.024,0-2.093-0.089-2.895-0.223l-4.452-11.443
				h-3.429l-2.004,11.443c-0.979,0.134-1.825,0.223-2.805,0.223c-0.891,0-1.736-0.089-2.583-0.223l5.299-30.099
				c1.87-0.09,5.699-0.223,7.926-0.223c6.011,0,9.884,1.959,9.884,7.881c0,4.186-2.359,9.038-7.346,10.24L338.133,142.656z
				 M334.749,120.438c0-2.85-1.691-3.829-4.586-3.829c-1.023,0-2.582,0.044-3.25,0.089l-1.647,10.151h2.983
				C332.3,126.85,334.749,124.445,334.749,120.438z"/>
			<path class="st13" d="M366.944,142.656c-0.535,0.134-1.604,0.223-2.761,0.223c-0.891,0-2.315-0.089-2.895-0.223l-0.979-6.901
				H349.89l-3.384,6.901c-0.802,0.134-1.914,0.223-2.938,0.223c-0.891,0-2.404-0.089-2.983-0.223l15.228-30.099
				c0.713-0.134,2.048-0.223,2.806-0.223c0.801,0,2.092,0.089,2.805,0.223L366.944,142.656z M359.641,131.303l-1.291-8.282
				c-0.178-1.113-0.356-2.448-0.49-4.007h-0.178c-0.623,1.559-1.113,2.671-1.825,4.186l-3.829,8.104H359.641z"/>
			<path class="st13" d="M376.34,142.656c-0.801,0.134-1.691,0.223-2.716,0.223c-0.979,0-1.914-0.089-2.671-0.223l5.298-30.099
				c0.802-0.134,1.825-0.223,2.761-0.223c0.979,0,1.87,0.089,2.627,0.223L376.34,142.656z"/>
			<path class="st13" d="M406.04,142.656c-0.445,0.134-1.291,0.178-1.959,0.178c-0.624,0-1.381-0.044-1.915-0.178l-10.508-21.55
				l-3.74,21.55c-0.445,0.134-1.736,0.223-2.582,0.223c-0.757,0-1.781-0.089-2.36-0.223l5.299-30.099
				c0.534-0.09,1.47-0.179,2.093-0.179c0.712,0,1.603,0.045,2.137,0.179l10.241,20.793l3.651-20.793
				c0.668-0.134,1.78-0.223,2.493-0.223c0.712,0,1.825,0.089,2.449,0.223L406.04,142.656z"/>
			<path class="st13" d="M430.886,142.656h-18.3l5.299-30.099h17.632c0.045,0.178,0.045,0.445,0.045,0.712
				c0,1.247-0.356,2.538-0.847,3.785h-12.244l-1.38,7.836h10.463c0.045,0.223,0.045,0.49,0.045,0.802
				c0,1.157-0.312,2.493-0.846,3.695H420.29l-1.514,8.771h12.778c0.045,0.312,0.045,0.668,0.045,0.846
				C431.599,140.341,431.332,141.632,430.886,142.656z"/>
		</g>
		<g>
			<path class="st13" d="M186.444,89.686c-0.091-0.173-0.189-0.329-0.28-0.501c-2.38-5.093-5.663-9.219-9.208-12.542
				c-1.043-1.042-1.977-1.873-2.702-2.418c-0.002,0.022-0.005,0.042-0.008,0.062c-9.304-7.484-19.286-9.948-19.286-9.948
				l-19.993-0.01c0,0,29.103,10.814,32.418,31.855h21.112C188.289,94.495,187.852,92.382,186.444,89.686"/>
			<path class="st13" d="M170.766,83.411c-5.297,23.432-16.288,46.309-33.237,46.309c-12.663,0-18.38-9.8-18.38-32.88
				c0-34.717,14.295-77.401,36.758-77.401c16.135,0,18.586,16.748,18.586,32.881c0,3.779-0.229,7.957-0.669,12.343
				c2.572,1.721,4.748,3.503,6.592,5.304c1.895-2.211,6.051-5.383,14.391-5.504c0.339-4.059,0.517-8.12,0.517-12.143
				c0-30.429-11.642-48.81-39.417-48.81c-35.738,0-57.59,46.359-57.59,93.33c0,26.958,9.393,48.811,39.211,48.811
				c24.663,0,42.131-21.828,51.034-49.517l-12.184-6.244C176.379,89.89,172.868,85.854,170.766,83.411"/>
			<path class="st13" d="M180.416,69.967c7.763,7.59,9.594,15.508,9.867,20.391c2.269-8.357,3.79-17.12,4.526-25.896
				C186.469,64.584,182.311,67.755,180.416,69.967"/>
			<path class="st13" d="M195.54,64.362c-0.2,0.032-0.383,0.094-0.581,0.129c0.001-0.011,0.001-0.023,0.003-0.034
				c-0.053,0.002-0.102,0.005-0.154,0.005c-8.339,0.121-12.498,3.291-14.393,5.502c7.763,7.593,9.594,15.511,9.867,20.391
				c0.161,2.931-0.233,4.768-0.233,4.768c5.117-12.033,9.175-26.546,29.709-30.75L195.54,64.362z"/>
			<path class="st13" d="M186.444,89.686c-0.091-0.173-0.189-0.329-0.28-0.501c-2.38-5.093-5.663-9.219-9.208-12.542
				c-1.043-1.042-1.977-1.873-2.702-2.418c-0.002,0.022-0.005,0.042-0.008,0.062c-9.304-7.484-19.286-9.948-19.286-9.948
				l-19.993-0.01c0,0,29.103,10.814,32.418,31.855h21.112C188.289,94.495,187.852,92.382,186.444,89.686"/>
		</g>
	</g>
</g>
</svg>
