<svg id="Layer_1" xmlns="http://www.w3.org/2000/svg" xmlns:xlink="http://www.w3.org/1999/xlink" width="466.667" height="156.667" viewBox="0 0 466.667 156.667"><style>.st0{clip-path:url(#SVGID_2_);fill:url(#SVGID_3_)}.st1{fill:#1d1d1b}.st2{fill:#b9a25f}.st3{clip-path:url(#SVGID_11_);fill:url(#SVGID_12_)}.st4{clip-path:url(#SVGID_14_);fill:url(#SVGID_15_)}.st5{clip-path:url(#SVGID_5_);fill:url(#SVGID_6_)}.st6{clip-path:url(#SVGID_17_);fill:url(#SVGID_18_)}.st7{fill:#fff}.st8{clip-path:url(#SVGID_8_);fill:url(#SVGID_9_)}.st9{clip-path:url(#SVGID_20_);fill:url(#SVGID_21_)}.st10{clip-path:url(#SVGID_23_);fill:url(#SVGID_24_)}.st11{clip-path:url(#SVGID_26_);fill:url(#SVGID_27_)}</style><defs><path id="SVGID_1_" d="M232.681 69.886l.001.003-.013-.003h-2.972c-10.803 0-24.591 5.403-32.268 34.864 39.068.102 182.335.443 204.833.443 45.975 0 58.127-35.307 58.127-35.307H232.681z"/></defs><clipPath id="SVGID_2_"><use xlink:href="#SVGID_1_" overflow="visible"/></clipPath><radialGradient id="SVGID_3_" cx="-195.309" cy="385.022" r="1" gradientTransform="scale(242.4925 -242.4925) rotate(-44.476 -567.81 -47.503)" gradientUnits="userSpaceOnUse"><stop offset="0" stop-color="#dfd3b6"/><stop offset=".399" stop-color="#baa361"/><stop offset=".814" stop-color="#988650"/><stop offset="1" stop-color="#988650"/></radialGradient><path class="st0" d="M326.502-61.572L478.04 87.217 331.316 236.651 179.779 87.863z"/><path class="st2" d="M100.337 21.97l3.579-14.37H34.481L21.967 73.146l21.912-16.18 6.165-34.996z"/><defs><path id="SVGID_4_" d="M21.967 73.146l-.023.136H48.21c18.733 0 25.453 6.923 25.453 20.973 0 21.177-10.996 35.227-32.375 35.227-12.015 0-23.62-1.831-32.987-4.684-1.425 3.259-2.24 7.33-2.443 11.199 0 1.019 0 2.036.203 3.259 8.349 3.664 21.177 5.7 35.837 5.7 35.227 0 52.738-24.027 52.534-53.144-.204-22.399-14.457-34.005-40.52-34.005H43.731l.149-.842-21.913 16.181z"/></defs><clipPath id="SVGID_5_"><use xlink:href="#SVGID_4_" overflow="visible"/></clipPath><radialGradient id="SVGID_6_" cx="-195.369" cy="384.943" r="1" gradientTransform="scale(-119.9563 119.9563) rotate(-60.154 -429.215 25.175)" gradientUnits="userSpaceOnUse"><stop offset="0" stop-color="#dfd3b6"/><stop offset=".399" stop-color="#baa361"/><stop offset=".814" stop-color="#988650"/><stop offset="1" stop-color="#988650"/></radialGradient><path class="st5" d="M27.847 183.278l-59.971-104.52L72.648 18.643l59.971 104.52z"/><path class="st1" d="M266.833 16.117l-18.451 26.757-3.411 19.852a31.883 31.883 0 0 1-5.334.437c-1.924 0-3.761-.173-5.247-.437l3.672-20.987-7.87-24.486c-1.224-3.673-1.748-7.171-1.748-9.969 0-1.312.175-2.537.35-3.673 1.398-.175 3.061-.35 4.81-.35 1.662 0 3.411.086 4.81.35a20.44 20.44 0 0 0-.262 3.323c0 2.449.437 4.897 1.398 8.045l3.236 10.582c.874 2.799 1.661 5.509 2.011 7.783h.175c1.051-2.186 2.624-4.635 4.198-6.91l8.657-12.679c1.924-2.799 3.41-6.733 4.022-10.144a31.106 31.106 0 0 1 5.072-.437c1.836 0 3.322.173 4.722.437-.611 4.722-2.099 8.57-4.81 12.506M305.663 62.726H269.72L280.127 3.61h34.63c.087.35.087.875.087 1.4 0 2.448-.699 4.983-1.66 7.432h-24.048l-2.712 15.391h20.55c.088.438.088.963.088 1.576 0 2.272-.613 4.897-1.662 7.257h-20.55l-2.974 17.228h25.098c.088.612.088 1.311.088 1.661 0 2.624-.524 5.159-1.399 7.171M363.818 62.726c-1.05.263-3.148.437-5.422.437-1.749 0-4.548-.174-5.684-.437l-1.926-13.555h-20.461l-6.646 13.555c-1.576.263-3.762.437-5.773.437-1.749 0-4.721-.174-5.858-.437L341.955 3.61c1.399-.264 4.023-.437 5.511-.437 1.572 0 4.109.173 5.509.437l10.843 59.116zm-14.342-22.3l-2.537-16.264c-.35-2.187-.699-4.811-.961-7.872h-.35c-1.225 3.061-2.188 5.247-3.587 8.222l-7.519 15.914h14.954zM412.79 62.726c-1.484.263-3.41.437-5.596.437-2.012 0-4.112-.174-5.684-.437l-8.745-22.473h-6.734l-3.936 22.473c-1.922.263-3.585.437-5.509.437-1.749 0-3.409-.174-5.072-.437L381.921 3.61c3.672-.174 11.194-.436 15.564-.436 11.806 0 19.416 3.848 19.416 15.478 0 8.22-4.636 17.753-14.431 20.113l10.32 23.961zm-6.646-43.638c0-5.597-3.322-7.519-9.008-7.519-2.012 0-5.07.087-6.384.173l-3.233 19.939h5.856c7.958 0 12.769-4.722 12.769-12.593M437.191 63.601c-6.907 0-13.467-1.399-18.189-3.498 0-1.311 0-2.624.262-3.936.264-1.749.788-3.498 1.487-5.159 4.46 2.099 11.369 3.587 16.18 3.587 8.132 0 12.329-2.799 12.329-8.572 0-5.159-2.712-6.733-9.357-9.706-9.007-4.023-13.729-9.27-13.729-17.052 0-10.144 8.133-16.529 21.862-16.529 5.686 0 10.583 1.05 14.431 2.361.086.876 0 2.712-.264 4.024a21.533 21.533 0 0 1-1.312 4.634c-3.498-1.313-8.396-2.362-12.416-2.362-6.734 0-11.282 2.187-11.282 7.172 0 3.76 2.188 6.47 9.445 9.795 7.783 3.584 13.467 6.996 13.467 16.702-.002 10.582-7.436 18.539-22.914 18.539"/><g><path class="st7" d="M258.188 78.906c0 .704-.182 1.317-.432 1.839-.84-.34-2.021-.636-3.178-.636-2.725 0-5.858 2.112-5.858 7.266 0 2.748 1.453 3.815 4.019 3.815.954 0 2.248-.205 3.179-.455.068.387.114.841.114 1.295 0 .363-.023.727-.092 1.021-.953.295-2.406.5-3.678.5-4.382 0-6.402-2.316-6.402-5.995 0-6.199 3.973-9.809 8.65-9.809 1.453 0 2.701.34 3.655.794.023.139.023.274.023.365zM267.792 88.284h-7.288v.431c.022 1.839.886 2.793 2.838 2.793 1.204 0 2.18-.159 3.021-.386.113.658.136 1.385.067 1.952-.908.318-2.065.478-3.587.478-3.383 0-5.041-1.885-5.041-4.95 0-3.724 1.976-7.334 6.289-7.334 2.702 0 4.11 1.635 4.11 4.201 0 .817-.159 1.884-.409 2.815zm-2.249-1.998c.046-.227.092-.613.092-.908 0-1.135-.363-2.089-1.794-2.089-1.771 0-2.747 1.453-3.021 2.997h4.723zM271.81 93.324a9.2 9.2 0 0 1-1.362.113c-.432 0-.908-.045-1.271-.113l2.93-16.575a9.182 9.182 0 0 1 1.316-.091c.454 0 .953.023 1.316.091l-2.929 16.575zM284.933 88.284h-7.288v.431c.022 1.839.886 2.793 2.838 2.793 1.203 0 2.18-.159 3.02-.386a7.1 7.1 0 0 1 .068 1.952c-.908.318-2.066.478-3.587.478-3.384 0-5.041-1.885-5.041-4.95 0-3.724 1.976-7.334 6.29-7.334 2.701 0 4.109 1.635 4.109 4.201 0 .817-.159 1.884-.409 2.815zm-2.247-1.998c.045-.227.09-.613.09-.908 0-1.135-.363-2.089-1.793-2.089-1.771 0-2.748 1.453-3.02 2.997h4.723zM291.04 93.552c-1.726 0-3.542-.273-4.677-.727l2.838-16.076c.363-.068.84-.091 1.294-.091.522 0 1.045.023 1.34.091l-.977 5.654c.795-.636 2.021-1.136 3.088-1.136 2.793 0 3.86 2.021 3.86 4.405 0 4.042-1.998 7.88-6.766 7.88zm4.042-7.607c0-1.34-.432-2.475-1.953-2.475-.84 0-1.952.431-2.679 1.09l-1.181 6.766c.454.136 1.249.204 1.861.204 2.634 0 3.952-2.678 3.952-5.585zM307.046 83.743c-1.226.114-2.906.659-4.019 1.453l-1.408 8.128c-.34.091-.885.113-1.34.113-.453 0-.998-.045-1.294-.113l2.089-11.829a5.547 5.547 0 0 1 1.09-.114c.341 0 .795.045 1.067.114l-.136 1.771h.022c.976-.999 2.906-1.975 4.359-1.998-.02.726-.202 1.862-.43 2.475zM318.739 82.153l-1.294 6.902c-.25 1.294-.363 2.838-.409 4.269-.34.091-.816.113-1.157.113-.363 0-.817-.045-1.09-.113-.046-.499-.046-1.136-.046-1.657h-.022c-.772 1.066-1.998 1.885-3.587 1.885-2.18 0-3.633-1.612-3.633-4.405 0-4.586 3.133-7.879 7.038-7.879 1.725 0 3.247.386 4.2.885zm-2.906 1.363a4.713 4.713 0 0 0-1.385-.204c-2.384 0-4.223 2.429-4.223 5.631 0 1.68.612 2.384 1.611 2.384 1.113 0 2.135-.727 2.906-1.93l1.091-5.881zM326.572 93.233a9.072 9.072 0 0 1-2.565.341c-2.361 0-3.293-1.022-3.293-2.565 0-.363.114-1.249.341-2.521l.908-5.063h-1.93c-.046-.272-.022-.681.022-.954.046-.25.159-.613.272-.84l1.976-.113.522-3.065c.317-.068.908-.091 1.339-.091.455 0 1 .023 1.295.091l-.522 3.043h3.36c.045.272 0 .636-.045.885a6.011 6.011 0 0 1-.296 1.044h-3.36l-.977 5.381c-.113.568-.204 1.295-.204 1.658 0 .612.363 1.021 1.227 1.021.727 0 1.453-.113 2.043-.272.068.612 0 1.498-.113 2.02zM338.241 88.284h-7.288v.431c.022 1.839.886 2.793 2.838 2.793 1.204 0 2.18-.159 3.021-.386.113.658.136 1.385.067 1.952-.908.318-2.065.478-3.587.478-3.383 0-5.041-1.885-5.041-4.95 0-3.724 1.976-7.334 6.289-7.334 2.702 0 4.11 1.635 4.11 4.201 0 .817-.159 1.884-.409 2.815zm-2.248-1.998c.046-.227.092-.613.092-.908 0-1.135-.363-2.089-1.794-2.089-1.771 0-2.747 1.453-3.021 2.997h4.723zM360.127 84.878l-3.904 8.446c-.318.091-.977.113-1.363.113-.431 0-1.09-.045-1.385-.113l-.749-7.924h-.022l-3.656 7.924c-.317.068-.908.113-1.294.113-.431 0-1.067-.045-1.316-.113l-1.112-9.082a9.436 9.436 0 0 1 .067-2.747c.363-.068.817-.114 1.249-.114s1.021.045 1.316.114a12.226 12.226 0 0 0-.113 2.747l.409 6.04h.045l3.814-8.765a8.43 8.43 0 0 1 1.204-.113c.386 0 .771.045 1.044.113l.908 8.854h.046l2.52-6.198c.363-.862.727-1.793.863-2.679a7.35 7.35 0 0 1 1.271-.114c.454 0 .977.045 1.226.114-.113 1.182-.545 2.249-1.068 3.384zM363.874 93.324c-.408.091-.999.113-1.362.113-.432 0-.908-.045-1.249-.113l2.066-11.829a8.834 8.834 0 0 1 1.294-.114c.454 0 .931.045 1.317.114l-2.066 11.829zm1.112-13.577c-.817 0-1.339-.613-1.339-1.317 0-1.067.727-1.68 1.68-1.68.749 0 1.408.568 1.385 1.294-.001.999-.614 1.703-1.726 1.703zM373.863 93.233a9.072 9.072 0 0 1-2.565.341c-2.361 0-3.293-1.022-3.293-2.565 0-.363.114-1.249.341-2.521l.908-5.063h-1.93c-.046-.272-.022-.681.022-.954.046-.25.159-.613.272-.84l1.976-.113.522-3.065c.317-.068.908-.091 1.339-.091.455 0 1 .023 1.295.091l-.522 3.043h3.36c.045.272 0 .636-.045.885a6.011 6.011 0 0 1-.296 1.044h-3.36l-.977 5.381c-.113.568-.204 1.295-.204 1.658 0 .612.363 1.021 1.227 1.021.727 0 1.453-.113 2.043-.272.068.612 0 1.498-.113 2.02zM380.243 82.494c1.045-.704 2.248-1.227 3.701-1.227 1.861 0 3.338.977 3.338 2.929 0 .59-.137 1.567-.363 2.77l-1.136 6.357c-.341.091-.908.113-1.271.113-.386 0-.977-.045-1.34-.113l1.136-6.267c.158-.84.227-1.589.227-1.953 0-1.067-.636-1.567-1.703-1.567-1.112 0-2.18.5-2.974 1.09l-1.544 8.696a10.65 10.65 0 0 1-1.408.113c-.363 0-.84-.022-1.226-.113l2.929-16.575c.341-.068.863-.091 1.316-.091.455 0 1 .023 1.317.091l-.999 5.747zM403.832 88.533c-.613 3.61-1.885 5.041-5.563 5.041-2.929 0-4.359-.999-4.359-3.134 0-.521.137-1.521.296-2.361l1.181-6.584c.317-.068.84-.114 1.316-.114.454 0 .977.023 1.317.114l-1.158 6.562c-.136.749-.25 1.544-.25 1.907 0 1.067.454 1.612 1.839 1.612 1.84 0 2.453-1.045 2.839-3.338l1.135-6.743c.318-.091.886-.114 1.34-.114s.999.045 1.271.114l-1.204 7.038zM409.076 93.574c-1.249 0-2.634-.204-3.587-.591 0-.59.136-1.362.363-1.975.84.363 2.043.612 3.155.612 1.249 0 2.565-.317 2.565-1.566 0-.908-1.021-1.271-2.27-1.907-1.635-.84-2.476-1.771-2.476-3.292 0-2.521 2.226-3.588 4.769-3.588.953 0 2.134.205 2.793.432.022.113.022.227.022.341 0 .545-.159 1.135-.386 1.612a8.697 8.697 0 0 0-2.589-.409c-.954 0-2.044.295-2.044 1.385 0 .772.659 1.227 1.84 1.839 1.68.885 2.883 1.567 2.883 3.383.002 2.544-2.086 3.724-5.038 3.724z"/></g><g><path class="st1" d="M200.127 131.593l-1.548 8.257c-.298 1.549-.435 3.396-.489 5.106-.407.108-.978.136-1.385.136-.435 0-.978-.055-1.304-.136-.054-.598-.054-1.358-.054-1.982h-.027c-.924 1.276-2.391 2.254-4.292 2.254-2.607 0-4.346-1.929-4.346-5.27 0-5.486 3.748-9.424 8.419-9.424 2.066 0 3.885.461 5.026 1.059zm-3.477 1.63a5.616 5.616 0 0 0-1.657-.244c-2.852 0-5.052 2.906-5.052 6.735 0 2.01.733 2.852 1.928 2.852 1.331 0 2.553-.869 3.477-2.309l1.304-7.034zM209.467 144.848c-.788.217-1.711.407-3.069.407-2.825 0-3.938-1.223-3.938-3.069 0-.435.136-1.494.407-3.015l1.086-6.057h-2.309c-.054-.326-.027-.815.027-1.141.054-.299.19-.733.326-1.005l2.363-.136.625-3.667c.38-.082 1.086-.108 1.603-.108.543 0 1.195.026 1.548.108l-.625 3.64h4.02c.054.325 0 .76-.055 1.059a7.14 7.14 0 0 1-.353 1.25h-4.02l-1.168 6.437c-.136.68-.245 1.549-.245 1.983 0 .733.435 1.222 1.467 1.222.869 0 1.738-.136 2.444-.326.084.733.002 1.793-.134 2.418z"/></g><g><path class="st1" d="M242.789 116.77c0 1.376-.354 2.575-.843 3.596-1.643-.666-3.95-1.243-6.215-1.243-5.326 0-11.452 4.128-11.452 14.204 0 5.371 2.84 7.457 7.856 7.457 1.865 0 4.396-.399 6.215-.888.133.755.222 1.643.222 2.53 0 .71-.044 1.421-.177 1.998-1.864.576-4.705.977-7.191.977-8.567 0-12.517-4.528-12.517-11.719 0-12.118 7.767-19.176 16.912-19.176 2.841 0 5.282.666 7.146 1.554.044.266.044.532.044.71zM243.545 134.037c0-11.098 6.304-19.531 14.826-19.531 6.436 0 10.608 4.217 10.608 11.363 0 11.097-6.303 19.531-14.825 19.531-6.436 0-10.609-4.217-10.609-11.363zm19.842-7.857c0-4.749-1.643-7.146-5.326-7.146-5.46 0-8.922 7.635-8.922 14.692 0 4.75 1.642 7.146 5.326 7.146 5.46 0 8.922-7.635 8.922-14.692zM276.352 114.95a16.19 16.19 0 0 1 5.371 0l-4.527 25.522h13.095c.044.311.044.666.044.844 0 1.331-.267 2.619-.71 3.64H271.07l5.282-30.006zM312.176 144.956h-18.244l5.282-30.006h17.578c.044.178.044.443.044.71 0 1.243-.354 2.53-.843 3.772h-12.207l-1.376 7.812h10.431c.045.222.045.488.045.799 0 1.154-.311 2.486-.844 3.685h-10.431l-1.51 8.744h12.739c.045.311.045.666.045.844.001 1.331-.265 2.62-.709 3.64zM338.412 144.956c-.754.133-1.73.222-2.841.222-1.021 0-2.086-.089-2.885-.222l-4.439-11.407h-3.417l-1.998 11.407c-.977.133-1.819.222-2.796.222-.888 0-1.731-.089-2.575-.222l5.282-30.006c1.864-.089 5.682-.223 7.901-.223 5.992 0 9.854 1.953 9.854 7.857 0 4.172-2.354 9.011-7.324 10.209l5.238 12.163zm-3.373-22.149c0-2.841-1.687-3.817-4.572-3.817-1.021 0-2.574.044-3.24.089l-1.643 10.12h2.975c4.038-.001 6.48-2.397 6.48-6.392zM367.132 144.956c-.532.133-1.598.222-2.752.222-.888 0-2.308-.089-2.885-.222l-.977-6.88h-10.387l-3.374 6.88c-.799.133-1.908.222-2.93.222-.888 0-2.396-.089-2.974-.222l15.181-30.006c.71-.134 2.042-.223 2.796-.223.8 0 2.087.089 2.797.223l5.505 30.006zm-7.279-11.319l-1.287-8.256a54.404 54.404 0 0 1-.488-3.995h-.178a68.773 68.773 0 0 1-1.82 4.173l-3.817 8.078h7.59zM376.501 144.956c-.799.133-1.687.222-2.708.222-.977 0-1.908-.089-2.663-.222l5.282-30.006c.799-.134 1.82-.223 2.752-.223.977 0 1.864.089 2.619.223l-5.282 30.006zM406.109 144.956c-.443.133-1.287.178-1.953.178-.621 0-1.376-.045-1.908-.178l-10.476-21.483-3.729 21.483c-.444.133-1.731.222-2.575.222-.754 0-1.775-.089-2.353-.222l5.282-30.006a15.2 15.2 0 0 1 2.087-.178c.71 0 1.598.044 2.13.178l10.21 20.729 3.64-20.729c.665-.134 1.775-.223 2.485-.223s1.82.089 2.441.223l-5.281 30.006zM430.881 144.956h-18.244l5.282-30.006h17.578c.044.178.044.443.044.71 0 1.243-.354 2.53-.843 3.772h-12.207l-1.376 7.812h10.431c.045.222.045.488.045.799 0 1.154-.311 2.486-.844 3.685h-10.431l-1.51 8.744h12.739c.045.311.045.666.045.844.001 1.331-.265 2.62-.709 3.64z"/></g><g><defs><path id="SVGID_7_" d="M99.274 96.291c0 26.879 9.366 48.665 39.095 48.665 24.59 0 42.006-21.763 50.883-49.367l-.079-.041c.003.028.011.061.014.088h-21.05c-.013-.088-.036-.168-.05-.254-6.017 18.382-15.873 33.691-29.718 33.691-12.624 0-18.326-9.771-18.326-32.782 0-34.615 14.254-77.171 36.652-77.171 16.085 0 18.529 16.696 18.529 32.782 0 3.768-.227 7.934-.667 12.308 2.564 1.714 4.735 3.491 6.572 5.288 1.89-2.207 6.033-5.368 14.349-5.487.339-4.048.515-8.098.515-12.109 0-30.339-11.606-48.665-39.298-48.665-35.633 0-57.421 46.221-57.421 93.054"/></defs><clipPath id="SVGID_8_"><use xlink:href="#SVGID_7_" overflow="visible"/></clipPath><radialGradient id="SVGID_9_" cx="-195.32" cy="385.051" r="1" gradientTransform="scale(152.6925 -152.6925) rotate(-77.309 -337.924 69.79)" gradientUnits="userSpaceOnUse"><stop offset="0" stop-color="#dfd3b6"/><stop offset=".459" stop-color="#baa361"/><stop offset=".831" stop-color="#988650"/><stop offset="1" stop-color="#988650"/></radialGradient><path class="st8" d="M191.326-17.492l35.042 155.608-122.426 27.57L68.901 10.077z"/></g><g><defs><path id="SVGID_10_" d="M181.129 69.498c7.74 7.567 9.565 15.463 9.836 20.328 2.262-8.33 3.781-17.066 4.513-25.815-8.315.119-12.458 3.28-14.349 5.487"/></defs><clipPath id="SVGID_11_"><use xlink:href="#SVGID_10_" overflow="visible"/></clipPath><radialGradient id="SVGID_12_" cx="-195.32" cy="385.051" r="1" gradientTransform="scale(152.6925 -152.6925) rotate(-77.309 -337.924 69.79)" gradientUnits="userSpaceOnUse"><stop offset="0" stop-color="#dfd3b6"/><stop offset=".459" stop-color="#b8a25f"/><stop offset=".831" stop-color="#74673c"/><stop offset="1" stop-color="#74673c"/></radialGradient><path class="st3" d="M194.786 60.936l6.225 27.644-19.189 4.321-6.225-27.644z"/></g><g><defs><path id="SVGID_13_" d="M195.629 64.039l.003-.034c-.053.001-.101.005-.154.006-8.316.119-12.459 3.28-14.349 5.487 7.74 7.567 9.565 15.463 9.836 20.328.162 2.925-.231 4.756-.231 4.756 5.102-11.997 9.146-26.47 29.62-30.661l-24.145-.013c-.2.032-.381.096-.58.131"/></defs><clipPath id="SVGID_14_"><use xlink:href="#SVGID_13_" overflow="visible"/></clipPath><radialGradient id="SVGID_15_" cx="-195.317" cy="385.021" r="1" gradientTransform="scale(291.8723 -291.8723) rotate(-59.589 -433.794 21.962)" gradientUnits="userSpaceOnUse"><stop offset="0" stop-color="#dfd3b6"/><stop offset=".399" stop-color="#baa361"/><stop offset=".812" stop-color="#837646"/><stop offset="1" stop-color="#837646"/></radialGradient><path class="st4" d="M210.304 46.784l23.442 39.939-42.565 24.983-23.442-39.938z"/></g><g><defs><path id="SVGID_16_" d="M168.087 95.382a138.945 138.945 0 0 0 3.422-12.48c-.796-.925-1.394-1.628-1.511-1.784-.426-.569-15.209-12.224-15.209-12.224l-1.313-5.009-17.66-.009c0-.001 28.77 10.696 32.271 31.506"/></defs><clipPath id="SVGID_17_"><use xlink:href="#SVGID_16_" overflow="visible"/></clipPath><radialGradient id="SVGID_18_" cx="-195.305" cy="385.044" r="1" gradientTransform="scale(151.4616 -151.4616) rotate(-59.589 -433.449 21.321)" gradientUnits="userSpaceOnUse"><stop offset="0" stop-color="#dfd3b6"/><stop offset=".399" stop-color="#b8a25f"/><stop offset=".831" stop-color="#74673c"/><stop offset="1" stop-color="#74673c"/></radialGradient><path class="st6" d="M162.364 48.293l22.9 39.016-40.302 23.655-22.9-39.015z"/></g><g><defs><path id="SVGID_19_" d="M168.087 95.382c.014.086.037.166.05.254h21.05c-.003-.027-.011-.06-.014-.088l-12.068-6.187s-3.503-4.025-5.596-6.46a138.213 138.213 0 0 1-3.422 12.481"/></defs><clipPath id="SVGID_20_"><use xlink:href="#SVGID_19_" overflow="visible"/></clipPath><radialGradient id="SVGID_21_" cx="-195.32" cy="385.051" r="1" gradientTransform="scale(152.6925 -152.6925) rotate(-77.309 -337.924 69.79)" gradientUnits="userSpaceOnUse"><stop offset="0" stop-color="#dfd3b6"/><stop offset=".459" stop-color="#b8a25f"/><stop offset=".831" stop-color="#74673c"/><stop offset="1" stop-color="#74673c"/></radialGradient><path class="st9" d="M188.169 78.379l3.748 16.642-22.811 5.136-3.748-16.641z"/></g><g><defs><path id="SVGID_22_" d="M168.087 95.382c.014.086.037.166.05.254h21.05c-.003-.027-.011-.06-.014-.088l-12.068-6.187s-3.503-4.025-5.596-6.46a138.213 138.213 0 0 1-3.422 12.481"/></defs><clipPath id="SVGID_23_"><use xlink:href="#SVGID_22_" overflow="visible"/></clipPath><radialGradient id="SVGID_24_" cx="-195.305" cy="385.044" r="1" gradientTransform="scale(151.4616 -151.4616) rotate(-59.589 -433.449 21.321)" gradientUnits="userSpaceOnUse"><stop offset="0" stop-color="#dfd3b6"/><stop offset=".399" stop-color="#b8a25f"/><stop offset=".831" stop-color="#74673c"/><stop offset="1" stop-color="#74673c"/></radialGradient><path class="st10" d="M183.781 73.69l10.966 18.682-21.253 12.475-10.966-18.683z"/></g><g><defs><path id="SVGID_25_" d="M168.137 95.636h21.051c-.209-1.686-.646-3.79-2.047-6.478-.091-.172-.189-.328-.28-.499-2.372-5.081-5.645-9.191-9.18-12.506-1.041-1.04-1.971-1.866-2.692-2.412-.004.022-.006.043-.011.063-9.276-7.462-19.228-9.919-19.228-9.919l-19.933-.01c-.001 0 29.015 10.783 32.32 31.761"/></defs><clipPath id="SVGID_26_"><use xlink:href="#SVGID_25_" overflow="visible"/></clipPath><radialGradient id="SVGID_27_" cx="-195.305" cy="385.045" r="1" gradientTransform="scale(151.4616 -151.4616) rotate(-59.589 -433.449 21.321)" gradientUnits="userSpaceOnUse"><stop offset="0" stop-color="#dfd3b6"/><stop offset=".399" stop-color="#baa361"/><stop offset=".812" stop-color="#837646"/><stop offset="1" stop-color="#837646"/></radialGradient><path class="st11" d="M175.512 40.576l27.54 46.921-53.56 31.438-27.54-46.921z"/></g></svg>