<svg xmlns="http://www.w3.org/2000/svg" xmlns:xlink="http://www.w3.org/1999/xlink" width="466.667" height="156.667" viewBox="0 0 466.667 156.667"><style>.st0{clip-path:url(#SVGID_29_);fill:url(#SVGID_30_)}.st1{clip-path:url(#SVGID_44_);fill:url(#SVGID_45_)}.st2{clip-path:url(#SVGID_47_);fill:url(#SVGID_48_)}.st3{clip-path:url(#SVGID_2_);fill:url(#SVGID_3_)}.st4{fill:#1d1d1b}.st5{fill:#b9a25f}.st6{clip-path:url(#SVGID_11_);fill:url(#SVGID_12_)}.st7{clip-path:url(#SVGID_14_);fill:url(#SVGID_15_)}.st8{clip-path:url(#SVGID_5_);fill:url(#SVGID_6_)}.st9{clip-path:url(#SVGID_17_);fill:url(#SVGID_18_)}.st10{clip-path:url(#SVGID_32_);fill:url(#SVGID_33_)}.st11{clip-path:url(#SVGID_35_);fill:url(#SVGID_36_)}.st12{clip-path:url(#SVGID_38_);fill:url(#SVGID_39_)}.st13{fill:#fff}.st14{display:inline}.st15{display:none}.st16{clip-path:url(#SVGID_8_);fill:url(#SVGID_9_)}.st17{clip-path:url(#SVGID_20_);fill:url(#SVGID_21_)}.st18{clip-path:url(#SVGID_23_);fill:url(#SVGID_24_)}.st19{clip-path:url(#SVGID_26_);fill:url(#SVGID_27_)}.st20{clip-path:url(#SVGID_41_);fill:url(#SVGID_42_)}</style><g class="st15 st14" id="full_colour"><defs><path id="SVGID_1_" d="M232.681 69.886l.001.003-.013-.003h-2.972c-10.803 0-24.591 5.403-32.268 34.864 39.068.102 182.335.443 204.833.443 45.975 0 58.127-35.307 58.127-35.307H232.681z"/></defs><clipPath id="SVGID_2_"><use xlink:href="#SVGID_1_" overflow="visible"/></clipPath><radialGradient id="SVGID_3_" cx="-195.309" cy="385.022" r="1" gradientTransform="scale(242.4925 -242.4925) rotate(-44.476 -567.81 -47.503)" gradientUnits="userSpaceOnUse"><stop offset="0" stop-color="#dfd3b6"/><stop offset=".399" stop-color="#baa361"/><stop offset=".814" stop-color="#988650"/><stop offset="1" stop-color="#988650"/></radialGradient><path class="st3" d="M326.502-61.572L478.04 87.217 331.316 236.651 179.779 87.863z"/><path class="st5" d="M100.337 21.97l3.579-14.37H34.481L21.967 73.146l21.912-16.18 6.165-34.996z"/><defs><path id="SVGID_4_" d="M21.967 73.146l-.023.136H48.21c18.733 0 25.453 6.923 25.453 20.973 0 21.177-10.996 35.227-32.375 35.227-12.015 0-23.62-1.831-32.987-4.684-1.425 3.259-2.24 7.33-2.443 11.199 0 1.019 0 2.036.203 3.259 8.349 3.664 21.177 5.7 35.837 5.7 35.227 0 52.738-24.027 52.534-53.144-.204-22.399-14.457-34.005-40.52-34.005H43.731l.149-.842-21.913 16.181z"/></defs><clipPath id="SVGID_5_"><use xlink:href="#SVGID_4_" overflow="visible"/></clipPath><radialGradient id="SVGID_6_" cx="-195.369" cy="384.943" r="1" gradientTransform="scale(-119.9563 119.9563) rotate(-60.154 -429.215 25.175)" gradientUnits="userSpaceOnUse"><stop offset="0" stop-color="#dfd3b6"/><stop offset=".399" stop-color="#baa361"/><stop offset=".814" stop-color="#988650"/><stop offset="1" stop-color="#988650"/></radialGradient><path class="st8" d="M27.847 183.278l-59.971-104.52L72.648 18.643l59.971 104.52z"/><path class="st4" d="M266.833 16.117l-18.451 26.757-3.411 19.852a31.883 31.883 0 0 1-5.334.437c-1.924 0-3.761-.173-5.247-.437l3.672-20.987-7.87-24.486c-1.224-3.673-1.748-7.171-1.748-9.969 0-1.312.175-2.537.35-3.673 1.398-.175 3.061-.35 4.81-.35 1.662 0 3.411.086 4.81.35a20.44 20.44 0 0 0-.262 3.323c0 2.449.437 4.897 1.398 8.045l3.236 10.582c.874 2.799 1.661 5.509 2.011 7.783h.175c1.051-2.186 2.624-4.635 4.198-6.91l8.657-12.679c1.924-2.799 3.41-6.733 4.022-10.144a31.106 31.106 0 0 1 5.072-.437c1.836 0 3.322.173 4.722.437-.611 4.722-2.099 8.57-4.81 12.506M305.663 62.726H269.72L280.127 3.61h34.63c.087.35.087.875.087 1.4 0 2.448-.699 4.983-1.66 7.432h-24.048l-2.712 15.391h20.55c.088.438.088.963.088 1.576 0 2.272-.613 4.897-1.662 7.257h-20.55l-2.974 17.228h25.098c.088.612.088 1.311.088 1.661 0 2.624-.524 5.159-1.399 7.171M363.818 62.726c-1.05.263-3.148.437-5.422.437-1.749 0-4.548-.174-5.684-.437l-1.926-13.555h-20.461l-6.646 13.555c-1.576.263-3.762.437-5.773.437-1.749 0-4.721-.174-5.858-.437L341.955 3.61c1.399-.264 4.023-.437 5.511-.437 1.572 0 4.109.173 5.509.437l10.843 59.116zm-14.342-22.3l-2.537-16.264c-.35-2.187-.699-4.811-.961-7.872h-.35c-1.225 3.061-2.188 5.247-3.587 8.222l-7.519 15.914h14.954zM412.79 62.726c-1.484.263-3.41.437-5.596.437-2.012 0-4.112-.174-5.684-.437l-8.745-22.473h-6.734l-3.936 22.473c-1.922.263-3.585.437-5.509.437-1.749 0-3.409-.174-5.072-.437L381.921 3.61c3.672-.174 11.194-.436 15.564-.436 11.806 0 19.416 3.848 19.416 15.478 0 8.22-4.636 17.753-14.431 20.113l10.32 23.961zm-6.646-43.638c0-5.597-3.322-7.519-9.008-7.519-2.012 0-5.07.087-6.384.173l-3.233 19.939h5.856c7.958 0 12.769-4.722 12.769-12.593M437.191 63.601c-6.907 0-13.467-1.399-18.189-3.498 0-1.311 0-2.624.262-3.936.264-1.749.788-3.498 1.487-5.159 4.46 2.099 11.369 3.587 16.18 3.587 8.132 0 12.329-2.799 12.329-8.572 0-5.159-2.712-6.733-9.357-9.706-9.007-4.023-13.729-9.27-13.729-17.052 0-10.144 8.133-16.529 21.862-16.529 5.686 0 10.583 1.05 14.431 2.361.086.876 0 2.712-.264 4.024a21.533 21.533 0 0 1-1.312 4.634c-3.498-1.313-8.396-2.362-12.416-2.362-6.734 0-11.282 2.187-11.282 7.172 0 3.76 2.188 6.47 9.445 9.795 7.783 3.584 13.467 6.996 13.467 16.702-.002 10.582-7.436 18.539-22.914 18.539"/><g><path class="st13" d="M258.188 78.906c0 .704-.182 1.317-.432 1.839-.84-.34-2.021-.636-3.178-.636-2.725 0-5.858 2.112-5.858 7.266 0 2.748 1.453 3.815 4.019 3.815.954 0 2.248-.205 3.179-.455.068.387.114.841.114 1.295 0 .363-.023.727-.092 1.021-.953.295-2.406.5-3.678.5-4.382 0-6.402-2.316-6.402-5.995 0-6.199 3.973-9.809 8.65-9.809 1.453 0 2.701.34 3.655.794.023.139.023.274.023.365zM267.792 88.284h-7.288v.431c.022 1.839.886 2.793 2.838 2.793 1.204 0 2.18-.159 3.021-.386.113.658.136 1.385.067 1.952-.908.318-2.065.478-3.587.478-3.383 0-5.041-1.885-5.041-4.95 0-3.724 1.976-7.334 6.289-7.334 2.702 0 4.11 1.635 4.11 4.201 0 .817-.159 1.884-.409 2.815zm-2.249-1.998c.046-.227.092-.613.092-.908 0-1.135-.363-2.089-1.794-2.089-1.771 0-2.747 1.453-3.021 2.997h4.723zM271.81 93.324a9.2 9.2 0 0 1-1.362.113c-.432 0-.908-.045-1.271-.113l2.93-16.575a9.182 9.182 0 0 1 1.316-.091c.454 0 .953.023 1.316.091l-2.929 16.575zM284.933 88.284h-7.288v.431c.022 1.839.886 2.793 2.838 2.793 1.203 0 2.18-.159 3.02-.386a7.1 7.1 0 0 1 .068 1.952c-.908.318-2.066.478-3.587.478-3.384 0-5.041-1.885-5.041-4.95 0-3.724 1.976-7.334 6.29-7.334 2.701 0 4.109 1.635 4.109 4.201 0 .817-.159 1.884-.409 2.815zm-2.247-1.998c.045-.227.09-.613.09-.908 0-1.135-.363-2.089-1.793-2.089-1.771 0-2.748 1.453-3.02 2.997h4.723zM291.04 93.552c-1.726 0-3.542-.273-4.677-.727l2.838-16.076c.363-.068.84-.091 1.294-.091.522 0 1.045.023 1.34.091l-.977 5.654c.795-.636 2.021-1.136 3.088-1.136 2.793 0 3.86 2.021 3.86 4.405 0 4.042-1.998 7.88-6.766 7.88zm4.042-7.607c0-1.34-.432-2.475-1.953-2.475-.84 0-1.952.431-2.679 1.09l-1.181 6.766c.454.136 1.249.204 1.861.204 2.634 0 3.952-2.678 3.952-5.585zM307.046 83.743c-1.226.114-2.906.659-4.019 1.453l-1.408 8.128c-.34.091-.885.113-1.34.113-.453 0-.998-.045-1.294-.113l2.089-11.829a5.547 5.547 0 0 1 1.09-.114c.341 0 .795.045 1.067.114l-.136 1.771h.022c.976-.999 2.906-1.975 4.359-1.998-.02.726-.202 1.862-.43 2.475zM318.739 82.153l-1.294 6.902c-.25 1.294-.363 2.838-.409 4.269-.34.091-.816.113-1.157.113-.363 0-.817-.045-1.09-.113-.046-.499-.046-1.136-.046-1.657h-.022c-.772 1.066-1.998 1.885-3.587 1.885-2.18 0-3.633-1.612-3.633-4.405 0-4.586 3.133-7.879 7.038-7.879 1.725 0 3.247.386 4.2.885zm-2.906 1.363a4.713 4.713 0 0 0-1.385-.204c-2.384 0-4.223 2.429-4.223 5.631 0 1.68.612 2.384 1.611 2.384 1.113 0 2.135-.727 2.906-1.93l1.091-5.881zM326.572 93.233a9.072 9.072 0 0 1-2.565.341c-2.361 0-3.293-1.022-3.293-2.565 0-.363.114-1.249.341-2.521l.908-5.063h-1.93c-.046-.272-.022-.681.022-.954.046-.25.159-.613.272-.84l1.976-.113.522-3.065c.317-.068.908-.091 1.339-.091.455 0 1 .023 1.295.091l-.522 3.043h3.36c.045.272 0 .636-.045.885a6.011 6.011 0 0 1-.296 1.044h-3.36l-.977 5.381c-.113.568-.204 1.295-.204 1.658 0 .612.363 1.021 1.227 1.021.727 0 1.453-.113 2.043-.272.068.612 0 1.498-.113 2.02zM338.241 88.284h-7.288v.431c.022 1.839.886 2.793 2.838 2.793 1.204 0 2.18-.159 3.021-.386.113.658.136 1.385.067 1.952-.908.318-2.065.478-3.587.478-3.383 0-5.041-1.885-5.041-4.95 0-3.724 1.976-7.334 6.289-7.334 2.702 0 4.11 1.635 4.11 4.201 0 .817-.159 1.884-.409 2.815zm-2.248-1.998c.046-.227.092-.613.092-.908 0-1.135-.363-2.089-1.794-2.089-1.771 0-2.747 1.453-3.021 2.997h4.723zM360.127 84.878l-3.904 8.446c-.318.091-.977.113-1.363.113-.431 0-1.09-.045-1.385-.113l-.749-7.924h-.022l-3.656 7.924c-.317.068-.908.113-1.294.113-.431 0-1.067-.045-1.316-.113l-1.112-9.082a9.436 9.436 0 0 1 .067-2.747c.363-.068.817-.114 1.249-.114s1.021.045 1.316.114a12.226 12.226 0 0 0-.113 2.747l.409 6.04h.045l3.814-8.765a8.43 8.43 0 0 1 1.204-.113c.386 0 .771.045 1.044.113l.908 8.854h.046l2.52-6.198c.363-.862.727-1.793.863-2.679a7.35 7.35 0 0 1 1.271-.114c.454 0 .977.045 1.226.114-.113 1.182-.545 2.249-1.068 3.384zM363.874 93.324c-.408.091-.999.113-1.362.113-.432 0-.908-.045-1.249-.113l2.066-11.829a8.834 8.834 0 0 1 1.294-.114c.454 0 .931.045 1.317.114l-2.066 11.829zm1.112-13.577c-.817 0-1.339-.613-1.339-1.317 0-1.067.727-1.68 1.68-1.68.749 0 1.408.568 1.385 1.294-.001.999-.614 1.703-1.726 1.703zM373.863 93.233a9.072 9.072 0 0 1-2.565.341c-2.361 0-3.293-1.022-3.293-2.565 0-.363.114-1.249.341-2.521l.908-5.063h-1.93c-.046-.272-.022-.681.022-.954.046-.25.159-.613.272-.84l1.976-.113.522-3.065c.317-.068.908-.091 1.339-.091.455 0 1 .023 1.295.091l-.522 3.043h3.36c.045.272 0 .636-.045.885a6.011 6.011 0 0 1-.296 1.044h-3.36l-.977 5.381c-.113.568-.204 1.295-.204 1.658 0 .612.363 1.021 1.227 1.021.727 0 1.453-.113 2.043-.272.068.612 0 1.498-.113 2.02zM380.243 82.494c1.045-.704 2.248-1.227 3.701-1.227 1.861 0 3.338.977 3.338 2.929 0 .59-.137 1.567-.363 2.77l-1.136 6.357c-.341.091-.908.113-1.271.113-.386 0-.977-.045-1.34-.113l1.136-6.267c.158-.84.227-1.589.227-1.953 0-1.067-.636-1.567-1.703-1.567-1.112 0-2.18.5-2.974 1.09l-1.544 8.696a10.65 10.65 0 0 1-1.408.113c-.363 0-.84-.022-1.226-.113l2.929-16.575c.341-.068.863-.091 1.316-.091.455 0 1 .023 1.317.091l-.999 5.747zM403.832 88.533c-.613 3.61-1.885 5.041-5.563 5.041-2.929 0-4.359-.999-4.359-3.134 0-.521.137-1.521.296-2.361l1.181-6.584c.317-.068.84-.114 1.316-.114.454 0 .977.023 1.317.114l-1.158 6.562c-.136.749-.25 1.544-.25 1.907 0 1.067.454 1.612 1.839 1.612 1.84 0 2.453-1.045 2.839-3.338l1.135-6.743c.318-.091.886-.114 1.34-.114s.999.045 1.271.114l-1.204 7.038zM409.076 93.574c-1.249 0-2.634-.204-3.587-.591 0-.59.136-1.362.363-1.975.84.363 2.043.612 3.155.612 1.249 0 2.565-.317 2.565-1.566 0-.908-1.021-1.271-2.27-1.907-1.635-.84-2.476-1.771-2.476-3.292 0-2.521 2.226-3.588 4.769-3.588.953 0 2.134.205 2.793.432.022.113.022.227.022.341 0 .545-.159 1.135-.386 1.612a8.697 8.697 0 0 0-2.589-.409c-.954 0-2.044.295-2.044 1.385 0 .772.659 1.227 1.84 1.839 1.68.885 2.883 1.567 2.883 3.383.002 2.544-2.086 3.724-5.038 3.724z"/></g><g><path class="st4" d="M200.127 131.593l-1.548 8.257c-.298 1.549-.435 3.396-.489 5.106-.407.108-.978.136-1.385.136-.435 0-.978-.055-1.304-.136-.054-.598-.054-1.358-.054-1.982h-.027c-.924 1.276-2.391 2.254-4.292 2.254-2.607 0-4.346-1.929-4.346-5.27 0-5.486 3.748-9.424 8.419-9.424 2.066 0 3.885.461 5.026 1.059zm-3.477 1.63a5.616 5.616 0 0 0-1.657-.244c-2.852 0-5.052 2.906-5.052 6.735 0 2.01.733 2.852 1.928 2.852 1.331 0 2.553-.869 3.477-2.309l1.304-7.034zM209.467 144.848c-.788.217-1.711.407-3.069.407-2.825 0-3.938-1.223-3.938-3.069 0-.435.136-1.494.407-3.015l1.086-6.057h-2.309c-.054-.326-.027-.815.027-1.141.054-.299.19-.733.326-1.005l2.363-.136.625-3.667c.38-.082 1.086-.108 1.603-.108.543 0 1.195.026 1.548.108l-.625 3.64h4.02c.054.325 0 .76-.055 1.059a7.14 7.14 0 0 1-.353 1.25h-4.02l-1.168 6.437c-.136.68-.245 1.549-.245 1.983 0 .733.435 1.222 1.467 1.222.869 0 1.738-.136 2.444-.326.084.733.002 1.793-.134 2.418z"/></g><g><path class="st4" d="M242.789 116.77c0 1.376-.354 2.575-.843 3.596-1.643-.666-3.95-1.243-6.215-1.243-5.326 0-11.452 4.128-11.452 14.204 0 5.371 2.84 7.457 7.856 7.457 1.865 0 4.396-.399 6.215-.888.133.755.222 1.643.222 2.53 0 .71-.044 1.421-.177 1.998-1.864.576-4.705.977-7.191.977-8.567 0-12.517-4.528-12.517-11.719 0-12.118 7.767-19.176 16.912-19.176 2.841 0 5.282.666 7.146 1.554.044.266.044.532.044.71zM243.545 134.037c0-11.098 6.304-19.531 14.826-19.531 6.436 0 10.608 4.217 10.608 11.363 0 11.097-6.303 19.531-14.825 19.531-6.436 0-10.609-4.217-10.609-11.363zm19.842-7.857c0-4.749-1.643-7.146-5.326-7.146-5.46 0-8.922 7.635-8.922 14.692 0 4.75 1.642 7.146 5.326 7.146 5.46 0 8.922-7.635 8.922-14.692zM276.352 114.95a16.19 16.19 0 0 1 5.371 0l-4.527 25.522h13.095c.044.311.044.666.044.844 0 1.331-.267 2.619-.71 3.64H271.07l5.282-30.006zM312.176 144.956h-18.244l5.282-30.006h17.578c.044.178.044.443.044.71 0 1.243-.354 2.53-.843 3.772h-12.207l-1.376 7.812h10.431c.045.222.045.488.045.799 0 1.154-.311 2.486-.844 3.685h-10.431l-1.51 8.744h12.739c.045.311.045.666.045.844.001 1.331-.265 2.62-.709 3.64zM338.412 144.956c-.754.133-1.73.222-2.841.222-1.021 0-2.086-.089-2.885-.222l-4.439-11.407h-3.417l-1.998 11.407c-.977.133-1.819.222-2.796.222-.888 0-1.731-.089-2.575-.222l5.282-30.006c1.864-.089 5.682-.223 7.901-.223 5.992 0 9.854 1.953 9.854 7.857 0 4.172-2.354 9.011-7.324 10.209l5.238 12.163zm-3.373-22.149c0-2.841-1.687-3.817-4.572-3.817-1.021 0-2.574.044-3.24.089l-1.643 10.12h2.975c4.038-.001 6.48-2.397 6.48-6.392zM367.132 144.956c-.532.133-1.598.222-2.752.222-.888 0-2.308-.089-2.885-.222l-.977-6.88h-10.387l-3.374 6.88c-.799.133-1.908.222-2.93.222-.888 0-2.396-.089-2.974-.222l15.181-30.006c.71-.134 2.042-.223 2.796-.223.8 0 2.087.089 2.797.223l5.505 30.006zm-7.279-11.319l-1.287-8.256a54.404 54.404 0 0 1-.488-3.995h-.178a68.773 68.773 0 0 1-1.82 4.173l-3.817 8.078h7.59zM376.501 144.956c-.799.133-1.687.222-2.708.222-.977 0-1.908-.089-2.663-.222l5.282-30.006c.799-.134 1.82-.223 2.752-.223.977 0 1.864.089 2.619.223l-5.282 30.006zM406.109 144.956c-.443.133-1.287.178-1.953.178-.621 0-1.376-.045-1.908-.178l-10.476-21.483-3.729 21.483c-.444.133-1.731.222-2.575.222-.754 0-1.775-.089-2.353-.222l5.282-30.006a15.2 15.2 0 0 1 2.087-.178c.71 0 1.598.044 2.13.178l10.21 20.729 3.64-20.729c.665-.134 1.775-.223 2.485-.223s1.82.089 2.441.223l-5.281 30.006zM430.881 144.956h-18.244l5.282-30.006h17.578c.044.178.044.443.044.71 0 1.243-.354 2.53-.843 3.772h-12.207l-1.376 7.812h10.431c.045.222.045.488.045.799 0 1.154-.311 2.486-.844 3.685h-10.431l-1.51 8.744h12.739c.045.311.045.666.045.844.001 1.331-.265 2.62-.709 3.64z"/></g><g><defs><path id="SVGID_7_" d="M99.274 96.291c0 26.879 9.366 48.665 39.095 48.665 24.59 0 42.006-21.763 50.883-49.367l-.079-.041c.003.028.011.061.014.088h-21.05c-.013-.088-.036-.168-.05-.254-6.017 18.382-15.873 33.691-29.718 33.691-12.624 0-18.326-9.771-18.326-32.782 0-34.615 14.254-77.171 36.652-77.171 16.085 0 18.529 16.696 18.529 32.782 0 3.768-.227 7.934-.667 12.308 2.564 1.714 4.735 3.491 6.572 5.288 1.89-2.207 6.033-5.368 14.349-5.487.339-4.048.515-8.098.515-12.109 0-30.339-11.606-48.665-39.298-48.665-35.633 0-57.421 46.221-57.421 93.054"/></defs><clipPath id="SVGID_8_"><use xlink:href="#SVGID_7_" overflow="visible"/></clipPath><radialGradient id="SVGID_9_" cx="-195.32" cy="385.051" r="1" gradientTransform="scale(152.6925 -152.6925) rotate(-77.309 -337.924 69.79)" gradientUnits="userSpaceOnUse"><stop offset="0" stop-color="#dfd3b6"/><stop offset=".459" stop-color="#baa361"/><stop offset=".831" stop-color="#988650"/><stop offset="1" stop-color="#988650"/></radialGradient><path class="st16" d="M191.326-17.492l35.042 155.608-122.426 27.57L68.901 10.077z"/></g><g><defs><path id="SVGID_10_" d="M181.129 69.498c7.74 7.567 9.565 15.463 9.836 20.328 2.262-8.33 3.781-17.066 4.513-25.815-8.315.119-12.458 3.28-14.349 5.487"/></defs><clipPath id="SVGID_11_"><use xlink:href="#SVGID_10_" overflow="visible"/></clipPath><radialGradient id="SVGID_12_" cx="-195.32" cy="385.051" r="1" gradientTransform="scale(152.6925 -152.6925) rotate(-77.309 -337.924 69.79)" gradientUnits="userSpaceOnUse"><stop offset="0" stop-color="#dfd3b6"/><stop offset=".459" stop-color="#b8a25f"/><stop offset=".831" stop-color="#74673c"/><stop offset="1" stop-color="#74673c"/></radialGradient><path class="st6" d="M194.786 60.936l6.225 27.644-19.189 4.321-6.225-27.644z"/></g><g><defs><path id="SVGID_13_" d="M195.629 64.039l.003-.034c-.053.001-.101.005-.154.006-8.316.119-12.459 3.28-14.349 5.487 7.74 7.567 9.565 15.463 9.836 20.328.162 2.925-.231 4.756-.231 4.756 5.102-11.997 9.146-26.47 29.62-30.661l-24.145-.013c-.2.032-.381.096-.58.131"/></defs><clipPath id="SVGID_14_"><use xlink:href="#SVGID_13_" overflow="visible"/></clipPath><radialGradient id="SVGID_15_" cx="-195.317" cy="385.021" r="1" gradientTransform="scale(291.8723 -291.8723) rotate(-59.589 -433.794 21.962)" gradientUnits="userSpaceOnUse"><stop offset="0" stop-color="#dfd3b6"/><stop offset=".399" stop-color="#baa361"/><stop offset=".812" stop-color="#837646"/><stop offset="1" stop-color="#837646"/></radialGradient><path class="st7" d="M210.304 46.784l23.442 39.939-42.565 24.983-23.442-39.938z"/></g><g><defs><path id="SVGID_16_" d="M168.087 95.382a138.945 138.945 0 0 0 3.422-12.48c-.796-.925-1.394-1.628-1.511-1.784-.426-.569-15.209-12.224-15.209-12.224l-1.313-5.009-17.66-.009c0-.001 28.77 10.696 32.271 31.506"/></defs><clipPath id="SVGID_17_"><use xlink:href="#SVGID_16_" overflow="visible"/></clipPath><radialGradient id="SVGID_18_" cx="-195.305" cy="385.044" r="1" gradientTransform="scale(151.4616 -151.4616) rotate(-59.589 -433.449 21.321)" gradientUnits="userSpaceOnUse"><stop offset="0" stop-color="#dfd3b6"/><stop offset=".399" stop-color="#b8a25f"/><stop offset=".831" stop-color="#74673c"/><stop offset="1" stop-color="#74673c"/></radialGradient><path class="st9" d="M162.364 48.293l22.9 39.016-40.302 23.655-22.9-39.015z"/></g><g><defs><path id="SVGID_19_" d="M168.087 95.382c.014.086.037.166.05.254h21.05c-.003-.027-.011-.06-.014-.088l-12.068-6.187s-3.503-4.025-5.596-6.46a138.213 138.213 0 0 1-3.422 12.481"/></defs><clipPath id="SVGID_20_"><use xlink:href="#SVGID_19_" overflow="visible"/></clipPath><radialGradient id="SVGID_21_" cx="-195.32" cy="385.051" r="1" gradientTransform="scale(152.6925 -152.6925) rotate(-77.309 -337.924 69.79)" gradientUnits="userSpaceOnUse"><stop offset="0" stop-color="#dfd3b6"/><stop offset=".459" stop-color="#b8a25f"/><stop offset=".831" stop-color="#74673c"/><stop offset="1" stop-color="#74673c"/></radialGradient><path class="st17" d="M188.169 78.379l3.748 16.642-22.811 5.136-3.748-16.641z"/></g><g><defs><path id="SVGID_22_" d="M168.087 95.382c.014.086.037.166.05.254h21.05c-.003-.027-.011-.06-.014-.088l-12.068-6.187s-3.503-4.025-5.596-6.46a138.213 138.213 0 0 1-3.422 12.481"/></defs><clipPath id="SVGID_23_"><use xlink:href="#SVGID_22_" overflow="visible"/></clipPath><radialGradient id="SVGID_24_" cx="-195.305" cy="385.044" r="1" gradientTransform="scale(151.4616 -151.4616) rotate(-59.589 -433.449 21.321)" gradientUnits="userSpaceOnUse"><stop offset="0" stop-color="#dfd3b6"/><stop offset=".399" stop-color="#b8a25f"/><stop offset=".831" stop-color="#74673c"/><stop offset="1" stop-color="#74673c"/></radialGradient><path class="st18" d="M183.781 73.69l10.966 18.682-21.253 12.475-10.966-18.683z"/></g><g><defs><path id="SVGID_25_" d="M168.137 95.636h21.051c-.209-1.686-.646-3.79-2.047-6.478-.091-.172-.189-.328-.28-.499-2.372-5.081-5.645-9.191-9.18-12.506-1.041-1.04-1.971-1.866-2.692-2.412-.004.022-.006.043-.011.063-9.276-7.462-19.228-9.919-19.228-9.919l-19.933-.01c-.001 0 29.015 10.783 32.32 31.761"/></defs><clipPath id="SVGID_26_"><use xlink:href="#SVGID_25_" overflow="visible"/></clipPath><radialGradient id="SVGID_27_" cx="-195.305" cy="385.045" r="1" gradientTransform="scale(151.4616 -151.4616) rotate(-59.589 -433.449 21.321)" gradientUnits="userSpaceOnUse"><stop offset="0" stop-color="#dfd3b6"/><stop offset=".399" stop-color="#baa361"/><stop offset=".812" stop-color="#837646"/><stop offset="1" stop-color="#837646"/></radialGradient><path class="st19" d="M175.512 40.576l27.54 46.921-53.56 31.438-27.54-46.921z"/></g></g><g class="st15 st14" id="white"><defs><path id="SVGID_28_" d="M232.87 71.267l.004.005s-.013-.002-.013-.005h-2.969c-10.789 0-24.556 5.4-32.219 34.817 39.013.1 198.792.439 221.253.439 36.362 0 41.337-35.256 41.337-35.256H232.87z"/></defs><clipPath id="SVGID_29_"><use xlink:href="#SVGID_28_" overflow="visible"/></clipPath><radialGradient id="SVGID_30_" cx="-72.418" cy="373.364" r="1.733" gradientTransform="scale(139.71 -139.71) rotate(-44.476 -491.615 96.082)" gradientUnits="userSpaceOnUse"><stop offset="0" stop-color="#dfd3b6"/><stop offset=".399" stop-color="#baa361"/><stop offset=".814" stop-color="#988650"/><stop offset="1" stop-color="#988650"/></radialGradient><path class="st0" d="M326.563-60.004L477.888 88.579 331.37 237.799 180.046 89.219z"/><path class="st13" d="M100.715 23.421l3.574-14.352H34.954L22.458 74.524l21.876-16.156 6.16-34.947z"/><defs><path id="SVGID_31_" d="M22.457 74.524l-.023.139h26.227c18.707 0 25.419 6.914 25.419 20.942 0 21.144-10.979 35.178-32.332 35.178-11.996 0-23.586-1.831-32.941-4.682-1.421 3.255-2.234 7.323-2.439 11.185 0 1.018 0 2.037.205 3.257 8.337 3.663 21.148 5.689 35.788 5.689 35.175 0 52.663-23.995 52.458-53.071-.201-22.364-14.436-33.954-40.466-33.954H44.189l.146-.84-21.878 16.157z"/></defs><clipPath id="SVGID_32_"><use xlink:href="#SVGID_31_" overflow="visible"/></clipPath><radialGradient id="SVGID_33_" cx="-72.577" cy="373.764" r="1.733" gradientTransform="scale(-69.1118 69.1118) rotate(-60.154 -357.557 126.62)" gradientUnits="userSpaceOnUse"><stop offset="0" stop-color="#fff"/><stop offset=".674" stop-color="#ececec"/><stop offset="1" stop-color="#bcbcbb"/></radialGradient><path class="st10" d="M28.326 184.499L-31.561 80.13 73.063 20.101l59.885 104.368z"/><path class="st13" d="M266.981 17.574L248.55 44.295l-3.401 19.823a32.035 32.035 0 0 1-5.329.436c-1.921 0-3.753-.173-5.245-.436l3.67-20.959-7.855-24.45c-1.221-3.665-1.745-7.161-1.745-9.954 0-1.308.169-2.534.349-3.668 1.396-.175 3.053-.348 4.8-.348 1.659 0 3.411.086 4.8.348a21.24 21.24 0 0 0-.258 3.317c0 2.446.437 4.89 1.398 8.034l3.232 10.569c.876 2.794 1.657 5.5 2.006 7.771h.178c1.041-2.183 2.619-4.626 4.188-6.9l8.646-12.662c1.925-2.796 3.403-6.723 4.017-10.13a31.234 31.234 0 0 1 5.062-.437c1.833 0 3.32.175 4.715.437-.611 4.716-2.09 8.559-4.797 12.488M305.755 64.118H269.86l10.392-59.031h34.581c.089.351.089.871.089 1.397 0 2.447-.695 4.978-1.658 7.423h-24.012l-2.709 15.369h20.522c.079.438.079.958.079 1.575 0 2.265-.605 4.89-1.655 7.245h-20.522l-2.966 17.205h25.064c.079.61.079 1.309.079 1.657.001 2.622-.516 5.152-1.389 7.16M363.824 64.118c-1.044.265-3.144.436-5.42.436-1.741 0-4.532-.171-5.67-.436l-1.926-13.535h-20.434l-6.632 13.535c-1.57.265-3.751.436-5.767.436-1.743 0-4.708-.171-5.853-.436l29.869-59.032c1.399-.261 4.017-.436 5.503-.436 1.568 0 4.106.175 5.501.436l10.829 59.032zM349.499 41.85l-2.527-16.24a112.44 112.44 0 0 1-.962-7.862h-.348a139.095 139.095 0 0 1-3.579 8.214l-7.512 15.888h14.928zM412.723 64.119c-1.477.263-3.402.436-5.584.436-2.012 0-4.102-.173-5.673-.436l-8.74-22.441h-6.724l-3.929 22.441c-1.919.263-3.577.436-5.495.436-1.752 0-3.407-.173-5.068-.436l10.397-59.032c3.656-.175 11.169-.436 15.543-.436 11.785 0 19.386 3.843 19.386 15.456 0 8.208-4.631 17.727-14.412 20.086l10.299 23.926zm-6.633-43.576c0-5.588-3.314-7.506-8.996-7.506-2.004 0-5.058.084-6.367.171l-3.232 19.909h5.849c7.946 0 12.746-4.712 12.746-12.574M437.098 64.992c-6.899 0-13.45-1.394-18.172-3.492 0-1.309 0-2.619.267-3.929.261-1.75.786-3.495 1.485-5.153 4.453 2.095 11.351 3.583 16.154 3.583 8.122 0 12.318-2.799 12.318-8.563 0-5.151-2.712-6.724-9.346-9.69-8.993-4.017-13.716-9.259-13.716-17.029 0-10.127 8.125-16.508 21.83-16.508a44.747 44.747 0 0 1 14.415 2.36c.09.875 0 2.707-.262 4.021a21.324 21.324 0 0 1-1.314 4.625c-3.495-1.31-8.385-2.359-12.403-2.359-6.722 0-11.257 2.187-11.257 7.162 0 3.754 2.182 6.46 9.424 9.781 7.779 3.578 13.451 6.984 13.451 16.677.001 10.569-7.416 18.514-22.874 18.514"/><g><path class="st13" d="M258.773 81.532c0 .703-.182 1.315-.431 1.837-.839-.34-2.018-.635-3.175-.635-2.721 0-5.85 2.109-5.85 7.256 0 2.743 1.451 3.809 4.014 3.809.952 0 2.244-.204 3.174-.453.068.386.113.839.113 1.293 0 .362-.022.726-.09 1.02-.953.295-2.404.499-3.674.499-4.376 0-6.395-2.312-6.395-5.986 0-6.19 3.969-9.795 8.64-9.795 1.451 0 2.698.34 3.65.793.024.136.024.271.024.362zM268.363 90.896h-7.278v.432c.022 1.836.884 2.789 2.834 2.789 1.202 0 2.177-.159 3.016-.386.113.657.136 1.383.068 1.95-.907.317-2.063.476-3.583.476-3.378 0-5.033-1.882-5.033-4.942 0-3.719 1.973-7.324 6.28-7.324 2.698 0 4.104 1.632 4.104 4.195 0 .815-.159 1.881-.408 2.81zm-2.245-1.995c.046-.227.091-.612.091-.907 0-1.134-.362-2.086-1.791-2.086-1.769 0-2.744 1.451-3.016 2.993h4.716zM272.375 95.931a9.173 9.173 0 0 1-1.36.113 7.36 7.36 0 0 1-1.27-.113l2.925-16.552c.454-.068.93-.091 1.315-.091.453 0 .952.022 1.315.091l-2.925 16.552zM285.48 90.896h-7.278v.432c.022 1.836.884 2.789 2.834 2.789 1.202 0 2.177-.159 3.016-.386.113.657.136 1.383.068 1.95-.907.317-2.063.476-3.583.476-3.378 0-5.033-1.882-5.033-4.942 0-3.719 1.973-7.324 6.28-7.324 2.698 0 4.104 1.632 4.104 4.195 0 .815-.159 1.881-.408 2.81zm-2.245-1.995c.046-.227.091-.612.091-.907 0-1.134-.362-2.086-1.791-2.086-1.769 0-2.744 1.451-3.016 2.993h4.716zM291.579 96.157c-1.724 0-3.538-.271-4.671-.726l2.834-16.053c.362-.068.839-.091 1.292-.091.521 0 1.043.022 1.338.091l-.975 5.646c.793-.635 2.018-1.134 3.084-1.134 2.789 0 3.854 2.018 3.854 4.398 0 4.037-1.995 7.869-6.756 7.869zm4.036-7.595c0-1.338-.432-2.472-1.95-2.472-.839 0-1.95.431-2.676 1.088l-1.179 6.757c.453.136 1.247.204 1.858.204 2.631.001 3.947-2.675 3.947-5.577zM307.562 86.362c-1.225.114-2.902.658-4.014 1.451l-1.406 8.118c-.34.091-.884.113-1.337.113-.454 0-.998-.045-1.293-.113l2.086-11.813a5.53 5.53 0 0 1 1.089-.113c.34 0 .793.045 1.065.113l-.136 1.769h.022c.975-.998 2.902-1.973 4.354-1.995-.022.724-.203 1.858-.43 2.47zM319.239 84.775l-1.292 6.893c-.25 1.292-.363 2.834-.408 4.263-.341.091-.816.113-1.156.113-.363 0-.816-.045-1.089-.113-.045-.499-.045-1.134-.045-1.655h-.023c-.771 1.065-1.995 1.882-3.582 1.882-2.177 0-3.628-1.609-3.628-4.398 0-4.581 3.129-7.868 7.029-7.868 1.722-.001 3.242.384 4.194.883zm-2.903 1.36a4.699 4.699 0 0 0-1.383-.204c-2.381 0-4.218 2.426-4.218 5.624 0 1.678.612 2.381 1.61 2.381 1.11 0 2.131-.726 2.902-1.928l1.089-5.873zM327.037 95.84a9.053 9.053 0 0 1-2.562.34c-2.358 0-3.288-1.02-3.288-2.562 0-.363.113-1.247.34-2.518l.907-5.056h-1.928c-.045-.272-.022-.68.022-.952.046-.25.159-.612.272-.839l1.973-.114.521-3.061c.317-.068.907-.09 1.338-.09.453 0 .998.022 1.293.09l-.521 3.039h3.355c.045.272 0 .635-.046.884a5.992 5.992 0 0 1-.294 1.043h-3.356l-.975 5.374c-.113.567-.204 1.293-.204 1.655 0 .612.362 1.021 1.225 1.021a8.1 8.1 0 0 0 2.04-.271c.069.612.001 1.495-.112 2.017zM338.668 90.896h-7.278v.432c.022 1.836.884 2.789 2.834 2.789 1.202 0 2.177-.159 3.016-.386.113.657.136 1.383.068 1.95-.907.317-2.063.476-3.583.476-3.378 0-5.033-1.882-5.033-4.942 0-3.719 1.973-7.324 6.28-7.324 2.698 0 4.104 1.632 4.104 4.195.001.815-.159 1.881-.408 2.81zm-2.245-1.995c.046-.227.091-.612.091-.907 0-1.134-.362-2.086-1.791-2.086-1.769 0-2.744 1.451-3.016 2.993h4.716zM360.524 87.496l-3.9 8.435c-.317.091-.975.113-1.36.113-.431 0-1.089-.045-1.383-.113l-.749-7.913h-.022l-3.65 7.913c-.317.068-.907.113-1.293.113-.431 0-1.065-.045-1.314-.113l-1.111-9.07a9.455 9.455 0 0 1 .068-2.744c.362-.068.816-.113 1.247-.113s1.021.045 1.314.113a12.26 12.26 0 0 0-.113 2.744l.408 6.032h.046l3.809-8.753a8.4 8.4 0 0 1 1.202-.113c.386 0 .771.045 1.043.113l.907 8.844h.045l2.518-6.19c.362-.862.726-1.792.861-2.676a7.342 7.342 0 0 1 1.27-.113c.454 0 .976.045 1.225.113-.116 1.178-.547 2.244-1.068 3.378zM364.263 95.931c-.408.091-.997.113-1.36.113-.431 0-.907-.045-1.247-.113l2.063-11.813a8.801 8.801 0 0 1 1.292-.113c.454 0 .93.045 1.315.113l-2.063 11.813zm1.112-13.56c-.816 0-1.338-.612-1.338-1.315 0-1.066.726-1.678 1.678-1.678.748 0 1.406.567 1.384 1.292-.001.998-.613 1.701-1.724 1.701zM374.239 95.84a9.053 9.053 0 0 1-2.562.34c-2.358 0-3.288-1.02-3.288-2.562 0-.363.113-1.247.34-2.518l.907-5.056h-1.928c-.045-.272-.022-.68.022-.952.046-.25.159-.612.272-.839l1.973-.114.521-3.061c.317-.068.907-.09 1.338-.09.453 0 .998.022 1.293.09l-.522 3.039h3.356c.045.272 0 .635-.046.884a5.992 5.992 0 0 1-.294 1.043h-3.356l-.975 5.374c-.113.567-.204 1.293-.204 1.655 0 .612.362 1.021 1.225 1.021a8.1 8.1 0 0 0 2.04-.271c.069.612.001 1.495-.112 2.017zM380.61 85.115c1.043-.703 2.244-1.224 3.695-1.224 1.859 0 3.333.975 3.333 2.925 0 .59-.136 1.564-.362 2.767l-1.134 6.349c-.34.091-.907.113-1.27.113-.386 0-.976-.045-1.338-.113l1.134-6.258c.158-.839.227-1.587.227-1.95 0-1.066-.635-1.565-1.7-1.565-1.111 0-2.177.499-2.971 1.088l-1.542 8.685c-.453.068-1.021.113-1.406.113-.362 0-.839-.022-1.224-.113l2.925-16.552c.34-.068.861-.091 1.315-.091.453 0 .997.022 1.314.091l-.996 5.735zM404.166 91.146c-.612 3.605-1.882 5.033-5.555 5.033-2.926 0-4.354-.997-4.354-3.129 0-.521.136-1.519.294-2.358l1.18-6.575c.317-.068.839-.113 1.314-.113.454 0 .976.022 1.315.113l-1.156 6.553c-.136.748-.249 1.542-.249 1.905 0 1.065.453 1.609 1.836 1.609 1.837 0 2.449-1.043 2.835-3.333l1.134-6.734c.317-.091.884-.113 1.338-.113.453 0 .997.045 1.27.113l-1.202 7.029zM409.402 96.18c-1.247 0-2.63-.204-3.582-.589 0-.59.136-1.36.362-1.973.839.362 2.041.612 3.152.612 1.247 0 2.562-.317 2.562-1.564 0-.907-1.021-1.271-2.268-1.905-1.632-.839-2.471-1.769-2.471-3.288 0-2.517 2.222-3.583 4.762-3.583.952 0 2.131.204 2.788.431.023.113.023.227.023.34 0 .544-.159 1.133-.386 1.61a8.67 8.67 0 0 0-2.585-.408c-.952 0-2.041.294-2.041 1.383 0 .771.658 1.225 1.837 1.837 1.678.884 2.88 1.564 2.88 3.379.001 2.539-2.085 3.718-5.033 3.718z"/></g><g><path class="st13" d="M200.363 129.911l-1.546 8.243c-.298 1.546-.434 3.39-.488 5.098-.407.108-.976.136-1.383.136-.434 0-.976-.055-1.302-.136-.054-.597-.054-1.355-.054-1.979h-.027c-.922 1.274-2.386 2.251-4.284 2.251-2.603 0-4.338-1.926-4.338-5.261 0-5.478 3.742-9.409 8.405-9.409 2.062 0 3.878.46 5.017 1.057zm-3.47 1.627a5.595 5.595 0 0 0-1.654-.244c-2.847 0-5.043 2.901-5.043 6.725 0 2.007.732 2.848 1.925 2.848 1.329 0 2.549-.868 3.471-2.305l1.301-7.024zM209.692 143.144c-.787.217-1.708.406-3.064.406-2.82 0-3.932-1.22-3.932-3.063 0-.434.135-1.491.407-3.01l1.084-6.047h-2.305c-.054-.325-.027-.813.027-1.139a4.31 4.31 0 0 1 .326-1.003l2.359-.136.624-3.66c.38-.082 1.084-.109 1.6-.109.542 0 1.193.027 1.546.109l-.624 3.633h4.013c.054.325 0 .76-.054 1.058a7.11 7.11 0 0 1-.353 1.247h-4.013l-1.166 6.427c-.136.678-.244 1.545-.244 1.979 0 .731.434 1.22 1.464 1.22.868 0 1.735-.136 2.44-.325.082.731 0 1.789-.135 2.413z"/></g><g><path class="st13" d="M242.968 115.104c0 1.374-.354 2.571-.842 3.591-1.64-.665-3.945-1.241-6.206-1.241-5.319 0-11.436 4.122-11.436 14.185 0 5.363 2.836 7.446 7.846 7.446 1.861 0 4.388-.398 6.205-.887a14.9 14.9 0 0 1 .222 2.527c0 .709-.044 1.418-.177 1.994-1.862.576-4.699.976-7.182.976-8.555 0-12.5-4.521-12.5-11.702 0-12.102 7.757-19.149 16.888-19.149 2.837 0 5.275.665 7.137 1.552.045.265.045.531.045.708zM243.679 132.348c0-11.082 6.295-19.504 14.806-19.504 6.427 0 10.594 4.211 10.594 11.348 0 11.082-6.294 19.504-14.805 19.504-6.428-.001-10.595-4.212-10.595-11.348zm19.815-7.846c0-4.743-1.641-7.137-5.319-7.137-5.452 0-8.91 7.624-8.91 14.672 0 4.743 1.641 7.137 5.319 7.137 5.452 0 8.91-7.624 8.91-14.672zM276.44 113.287a16.244 16.244 0 0 1 5.363 0l-4.521 25.488h13.077c.044.31.044.664.044.842 0 1.33-.266 2.615-.709 3.635h-18.529l5.275-29.965zM312.213 143.252h-18.219l5.275-29.965h17.554c.044.178.044.443.044.709 0 1.241-.354 2.526-.842 3.768h-12.19l-1.374 7.802h10.417c.044.222.044.487.044.798 0 1.152-.31 2.482-.842 3.68h-10.417l-1.507 8.732h12.722c.044.31.044.664.044.842 0 1.329-.265 2.614-.709 3.634zM338.413 143.252c-.754.133-1.729.222-2.837.222-1.02 0-2.084-.089-2.882-.222l-4.433-11.392h-3.413l-1.994 11.392c-.976.133-1.817.222-2.793.222a16.3 16.3 0 0 1-2.571-.222l5.275-29.965c1.861-.089 5.674-.222 7.89-.222 5.984 0 9.841 1.95 9.841 7.846 0 4.167-2.349 8.998-7.313 10.195l5.23 12.146zm-3.37-22.119c0-2.837-1.685-3.812-4.565-3.812-1.02 0-2.571.045-3.236.089l-1.64 10.106h2.97c4.034 0 6.471-2.394 6.471-6.383zM367.093 143.252c-.532.133-1.596.222-2.748.222-.887 0-2.306-.089-2.882-.222l-.975-6.871h-10.373l-3.368 6.871c-.798.133-1.906.222-2.926.222-.887 0-2.394-.089-2.97-.222l15.159-29.965c.709-.133 2.039-.222 2.793-.222.798 0 2.083.089 2.792.222l5.498 29.965zm-7.269-11.304l-1.286-8.244a54.945 54.945 0 0 1-.487-3.989h-.177a70.1 70.1 0 0 1-1.817 4.166l-3.812 8.067h7.579zM376.449 143.252c-.799.133-1.685.222-2.704.222-.976 0-1.906-.089-2.66-.222l5.275-29.965a17.69 17.69 0 0 1 2.748-.222c.976 0 1.861.089 2.615.222l-5.274 29.965zM406.014 143.252c-.443.133-1.286.178-1.95.178-.621 0-1.374-.045-1.906-.178l-10.461-21.454-3.724 21.454c-.443.133-1.729.222-2.571.222-.753 0-1.772-.089-2.35-.222l5.275-29.965a15.154 15.154 0 0 1 2.083-.178c.71 0 1.596.045 2.128.178l10.195 20.7 3.635-20.7c.665-.133 1.773-.222 2.482-.222s1.817.089 2.438.222l-5.274 29.965zM430.75 143.252h-18.219l5.275-29.965h17.554c.044.178.044.443.044.709 0 1.241-.354 2.526-.842 3.768h-12.19l-1.374 7.802h10.417c.044.222.044.487.044.798 0 1.152-.31 2.482-.842 3.68H420.2l-1.507 8.732h12.722c.044.31.044.664.044.842 0 1.329-.265 2.614-.709 3.634z"/></g><g><defs><path id="SVGID_34_" d="M168.419 96.986h21.022c-.208-1.681-.644-3.789-2.045-6.474-.092-.168-.187-.327-.281-.501-2.366-5.067-5.639-9.173-9.168-12.482-1.037-1.038-1.967-1.865-2.688-2.41-.003.025-.009.045-.01.062-9.26-7.45-19.2-9.904-19.2-9.904l-19.903-.009c.001.001 28.973 10.766 32.273 31.718"/></defs><clipPath id="SVGID_35_"><use xlink:href="#SVGID_34_" overflow="visible"/></clipPath><radialGradient id="SVGID_36_" cx="-72.821" cy="372.928" r="1.732" gradientTransform="matrix(44.1727 75.2573 75.2573 -44.1728 -24730.178 21945.957)" gradientUnits="userSpaceOnUse"><stop offset="0" stop-color="#dfd3b6"/><stop offset=".399" stop-color="#b8a25f"/><stop offset=".831" stop-color="#74673c"/><stop offset="1" stop-color="#74673c"/></radialGradient><path class="st11" d="M175.785 42.003l27.501 46.853-53.482 31.395L122.3 73.396z"/></g><g><defs><path id="SVGID_37_" d="M99.655 97.636c0 26.842 9.353 48.597 39.041 48.597 24.553 0 41.944-21.731 50.808-49.296l-12.128-6.218s-3.497-4.019-5.588-6.453c-5.274 23.332-16.216 46.112-33.092 46.112-12.609 0-18.301-9.761-18.301-32.742 0-34.563 14.234-77.061 36.597-77.061 16.065 0 18.506 16.675 18.506 32.737 0 3.761-.229 7.921-.668 12.289 2.562 1.712 4.73 3.487 6.564 5.282 1.885-2.204 6.027-5.361 14.328-5.483.339-4.037.515-8.083.515-12.088 0-30.296-11.592-48.596-39.246-48.596-35.581 0-57.336 46.155-57.336 92.92"/></defs><clipPath id="SVGID_38_"><use xlink:href="#SVGID_37_" overflow="visible"/></clipPath><radialGradient id="SVGID_39_" cx="-72.654" cy="372.846" r="1.733" gradientTransform="scale(100.9355 -100.9355) rotate(-74.035 -282.988 137.377)" gradientUnits="userSpaceOnUse"><stop offset="0" stop-color="#fff"/><stop offset=".496" stop-color="#ececec"/><stop offset="1" stop-color="#bcbcbb"/></radialGradient><path class="st12" d="M188.932-20.823l44.731 156.349-126.702 36.248L62.233 15.422z"/></g><g><defs><path id="SVGID_40_" d="M181.394 70.883c7.729 7.558 9.552 15.438 9.823 20.3 2.259-8.32 3.775-17.047 4.505-25.784-8.301.123-12.443 3.281-14.328 5.484"/></defs><clipPath id="SVGID_41_"><use xlink:href="#SVGID_40_" overflow="visible"/></clipPath><radialGradient id="SVGID_42_" cx="-72.65" cy="372.899" r="1.734" gradientTransform="scale(87.9725 -87.9725) rotate(-77.309 -268.679 139.918)" gradientUnits="userSpaceOnUse"><stop offset="0" stop-color="#dfd3b6"/><stop offset=".459" stop-color="#b8a25f"/><stop offset=".831" stop-color="#74673c"/><stop offset="1" stop-color="#74673c"/></radialGradient><path class="st20" d="M195.033 62.33l6.217 27.61-19.164 4.315-6.215-27.608z"/></g><g><defs><path id="SVGID_43_" d="M195.873 65.432c.004-.011.004-.025.005-.038-.054.002-.102.006-.155.006-8.301.123-12.443 3.28-14.328 5.483 7.729 7.558 9.552 15.438 9.823 20.3.161 2.917-.231 4.747-.231 4.747 5.097-11.981 9.134-26.431 29.581-30.614l-24.115-.015c-.201.034-.382.092-.58.131"/></defs><clipPath id="SVGID_44_"><use xlink:href="#SVGID_43_" overflow="visible"/></clipPath><radialGradient id="SVGID_45_" cx="-71.723" cy="373.057" r="1.732" gradientTransform="scale(54.6406 -54.6406) rotate(-66.059 -322.724 126.965)" gradientUnits="userSpaceOnUse"><stop offset="0" stop-color="#fff"/><stop offset=".529" stop-color="#ececec"/><stop offset="1" stop-color="#bcbcbb"/></radialGradient><path class="st1" d="M214.115 50.772l17.806 40.112-44.076 19.575-17.811-40.114z"/></g><g><defs><path id="SVGID_46_" d="M168.419 96.986h21.022c-.208-1.681-.644-3.789-2.045-6.474-.092-.168-.187-.327-.281-.501-2.366-5.067-5.639-9.173-9.168-12.482-1.037-1.038-1.967-1.865-2.688-2.41-.003.025-.009.045-.01.062-9.26-7.45-19.2-9.904-19.2-9.904l-19.903-.009c.001.001 28.973 10.766 32.273 31.718"/></defs><clipPath id="SVGID_47_"><use xlink:href="#SVGID_46_" overflow="visible"/></clipPath><radialGradient id="SVGID_48_" cx="-72.894" cy="372.935" r="1.732" gradientTransform="matrix(44.1727 75.2573 75.2573 -44.1728 -24733.865 21938.082)" gradientUnits="userSpaceOnUse"><stop offset="0" stop-color="#fff"/><stop offset=".529" stop-color="#ececec"/><stop offset="1" stop-color="#bcbcbb"/></radialGradient><path class="st2" d="M175.785 42.003l27.501 46.853-53.482 31.395L122.3 73.396z"/></g></g><g id="all_white"><path class="st5" d="M232.12 70.356v.003l-.012-.003h-2.98c-10.836 0-24.663 5.42-32.362 34.965 39.184.104 199.664.444 222.23.444 36.516 0 41.512-35.41 41.512-35.41H232.12z"/><path class="st13" d="M99.382 22.298l3.59-14.414H33.331l-12.55 65.741 21.975-16.227 6.184-35.1z"/><path class="st13" d="M20.756 73.763h26.345c18.789 0 25.529 6.945 25.529 21.036 0 21.237-11.03 35.329-32.472 35.329-12.048 0-23.69-1.835-33.086-4.697-1.427 3.269-2.247 7.354-2.449 11.232 0 1.021 0 2.045.203 3.271 8.375 3.676 21.241 5.714 35.945 5.714 35.333 0 52.896-24.098 52.692-53.303-.205-22.464-14.502-34.104-40.643-34.104H42.609l.147-.844L20.78 73.625l-.024.138zM266.376 16.426l-18.51 26.837-3.417 19.911a32.237 32.237 0 0 1-5.352.438c-1.931 0-3.771-.175-5.264-.438l3.685-21.052-7.894-24.557c-1.228-3.683-1.753-7.192-1.753-10 0-1.313.174-2.543.35-3.683 1.403-.177 3.067-.35 4.824-.35 1.667 0 3.422.086 4.822.35a20.66 20.66 0 0 0-.262 3.331c0 2.458.438 4.912 1.404 8.072l3.244 10.615c.879 2.805 1.666 5.523 2.016 7.805h.179c1.052-2.193 2.63-4.647 4.21-6.93l8.681-12.718c1.933-2.807 3.421-6.752 4.036-10.174a31.288 31.288 0 0 1 5.086-.438c1.844 0 3.335.174 4.734.438-.61 4.737-2.099 8.595-4.819 12.543M305.323 63.175h-36.05l10.435-59.292h34.735c.087.352.087.875.087 1.404 0 2.456-.7 4.999-1.666 7.455h-24.117l-2.721 15.438h20.613c.082.439.082.962.082 1.58 0 2.277-.61 4.912-1.663 7.279h-20.613l-2.98 17.278h25.175c.082.614.082 1.316.082 1.667-.001 2.631-.523 5.171-1.399 7.191M363.648 63.175c-1.052.265-3.157.438-5.44.438-1.75 0-4.56-.173-5.699-.438L350.58 49.58h-20.525l-6.663 13.595c-1.58.265-3.771.438-5.794.438-1.75 0-4.73-.173-5.875-.438l29.999-59.292c1.404-.264 4.034-.438 5.524-.438 1.58 0 4.123.174 5.526.438l10.876 59.292zm-14.385-22.366l-2.542-16.312a109.112 109.112 0 0 1-.966-7.896h-.352a137.105 137.105 0 0 1-3.597 8.248l-7.543 15.961h15zM412.764 63.175c-1.488.263-3.42.438-5.612.438-2.017 0-4.12-.175-5.698-.438l-8.773-22.542h-6.753l-3.95 22.542c-1.925.263-3.591.438-5.521.438-1.757 0-3.42-.175-5.091-.438l10.442-59.292c3.678-.177 11.222-.438 15.611-.438 11.841 0 19.472 3.86 19.472 15.525 0 8.243-4.649 17.803-14.475 20.173l10.348 24.032zm-6.662-43.767c0-5.613-3.334-7.542-9.035-7.542-2.018 0-5.085.086-6.4.172l-3.244 19.999h5.873c7.983 0 12.806-4.736 12.806-12.629M437.242 64.052c-6.928 0-13.51-1.402-18.246-3.509 0-1.313 0-2.629.262-3.946.268-1.755.793-3.509 1.495-5.174 4.475 2.104 11.399 3.597 16.227 3.597 8.154 0 12.369-2.808 12.369-8.6 0-5.172-2.725-6.751-9.387-9.732-9.035-4.035-13.771-9.3-13.771-17.104 0-10.173 8.157-16.58 21.926-16.58 5.702 0 10.617 1.055 14.473 2.37.09.878 0 2.719-.261 4.036a21.624 21.624 0 0 1-1.317 4.646c-3.509-1.315-8.421-2.369-12.457-2.369-6.753 0-11.312 2.195-11.312 7.195 0 3.77 2.191 6.488 9.47 9.823 7.811 3.594 13.511 7.016 13.511 16.752-.002 10.615-7.456 18.595-22.982 18.595"/><g><path class="st13" d="M258.139 80.659c0 .707-.182 1.321-.433 1.845-.843-.341-2.027-.638-3.189-.638-2.733 0-5.878 2.119-5.878 7.29 0 2.757 1.459 3.827 4.033 3.827.956 0 2.255-.205 3.189-.455.068.387.113.843.113 1.298 0 .365-.022.729-.091 1.025-.957.296-2.415.501-3.69.501-4.397 0-6.425-2.323-6.425-6.014 0-6.22 3.987-9.842 8.68-9.842 1.458 0 2.711.342 3.668.797.023.138.023.275.023.366zM267.772 90.067h-7.312v.433c.022 1.846.889 2.803 2.848 2.803 1.207 0 2.187-.16 3.03-.388a7.19 7.19 0 0 1 .068 1.959c-.912.319-2.073.479-3.6.479-3.395 0-5.058-1.891-5.058-4.966 0-3.736 1.981-7.358 6.311-7.358 2.711 0 4.123 1.64 4.123 4.214 0 .819-.159 1.891-.41 2.824zm-2.255-2.005c.045-.228.091-.615.091-.911 0-1.139-.364-2.096-1.8-2.096-1.776 0-2.757 1.458-3.029 3.007h4.738zM271.8 95.125a9.269 9.269 0 0 1-1.367.114c-.433 0-.911-.046-1.275-.114l2.938-16.63a9.258 9.258 0 0 1 1.321-.091c.456 0 .957.023 1.321.091l-2.938 16.63zM284.965 90.067h-7.312v.433c.022 1.846.889 2.803 2.848 2.803 1.207 0 2.187-.16 3.03-.388a7.19 7.19 0 0 1 .068 1.959c-.912.319-2.073.479-3.6.479-3.395 0-5.058-1.891-5.058-4.966 0-3.736 1.981-7.358 6.311-7.358 2.711 0 4.123 1.64 4.123 4.214 0 .819-.159 1.891-.41 2.824zm-2.255-2.005c.045-.228.091-.615.091-.911 0-1.139-.364-2.096-1.8-2.096-1.776 0-2.757 1.458-3.029 3.007h4.738zM291.09 95.353c-1.731 0-3.554-.273-4.693-.729l2.848-16.129c.365-.068.843-.091 1.299-.091.524 0 1.048.023 1.344.091l-.979 5.672c.798-.638 2.027-1.139 3.099-1.139 2.802 0 3.873 2.027 3.873 4.419-.002 4.056-2.006 7.906-6.791 7.906zm4.055-7.632c0-1.344-.433-2.483-1.959-2.483-.843 0-1.959.433-2.688 1.094l-1.185 6.789c.456.137 1.253.205 1.868.205 2.643-.001 3.964-2.689 3.964-5.605zM307.146 85.511c-1.23.114-2.916.661-4.032 1.458l-1.412 8.156c-.342.091-.889.114-1.345.114-.455 0-1.002-.046-1.298-.114l2.096-11.869a5.572 5.572 0 0 1 1.094-.114c.342 0 .797.045 1.07.114l-.137 1.777h.022c.979-1.002 2.916-1.982 4.374-2.004-.022.728-.204 1.867-.432 2.482zM318.876 83.917l-1.299 6.925c-.251 1.299-.364 2.848-.41 4.283-.342.091-.82.114-1.162.114a5.22 5.22 0 0 1-1.093-.114c-.046-.501-.046-1.139-.046-1.663h-.022c-.775 1.07-2.005 1.891-3.6 1.891-2.188 0-3.646-1.617-3.646-4.419 0-4.602 3.144-7.905 7.062-7.905 1.733-.001 3.259.387 4.216.888zm-2.916 1.366a4.713 4.713 0 0 0-1.39-.205c-2.393 0-4.237 2.437-4.237 5.65 0 1.686.614 2.392 1.617 2.392 1.116 0 2.142-.729 2.916-1.937l1.094-5.9zM326.708 95.034a9.12 9.12 0 0 1-2.574.342c-2.369 0-3.303-1.025-3.303-2.574 0-.365.113-1.254.342-2.529l.911-5.08h-1.937c-.046-.273-.022-.684.022-.957.046-.25.16-.615.273-.843l1.982-.114.523-3.076c.319-.068.911-.091 1.345-.091.455 0 1.002.022 1.298.091l-.523 3.053h3.371c.046.273 0 .638-.045.889a6.082 6.082 0 0 1-.297 1.048h-3.371l-.979 5.399c-.114.569-.205 1.298-.205 1.663 0 .615.364 1.024 1.229 1.024.729 0 1.458-.113 2.051-.273.07.615.002 1.504-.113 2.028zM338.392 90.067h-7.312v.433c.022 1.846.889 2.803 2.848 2.803 1.207 0 2.187-.16 3.03-.388a7.19 7.19 0 0 1 .068 1.959c-.912.319-2.073.479-3.6.479-3.395 0-5.058-1.891-5.058-4.966 0-3.736 1.981-7.358 6.311-7.358 2.711 0 4.123 1.64 4.123 4.214 0 .819-.159 1.891-.41 2.824zm-2.255-2.005c.045-.228.091-.615.091-.911 0-1.139-.364-2.096-1.8-2.096-1.776 0-2.757 1.458-3.029 3.007h4.738zM360.348 86.65l-3.918 8.475c-.319.091-.98.114-1.367.114-.433 0-1.094-.046-1.39-.114l-.752-7.951h-.022l-3.668 7.951c-.319.068-.911.114-1.299.114-.433 0-1.07-.046-1.321-.114l-1.116-9.112a9.509 9.509 0 0 1 .068-2.757c.364-.068.82-.114 1.253-.114s1.025.045 1.321.114a12.256 12.256 0 0 0-.113 2.757l.409 6.06h.046l3.827-8.793a8.306 8.306 0 0 1 1.208-.114c.387 0 .774.046 1.048.114l.911 8.884h.045l2.529-6.219c.364-.866.729-1.8.865-2.688a7.419 7.419 0 0 1 1.276-.114c.455 0 .979.045 1.229.114-.112 1.183-.544 2.254-1.069 3.393zM364.1 95.125c-.41.091-1.002.114-1.366.114-.434 0-.911-.046-1.253-.114l2.072-11.869a8.911 8.911 0 0 1 1.299-.114c.456 0 .935.045 1.321.114L364.1 95.125zm1.116-13.623c-.819 0-1.344-.615-1.344-1.321 0-1.071.729-1.686 1.686-1.686.752 0 1.413.569 1.39 1.298 0 1.002-.615 1.709-1.732 1.709zM374.123 95.034a9.12 9.12 0 0 1-2.574.342c-2.369 0-3.303-1.025-3.303-2.574 0-.365.113-1.254.342-2.529l.911-5.08h-1.937c-.046-.273-.022-.684.022-.957.046-.25.16-.615.273-.843l1.982-.114.523-3.076c.319-.068.911-.091 1.345-.091.455 0 1.002.022 1.298.091l-.523 3.053h3.371c.046.273 0 .638-.045.889a6.082 6.082 0 0 1-.297 1.048h-3.371l-.979 5.399c-.114.569-.205 1.298-.205 1.663 0 .615.364 1.024 1.229 1.024.729 0 1.458-.113 2.051-.273.069.615.001 1.504-.113 2.028zM380.521 84.258c1.048-.706 2.255-1.23 3.713-1.23 1.868 0 3.35.979 3.35 2.938 0 .592-.137 1.572-.365 2.779l-1.139 6.379c-.342.091-.911.114-1.275.114-.388 0-.979-.046-1.345-.114l1.14-6.288c.159-.843.228-1.595.228-1.959 0-1.07-.638-1.572-1.709-1.572-1.116 0-2.187.501-2.984 1.094l-1.549 8.725c-.456.068-1.025.114-1.412.114-.365 0-.843-.023-1.23-.114l2.938-16.63c.342-.068.866-.091 1.321-.091.456 0 1.003.023 1.321.091l-1.003 5.764zM404.184 90.318c-.615 3.622-1.891 5.058-5.581 5.058-2.938 0-4.374-1.003-4.374-3.145 0-.523.137-1.526.296-2.369l1.185-6.606a7.16 7.16 0 0 1 1.321-.114c.456 0 .979.022 1.321.114l-1.162 6.584c-.136.752-.25 1.549-.25 1.913 0 1.071.455 1.618 1.845 1.618 1.846 0 2.461-1.048 2.848-3.35l1.14-6.766c.318-.091.889-.114 1.344-.114.456 0 1.003.045 1.276.114l-1.209 7.063zM409.443 95.376c-1.253 0-2.643-.205-3.6-.593 0-.592.137-1.367.364-1.981.843.364 2.051.614 3.167.614 1.253 0 2.574-.318 2.574-1.571 0-.911-1.025-1.276-2.278-1.914-1.64-.843-2.483-1.776-2.483-3.303 0-2.529 2.233-3.599 4.784-3.599.957 0 2.142.205 2.803.433.022.114.022.228.022.342 0 .547-.159 1.139-.388 1.617a8.745 8.745 0 0 0-2.597-.41c-.957 0-2.051.296-2.051 1.39 0 .774.661 1.23 1.846 1.845 1.686.889 2.894 1.572 2.894 3.395 0 2.55-2.095 3.735-5.057 3.735z"/></g><g><path class="st13" d="M199.467 129.256l-1.553 8.28c-.299 1.552-.436 3.404-.49 5.12-.408.109-.98.136-1.389.136-.436 0-.98-.054-1.307-.136-.055-.6-.055-1.362-.055-1.988h-.027c-.926 1.28-2.397 2.261-4.304 2.261-2.615 0-4.358-1.934-4.358-5.284 0-5.502 3.759-9.451 8.443-9.451 2.072-.001 3.896.462 5.04 1.062zm-3.486 1.634a5.644 5.644 0 0 0-1.662-.245c-2.86 0-5.066 2.915-5.066 6.755 0 2.016.735 2.86 1.934 2.86 1.335 0 2.561-.872 3.486-2.315l1.308-7.055zM208.838 142.547c-.79.219-1.716.409-3.078.409-2.833 0-3.949-1.226-3.949-3.078 0-.436.136-1.498.409-3.023l1.089-6.073h-2.315c-.055-.327-.027-.817.027-1.145.054-.3.19-.735.327-1.008l2.37-.136.626-3.677c.381-.082 1.089-.109 1.607-.109.545 0 1.198.027 1.552.109l-.626 3.649h4.031c.055.327 0 .763-.054 1.062a7.288 7.288 0 0 1-.354 1.253h-4.031l-1.171 6.455c-.136.681-.245 1.553-.245 1.988 0 .735.436 1.226 1.471 1.226.872 0 1.743-.137 2.452-.327.08.736-.002 1.799-.138 2.425z"/></g><g><path class="st13" d="M242.261 114.383c0 1.38-.356 2.582-.846 3.606-1.647-.668-3.963-1.247-6.233-1.247-5.344 0-11.488 4.142-11.488 14.248 0 5.388 2.849 7.48 7.881 7.48 1.87 0 4.407-.4 6.233-.891.133.757.223 1.647.223 2.538 0 .713-.045 1.425-.179 2.004-1.87.579-4.72.979-7.213.979-8.593 0-12.556-4.542-12.556-11.755 0-12.155 7.792-19.234 16.964-19.234 2.85 0 5.299.668 7.169 1.558.045.269.045.536.045.714zM242.976 131.703c0-11.131 6.323-19.591 14.872-19.591 6.456 0 10.641 4.229 10.641 11.398 0 11.131-6.322 19.591-14.871 19.591-6.456.001-10.642-4.229-10.642-11.398zm19.903-7.881c0-4.765-1.647-7.169-5.344-7.169-5.477 0-8.949 7.658-8.949 14.738 0 4.764 1.647 7.168 5.343 7.168 5.477.001 8.95-7.658 8.95-14.737zM275.882 112.558a16.571 16.571 0 0 1 2.672-.223c.979 0 1.959.089 2.716.223l-4.542 25.602h13.135c.045.312.045.668.045.846 0 1.336-.268 2.627-.712 3.651h-18.612l5.298-30.099zM311.816 142.656h-18.3l5.299-30.099h17.632c.045.178.045.445.045.712 0 1.247-.356 2.538-.847 3.785h-12.244l-1.38 7.836h10.463c.045.223.045.49.045.802 0 1.157-.312 2.493-.846 3.695h-10.464l-1.514 8.771h12.778c.045.312.045.668.045.846.001 1.337-.267 2.628-.712 3.652zM338.133 142.656c-.758.134-1.737.223-2.85.223-1.024 0-2.093-.089-2.895-.223l-4.452-11.443h-3.429l-2.004 11.443c-.979.134-1.825.223-2.805.223-.891 0-1.736-.089-2.583-.223l5.299-30.099c1.87-.09 5.699-.223 7.926-.223 6.011 0 9.884 1.959 9.884 7.881 0 4.186-2.359 9.038-7.346 10.24l5.255 12.201zm-3.384-22.218c0-2.85-1.691-3.829-4.586-3.829-1.023 0-2.582.044-3.25.089l-1.647 10.151h2.983c4.051.001 6.5-2.404 6.5-6.411zM366.944 142.656c-.535.134-1.604.223-2.761.223-.891 0-2.315-.089-2.895-.223l-.979-6.901H349.89l-3.384 6.901c-.802.134-1.914.223-2.938.223-.891 0-2.404-.089-2.983-.223l15.228-30.099c.713-.134 2.048-.223 2.806-.223.801 0 2.092.089 2.805.223l5.52 30.099zm-7.303-11.353l-1.291-8.282a55.188 55.188 0 0 1-.49-4.007h-.178a70.112 70.112 0 0 1-1.825 4.186l-3.829 8.104h7.613zM376.34 142.656c-.801.134-1.691.223-2.716.223-.979 0-1.914-.089-2.671-.223l5.298-30.099a17.725 17.725 0 0 1 2.761-.223c.979 0 1.87.089 2.627.223l-5.299 30.099zM406.04 142.656c-.445.134-1.291.178-1.959.178-.624 0-1.381-.044-1.915-.178l-10.508-21.55-3.74 21.55c-.445.134-1.736.223-2.582.223-.757 0-1.781-.089-2.36-.223l5.299-30.099a15.13 15.13 0 0 1 2.093-.179c.712 0 1.603.045 2.137.179l10.241 20.793 3.651-20.793c.668-.134 1.78-.223 2.493-.223.712 0 1.825.089 2.449.223l-5.299 30.099zM430.886 142.656h-18.3l5.299-30.099h17.632c.045.178.045.445.045.712 0 1.247-.356 2.538-.847 3.785h-12.244l-1.38 7.836h10.463c.045.223.045.49.045.802 0 1.157-.312 2.493-.846 3.695H420.29l-1.514 8.771h12.778c.045.312.045.668.045.846 0 1.337-.267 2.628-.713 3.652z"/></g><g><path class="st13" d="M186.444 89.686c-.091-.173-.189-.329-.28-.501-2.38-5.093-5.663-9.219-9.208-12.542-1.043-1.042-1.977-1.873-2.702-2.418l-.008.062c-9.304-7.484-19.286-9.948-19.286-9.948l-19.993-.01s29.103 10.814 32.418 31.855h21.112c-.208-1.689-.645-3.802-2.053-6.498"/><path class="st13" d="M170.766 83.411c-5.297 23.432-16.288 46.309-33.237 46.309-12.663 0-18.38-9.8-18.38-32.88 0-34.717 14.295-77.401 36.758-77.401 16.135 0 18.586 16.748 18.586 32.881 0 3.779-.229 7.957-.669 12.343 2.572 1.721 4.748 3.503 6.592 5.304 1.895-2.211 6.051-5.383 14.391-5.504.339-4.059.517-8.12.517-12.143 0-30.429-11.642-48.81-39.417-48.81-35.738 0-57.59 46.359-57.59 93.33 0 26.958 9.393 48.811 39.211 48.811 24.663 0 42.131-21.828 51.034-49.517l-12.184-6.244c.001 0-3.51-4.036-5.612-6.479"/><path class="st13" d="M180.416 69.967c7.763 7.59 9.594 15.508 9.867 20.391 2.269-8.357 3.79-17.12 4.526-25.896-8.34.122-12.498 3.293-14.393 5.505"/><path class="st13" d="M195.54 64.362c-.2.032-.383.094-.581.129.001-.011.001-.023.003-.034-.053.002-.102.005-.154.005-8.339.121-12.498 3.291-14.393 5.502 7.763 7.593 9.594 15.511 9.867 20.391.161 2.931-.233 4.768-.233 4.768 5.117-12.033 9.175-26.546 29.709-30.75l-24.218-.011zM186.444 89.686c-.091-.173-.189-.329-.28-.501-2.38-5.093-5.663-9.219-9.208-12.542-1.043-1.042-1.977-1.873-2.702-2.418l-.008.062c-9.304-7.484-19.286-9.948-19.286-9.948l-19.993-.01s29.103 10.814 32.418 31.855h21.112c-.208-1.689-.645-3.802-2.053-6.498"/></g></g></svg>